<?xml version="1.0" encoding="utf-8"?>
<!-- Generator: Adobe Illustrator 24.0.0, SVG Export Plug-In . SVG Version: 6.00 Build 0)  -->
<svg version="1.1" id="Capa_1" xmlns="http://www.w3.org/2000/svg" xmlns:xlink="http://www.w3.org/1999/xlink" x="0px" y="0px"
	 viewBox="0 0 110.6 105.2" style="enable-background:new 0 0 110.6 105.2;" xml:space="preserve">
<style type="text/css">
	.st0{fill:#EFEFEF;}
	.st1{clip-path:url(#SVGID_2_);}
	.st2{fill:#262B5F;}
	.st3{fill:#D9D9D9;}
	.st4{fill:#454443;}
	.st5{fill:#FAFCFD;}
	.st6{opacity:0.11;}
	.st7{fill:#6C6C6C;}
	.st8{fill:#F6A32C;}
	.st9{opacity:0.5;}
	.st10{fill:#FFFFFF;}
	.st11{fill:#CDCDCC;}
	.st12{opacity:0.3;}
	.st13{fill:#EF8000;}
	.st14{fill:#484747;}
</style>
<g>
	<g>
		<g>
			<path class="st0" d="M101,17c0,1,0,2,0,3c0,0.9-0.5,1.5-1.4,1.5c-0.8,0-1.4-0.6-1.4-1.5c0-1.7,0-3.5,0-5.3c0-2.6-1.8-4.4-4.4-4.4
				c-1.8,0-3.5,0-5.3,0c-0.6,0-1.1-0.3-1.3-0.9C86.9,8.9,87,8.3,87.4,8c0.3-0.2,0.7-0.4,1.1-0.4c1.9,0,3.9-0.1,5.8,0
				c3.6,0.1,6.5,3,6.6,6.7C101,15.1,101,16,101,17C101,17,101,17,101,17z"/>
			<path class="st0" d="M54.4,63.6c-1.3-0.1-2.6,0-3.9-0.3c-3.1-0.6-5.4-3.3-5.5-6.5C45,54.9,45,53,45,51c0-0.9,0.6-1.5,1.4-1.5
				c0.8,0,1.4,0.6,1.4,1.5c0,1.8,0,3.5,0,5.3c0,2.5,1.8,4.3,4.3,4.4c1.8,0,3.6,0,5.4,0c1.2,0,1.8,1.1,1.3,2
				c-0.3,0.5-0.7,0.7-1.3,0.7c0,0-0.1,0-0.1,0C56.4,63.5,55.4,63.5,54.4,63.6C54.4,63.5,54.4,63.6,54.4,63.6z"/>
			<path class="st0" d="M101.1,54.1c-0.1,1.3,0,2.6-0.2,3.9c-0.6,3.1-3.3,5.5-6.5,5.6c-1.9,0.1-3.9,0-5.8,0c-0.9,0-1.5-0.6-1.5-1.4
				c0-0.8,0.6-1.4,1.5-1.4c1.8,0,3.5,0,5.3,0c2.6,0,4.4-1.8,4.4-4.4c0-1.8,0-3.5,0-5.3c0-0.6,0.3-1.2,0.9-1.3c0.4-0.1,1,0,1.4,0.2
				c0.3,0.2,0.5,0.7,0.5,1.1C101.1,52,101,53,101.1,54.1C101,54.1,101.1,54.1,101.1,54.1z"/>
			<path class="st0" d="M54.5,7.5c1,0,1.9,0,2.9,0c1,0,1.6,0.5,1.6,1.4c0,0.9-0.6,1.4-1.6,1.4c-1.7,0-3.5,0-5.2,0
				c-2.6,0-4.4,1.8-4.4,4.4c0,1.7,0,3.5,0,5.2c0,1-0.5,1.6-1.4,1.6c-0.9,0-1.4-0.6-1.4-1.6c0-1.9,0-3.8,0-5.7c0.1-3.6,3-6.5,6.6-6.6
				C52.6,7.5,53.5,7.5,54.5,7.5C54.5,7.5,54.5,7.5,54.5,7.5z"/>
		</g>
		<g>
			<g>
				<path class="st0" d="M53.4,21.5c0-0.8,0-1.7,0-2.5c0.1-1.7,1.4-3,3-3c1.7,0,3.4,0,5,0c1.7,0,3.1,1.4,3.1,3.1c0,1.6,0,3.3,0,4.9
					c0,1.7-1.4,3.1-3.1,3.1c-1.7,0-3.3,0-5,0c-1.7,0-3-1.4-3.1-3.1C53.4,23.2,53.4,22.3,53.4,21.5z M56.2,21.5c0,0.7,0,1.4,0,2.2
					c0,0.5,0.2,0.7,0.7,0.7c1.4,0,2.8,0,4.3,0c0.5,0,0.7-0.2,0.7-0.7c0-1.4,0-2.8,0-4.3c0-0.5-0.2-0.7-0.7-0.7c-1.4,0-2.8,0-4.3,0
					c-0.5,0-0.7,0.2-0.7,0.7C56.2,20.1,56.2,20.8,56.2,21.5z"/>
				<path class="st0" d="M87,15.9c0.8,0,1.7,0,2.5,0c1.7,0.1,3,1.4,3.1,3.1c0,1.7,0,3.3,0,5c0,1.7-1.4,3.1-3.1,3.1
					c-1.6,0-3.3,0-4.9,0c-1.7,0-3.1-1.4-3.1-3.2c0-1.6,0-3.2,0-4.9c0-1.7,1.4-3.1,3.1-3.2C85.4,15.9,86.2,15.9,87,15.9
					C87,15.9,87,15.9,87,15.9z M87,18.7c-0.7,0-1.4,0-2.1,0c-0.5,0-0.7,0.2-0.7,0.7c0,1.4,0,2.8,0,4.3c0,0.5,0.2,0.7,0.7,0.7
					c1.4,0,2.8,0,4.3,0c0.5,0,0.7-0.2,0.7-0.7c0-1.4,0-2.8,0-4.1c0-0.6-0.2-0.8-0.8-0.8C88.4,18.7,87.7,18.7,87,18.7z"/>
				<path class="st0" d="M59,55.1c-0.8,0-1.7,0-2.5,0c-1.7-0.1-3-1.4-3.1-3.1c0-1.7,0-3.4,0-5c0-1.6,1.4-3,3-3c1.7,0,3.4,0,5,0
					c1.7,0,3,1.4,3.1,3.1c0,1.7,0,3.3,0,5c0,1.7-1.4,3-3.1,3.1C60.6,55.1,59.8,55.1,59,55.1C59,55.1,59,55.1,59,55.1z M59,52.3
					c0.7,0,1.4,0,2.2,0c0.5,0,0.7-0.2,0.7-0.7c0-1.4,0-2.8,0-4.3c0-0.5-0.2-0.7-0.7-0.7c-1.4,0-2.8,0-4.3,0c-0.5,0-0.7,0.2-0.7,0.7
					c0,1.4,0,2.8,0,4.3c0,0.5,0.2,0.7,0.7,0.7C57.6,52.3,58.3,52.3,59,52.3z"/>
				<path class="st0" d="M75.8,29.9c0,1,0,1.9,0,2.8c0.5,0,0.9,0,1.3,0c0.9,0,1.5,0.6,1.5,1.4c0,0.8-0.6,1.4-1.5,1.4
					c-1.8,0-3.6,0-5.4,0c-0.9,0-1.5-0.6-1.5-1.4c0-0.8,0.6-1.3,1.4-1.4c0.4,0,0.8,0,1.3,0c0-1,0-1.9,0-2.8c-1.4,0-2.7,0-4.1,0
					c-0.9,0-1.5-0.6-1.5-1.4c0-0.8,0.6-1.4,1.4-1.4c2.8,0,5.6,0,8.4,0c0.8,0,1.4,0.6,1.4,1.4c0,0.8-0.6,1.4-1.4,1.4
					C76.8,29.9,76.3,29.9,75.8,29.9z"/>
				<path class="st0" d="M81.4,52.3c1,0,1.8,0,2.8,0c0-0.4,0-0.9,0-1.3c0-0.9,0.6-1.5,1.4-1.5c0.8,0,1.4,0.6,1.4,1.5
					c0,0.4,0,0.8,0,1.3c1,0,1.8,0,2.8,0c0-0.5,0-0.9,0-1.3c0-0.9,0.6-1.4,1.4-1.4c0.8,0,1.4,0.6,1.4,1.4c0,0.9,0,1.8,0,2.8
					c0,0.9-0.5,1.4-1.4,1.4c-3.7,0-7.4,0-11.1,0c-0.9,0-1.4-0.5-1.4-1.4c0-0.9,0-1.8,0-2.8c0-0.9,0.6-1.4,1.4-1.4
					c0.8,0,1.4,0.6,1.4,1.4C81.4,51.4,81.4,51.8,81.4,52.3z"/>
				<path class="st0" d="M75.8,43.9c0-0.9,0-1.8,0-2.8c-0.4,0-0.8,0-1.2,0c-0.9,0-1.6-0.6-1.5-1.4c0-0.8,0.6-1.4,1.5-1.4
					c0.9,0,1.7,0,2.6,0c1,0,1.5,0.6,1.5,1.5c0,1.8,0,3.6,0,5.4c0,1-0.6,1.5-1.5,1.5c-2.7,0-5.4,0-8.1,0c-0.9,0-1.6-0.6-1.5-1.4
					c0-0.8,0.6-1.4,1.5-1.4C71.2,43.9,73.4,43.9,75.8,43.9z"/>
				<path class="st0" d="M75.8,18.7c-0.3,0-0.5,0-0.8,0c-2,0-4,0-6,0c-1,0-1.6-0.6-1.6-1.4c0-0.8,0.6-1.4,1.6-1.4c2.7,0,5.3,0,8,0
					c1.1,0,1.6,0.5,1.6,1.6c0,1.7,0,3.4,0,5.1c0,1-0.6,1.6-1.4,1.7c-0.9,0-1.4-0.6-1.4-1.7C75.8,21.3,75.8,20.1,75.8,18.7z"/>
				<path class="st0" d="M84.2,43.9c1,0,1.9,0,2.8,0c0-0.4,0-0.8,0-1.2c0-1,0.5-1.5,1.5-1.5c0.9,0,1.8,0,2.6,0
					c0.9,0,1.5,0.6,1.5,1.4c0,0.8-0.6,1.3-1.5,1.4c-0.4,0-0.8,0-1.3,0c0,0.5,0,0.9,0,1.3c0,0.9-0.5,1.4-1.4,1.5c-1.8,0-3.7,0-5.5,0
					c-0.9,0-1.4-0.6-1.5-1.4c0-0.9,0-1.8,0-2.7c0-0.9,0.6-1.4,1.4-1.4c0.8,0,1.4,0.5,1.4,1.4C84.2,43,84.2,43.4,84.2,43.9z"/>
				<path class="st0" d="M70.2,52.3c0,0.5,0,0.9,0,1.3c0,0.9-0.6,1.5-1.4,1.5c-0.8,0-1.4-0.6-1.4-1.5c0-0.9,0-1.7,0-2.6
					c0-0.9,0.6-1.4,1.5-1.5c1.8,0,3.6,0,5.4,0c0.9,0,1.4,0.6,1.4,1.4c0,0.8-0.6,1.4-1.5,1.4C73,52.3,71.6,52.3,70.2,52.3z"/>
				<path class="st0" d="M64.6,32.7c0.5,0,0.9,0,1.4,0c0.9,0,1.4,0.6,1.4,1.4c0,0.8-0.6,1.4-1.4,1.4c-0.9,0-1.9,0-2.8,0
					c-0.8,0-1.3-0.6-1.4-1.4c0-0.4,0-0.9,0-1.4c-0.5,0-0.9,0-1.3,0c-0.9,0-1.6-0.6-1.5-1.4c0-0.8,0.6-1.4,1.5-1.4c0.8,0,1.7,0,2.5,0
					c1,0,1.6,0.6,1.6,1.6C64.6,31.9,64.6,32.2,64.6,32.7z"/>
				<path class="st0" d="M89.8,32.7c0-0.5,0-1,0-1.4c0-0.8,0.6-1.4,1.4-1.4c0.8,0,1.3,0.6,1.4,1.4c0,1.9,0,3.7,0,5.6
					c0,0.9-0.6,1.4-1.4,1.4c-0.8,0-1.3-0.6-1.4-1.4c0-0.4,0-0.8,0-1.3c-0.5,0-0.9,0-1.3,0c-0.9,0-1.5-0.6-1.5-1.4
					c0-0.8,0.6-1.3,1.4-1.4C88.9,32.7,89.3,32.7,89.8,32.7z"/>
				<path class="st0" d="M57.6,41.1c-0.9,0-1.8,0-2.6,0c-1,0-1.6-0.6-1.6-1.4c0-0.8,0.6-1.4,1.6-1.4c1.7,0,3.5,0,5.2,0
					c1,0,1.6,0.6,1.6,1.4c0,0.8-0.6,1.4-1.6,1.4C59.3,41.1,58.5,41.1,57.6,41.1z"/>
				<path class="st0" d="M84.2,34.1c0,0.9,0,1.8,0,2.7c0,0.9-0.6,1.5-1.4,1.5c-0.8,0-1.4-0.6-1.4-1.5c0-1.8,0-3.6,0-5.4
					c0-0.9,0.6-1.5,1.4-1.5c0.8,0,1.4,0.6,1.4,1.5c0,0,0,0.1,0,0.1C84.2,32.4,84.2,33.3,84.2,34.1z"/>
				<path class="st0" d="M70.2,24.3c-0.5,0-0.9,0-1.4,0c-0.8-0.1-1.4-0.6-1.4-1.4c0-0.8,0.6-1.4,1.4-1.4c0.9,0,1.8,0,2.8,0
					c0.9,0,1.4,0.6,1.4,1.4c0,0.8-0.6,1.3-1.4,1.4C71.1,24.3,70.6,24.3,70.2,24.3C70.2,24.3,70.2,24.3,70.2,24.3z"/>
				<path class="st0" d="M67.4,41.1c-0.5,0-0.9,0-1.4,0c-0.9-0.1-1.4-0.6-1.4-1.4c0-0.8,0.6-1.3,1.4-1.4c0.9,0,1.9,0,2.8,0
					c0.8,0,1.4,0.6,1.4,1.4c0,0.7-0.6,1.3-1.4,1.4C68.4,41.1,67.9,41.1,67.4,41.1C67.4,41.1,67.4,41.1,67.4,41.1z"/>
			</g>
			<path class="st0" d="M53.4,32.7c0-0.5,0-1,0-1.5c0-0.7,0.6-1.3,1.3-1.3c0.7,0,1.4,0.5,1.4,1.3c0,1,0,2.1,0,3.1
				c0,0.7-0.7,1.3-1.4,1.3c-0.7,0-1.3-0.6-1.3-1.3C53.4,33.7,53.4,33.2,53.4,32.7z"/>
		</g>
	</g>
	<g>
		<g>
			<defs>
				<polygon id="SVGID_1_" points="3.5,27.6 78.8,17 90.1,105.1 14.7,105.2 				"/>
			</defs>
			<clipPath id="SVGID_2_">
				<use xlink:href="#SVGID_1_"  style="overflow:visible;"/>
			</clipPath>
			<g class="st1">
				<g>
					<path class="st2" d="M65.8,115.3c0,0,1.9-1.9,4.5-2.4c0.1,0,0.1-0.1,0-0.1c-0.9,0-2.4,0.1-3.7,0.8
						C64.3,114.7,65.8,115.3,65.8,115.3z"/>
					<path class="st2" d="M65.3,113c0,0,1.7-1.8,3.7-2c0.1,0,0.1-0.1,0-0.1c-0.7-0.1-1.9,0-3,0.4C64.1,112.2,65.3,113,65.3,113z"/>
				</g>
				<g>
					<path class="st2" d="M73.9,58.2c0,0-3.2-1.6-6.4-0.9c-0.1,0-0.1-0.1,0-0.1c1.1-0.5,2.9-0.9,4.9-0.8
						C75.4,56.7,73.9,58.2,73.9,58.2z"/>
					<path class="st2" d="M72.1,55.2c0,0-2.6-0.8-5.1,0c-0.1,0-0.1-0.1,0-0.1c0.9-0.4,2.1-1,3.7-1C73.2,53.9,72.1,55.2,72.1,55.2z"
						/>
					<path class="st2" d="M71.5,53c0,0-2.3-0.7-4.2,0.1c-0.1,0-0.1-0.1,0-0.1c0.6-0.4,1.6-1,2.9-1C72.2,51.7,71.5,53,71.5,53z"/>
				</g>
				<g>
					<path class="st2" d="M73.3,95.7c0,0-1.9-3.1-5.1-4.1c-0.1,0,0-0.2,0.1-0.1c1.2,0.1,3,0.7,4.5,1.9
						C75.3,95.3,73.3,95.7,73.3,95.7z"/>
					<path class="st2" d="M73.2,92.2c0,0-1.7-2-4.3-2.6c-0.1,0,0-0.1,0-0.1c0.9,0.1,2.4,0.3,3.7,1C74.8,91.7,73.2,92.2,73.2,92.2z"
						/>
					<path class="st2" d="M75.2,90.9c0,0-1.6-1.9-3.6-2.2c-0.1,0-0.1-0.1,0-0.1c0.7,0,1.9,0,3,0.6C76.3,90.1,75.2,90.9,75.2,90.9z"
						/>
				</g>
				<g>
					<path class="st2" d="M26.9,101.9c0,0,1.5-3.2,4.6-4.6c0.1,0,0.1-0.1,0-0.1c-1.1,0.3-2.9,0.9-4.4,2.4
						C24.9,101.6,26.9,101.9,26.9,101.9z"/>
					<path class="st2" d="M25.1,98.8c0,0,1.7-2.1,4.2-2.9c0.1,0,0.1-0.1,0-0.1c-0.9,0.1-2.3,0.4-3.7,1.2
						C23.6,98.3,25.1,98.8,25.1,98.8z"/>
					<path class="st2" d="M24.9,95.7c0,0,1.8-1.6,3.8-1.7c0.1,0,0.1-0.1,0-0.1c-0.7-0.1-1.9-0.1-3,0.2
						C23.8,94.8,24.9,95.7,24.9,95.7z"/>
				</g>
				<g>
					<path class="st2" d="M23.9,120.7c0,0,1.8-3.1,1.3-6.3c0-0.1,0.1-0.1,0.1,0c0.4,1.1,0.8,3,0.5,4.9
						C25.2,122.3,23.9,120.7,23.9,120.7z"/>
					<path class="st2" d="M27.4,120.5c0,0,0.9-2.5,0.1-5.1c0-0.1,0.1-0.1,0.1,0c0.4,0.9,0.9,2.3,1,3.7
						C28.7,121.6,27.4,120.5,27.4,120.5z"/>
					<path class="st2" d="M30.4,120.3c0,0,0.4-2.4-0.7-4.2c0-0.1,0.1-0.1,0.1-0.1c0.5,0.6,1.2,1.4,1.4,2.6
						C31.7,120.8,30.4,120.3,30.4,120.3z"/>
				</g>
				<g>
					<g>
						<path class="st3" d="M44.9,69.3L44.9,69.3L44.9,69.3C44.9,69.3,44.8,69.3,44.9,69.3L44.9,69.3C16,83.6,24.7,120.9,24.7,120.9
							l26.9-3.8l0.1,0l26.9-3.8C78.5,113.3,76.6,75.2,44.9,69.3z"/>
					</g>
				</g>
				<g>
					<g>
						<path class="st4" d="M72.9,92C72.9,91.9,72.9,91.9,72.9,92C72.9,91.9,72.9,91.9,72.9,92c-0.3-0.7-0.6-1.3-0.9-1.8
							c-1.1-2.1-2.4-4.2-3.9-6.3c-0.1-0.2-0.4-0.5-0.5-0.7c-0.1-0.2-0.3-0.4-0.4-0.6c0,0,0-0.1-0.1-0.1c0.2-0.1,0.4-0.4,0.6-0.6
							c-0.1-0.1-0.2-0.3-0.4-0.4c0,0,0,0,0-0.1c-0.2,0.1-0.3,0.2-0.5,0.4c-0.1,0-0.2,0.1-0.2,0.1c-0.2,0.1-0.4,0.3-0.6,0.4
							c0,0,0,0,0,0.1c0.1,0.1,0.2,0.3,0.4,0.4c0,0.1,0.1,0.2,0.1,0.2l0,0c0.1,0.3,0.4,0.5,0.5,0.8c0.1,0.2,0.3,0.4,0.4,0.6
							c1.2,1.7,2.4,3.5,3.4,5.5c0.1,0.3,0.3,0.7,0.6,1c0.3,0.7,0.7,1.4,1,2c0,0.1,0,0.1,0.1,0.2c0-0.1,0-0.1,0-0.2
							C72.5,92.5,72.6,92.2,72.9,92z M27.6,119.8L27.6,119.8L27.6,119.8L27.6,119.8z M78.8,108.5c-0.3-1.9-0.8-4.3-1.5-7
							c-0.2-0.5-0.2-0.9-0.4-1.4s-0.4-1.1-0.5-1.6c-0.2-0.7-0.4-1.4-0.7-2c-0.2-0.4-0.3-0.7-0.4-1.1c-0.1-0.3-0.2-0.5-0.3-0.8
							c-0.2-0.5-0.5-1-0.6-1.5l0-0.1c-0.1-0.3-0.2-0.5-0.3-0.8c-0.1-0.2-0.2-0.4-0.3-0.6l0,0c0-0.1,0-0.1,0-0.1
							c-0.1-0.2-0.2-0.4-0.3-0.6c-0.3-0.7-0.7-1.5-1-2.1c0-0.1-0.1-0.3-0.2-0.4c-1-1.8-2.2-3.7-3.3-5.3c-0.1-0.2-0.3-0.5-0.5-0.7
							c-0.1-0.2-0.2-0.3-0.4-0.5c0-0.1-0.1-0.2-0.1-0.2c-0.1-0.1-0.2-0.3-0.4-0.4c0,0,0,0,0-0.1c-0.1-0.2-0.3-0.4-0.5-0.6
							c-0.9-1-1.8-2-2.8-2.9c-0.2-0.2-0.4-0.4-0.6-0.5c0,0,0,0,0-0.1c-0.8-0.8-1.8-1.5-2.7-2.2c-0.6-0.4-1.2-0.8-1.7-1.2
							c0,0,0,0-0.1,0c0,0,0,0-0.1-0.1c0,0,0,0-0.1-0.1c0,0-0.1,0-0.1-0.1c-1.6-1-3.3-1.9-5.1-2.7c-0.1,0-0.1-0.1-0.2-0.1l-0.1-0.1
							c-0.2-0.1-0.5-0.2-0.7-0.3l-0.1,0c0,0-0.1,0-0.1-0.1c-0.2-0.1-0.3-0.2-0.6-0.2c-0.5-0.2-1-0.4-1.5-0.5
							c-0.2-0.1-0.4-0.1-0.7-0.2c-0.2-0.1-0.4-0.1-0.7-0.2c-0.2-0.1-0.4-0.1-0.7-0.2c-1.2-0.4-2.4-0.6-3.6-0.9c-0.2,0-0.3,0-0.5,0.1
							c-0.9,0.4-1.8,0.9-2.5,1.4c-0.2,0.1-0.4,0.3-0.6,0.3c-0.2,0.1-0.4,0.3-0.6,0.3c-0.3,0.1-0.5,0.3-0.8,0.5
							c-2.7,1.7-5.1,3.8-7.2,6.1c-0.1,0-0.1,0.1-0.2,0.2c-0.1,0.1-0.1,0.1-0.2,0.2c0,0,0,0-0.1,0.1c0,0,0,0-0.1,0.1
							s-0.3,0.2-0.4,0.5c-0.2,0.2-0.5,0.5-0.6,0.8c-0.1,0.1-0.3,0.2-0.4,0.5c0,0,0,0-0.1,0.1c0,0,0,0-0.1,0.1l-0.1,0.1
							c-0.1,0.1-0.2,0.2-0.3,0.3c-0.4,0.6-0.8,1.2-1.1,1.6c-0.2,0.3-0.4,0.7-0.6,0.9c-0.1,0.1-0.2,0.2-0.2,0.3
							c0.5,0.2,0.4,0.4,0.4,0.5c0,0,0,0.1-0.1,0.1c0,0,0,0.1-0.1,0.1c-0.1,0.2-0.2,0.5-0.3,0.6c0,0.1-0.1,0.1-0.1,0.2
							c-0.2,0.5-0.4,0.8-0.7,1.2c-0.1,0.2-0.2,0.3-0.2,0.6c0,0,0,0-0.1,0.1l0,0.1c-0.1,0.1-0.2,0.3-0.2,0.5c-0.2,0.3-0.3,0.7-0.5,1
							c-0.1,0.2-0.2,0.5-0.3,0.8c0,0,0,0,0,0.1c-0.1,0.2-0.1,0.4-0.2,0.7c-1.3,3.4-2.2,7.2-2.7,11.1c0,0.4-0.1,0.9-0.1,1.4
							c-0.1,0.3-0.1,0.6-0.1,1.1c-0.1,0.3-0.1,0.7-0.1,1.1c-0.1,0.8-0.1,1.6-0.1,2.4c0,0.5,0,1.2-0.1,1.7s0,1,0,1.6
							c0.1,4.1,0.5,7.3,0.8,9.4c0.1,0.6,0.2,1.1,0.3,1.4l0,0c0,0.1,0,0.3,0.1,0.4s0,0.1,0,0.2s0,0.2,0,0.3l0,0.1
							c0.1,0.4,0.5,0.7,0.9,0.6l53.7-7.6c0.4-0.1,0.7-0.3,0.7-0.7l0-0.1c0,0,0,0,0-0.1s-0.1-0.4,0-0.7l0-0.1c0-0.1,0-0.2,0-0.3
							c-0.1-0.4-0.1-0.8-0.2-1.3c-0.1-0.4-0.1-0.8-0.2-1.3C78.9,109.1,78.8,108.8,78.8,108.5z M25.4,120.1L25.4,120.1
							c0-0.2-0.1-0.5-0.1-0.8c0-0.2-0.1-0.5-0.1-0.8c0-0.3-0.1-0.6-0.1-0.9c-0.5-3.3-0.9-8.6-0.4-14.7c0.1-0.3,0-0.6,0.1-0.9
							c0.1-0.3,0-0.5,0.1-0.8c0-0.2,0.1-0.3,0-0.5c0.1-0.6,0.1-1.2,0.3-1.8c0.1-0.5,0.2-1.1,0.3-1.6c0.1-0.7,0.3-1.5,0.5-2.3l0,0
							c0.1-0.3,0.1-0.6,0.3-1c0.3-1,0.5-2.1,0.9-2.9c0-0.1,0.1-0.1,0.1-0.2c0-0.1,0.1-0.1,0.1-0.2c0.1-0.2,0.1-0.4,0.2-0.6
							c0,0,0-0.1,0.1-0.1c0,0,0,0,0-0.1l0-0.1c0.1-0.1,0.1-0.2,0.2-0.3c0-0.1,0.1-0.1,0.1-0.2c0,0,0,0,0-0.1
							c0.1-0.2,0.2-0.5,0.3-0.8l0,0l0,0l0,0c0.2-0.6,0.6-1.2,0.8-1.8c0.1-0.2,0.2-0.5,0.3-0.7c0,0,0-0.1,0.1-0.1c0,0,0-0.1,0.1-0.1
							c0.1-0.1,0.2-0.3,0.2-0.5c0-0.1,0.1-0.1,0.1-0.2c0.2-0.5,0.5-0.9,0.7-1.4c0,0,0-0.1,0.1-0.1l0.1-0.1l0,0l0.1-0.1
							c0.1-0.1,0.1-0.1,0.2-0.2c0,0,0-0.1,0.1-0.1c0,0,0-0.1,0.1-0.1c0,0,0-0.1,0.1-0.1c0.1-0.2,0.3-0.3,0.3-0.6l0,0
							c0.4-0.5,0.7-1,1-1.5c0.1-0.1,0.2-0.2,0.3-0.3l0.1-0.1c0,0,0,0,0.1-0.1c0,0,0,0,0.1-0.1s0.3-0.3,0.4-0.5
							c0.2-0.2,0.4-0.5,0.5-0.7l0.1-0.1c0.1-0.1,0.1-0.1,0.2-0.2l0.1-0.1c0,0,0,0,0.1-0.1c0,0,0,0,0.1-0.1s0.3-0.2,0.4-0.4l0,0
							l0.1-0.1l0.1-0.1c0.2-0.2,0.5-0.5,0.6-0.7c2.1-2.1,4.3-3.9,7-5.5c0.2-0.1,0.4-0.3,0.7-0.4c0.2-0.1,0.5-0.3,0.8-0.4
							c0.5-0.3,0.9-0.4,1.4-0.7c0.6,0.1,1.3,0.2,1.9,0.5c0.3,0.1,0.6,0.1,0.9,0.2s0.5,0.1,0.8,0.2c1.3,0.3,2.6,0.8,3.8,1.3
							c0.2,0.1,0.4,0.1,0.7,0.2c0.2,0.1,0.3,0.2,0.6,0.2c0.1,0,0.1,0.1,0.2,0.1l0.1,0.1c0,0,0.1,0,0.1,0.1c0.9,0.4,1.7,0.9,2.6,1.3
							c0.1,0,0.1,0.1,0.2,0.1c0.1,0,0.1,0.1,0.2,0.1c0.2,0.2,0.5,0.2,0.7,0.4c1.5,0.9,2.9,2,4.2,3.2c1.3,1.2,2.6,2.4,3.8,3.7
							c0.1,0.2,0.3,0.4,0.5,0.6c0,0,0,0,0,0.1c0.1,0.1,0.2,0.3,0.4,0.4c0,0.1,0.1,0.2,0.1,0.2l0,0c0.1,0.3,0.4,0.5,0.5,0.8
							c0.1,0.2,0.3,0.4,0.4,0.6c1.2,1.7,2.4,3.5,3.4,5.5c0.1,0.3,0.3,0.7,0.6,1c0.3,0.7,0.7,1.4,1,2c0,0.1,0,0.1,0.1,0.2
							c0,0.1,0.1,0.2,0.1,0.3c0,0.1,0.1,0.3,0.2,0.4c0.1,0.3,0.2,0.6,0.3,0.8c0,0.2,0.1,0.3,0.2,0.5s0.1,0.3,0.2,0.5
							s0.1,0.3,0.2,0.5c1.6,6.1,2.5,11.3,3,14.5c0,0.3,0.1,0.7,0.1,1l0,0.2c0,0.3,0.1,0.6,0.1,0.8c0,0.3,0.1,0.6,0.1,0.8l0,0
							L25.4,120.1z"/>
					</g>
				</g>
				<g>
					<g>
						
							<ellipse transform="matrix(0.9902 -0.1394 0.1394 0.9902 -11.5973 7.4341)" class="st5" cx="47.3" cy="86.5" rx="16.2" ry="25.2"/>
					</g>
				</g>
				<g class="st6">
					<g>
						<path class="st7" d="M26.6,88.8c5.6,3.1,12.4,7.2,24.1,4.4C59.3,91.3,66,85.1,66.9,82c-5-7.5-10.3-11.2-22.1-13.3l0,0l0,0l0,0
							l0,0C33.6,74.1,29.2,79.9,26.6,88.8z"/>
					</g>
				</g>
				<g>
					<g>
						<path class="st8" d="M67.8,48.6c0,0,0.8-17.3-4.6-19.7s-12.8,8.9-12.8,8.9C43.2,36.2,38,37.9,38,37.9s-5.4,0.9-11,5.4
							c0,0-11.6-6.8-15.4-2.3s4.6,19.7,4.6,19.7l0,0c-1,3.6-1.6,7.7-1.7,12.4c-0.1,4,1.4,7.7,4.1,10.6c4.7,4.9,14.1,9.4,31.4,5.3
							c17.4-4,23.7-12.2,25.8-18.6c1.2-3.7,0.9-7.8-1-11.3C72.6,54.8,70.2,51.4,67.8,48.6L67.8,48.6z"/>
					</g>
				</g>
				<g>
					<g>
						<path class="st3" d="M67.8,48.6c0,0,0.8-17.3-4.6-19.7s-12.8,8.9-12.8,8.9C43.2,36.2,38,37.9,38,37.9s-5.4,0.9-11,5.4
							c0,0-11.6-6.8-15.4-2.3s4.6,19.7,4.6,19.7l0,0c-1,3.6-1.6,7.7-1.7,12.4c-0.1,4,1.4,7.7,4.1,10.6c4.7,4.9,14.1,9.4,31.4,5.3
							c17.4-4,23.7-12.2,25.8-18.6c1.2-3.7,0.9-7.8-1-11.3C72.6,54.8,70.2,51.4,67.8,48.6L67.8,48.6z"/>
					</g>
				</g>
				<g class="st9">
					<g>
						<path class="st10" d="M63.5,29.4c-5.4-2.4-12.8,8.9-12.8,8.9c-7.1-1.6-12.3,0.1-12.3,0.1s-5.4,0.9-11,5.4
							c0,0-11.6-6.8-15.4-2.3c-1.4,1.7-1.1,4.7-0.2,7.9c-0.5-2.6-0.5-4.9,0.7-6.3c3.2-3.9,12.3,0.6,14.8,2c0.3,0.3,0.9,0.2,1.2-0.1
							c3-2.3,5.9-3.5,7.7-4.2C36.1,41,36,41.2,36,41.4c0.3,1.1,2.5,1.4,5,0.9c2.5-0.6,4.3-2,4.1-3l0,0c1.6,0,3.3,0.2,5.2,0.5
							c0.4,0,0.9-0.1,1.1-0.5C53,37,59.1,29,63.7,31c1.7,0.7,2.7,2.9,3.4,5.4C66.6,33.1,65.4,30.3,63.5,29.4z"/>
					</g>
				</g>
				<g>
					<g>
						<path class="st5" d="M24.2,46.2c0,0-6.2-3.6-8.2-1.2c-1.9,2.2,2.5,10.2,2.5,10.2C20,51.5,22,48.6,24.2,46.2z"/>
					</g>
				</g>
				<g>
					<g>
						<path class="st5" d="M54.7,39.1c0,0,4.1-6,6.7-4.8c2.8,1.2,2.4,10.3,2.4,10.3C60.7,42,57.6,40.2,54.7,39.1z"/>
					</g>
				</g>
				<g>
					<g>
						<path class="st5" d="M63.3,66.6c-2.6,2.3-5.2-1-9.9-2.4c-4.7-1.3-9.1-0.1-9.1-0.1S40,65,36.3,68.4c-3.6,3.3-4.6,7.5-7.8,6.5
							c-3.4-1-8.4-3.4-13.7-0.3c0.1,0.8,0.2,1.6,0.3,2.3c0.6,2.5,1.8,4.9,3.8,6.8c4.7,4.9,14.1,9.4,31.4,5.3
							c17.3-4,23.6-12.2,25.7-18.6c0.8-2.4,1-5,0.4-7.6c-0.3-0.8-0.5-1.6-1-2.4C69.3,59.8,65.9,64.3,63.3,66.6z"/>
					</g>
				</g>
				<g>
					<g>
						<path class="st4" d="M53.7,71.1c0.3,0.4,0.3,0.9,0.4,1.3c0,0.5-0.2,1-0.4,1.4c-0.1,0.1-0.2,0.2-0.2,0.3
							c-0.1,0.1-0.2,0.2-0.3,0.2c-0.1,0.1-0.2,0.1-0.3,0.2c-0.1,0.1-0.2,0.1-0.3,0.2c-0.2,0.1-0.4,0.3-0.6,0.4L52,75.4l-0.2,0.1
							l-0.3,0.1c-0.1,0-0.2,0-0.3,0.1c-0.1,0-0.2,0-0.4,0.1S50.3,76,50.1,76c-0.5,0.1-0.9-0.1-1.5-0.2c-0.4-0.1-0.9-0.3-1.3-0.5
							c-0.1-0.1-0.2-0.1-0.3-0.2c-0.1-0.1-0.2-0.2-0.2-0.2c-0.1-0.1-0.2-0.2-0.2-0.2c-0.1-0.1-0.1-0.2-0.2-0.3l0,0
							c-0.1-0.1-0.1-0.2-0.3-0.4c-0.1-0.5-0.3-1.1-0.3-1.6c-0.1-0.4,0.2-0.9,0.6-0.9s0.9,0.2,0.9,0.6l0,0l0,0
							c0.1,0.5,0.3,1.1,0.4,1.6c0,0.1,0,0.3,0,0.4l0,0c-0.1,0.1-0.1,0.2-0.2,0.3s-0.1,0.2-0.2,0.3c-0.1,0.1-0.1,0.2-0.2,0.3
							c-0.1,0.1-0.1,0.2-0.2,0.3c-0.3,0.3-0.5,0.8-0.9,1.1c-0.7,0.6-1.6,1.2-2.6,1.2l-0.4,0.1l-0.2,0c-0.1,0-0.1,0-0.2,0
							c-0.2-0.1-0.4,0-0.7-0.1c-0.1,0-0.2-0.1-0.3-0.1s-0.2-0.1-0.3-0.2c-0.1,0-0.2-0.1-0.3-0.2c-0.1-0.1-0.2-0.1-0.3-0.2
							c-0.5-0.2-0.8-0.6-1-1.1c-0.3-0.4-0.3-0.9-0.3-1.3c0-0.1,0.1-0.1,0.2-0.1c0,0,0.1,0,0.1,0.1l0,0c0.2,0.4,0.5,0.7,0.7,0.8
							c0.2,0.2,0.6,0.3,0.9,0.5c0.1,0,0.1,0.1,0.2,0.1c0.1,0,0.1,0.1,0.2,0.1c0.1,0,0.2,0,0.2,0.1c0.1,0,0.2,0,0.2,0.1
							c0.2,0,0.3,0.1,0.5,0l0.1,0l0.1,0l0.2,0c0.1,0,0.2,0,0.2,0c0.1,0,0.2,0,0.2,0c0.1,0,0.3-0.1,0.4-0.2c0.3-0.1,0.6-0.3,0.8-0.5
							c0.3-0.2,0.5-0.5,0.7-0.7c0.1-0.1,0.1-0.1,0.2-0.2c0.1-0.1,0.1-0.1,0.2-0.2c0.1-0.1,0.1-0.1,0.1-0.2s0.1-0.1,0.1-0.2l0,0.4
							c-0.1-0.5-0.3-1.1-0.3-1.6l1.5-0.3c0.1,0.5,0.3,1.1,0.3,1.6l-0.3-0.4c0,0,0.1,0.1,0.2,0.2c0.1,0.1,0.1,0.1,0.2,0.2
							c0.1,0.1,0.1,0.1,0.2,0.2c0.1,0.1,0.1,0.1,0.2,0.2c0.3,0.2,0.7,0.3,1,0.4c0.1,0,0.1,0.1,0.2,0.1c0.1,0,0.1,0.1,0.2,0.1
							c0.1,0,0.2,0,0.2,0.1c0.1,0,0.2,0,0.2,0c0.2,0,0.3,0,0.5-0.1c0.1,0,0.2,0,0.2,0c0.1,0,0.2,0,0.2,0c0.1,0,0.2,0,0.2,0l0.1,0
							l0.1,0c0.2-0.1,0.3-0.1,0.5-0.3c0.1,0,0.2-0.1,0.2-0.1c0.1,0,0.1-0.1,0.2-0.1c0.1,0,0.1-0.1,0.2-0.1c0.1,0,0.1-0.1,0.2-0.1
							c0.3-0.2,0.5-0.5,0.6-0.8c0.2-0.3,0.2-0.7,0.3-1.1l0,0C53.5,71.1,53.6,71,53.7,71.1C53.7,71,53.7,71.1,53.7,71.1z"/>
					</g>
				</g>
				<g>
					<g>
						<path class="st4" d="M75.7,58.6c-2.1-3.9-4.5-7.4-7-10.3c0-1.2,0.2-4.8-0.3-8.7c-0.7-6.5-2.3-10.3-4.8-11.4
							c-5.3-2.4-12,6.6-13.5,8.8c-6.6-1.4-11.5-0.1-12.1,0.1c-0.6,0.1-5.6,1.1-10.8,5.3c-2.4-1.4-12.3-6.5-16-2
							c-1.8,2.1-1.5,6.3,0.8,12.4c1.4,3.8,3.1,7,3.6,7.9c-1,3.8-1.6,7.9-1.7,12.3c-0.1,4.2,1.5,8.2,4.4,11.2c2.1,2.1,4.6,3.8,7.6,5
							c0.1,0.1,0.3,0.2,0.5,0.2l0,0c0.1,0,0.1,0.1,0.2,0.1c0.2,0.1,0.4,0.1,0.7,0.2c0,0,0,0,0.1,0l0,0l0.1,0
							c0.3,0.1,0.5,0.1,0.9,0.3c0.3,0.2,0.8,0.2,1.2,0.4c0.1,0,0.1,0,0.2,0.1c0,0,0,0,0.1,0c0.6,0.1,1.2,0.3,1.8,0.4
							c2.6,0.5,5.2,0.6,8.1,0.4c0.3,0,0.5-0.1,0.8,0l0.1,0l0,0l0.1,0c0.3,0,0.5-0.1,0.8,0c1,0,2.1-0.2,3.1-0.3
							c0.5-0.1,1-0.1,1.5-0.2c0.3,0,0.5-0.1,0.8-0.1c1.1-0.2,2.3-0.4,3.5-0.7l0.1,0l0.1,0c4.8-1.1,9.1-2.6,12.7-4.6
							c1-0.6,1.9-1.1,2.8-1.6c0.2-0.1,0.4-0.3,0.5-0.4l0,0l0,0c0.2-0.1,0.4-0.3,0.6-0.4c0.3-0.1,0.5-0.4,0.8-0.5
							c0.5-0.4,0.9-0.8,1.4-1.1c0.3-0.2,0.6-0.5,0.8-0.7c0.5-0.4,0.8-0.7,1.2-1.1c0.6-0.7,1.3-1.4,1.9-2.1c1.6-2,2.7-4.2,3.5-6.6
							c0.2-0.3,0.2-0.7,0.3-1s0.1-0.6,0.2-1c0.1-0.3,0.1-0.5,0.1-0.8C77.8,64.6,77.3,61.4,75.7,58.6z M41,89.6L41,89.6l-0.2,0
							c-0.3,0-0.5,0.1-0.8,0c-3.3,0.2-6.3-0.1-8.7-0.5c-0.5-0.1-1.2-0.3-1.7-0.4c-0.2-0.1-0.4,0-0.5-0.1c-0.1,0-0.1,0-0.1-0.1
							l-0.1,0l-0.1,0c-0.2-0.1-0.5-0.1-0.8-0.2l0,0c-0.2-0.1-0.5-0.1-0.8-0.2c-0.1-0.1-0.3-0.1-0.4-0.1c-0.1-0.1-0.2-0.1-0.3-0.2
							c-3.1-1.2-5.4-2.9-7-4.6c-2.3-2.4-3.7-5.6-3.9-8.9c0-0.3,0-0.6,0-0.9c0.1-4.4,0.7-8.5,1.7-12.2c0.1-0.2,0-0.4-0.1-0.6
							c-1.8-3.3-5.5-11.1-5.6-15.8c0-1.3,0.2-2.3,0.8-2.9c2.8-3.3,11.3,0.7,14.4,2.5c0.3,0.2,0.6,0.1,0.9,0
							c5.3-4.3,10.5-5.2,10.6-5.2l0.1,0c0.1,0,5.1-1.6,11.9,0c0.3,0.1,0.7-0.1,0.9-0.3c2-3,7.8-10.4,11.8-8.6c0.8,0.3,1.5,1.1,2,2.2
							c2.2,4.3,2.4,13,2.2,16.8c0,0.2,0.1,0.4,0.2,0.6c0.7,0.8,1.5,1.8,2.3,2.7c0.2,0.3,0.4,0.6,0.6,0.7c0.3,0.5,0.6,0.8,0.9,1.3
							l0,0c0.3,0.4,0.5,0.8,0.8,1.1s0.5,0.9,0.8,1.3s0.7,1.1,1,1.6c0.3,0.5,0.5,0.9,0.7,1.4c0.1,0.3,0.3,0.6,0.4,0.9
							c1.1,2.6,1.5,5.4,0.9,8.2c-0.1,0.4-0.2,1-0.3,1.4c0,0,0,0.1-0.1,0.1c-0.3,0.9-0.7,1.8-1.2,2.8l0,0l0,0
							c-0.6,1.1-1.3,2.4-2.2,3.5c-1.2,1.6-2.9,3.2-4.9,4.6c-0.1,0.1-0.3,0.2-0.4,0.3c-0.1,0.1-0.2,0.1-0.3,0.2
							c-0.2,0.1-0.4,0.3-0.6,0.4c-0.8,0.5-1.6,1.1-2.5,1.5c-2.1,1.1-4.7,2.2-7.6,3.3l0,0c-0.8,0.2-1.7,0.6-2.6,0.8l0,0
							c-0.4,0.1-0.7,0.2-1.1,0.3l-0.1,0c0,0-0.1,0-0.2,0c-0.4,0.2-0.9,0.2-1.3,0.3l0,0c0,0,0,0-0.1,0c-0.9,0.2-1.9,0.5-2.8,0.6
							c-0.3,0-0.6,0.1-0.9,0.1c-0.1,0-0.1,0-0.2,0c-0.2,0-0.4,0.1-0.6,0.1c-0.3,0-0.6,0.1-0.8,0.1l-0.2,0l0,0l-0.1,0
							c-0.4,0.1-0.7,0.1-1.1,0.2c-0.4,0.1-0.9,0.1-1.3,0.2C41.6,89.6,41.3,89.6,41,89.6z"/>
					</g>
				</g>
				<g>
					<g>
						<g>
							<path class="st5" d="M53.2,68.3c-1.2,1.3-0.6,3.5,1,5.1c1.7,1.5,4,1.6,5.1,0.3L53.2,68.3z"/>
						</g>
						<g>
							<path class="st2" d="M59.3,73.9c-0.6,0.5-1.3,0.8-2.3,0.7c-0.9-0.1-2-0.4-2.9-1.3c-0.8-0.7-1.4-1.7-1.6-2.7
								c-0.2-1,0-1.9,0.6-2.6l0.1,0.1c-0.5,0.6-0.7,1.5-0.5,2.4c0.2,0.9,0.8,1.9,1.6,2.6c0.8,0.7,1.8,1.1,2.8,1.2
								c0.9,0.1,1.7-0.2,2.3-0.8l0.1,0.1C59.4,73.7,59.4,73.7,59.3,73.9z"/>
						</g>
					</g>
					<g>
						<g>
							<path class="st4" d="M53.2,68.3c-0.1,0.4-0.2,1-0.2,1.4c0.1,0.4,0.1,0.8,0.3,1.2c0.3,0.8,0.8,1.3,1.4,1.9s1.3,1,2.1,1.2
								c0.8,0.2,1.6,0.3,2.6-0.3c-0.1,0.4-0.6,0.9-1.1,1.1c-0.5,0.3-1.1,0.4-1.6,0.3c-1.2,0-2.2-0.5-3-1.2c-0.8-0.7-1.5-1.7-1.6-2.8
								c-0.1-0.5-0.1-1.1,0.2-1.7C52.4,68.9,52.7,68.4,53.2,68.3z"/>
						</g>
					</g>
				</g>
				<g>
					<g>
						<g>
							
								<ellipse transform="matrix(0.7913 -0.6114 0.6114 0.7913 -29.5016 29.8629)" class="st5" cx="29" cy="58.1" rx="3.7" ry="0.9"/>
						</g>
					</g>
					<g>
						<g>
							
								<ellipse transform="matrix(0.9972 -7.463004e-02 7.463004e-02 0.9972 -3.7701 4.0407)" class="st5" cx="52.2" cy="52.5" rx="3.3" ry="0.9"/>
						</g>
					</g>
					<g>
						<g>
							<g>
								<path class="st4" d="M36.1,63.8c-0.3-0.2-0.7-0.3-1.1-0.5c-0.3-0.2-0.7-0.2-1-0.4c-0.3-0.1-0.6-0.1-1-0.2
									c-0.2,0-0.3-0.1-0.4,0c-0.1,0-0.1,0-0.2,0l-0.2,0c-0.1,0-0.3,0-0.5,0.1s-0.3,0-0.5,0.1l-0.2,0c-0.1,0-0.2,0-0.2,0l-0.2,0
									c-0.1,0-0.1,0-0.2,0.1c-0.3,0.1-0.6,0.3-0.9,0.5c-0.1,0.1-0.3,0.2-0.4,0.4c-0.1,0.1-0.1,0.1-0.2,0.2
									c-0.1,0.1-0.1,0.1-0.2,0.2l-0.1,0.1c-0.1,0.1-0.3,0.1-0.5,0c-0.1-0.1-0.1-0.2-0.1-0.2c0-0.1,0-0.1,0-0.2c0-0.1,0-0.1,0-0.2
									c0-0.1,0.1-0.2,0.1-0.3s0.1-0.2,0.2-0.3l0.1-0.2l0.1-0.1c0.2-0.5,0.5-0.8,1-1.2c0.4-0.4,0.9-0.5,1.3-0.7L31,61
									c0.1,0,0.2,0,0.3,0l0.3,0c0.1,0,0.1,0,0.2,0l0.2,0l0.4-0.1c0.1,0,0.2,0,0.4,0c0.1,0,0.2,0,0.4,0c0.1,0,0.2,0.1,0.3,0.1
									c0.4,0.1,1,0.3,1.3,0.5c0.5,0.2,0.8,0.5,1.1,0.9c0.1,0.2,0.3,0.4,0.4,0.6c0.1,0.2,0.3,0.4,0.3,0.6c0,0.2,0,0.4-0.2,0.5
									C36.4,63.9,36.3,63.9,36.1,63.8L36.1,63.8z"/>
							</g>
						</g>
						<g>
							<g>
								<path class="st4" d="M49.7,59.8c0-0.2-0.1-0.5,0-0.7c0-0.2,0-0.4,0.1-0.6c0.1-0.4,0.3-0.9,0.5-1.3s0.5-0.8,1-1.2
									c0.1-0.1,0.2-0.1,0.3-0.2c0.1-0.1,0.2-0.1,0.3-0.2c0.1,0,0.2-0.1,0.3-0.1l0.4-0.2l0.2,0c0.1,0,0.1,0,0.2,0l0.3,0
									c0.1,0,0.2,0,0.3,0l0.4-0.1c0.5-0.1,1,0,1.5,0.1c0.5,0.1,1,0.3,1.3,0.5l0.1,0.1l0.1,0.1c0.1,0.1,0.2,0.2,0.2,0.3
									c0.1,0.1,0.1,0.2,0.2,0.3c0,0.1,0.1,0.1,0.1,0.2c0,0.1,0,0.1,0.1,0.2c0.1,0.2,0.1,0.4-0.1,0.4c-0.1,0-0.2,0-0.3,0l-0.1-0.1
									c-0.1,0-0.1-0.1-0.2-0.1c-0.1,0-0.2-0.1-0.2-0.1c-0.2-0.1-0.3-0.1-0.5-0.1c-0.3-0.1-0.6-0.1-0.9-0.1c-0.1,0-0.2,0-0.2,0
									l-0.2,0c-0.1,0-0.2,0-0.2,0l-0.2,0c-0.2,0-0.3,0-0.5,0.2c-0.2,0-0.3,0.1-0.5,0.2l-0.2,0.1c-0.1,0-0.1,0.1-0.2,0.1
									c-0.1,0-0.3,0.1-0.4,0.3c-0.3,0.2-0.5,0.4-0.7,0.6s-0.5,0.5-0.7,0.8c-0.3,0.2-0.4,0.6-0.7,0.9l0,0c-0.1,0.1-0.4,0.2-0.5,0.1
									C49.7,60,49.7,59.9,49.7,59.8z"/>
							</g>
						</g>
					</g>
				</g>
				<g>
					<g>
						<path class="st11" d="M46.3,71.4c2-0.5,3.5-1.9,3.8-3.4c0.1-0.6-0.5-1.2-1.1-1l-7.2,1.6c-0.6,0.2-0.9,0.9-0.5,1.4
							C42.3,71.3,44.3,71.9,46.3,71.4z"/>
					</g>
					<g>
						<path class="st4" d="M50.2,66.7c-0.4-0.4-0.9-0.5-1.4-0.4l-7.2,1.6c-0.5,0.1-0.9,0.4-1.1,1c-0.1,0.4-0.1,1.1,0.2,1.4
							c0,0.1,0.1,0.2,0.2,0.3l0,0c0.1,0.2,0.4,0.4,0.6,0.5s0.5,0.4,0.8,0.5c0.9,0.5,2.1,0.6,3.2,0.6c0.1,0,0.2,0,0.2,0
							c0.2,0,0.4-0.1,0.6-0.1c0.2,0,0.5-0.2,0.7-0.2c0.6-0.2,1.2-0.5,1.7-0.9c0.3-0.1,0.5-0.4,0.6-0.6c0.2-0.2,0.4-0.5,0.5-0.7l0,0
							c0.4-0.5,0.6-1,0.7-1.7C50.7,67.6,50.6,67.1,50.2,66.7z M48.7,69.3L48.7,69.3c-0.2,0.1-0.3,0.2-0.4,0.4
							c-0.1,0.1-0.2,0.2-0.4,0.3c-0.3,0.2-0.6,0.4-1,0.6c-0.3,0.1-0.6,0.2-0.9,0.3c-0.8,0.2-1.6,0.2-2.4,0c-0.3-0.1-0.7-0.2-1-0.4
							c-0.2-0.2-0.5-0.2-0.7-0.4c0,0,0,0,0-0.1c-0.1-0.1-0.2-0.2-0.2-0.3c-0.1-0.1,0-0.2,0-0.3c0,0,0.1-0.1,0.2-0.2l7.2-1.6l0,0
							c0.1,0,0.2,0.1,0.2,0.1s0.1,0.1,0,0.3C49.4,68.4,49.2,68.8,48.7,69.3z"/>
					</g>
				</g>
				<g>
					<g>
						<g>
							<path class="st11" d="M28.7,75.6l18.2,10.6c0.2,0.1,0.2,0.4,0.1,0.6C47,87,46.7,87,46.5,86.9l-19-9.2c-0.6-0.3-0.8-1-0.5-1.6
								C27.3,75.5,28.1,75.3,28.7,75.6L28.7,75.6z"/>
						</g>
						<g>
							<path class="st2" d="M42.1,83.5L41.3,83l0-0.1l-0.4-0.2l-0.2-0.1l-0.4-0.2l-0.1,0l-0.1,0l-0.1,0l0,0l0.1,0l0.5,0.3l0.1,0.1
								l0.6,0.4l0.8,0.5C42.2,83.5,42.2,83.4,42.1,83.5z M46.9,86.1l-0.2-0.1l-3.8-2.2l-0.5-0.3l-0.3-0.2l-0.8-0.5l-0.4-0.2
								l-0.2-0.1l-0.4-0.2l-0.1-0.1l-0.1-0.1l0,0l-0.1,0L39.9,82l-0.4-0.2l-0.1-0.1l-0.1-0.1L39,81.5l-0.3-0.2l-0.1-0.1l-0.1-0.1
								l0,0l0,0L38.4,81L38.3,81l-0.7-0.3l-0.3-0.2l-1.7-1L34.7,79l-0.6-0.3l-0.5-0.3l-0.3-0.2l0,0l-0.1-0.1L33.1,78L33,77.9l0,0
								l-0.1-0.1l-0.5-0.3l-0.1-0.1L32,77.4l-0.8-0.5l-2.4-1.4c0,0-0.1,0-0.1-0.1c-0.3-0.2-0.7-0.1-1-0.1c-0.3,0.1-0.5,0.3-0.7,0.6
								c-0.2,0.3-0.1,0.7-0.1,1c0.1,0.3,0.3,0.5,0.6,0.7l2.6,1.3l0.3,0.2l0.2,0.1l0.1,0l0,0l0.1,0.1l0.1,0l0.5,0.2l0.1,0.1l0.5,0.2
								l0.1,0.1l0.5,0.2l1.9,1l0.8,0.4l0.1,0.1l0.1,0.1l0.8,0.4l0.7,0.4l0.7,0.3l0.1,0.1l0.1,0.1l0.5,0.2l0.3,0.2l0.3,0.2l0.2,0.1
								l0.1,0.1l0.1,0.1l0.3,0.2l0.1,0l0.1,0.1l0.3,0.2l0.4,0.2l1.3,0.6l0.9,0.4l0.1,0.1l0.8,0.4l2.1,1l0.9,0.4
								c0.1,0.1,0.2,0.1,0.3,0.1c0.2,0,0.3-0.1,0.4-0.2l0,0c0.1-0.1,0.1-0.2,0.1-0.4C47.1,86.3,47.1,86.2,46.9,86.1z M43.4,85.3
								l-0.8-0.4l-0.1,0l-0.9-0.4L40.4,84L40,83.8l-0.2-0.3l-0.1-0.1l-0.1,0l-0.3-0.2l-0.1-0.1l-0.1-0.1L39,83.1L38.9,83l-0.6-0.2
								l-0.1-0.1l-0.1-0.1L38,82.5l-0.7-0.3l-0.7-0.3l-0.8-0.4l-0.1-0.1l-0.1-0.1l-0.3-0.2l0,0l-0.5-0.2l-2.1-1l-0.5-0.2l-0.2-0.1
								l-0.3-0.2l-0.1-0.1l-0.5-0.2l-0.1,0l-0.2,0.1l0,0l-0.2-0.1L30.6,79l-0.3-0.2l-2.7-1.3c-0.3-0.2-0.4-0.3-0.5-0.6
								c-0.1-0.3-0.1-0.6,0-0.9c0.2-0.3,0.3-0.4,0.6-0.5c0.1,0,0.2,0,0.3,0c0.2,0,0.4,0.1,0.6,0.1c0,0,0,0,0.1,0l2.4,1.4l0.8,0.4
								l0.1,0.1l0.2,0.1l0.3,0.2l0.2,0.1l0.1,0.1l0,0l0.1,0l0.5,0.2l0.1,0.1l0.3,0.2l0.9,0.6l0.9,0.5l1.7,1l0.2,0.2l0.5,0.2l0.1,0.1
								l0.1,0.1l0.4,0.2l0.1,0.2l0.1,0.1l0.1,0.1l0.4,0.2l0.1,0l0.3,0.2l0.2,0.2l0,0l0.1,0.1l0,0l0.1,0l0.1,0l0.5,0.3l0.1,0.1
								l0.6,0.4l0.8,0.5l0.3,0.2l0.6,0.3l3.6,2.1l0.2,0.2c0.1,0.1,0.1,0.1,0.1,0.2c0,0.1,0,0.2-0.1,0.3c-0.1,0.1-0.3,0.2-0.5,0.1
								l-0.6-0.5L43.4,85.3z"/>
						</g>
					</g>
					<g>
						<g>
							<path class="st4" d="M42.2,83.5L42.2,83.5l-0.8-0.6l0-0.1L41,82.6l-0.3-0.1l-0.4-0.2l-0.1,0l-0.1,0l-0.1,0l0,0l-0.1,0l0,0
								l-0.1,0l-0.1,0l0-0.1l-0.6,0.1l0.1,0.1l0.1,0.1l0.4,0.2l0.1,0.1l0,0l0.1,0l0.1,0.1l0.5,0.2l0,0l1,0.6l0.9,0.5
								C42.2,84,42.2,83.8,42.2,83.5z M38.6,82.1l0.3,0.2c0-0.1,0-0.1-0.1-0.2L38.6,82.1z M34.9,80.6l-2.1-1
								c-0.1,0.2-0.2,0.3-0.1,0.5l2.1,1l0.3,0l0.2,0l0.4,0l-0.3-0.2L34.9,80.6z M47.7,86.3c0-0.3-0.2-0.5-0.4-0.6l-0.1,0l-4.3-2.5
								L42.5,83l-0.6-0.3l-0.3-0.2l-0.4-0.2L41,82.2l-0.1-0.1l-0.1-0.1l0,0l-0.6-0.3l-0.1-0.1l0,0l-0.1,0l-0.3-0.2l-0.3-0.2
								l-0.3-0.2L39,81.1L38.9,81l-0.1-0.1l-0.5-0.3l-0.1-0.1l-0.1-0.1L38,80.3l-2.2-1.2l-1.1-0.7L33.9,78l0,0l-0.1-0.1l-0.2-0.1
								l-0.4-0.2l-0.5-0.2l-0.1-0.1l-0.3-0.2l-1.1-0.7L29,75.1l0,0c0,0-0.1,0-0.1-0.1c-0.4-0.2-0.9-0.2-1.3-0.1
								c-0.5,0.1-0.8,0.5-1,0.8c-0.2,0.4-0.2,0.9-0.1,1.3c0.1,0.5,0.5,0.8,0.8,1l2.6,1.3l0.3,0.2l0.3,0.2l0.1,0l0.1,0.1l0,0l0,0
								l0.5,0.2l0.1,0.1l0.5,0.2l0.3,0.2l0.4,0.2l1.1,0.6l0.8,0.4l0.1,0.1l0.1,0.1l0.8,0.4l0.8,0.4l0.7,0.3l0.1,0.1l0.1,0.1l0.7,0.3
								l0.7,0.3l0.4,0.2l0.3,0.2l0.1,0.1l0.1,0.1l0.2,0.1l0.1,0.1l0.1,0l0.4,0.2l0.3,0.2l1.4,0.7l0.9,0.5l0.7,0.3l0.3,0.2l0.6,0.3
								l0,0l1.7,0.9l0.2,0.1c0.2,0.1,0.4,0.2,0.5,0.1c0.3,0,0.5-0.2,0.7-0.4C47.6,86.9,47.7,86.6,47.7,86.3L47.7,86.3z M39.9,83.1
								L39.9,83.1l-0.2,0l-0.1,0l0,0l-0.5-0.2l0,0l0,0L39,82.8l0,0l0,0l-0.1-0.1l-0.1-0.1l-0.6-0.3l-0.1-0.1l-0.6-0.3l-0.8-0.4
								l-0.1-0.1l-0.1-0.1l-0.8-0.4l-0.3-0.2L35,80.6l-2.2-1l-0.3-0.2L32,79.2l-0.1,0l-0.1-0.1l-0.5-0.2l-0.1-0.1l-0.1,0l-0.1,0
								l-0.2-0.2l-0.1-0.1l-0.1-0.1l-2.8-1.4c-0.1-0.1-0.2-0.2-0.3-0.3c0-0.2,0-0.3,0.1-0.5c0.1-0.1,0.2-0.2,0.3-0.3
								c0.1,0,0.1,0,0.2,0c0.1,0,0.2,0,0.3,0.1l0,0l2.6,1.5l0.5,0.2l0.1,0.1l0.3,0.2l0.3,0.2l0,0l0.1,0.1l0.1,0.1l0.2,0.1l0.5,0.3
								l0.1,0.1l0.1,0.1l1.5,0.9l0.7,0.4l1.1,0.7l0.7,0.4l0.1,0.1l0.1,0.1l0.5,0.3l0.2,0.1l0.5,0.2l0.3,0.2l0.1,0.1l0.1,0.1l0.1,0.1
								l0,0l0.1,0.1l0.1,0.1L39.9,83.1z"/>
						</g>
					</g>
				</g>
				<g>
					<g>
						<g>
							<path class="st11" d="M26.9,82.9l20.9-3.2c0.2,0,0.4,0.2,0.5,0.3c0,0.2-0.2,0.4-0.3,0.5l-20.6,4.7c-0.6,0.2-1.3-0.3-1.4-0.9
								C25.8,83.6,26.2,83,26.9,82.9L26.9,82.9z"/>
						</g>
						<g>
							<path class="st2" d="M40.8,82.1L40.8,82.1l-0.7,0.2l-0.1,0l-0.1,0l0,0l-0.1,0l0,0l-0.2,0l0,0.1l0.1,0l0.1,0l0,0l0.1,0l0,0
								l0.1,0l0.1,0.1l0.1,0l0.5-0.1C40.7,82.2,40.8,82.1,40.8,82.1L40.8,82.1l0.4,0l0-0.1L40.8,82.1z M47.7,79.6l-0.6,0.2l-4.3,0.7
								L42,80.5l-0.1,0l-0.7,0.1l-0.4,0l-0.1,0l-0.1,0l-0.8,0.2l-0.7,0.1l-0.2,0l-0.5,0l-0.1,0l-0.1,0l-0.2,0l-0.1,0l-0.2,0l-0.3,0
								l-0.5,0l-0.8,0.1l-0.8,0.2l-0.2,0l-0.1,0l-0.8,0.2L30.7,82l-0.4,0l-0.1,0l-0.3,0l-0.1,0l-0.1,0l-0.5,0.2l-0.1,0l-0.8,0.2
								l-0.1,0L27,82.8l-0.1,0c-0.3,0-0.6,0.2-0.8,0.5c-0.2,0.3-0.2,0.6-0.2,1c0,0.3,0.2,0.6,0.5,0.8c0.1,0.1,0.2,0.2,0.4,0.2
								c0.1,0,0.1,0,0.2,0s0.2,0,0.2,0c0.1,0,0.1,0,0.2,0l0.3,0l0.9-0.2l0.2,0l0.7-0.2l0.1,0l0.1,0l0.6-0.1l0.1,0l6.8-1.5l0.7-0.2
								l0.1,0l0.1,0l0.1,0l0.6-0.2l0,0l0.1,0l0.1,0l0,0l0.3,0l0.4-0.1l0.1,0l0.1,0l0.1,0l0.1,0l0.1,0l0.1,0l0.5-0.1l0.3,0l0.2,0
								l0.7-0.2l0.7-0.2l1.5-0.3l0,0l0.6-0.2l0,0l3.1-0.7c0.1,0,0.2-0.1,0.3-0.1c0.1-0.1,0.2-0.3,0.2-0.4
								C48.3,79.7,48,79.6,47.7,79.6z M42.7,81.6l-0.7,0.2l-0.7,0.2l-0.4,0l0,0l-0.7,0.2l-0.1,0l-0.1,0l0,0l-0.1,0l0,0l-0.2,0
								l-0.5,0.2l0,0l-0.1,0l-0.1,0l-0.1,0l-0.2,0l-0.5,0.1l-0.3,0l-0.1,0l-0.1,0l-0.8,0.3l-6.5,1.5l-0.2,0l-0.6,0.1l-0.1,0l0,0
								l-0.1,0l-0.7,0.2l-0.1,0l-0.9,0.2L27.3,85c-0.1,0-0.2,0-0.3,0c-0.1,0-0.1,0-0.2,0c-0.1,0-0.3-0.1-0.4-0.2
								c-0.2-0.2-0.4-0.4-0.4-0.7c0-0.3-0.1-0.6,0.1-0.8c0.2-0.2,0.4-0.4,0.7-0.4l0.1,0l1.2-0.2l0.1,0l0.9-0.2l0,0l0.7-0.1l0.1,0
								l0.1,0l0.1,0l0.2,0l0.4,0l4-0.6l0.8-0.2l0.1,0l0.2,0l0.8-0.2l0.8-0.1l0.4,0l0.5,0l0.1,0l0.1,0l0,0l0.1,0l0.1,0l0.7-0.1l0.1,0
								l0.5,0l0.8-0.2l0.1,0l0.1,0l0.5,0l0.5,0l0.3,0l0.8-0.1l4.6-0.7l0.5,0c0.2,0,0.4,0.1,0.4,0.2c0,0.1,0,0.2-0.1,0.3
								c0,0-0.1,0.1-0.2,0.1L42.7,81.6z"/>
						</g>
					</g>
					<g>
						<g>
							<path class="st4" d="M41.2,81.4L41.2,81.4l-0.9,0.2l-0.1,0l0,0l-0.1,0l-0.6,0.1l-0.1,0l-0.1,0l-0.1,0l-0.1,0l-0.4,0l-0.1,0
								l-0.1,0c0,0.1,0,0.1,0.1,0.2l0.1,0.1c0,0.1,0,0.1,0,0.2l0.1,0l0.1,0l0,0l0,0l0.6-0.1l0,0.1l0.1,0l0.1,0l0,0l0.1,0l0,0l0.1,0
								l0.1,0.1l0.1,0l0.3,0.2c0-0.1,0.1-0.2,0.1-0.3l0-0.1l0.1,0l0.3,0l0-0.1l0.7-0.2c0-0.2,0-0.4,0.1-0.5L41.2,81.4z M37.3,81.3
								l-0.8,0.1l-0.8,0.2l-0.2,0l-0.1,0l-0.8,0.2l-4,0.6l-0.1,0.5l4.8-0.7l0.8-0.2l0.1,0l0.2,0l0.8-0.2l0.6-0.1l0-0.1L37.3,81.3z
								 M48.8,79.9c0-0.3-0.1-0.5-0.3-0.5c-0.2-0.2-0.4-0.2-0.7-0.2l0,0l-0.1,0l-0.1,0l-1.5,0.2L43,79.9l-0.2,0l-0.7,0.1L41.5,80
								l-0.1,0l0,0l-0.1,0l-1,0.2l-1.2,0.2l-0.7,0.1l0,0l-0.1,0l-0.1,0l-0.6,0.1l-0.1,0l0,0l-0.1,0l-0.8,0.1l-0.8,0.2l-0.4,0l-0.2,0
								l-0.3,0l-0.2,0l-0.1,0l-0.8,0.2l-1.1,0.2l-0.1,0l-1.8,0.3l0,0l-0.3,0l-0.3,0l-0.1,0l-0.1,0l-0.2,0l-0.5,0l-0.5,0l-0.2,0
								L27.2,82l-0.1,0c-0.9,0.2-1.5,1.2-1.3,2.1c0.1,0.5,0.4,0.8,0.8,1.1c0.1,0.1,0.2,0.1,0.3,0.2c0.1,0,0.2,0.1,0.3,0.1
								c0.2,0,0.3,0,0.5,0l0.1,0l0.1,0l0.8-0.2l0.3,0l0.7-0.2l0.1,0l0.1,0l0.7-0.2l0,0l7.6-1.7l0.6-0.1l0.2,0l0.1,0l0.1,0l0.1,0
								l0.1,0l0.1,0l0.1,0l0.5-0.1l0.1,0l0.1,0l0.1,0l0,0l0.1,0l0.6-0.1l0.1,0l0.1,0l0.1,0l0.4,0l0.4,0l0.4-0.1l0.7-0.2l0.4-0.1
								l3.1-0.7l1.9-0.5c0.2,0,0.4-0.1,0.4-0.3c0.2-0.2,0.2-0.4,0.3-0.7l0-0.1L48.8,79.9C48.8,80,48.8,79.9,48.8,79.9z M40.3,81.4
								L40.3,81.4L40.3,81.4l-0.2,0l-0.6,0.1l0,0.2l-0.1,0l-0.1,0l-0.1,0l-0.4,0l-0.1,0l-0.1,0l-0.2,0L38,82l-0.1,0l-0.7,0.2l-0.1,0
								l-0.1,0l-0.7,0.2l-5.8,1.3l-0.3,0l-0.5,0.1L29.6,84l-1.6,0.3l-0.4,0.1l-0.1,0l-0.1,0c-0.1,0-0.3,0-0.4-0.1
								c-0.1-0.1-0.2-0.2-0.2-0.4c0-0.2,0-0.3,0.1-0.5c0.1-0.1,0.2-0.2,0.4-0.2l-0.5,0.1l0.8-0.2l0,0l0.9-0.2l0.3-0.1l0.7-0.1V83
								l0.1,0l0,0l0.1,0l0.3,0l0.4,0l4.8-0.7L36,82l0.1,0l0.2,0l0.8-0.2l0.6-0.1l0.1,0l0.6-0.1l0.4,0l0.1,0l0,0l0.2,0l0.1,0l0.4,0
								l0.5,0l0.4,0l0.1,0l0.1,0l0.8-0.1l0.1,0l0.7-0.1l0.8-0.1l0.7-0.1l-0.8-0.1l-0.7,0.2l-0.7,0.2l0,0L40.3,81.4z"/>
						</g>
					</g>
				</g>
				<g>
					<g>
						<g>
							<path class="st4" d="M49.1,88l-3.3-3.3c0,0-2.2-3.8-0.1-5.5c0,0,2.6,1.6,4-1.1c0,0,1.7,0.9,2.8-0.8c0,0,4.5,3.7,5.1,5.3
								C58,84.1,51.6,89.2,49.1,88z"/>
						</g>
					</g>
					<g>
						<g>
							<path class="st4" d="M53.3,86.2L53.3,86.2c-0.2,0.1-0.5,0.3-0.6,0.4c-0.2,0.1-0.3,0.1-0.5,0.2c-0.1,0-0.2,0.1-0.3,0.1
								c-0.2,0.1-0.3,0.1-0.4,0.2l-0.1,0l-0.1,0c-0.2,0.1-0.3,0.1-0.4,0.1l0.4,0.6c0.2-0.1,0.3-0.1,0.4-0.1l0.4,0.6l0.1,0l0.1,0
								c0.1,0,0.1,0,0.2-0.1c0.1,0,0.2-0.1,0.2-0.1s0.2-0.1,0.2-0.1l0.1,0l0.2-0.9l0.1,0l0.1-0.3L53.3,86.2L53.3,86.2z M45.2,78.6
								c-1.2,0.9-1.2,2.3-1.1,3.5c0.2,1.5,0.9,2.8,1,2.9c0,0.1,0,0.1,0.2,0.1l0.2,0.2l3.1,3.1c0,0,0,0.1,0.1,0l0,0c0,0,0,0.1,0.1,0
								c0.4,0.3,0.9,0.4,1.4,0.3c0.1,0,0.1,0,0.2,0l0,0l0.1,0c0.1,0,0.3,0,0.4-0.1l0.1,0l0.1,0c0.2-0.1,0.3,0,0.4-0.1l0.1,0l0.1,0
								c0.2-0.1,0.3-0.1,0.4-0.2l0.1,0l0.1,0c0.1,0,0.1,0,0.2-0.1c0.1,0,0.2-0.1,0.2-0.1s0.2-0.1,0.2-0.1l0.1,0l0.1,0
								c0.2-0.1,0.3-0.1,0.5-0.3l0.1,0c0.2-0.1,0.3-0.2,0.5-0.3l0.1,0l0.1,0c0.2-0.1,0.4-0.3,0.5-0.3c0.3-0.2,0.6-0.5,0.9-0.7
								c0.3-0.2,0.6-0.6,1-0.9c0.1-0.2,0.3-0.2,0.3-0.3s0.2-0.2,0.3-0.3c0.1-0.2,0.3-0.3,0.3-0.5l0-0.1l0,0l0,0c0,0,0.1,0,0-0.1
								c0.2-0.3,0.2-0.6,0.3-0.8c0-0.2,0-0.5,0-0.7c0,0,0-0.1-0.1-0.2s0-0.1-0.1-0.2c-0.3-0.6-0.7-1.2-1.3-1.9
								c0-0.1-0.2-0.1-0.2-0.2c-0.5-0.5-1.1-1.2-1.7-1.6c0,0,0,0,0-0.1c-0.8-0.7-1.4-1.2-1.8-1.6l0,0l0-0.1
								c-0.2-0.1-0.4-0.1-0.6-0.1c-0.2,0-0.3,0.1-0.5,0.3c-0.7,1.1-1.6,0.7-1.9,0.6c-0.2-0.1-0.4-0.1-0.5-0.1
								c-0.2,0.1-0.3,0.1-0.4,0.4c-0.3,0.6-0.8,1-1.3,1.1c-0.9,0.2-1.8-0.3-1.8-0.3C45.7,78.4,45.4,78.4,45.2,78.6z M53.8,79.3
								c0,0.1,0,0.1,0.2,0.1c0,0.1,0.1,0,0.2,0.1c0.5,0.5,1,0.9,1.4,1.3c0,0.1,0.2,0.1,0.2,0.1l0,0.1c0.3,0.3,0.6,0.7,0.8,1
								c0.2,0.2,0.3,0.5,0.4,0.6c0,0,0,0,0,0.1c0,0.1-0.1,0.2-0.1,0.4c-0.1,0.2-0.2,0.4-0.3,0.5c-0.3,0.3-0.6,0.8-1.1,1.2
								c0,0,0,0-0.1,0c-0.1,0.2-0.3,0.3-0.6,0.5l-0.1,0l-0.1,0c-0.2,0.1-0.2,0.2-0.4,0.3c-0.2,0.2-0.5,0.3-0.7,0.5l-0.1,0l-0.1,0
								c-0.2,0.1-0.4,0.3-0.5,0.3c-0.2,0.1-0.3,0.1-0.5,0.2c-0.1,0-0.2,0.1-0.3,0.1c-0.2,0.1-0.3,0.1-0.4,0.2l-0.1,0l-0.1,0
								c-0.2,0.1-0.3,0.1-0.4,0.1c0,0,0,0-0.1,0c-0.2,0.1-0.4,0.1-0.4,0.1l-0.1,0l-0.1,0c-0.2,0-0.4,0-0.5-0.1c0,0-0.1,0-0.1,0
								c0,0,0,0-0.1,0l-1.6-1.6l-0.2-0.1l-0.2-0.1l-0.7-0.8l-0.6-0.6c-0.2-0.5-1.5-3-0.5-4.3c0.5,0.3,1.4,0.5,2.3,0.2
								c0.7-0.2,1.4-0.7,1.9-1.3c0.2,0,0.4,0.1,0.6,0.1l0,0c0.5,0,1,0,1.4-0.3c0.2-0.1,0.4-0.3,0.6-0.5c0.2,0.1,0.3,0.3,0.5,0.4
								C53.2,78.8,53.5,79,53.8,79.3z"/>
						</g>
					</g>
					<g>
						<g>
							<circle class="st5" cx="52.7" cy="84.4" r="5.1"/>
						</g>
						<g>
							<path class="st2" d="M49.8,80c-0.9,0.6-1.5,1.4-1.9,2.3c-0.1,0.4-0.3,0.8-0.3,1.2l0,0c-0.2,0.8-0.1,1.4,0.1,2.1
								c0.1,0.5,0.4,1.1,0.7,1.6c0,0.1,0.1,0.2,0.2,0.3c0.5,0.6,0.9,1,1.6,1.4c0.1,0,0.2,0.1,0.3,0.2c0.2,0.1,0.5,0.2,0.7,0.3l0.1,0
								l0.1,0c0.2,0,0.4,0.1,0.6,0.1c0.1,0,0.1,0,0.2,0c0,0,0,0,0.1,0c0.1,0,0.3,0,0.4,0l0.1,0c0,0,0,0,0.1,0l0,0l0.1,0l0.1,0
								c0.1,0,0.1,0,0.2,0c0.1,0,0.1,0,0.2,0c0.1,0,0.1,0,0.2,0l0,0c0.2,0,0.4-0.1,0.4-0.1l0.1,0l0.1,0c0.2-0.1,0.4-0.1,0.5-0.1
								c0.3-0.1,0.7-0.3,0.9-0.5s0.6-0.5,0.8-0.8c0.7-0.7,1.2-1.6,1.3-2.5c0.1-0.4,0.2-1,0.1-1.4l0,0c0-0.1,0-0.2,0-0.2
								c-0.1-0.6-0.2-1.1-0.4-1.6c-0.1-0.2-0.2-0.5-0.4-0.8c-0.3-0.5-0.7-0.9-1.1-1.2l0,0c0-0.1-0.2-0.1-0.2-0.2l0,0
								c-0.3-0.3-0.7-0.4-0.9-0.6c-0.3-0.2-0.6-0.2-0.9-0.3c-1.1-0.2-2.2-0.2-3.3,0.3C50.3,79.7,50.1,79.8,49.8,80z M56.1,80.7
								L56.1,80.7L56.1,80.7c0.3,0.3,0.5,0.5,0.8,0.9c0.3,0.4,0.4,0.8,0.5,1.2c0.1,0.2,0.1,0.5,0.2,0.8l0,0c0,0.1,0,0.3,0.1,0.4
								c0,0.4,0,0.8-0.1,1.2c-0.2,1-0.6,1.8-1.3,2.6c0,0.1-0.2,0.2-0.3,0.3c-0.2,0.2-0.4,0.4-0.7,0.5c-0.3,0.2-0.5,0.3-0.9,0.5
								c-0.2,0.1-0.3,0.1-0.5,0.2l-0.1,0l-0.1,0c-0.2,0.1-0.4,0.1-0.4,0.1l-0.1,0l0,0l-0.1,0c-0.2,0.1-0.3,0-0.5,0l0,0l0,0l0,0
								c0,0,0,0-0.1,0l0,0c-0.2,0-0.3-0.1-0.5,0c0,0,0,0-0.1,0s-0.2,0-0.2-0.1c-0.2,0-0.4-0.1-0.6-0.1c0,0-0.1,0-0.1,0
								c0,0-0.1,0-0.1,0c-0.2,0-0.4-0.1-0.5-0.3l-0.1,0c-0.4-0.2-0.7-0.4-1-0.7c-0.3-0.3-0.6-0.6-0.8-1c-0.2-0.2-0.3-0.5-0.4-0.7
								c-0.1-0.2-0.1-0.3-0.3-0.6c-0.2-0.7-0.2-1.5-0.2-2.2c0-0.1,0-0.2,0-0.4c0.1-0.4,0.2-0.8,0.4-1.1l0-0.1
								c0.4-0.7,0.9-1.4,1.7-1.9c1.3-0.9,2.8-1,4.1-0.6c0.2,0.1,0.6,0.1,0.8,0.3C55.3,80,55.7,80.3,56.1,80.7z"/>
						</g>
					</g>
					<g class="st12">
						<g>
							<path class="st7" d="M49.9,80c-0.8,0.6-1.5,1.3-1.8,2.1c0.2-0.2,0.5-0.4,0.8-0.6c2.4-1.5,5.6-0.9,7.1,1.5
								c1,1.5,1.1,3.4,0.4,5c1.7-1.6,2.1-4.4,0.7-6.4C55.4,79.1,52.2,78.5,49.9,80z"/>
						</g>
					</g>
					<g>
						<g>
							
								<ellipse transform="matrix(0.7836 -0.6212 0.6212 0.7836 -41.22 51.2434)" class="st13" cx="53" cy="84.8" rx="2.5" ry="2.2"/>
						</g>
					</g>
					<g>
						<g>
							<path class="st4" d="M49.6,79.5c-1.3,0.9-2.2,2.1-2.5,3.6c-0.1,0.6-0.2,1.2-0.1,1.7c0,0.4,0.1,0.8,0.2,1.2
								c0.1,0.5,0.4,1,0.6,1.5c0.3,0.4,0.5,0.7,0.8,1l0,0c0.7,0.6,1.3,1.1,2.1,1.3c0.2,0.1,0.4,0.1,0.6,0.2c0,0,0.1,0,0.1,0
								c0,0,0.1,0,0.1,0c0.1,0,0.2,0,0.3,0.1c0.1,0,0.2,0,0.2,0c0.1,0,0.1,0,0.2,0l0.1,0l0,0l0,0c0.2,0,0.3,0,0.5,0l0,0l0.1,0l0.1,0
								l0,0l0.1,0l0.1,0c0.1,0,0.1,0,0.2,0c0.1,0,0.1,0,0.2-0.1l0.1,0l0.1,0l0.1,0c0.2-0.1,0.4-0.1,0.5-0.1c0.5-0.1,1-0.4,1.5-0.6
								c0.2-0.1,0.4-0.3,0.6-0.5c0.1,0,0.1,0,0.1-0.2l0,0c0.1,0,0.1,0,0.1-0.2c0.3-0.3,0.5-0.5,0.8-0.9c0.3-0.4,0.5-0.8,0.7-1.3
								c0.1-0.4,0.3-0.7,0.3-1.1c0.1-0.5,0.1-1.1,0-1.7c0-0.5-0.2-1-0.4-1.5c0-0.1,0-0.1-0.1-0.2c-0.1-0.3-0.3-0.6-0.5-0.9
								c-0.3-0.4-0.6-0.8-1-1.1c0-0.1-0.1,0-0.2-0.1c-0.3-0.3-0.7-0.6-1.1-0.8l0,0c-0.4-0.1-0.6-0.3-0.9-0.4l0,0
								c-0.4-0.1-0.9-0.2-1.3-0.2c-0.3-0.1-0.7,0-1,0c-0.5,0-1,0.2-1.4,0.3l0,0c-0.1,0-0.2,0.1-0.2,0.1
								C50.1,79.2,49.8,79.3,49.6,79.5z M55.6,80.9c0,0,0,0.1,0.1,0l0,0.1c0.3,0.3,0.5,0.5,0.8,0.8l0,0.1c0.1,0.2,0.3,0.5,0.3,0.7
								c0.1,0.3,0.2,0.7,0.3,1.1c0,0.1,0.1,0.2,0,0.3c0,0.3,0.1,0.6,0,0.9c0,0.4-0.1,0.8-0.3,1.2c-0.3,0.8-0.9,1.5-1.7,2
								c-0.2,0.1-0.3,0.2-0.5,0.3s-0.3,0.1-0.5,0.2l-0.1,0l-0.1,0c-0.2,0.1-0.3,0.1-0.5,0.1c-0.1,0-0.1,0-0.2,0.1l0,0
								C53.2,89,53,89,53,89l-0.1,0l-0.1,0l-0.1,0c-0.1,0-0.2,0-0.3,0l-0.1,0l-0.1,0l0,0c-0.2,0-0.4,0-0.6-0.1c0,0,0,0-0.1,0l-0.1,0
								c-0.2-0.1-0.5-0.2-0.6-0.3l-0.1,0l-0.1,0c0,0,0-0.1-0.1,0c-0.3-0.2-0.5-0.3-0.7-0.6c0-0.1-0.2-0.1-0.2-0.1
								c-0.2-0.2-0.4-0.4-0.5-0.7c-0.1-0.2-0.3-0.5-0.4-0.6c-0.2-0.4-0.3-0.9-0.3-1.2c-0.1-0.4,0-0.7,0-1.1l0-0.1l0-0.1
								c0,0,0-0.1,0-0.1c0.1-0.2,0.1-0.4,0.2-0.7c0,0,0,0,0-0.1c0,0,0,0,0-0.1s0.2-0.3,0.2-0.4c0.2-0.4,0.5-0.8,0.9-1.2
								c0.1-0.2,0.3-0.3,0.6-0.5C51.9,79.5,54.1,79.8,55.6,80.9z"/>
						</g>
					</g>
				</g>
				<g>
					<g>
						<path class="st8" d="M67,82.7"/>
					</g>
				</g>
				<g>
					<g>
						<path class="st3" d="M73.2,92.7c0,0,9.4-4.1,10.4-14.7s-8.1-12.2-9.4-5.9c-1.4,6.3-7,11.5-7,11.5S67,94.2,73.2,92.7z"/>
					</g>
				</g>
				<g>
					<g>
						<path class="st5" d="M80.2,87.1c1.7-2.2,3.1-5.2,3.5-9c1-10.6-8.1-12.2-9.4-5.9c-0.6,2.5-1.7,4.8-3,6.7
							C71.9,81.7,73.8,86.6,80.2,87.1z"/>
					</g>
				</g>
				<g>
					<g>
						<path class="st4" d="M73.5,93.5c-0.3,0-0.7-0.1-0.9-0.5c-0.2-0.4,0-0.8,0.4-1.1c0.1,0,8.9-4.1,9.9-14c0.5-5.5-1.7-8.3-4-8.7
							c-1.5-0.2-3.2,0.7-3.7,3c-1.4,6.5-7,11.7-7.3,12c-0.4,0.3-0.8,0.3-1.2,0c-0.3-0.4-0.3-0.8,0-1.2l0,0c0.1,0,5.5-5.2,6.8-11.2
							c0.6-2.9,2.9-4.7,5.5-4.3c3.1,0.5,6.1,3.9,5.4,10.4c-0.6,5.7-3.4,9.5-5.8,11.9c-2.6,2.4-4.9,3.5-5,3.5
							C73.6,93.5,73.5,93.5,73.5,93.5z"/>
					</g>
				</g>
				<g>
					<g>
						<g>
							<path class="st14" d="M77.4,71.8c-0.1-0.2-0.2-0.5-0.2-0.8c0-0.3,0-0.6,0.1-0.8c0.1-0.3,0.1-0.5,0.2-0.9
								c0.1-0.1,0.1-0.3,0.1-0.4l0.1-0.4c0.2-0.3,0.5-0.6,0.9-0.4c0.3,0.2,0.6,0.5,0.4,0.9c0,0.1-0.1,0.2-0.2,0.2l0,0l-0.3,0.2
								l-0.3,0.2c-0.2,0.2-0.4,0.4-0.4,0.6c-0.2,0.2-0.2,0.5-0.3,0.7C77.4,71.3,77.3,71.5,77.4,71.8z"/>
						</g>
					</g>
					<g>
						<g>
							<path class="st14" d="M80.3,72.5c0-0.2-0.2-0.5-0.1-0.7c0-0.2-0.1-0.5,0-0.8c0-0.3,0-0.5,0.1-0.8c0.1-0.3,0.1-0.5,0.2-0.8
								l0,0c0.2-0.3,0.5-0.6,0.9-0.4s0.6,0.5,0.4,0.9c-0.1,0.1-0.1,0.2-0.2,0.2c-0.2,0.1-0.3,0.2-0.5,0.5c-0.2,0.1-0.3,0.3-0.3,0.6
								c-0.1,0.2-0.2,0.5-0.3,0.7C80.4,71.9,80.3,72.1,80.3,72.5z"/>
						</g>
					</g>
				</g>
				<g>
					<g>
						<path class="st3" d="M26.8,90.1c0,0,3.9-1.3,3.7-7.5s9.5-7.2,10.5,3s-6.6,12.6-6.6,12.6l-2.2,0.6l-4.7-7.3L26.8,90.1z"/>
					</g>
				</g>
				<g>
					<g>
						<path class="st5" d="M41,85.5c-1-10.2-10.8-9.2-10.5-3c0.1,2.8-0.6,4.6-1.5,5.7c1.9,6.6,7.1,6.9,9.8,6.6
							C40.4,93,41.5,89.9,41,85.5z"/>
					</g>
				</g>
				<g>
					<g>
						<path class="st4" d="M26.5,89.4L26.5,89.4l0.2-0.1c0.1,0,0.2-0.1,0.2-0.1l0.2-0.1c0.1,0,0.2-0.1,0.2-0.1
							c0.3-0.2,0.6-0.5,0.8-0.8c0.4-0.6,0.8-1.4,1.1-2.1c0.2-0.8,0.3-1.6,0.4-2.4l0-1.4c0-0.2,0-0.5,0.1-0.7c0-0.1,0.1-0.2,0-0.4
							c0-0.1,0.1-0.2,0.1-0.3c0.1-0.2,0.1-0.5,0.3-0.8c0.1-0.2,0.2-0.5,0.4-0.7c0.4-0.5,0.6-0.8,1.1-1.2c0.8-0.6,1.8-1,2.9-1l0.2,0
							l0.2,0c0.1,0,0.2,0,0.4,0s0.5,0,0.7,0.1c0.5,0.1,1,0.3,1.4,0.5c0.9,0.5,1.6,1.2,2.3,2c0.6,0.7,1.1,1.6,1.3,2.5
							c0.3,0.9,0.6,1.8,0.6,2.7l0,0.3c0,0.1,0,0.2,0,0.3l0.1,0.7c0.1,0.4,0,0.9,0,1.4c0,0.9,0,1.9-0.3,2.8c-0.2,1-0.5,1.8-0.9,2.6
							c-0.1,0.2-0.2,0.5-0.3,0.7c-0.1,0.2-0.2,0.5-0.3,0.6c-0.3,0.3-0.5,0.8-0.9,1.2c-0.6,0.7-1.4,1.3-2.1,1.9
							c-0.4,0.3-0.8,0.5-1.3,0.7c-0.4,0.2-0.9,0.3-1.3,0.5c-0.1,0-0.3-0.1-0.3-0.2s0.1-0.2,0.2-0.3l0,0c0.4-0.2,0.8-0.4,1.1-0.7
							c0.4-0.3,0.7-0.5,0.9-0.9c0.6-0.6,1.2-1.2,1.6-1.9c1-1.4,1.6-2.9,1.9-4.5c0.2-0.9,0.3-1.6,0.3-2.4c0-0.4,0-0.8,0-1.3
							c-0.1-0.4,0-0.8-0.1-1.2c-0.1-0.8-0.2-1.6-0.5-2.4c-0.3-0.8-0.6-1.5-1.1-2.1c-0.5-0.7-1.1-1.1-1.7-1.5c-0.3-0.2-0.7-0.3-1-0.4
							c-0.2-0.1-0.3-0.1-0.5-0.1c-0.1,0-0.2,0-0.3-0.1l-0.1,0l-0.1,0c-0.7,0-1.4,0.3-2,0.7c-0.3,0.2-0.6,0.5-0.7,0.7
							c-0.1,0.1-0.2,0.3-0.2,0.5c-0.1,0.1-0.2,0.3-0.2,0.6c0,0.1-0.1,0.2-0.1,0.2c0,0.1-0.1,0.2-0.1,0.3c0,0.2-0.1,0.3,0,0.5l0,0.3
							l0,0.3l0,0.7c-0.1,0.9-0.1,1.9-0.4,2.8c-0.3,1-0.7,1.9-1.3,2.6c-0.2,0.3-0.6,0.6-1,1c-0.1,0.1-0.2,0.2-0.3,0.3
							c-0.6,0.7-1,1.2-1,1.2s-1.1-0.6-1.3-1C25.9,90,26,89.6,26.5,89.4L26.5,89.4z"/>
					</g>
				</g>
				<g>
					<g>
						<g>
							<path class="st4" d="M33.3,82c-0.2-0.2-0.4-0.5-0.5-0.8c-0.1-0.3-0.2-0.6-0.2-0.9c0-0.3-0.1-0.6-0.1-0.9c0-0.1,0-0.3,0-0.4
								l0-0.4c0-0.4,0.3-0.7,0.7-0.6c0.4,0,0.7,0.3,0.6,0.7c0,0.1-0.1,0.2-0.1,0.3l0,0l-0.1,0.3l-0.2,0.3c-0.1,0.2-0.1,0.4-0.2,0.8
								c-0.1,0.2-0.1,0.5-0.1,0.7C33.2,81.4,33.2,81.7,33.3,82z"/>
						</g>
					</g>
					<g>
						<g>
							<path class="st4" d="M36.3,81.7c-0.1-0.2-0.3-0.4-0.4-0.7c-0.1-0.2-0.2-0.5-0.3-0.7c0-0.3-0.1-0.5-0.1-0.8
								c0-0.3-0.1-0.5,0-0.8l0,0c0-0.4,0.3-0.7,0.7-0.6s0.7,0.3,0.6,0.7c0,0.1-0.1,0.2-0.1,0.3c-0.1,0.2-0.3,0.3-0.3,0.6
								c-0.1,0.2-0.1,0.4-0.2,0.7c-0.1,0.2,0,0.4-0.1,0.7C36.2,81.2,36.2,81.4,36.3,81.7z"/>
						</g>
					</g>
				</g>
			</g>
		</g>
	</g>
</g>
</svg>
