<?xml version="1.0" encoding="utf-8"?>
<!-- Generator: Adobe Illustrator 24.0.0, SVG Export Plug-In . SVG Version: 6.00 Build 0)  -->
<svg version="1.1" id="Capa_1" xmlns="http://www.w3.org/2000/svg" xmlns:xlink="http://www.w3.org/1999/xlink" x="0px" y="0px"
	 viewBox="0 0 110.6 105.2" style="enable-background:new 0 0 110.6 105.2;" xml:space="preserve">
<g>
	<g>
		<path d="M98,24.3c0,1.5,0,3.1,0,4.6c0,1.4-0.8,2.3-2.1,2.3c-1.3,0-2.2-0.9-2.2-2.3c0-2.7,0-5.3,0-8c0-4-2.7-6.7-6.8-6.7
			c-2.7,0-5.4,0-8.1,0c-1,0-1.7-0.4-2-1.3c-0.3-0.8-0.3-1.7,0.4-2.2c0.4-0.4,1.1-0.7,1.7-0.7c3-0.1,5.9-0.1,8.9,0
			C93.3,10,97.8,14.5,98,20C98,21.4,98,22.8,98,24.3C98,24.3,98,24.3,98,24.3z"/>
		<path d="M26.9,95.4c-2-0.1-4,0-6-0.4c-4.7-0.9-8.3-5.1-8.4-9.9c-0.1-3,0-5.9,0-8.9c0-1.4,0.9-2.3,2.1-2.2c1.2,0,2.1,0.9,2.1,2.3
			c0,2.7,0,5.4,0,8.1c0,3.9,2.7,6.6,6.6,6.6c2.7,0,5.5,0,8.2,0c1.8,0,2.8,1.7,2,3.1c-0.4,0.8-1.1,1.1-2,1.1c-0.1,0-0.1,0-0.2,0
			c-1.5,0-3,0-4.5,0C26.9,95.3,26.9,95.3,26.9,95.4z"/>
		<path d="M98.1,80.9c-0.1,2,0,4-0.4,5.9c-0.9,4.8-5,8.3-9.9,8.5c-3,0.1-5.9,0-8.9,0c-1.4,0-2.3-0.9-2.2-2.2c0-1.2,0.9-2.1,2.3-2.1
			c2.7,0,5.3,0,8,0c4,0,6.7-2.7,6.7-6.7c0-2.7,0-5.4,0-8.1c0-1,0.4-1.8,1.3-2c0.7-0.2,1.6,0,2.1,0.3c0.5,0.3,0.7,1.1,0.8,1.7
			c0.1,1.6,0,3.1,0,4.7C98,80.9,98,80.9,98.1,80.9z"/>
		<path d="M27,9.8c1.5,0,2.9,0,4.4,0c1.6,0,2.5,0.8,2.5,2.1c0,1.3-0.9,2.1-2.5,2.1c-2.6,0-5.3,0-7.9,0c-3.9,0-6.7,2.7-6.7,6.7
			c0,2.6,0,5.3,0,7.9c0,1.5-0.8,2.5-2.1,2.5c-1.3,0-2.1-0.9-2.1-2.5c0-2.9-0.1-5.8,0-8.7c0.2-5.5,4.6-9.9,10.1-10.1
			C24.1,9.8,25.5,9.9,27,9.8C27,9.9,27,9.8,27,9.8z"/>
	</g>
	<g>
		<g>
			<path d="M25.4,31.1c0-1.3,0-2.5,0-3.8c0.1-2.5,2.1-4.6,4.6-4.6c2.6-0.1,5.1-0.1,7.7,0c2.6,0.1,4.7,2.2,4.7,4.8
				c0.1,2.5,0.1,5,0,7.5c-0.1,2.6-2.2,4.7-4.7,4.8c-2.5,0.1-5.1,0.1-7.6,0c-2.6-0.1-4.6-2.1-4.7-4.7C25.3,33.7,25.4,32.4,25.4,31.1z
				 M29.6,31.1c0,1.1,0,2.2,0,3.3c0,0.7,0.3,1,1,1c2.2,0,4.3,0,6.5,0c0.7,0,1-0.3,1-1c0-2.2,0-4.3,0-6.5c0-0.7-0.3-1-1-1
				c-2.2,0-4.3,0-6.5,0c-0.7,0-1,0.3-1,1C29.6,29,29.6,30.1,29.6,31.1z"/>
			<path d="M76.7,22.7c1.3,0,2.5,0,3.8,0c2.6,0.1,4.6,2.1,4.7,4.7c0.1,2.5,0.1,5.1,0,7.6c-0.1,2.6-2.1,4.7-4.7,4.7
				c-2.5,0.1-5,0.1-7.5,0c-2.6-0.1-4.7-2.2-4.8-4.8c-0.1-2.5,0-4.9,0-7.4c0-2.7,2.1-4.7,4.8-4.8C74.1,22.6,75.4,22.7,76.7,22.7
				C76.7,22.7,76.7,22.7,76.7,22.7z M76.6,26.9c-1.1,0-2.1,0-3.2,0c-0.7,0-1.1,0.3-1.1,1c0,2.2,0,4.3,0,6.5c0,0.7,0.3,1.1,1,1.1
				c2.2,0,4.3,0,6.5,0c0.8,0,1.1-0.4,1.1-1.1c0-2.1,0-4.2,0-6.3c0-0.9-0.4-1.2-1.2-1.2C78.7,26.9,77.6,26.9,76.6,26.9z"/>
			<path d="M33.9,82.4c-1.3,0-2.5,0-3.8,0c-2.6-0.1-4.6-2.1-4.7-4.7c-0.1-2.6-0.1-5.1,0-7.7c0.1-2.5,2.1-4.6,4.6-4.6
				c2.6-0.1,5.1-0.1,7.7,0c2.5,0.1,4.6,2.2,4.7,4.7c0.1,2.5,0.1,5.1,0,7.6c-0.1,2.6-2.1,4.6-4.8,4.7C36.4,82.5,35.1,82.4,33.9,82.4
				C33.9,82.4,33.9,82.4,33.9,82.4z M33.8,78.2c1.1,0,2.2,0,3.3,0c0.7,0,1-0.3,1-1c0-2.2,0-4.3,0-6.5c0-0.7-0.3-1-1-1
				c-2.2,0-4.3,0-6.5,0c-0.7,0-1,0.3-1,1c0,2.2,0,4.3,0,6.5c0,0.7,0.3,1,1,1C31.7,78.2,32.8,78.2,33.8,78.2z"/>
			<path d="M59.6,44c0,1.5,0,2.8,0,4.3c0.7,0,1.3,0,2,0c1.3,0,2.3,1,2.3,2.2c0,1.2-0.9,2.1-2.2,2.1c-2.8,0-5.5,0-8.3,0
				c-1.4,0-2.3-0.9-2.2-2.2c0-1.2,0.9-2,2.2-2.1c0.6,0,1.3,0,2,0c0-1.5,0-2.8,0-4.3c-2.1,0-4.2,0-6.2,0c-1.3,0-2.3-0.9-2.3-2.2
				c0-1.1,0.9-2.1,2.1-2.1c4.3,0,8.5,0,12.8,0c1.2,0,2.1,0.9,2.1,2.1c0,1.2-0.9,2.1-2.2,2.2C61,44,60.3,44,59.6,44z"/>
			<path d="M68.1,78.1c1.5,0,2.8,0,4.3,0c0-0.7,0-1.3,0-1.9c0.1-1.4,0.9-2.3,2.2-2.3c1.2,0,2.1,0.9,2.1,2.3c0,0.6,0,1.2,0,1.9
				c1.5,0,2.8,0,4.3,0c0-0.7,0-1.4,0-2c0-1.3,0.9-2.2,2.1-2.2c1.2,0,2.1,0.8,2.1,2.2c0,1.4,0,2.8,0,4.2c0,1.3-0.8,2.1-2.2,2.1
				c-5.7,0-11.3,0-17,0c-1.3,0-2.1-0.8-2.1-2.1c0-1.4,0-2.8,0-4.2c0-1.3,0.9-2.2,2.1-2.2c1.2,0,2.1,0.9,2.1,2.2
				C68.1,76.8,68.1,77.4,68.1,78.1z"/>
			<path d="M59.5,65.4c0-1.4,0-2.8,0-4.3c-0.6,0-1.2,0-1.9,0c-1.4-0.1-2.4-0.9-2.3-2.2c0-1.2,0.9-2.1,2.3-2.1c1.3,0,2.6,0,3.9,0
				c1.5,0,2.3,0.9,2.3,2.3c0,2.7,0,5.5,0,8.2c0,1.5-0.9,2.3-2.3,2.3c-4.1,0-8.3,0-12.4,0c-1.4,0-2.4-0.9-2.3-2.2
				c0-1.2,1-2.1,2.3-2.1C52.5,65.4,55.9,65.4,59.5,65.4z"/>
			<path d="M59.5,26.9c-0.5,0-0.8,0-1.2,0c-3.1,0-6.1,0-9.2,0c-1.5,0-2.4-0.8-2.4-2.1c0-1.3,0.9-2.2,2.5-2.2c4.1,0,8.1,0,12.2,0
				c1.7,0,2.4,0.8,2.5,2.5c0,2.6,0,5.2,0,7.8c0,1.5-0.8,2.5-2.1,2.5c-1.3,0-2.2-1-2.2-2.6C59.5,30.9,59.5,29,59.5,26.9z"/>
			<path d="M72.3,65.3c1.5,0,2.8,0,4.3,0c0-0.6,0-1.3,0-1.9c0-1.5,0.8-2.3,2.3-2.3c1.3,0,2.7,0,4,0c1.4,0,2.3,0.9,2.2,2.2
				c0,1.2-0.9,2-2.2,2.1c-0.6,0-1.3,0-2,0c0,0.7,0,1.4,0,2c0,1.4-0.8,2.2-2.2,2.2c-2.8,0-5.6,0-8.4,0c-1.4,0-2.2-0.8-2.2-2.2
				c0-1.4,0-2.7,0-4.1c0-1.3,0.9-2.2,2.1-2.2c1.2,0,2.1,0.8,2.1,2.1C72.4,63.9,72.3,64.6,72.3,65.3z"/>
			<path d="M51,78.2c0,0.7,0,1.4,0,2c-0.1,1.4-0.9,2.3-2.2,2.3c-1.2,0-2.1-0.9-2.1-2.3c0-1.3,0-2.7,0-4c0-1.4,0.9-2.2,2.3-2.2
				c2.8,0,5.5,0,8.3,0c1.3,0,2.2,0.9,2.2,2.1c0,1.3-0.9,2.1-2.2,2.2C55.2,78.2,53.2,78.2,51,78.2z"/>
			<path d="M42.4,48.3c0.8,0,1.4,0,2.1,0c1.3,0.1,2.2,0.9,2.2,2.1c0,1.2-0.9,2.1-2.1,2.1c-1.4,0-2.9,0-4.3,0c-1.2,0-2-0.9-2.1-2.1
				c0-0.7,0-1.3,0-2.1c-0.7,0-1.3,0-1.9,0c-1.4-0.1-2.4-1-2.4-2.2c0-1.2,1-2.1,2.3-2.1c1.3,0,2.5,0,3.8,0c1.6,0,2.4,0.9,2.4,2.4
				C42.4,47,42.4,47.6,42.4,48.3z"/>
			<path d="M80.9,48.3c0-0.8,0-1.5,0-2.1c0.1-1.3,1-2.2,2.2-2.2c1.1,0,2.1,0.9,2.1,2.1c0,2.8,0,5.7,0,8.5c0,1.3-0.9,2.2-2.1,2.1
				c-1.2,0-2.1-0.9-2.1-2.2c0-0.6,0-1.3,0-2c-0.7,0-1.4,0-2,0c-1.4,0-2.3-0.9-2.2-2.2c0-1.2,0.9-2,2.2-2.1
				C79.5,48.3,80.1,48.3,80.9,48.3z"/>
			<path d="M31.8,61.1c-1.3,0-2.7,0-4,0c-1.5,0-2.5-0.9-2.4-2.2c0-1.3,0.9-2.1,2.4-2.1c2.6,0,5.3,0,7.9,0c1.5,0,2.5,0.9,2.5,2.2
				c0,1.2-1,2.1-2.4,2.1C34.4,61.1,33.1,61.1,31.8,61.1z"/>
			<path d="M72.3,50.4c0,1.4,0,2.7,0,4.1c0,1.4-0.9,2.3-2.1,2.3c-1.2,0-2.1-0.9-2.1-2.3c0-2.7,0-5.5,0-8.2c0-1.4,0.9-2.3,2.1-2.3
				c1.2,0,2.1,0.9,2.1,2.3c0,0.1,0,0.1,0,0.2C72.3,47.8,72.3,49.1,72.3,50.4z"/>
			<path d="M51,35.5c-0.7,0-1.4,0-2.1,0c-1.3-0.1-2.1-1-2.1-2.1c0-1.2,0.9-2.1,2.2-2.2c1.4-0.1,2.8-0.1,4.2,0c1.3,0,2.2,1,2.2,2.1
				c0,1.2-0.9,2.1-2.2,2.1C52.4,35.5,51.7,35.5,51,35.5C51,35.5,51,35.5,51,35.5z"/>
			<path d="M46.7,61.1c-0.7,0-1.4,0-2.1,0c-1.3-0.1-2.2-1-2.1-2.2c0-1.1,0.9-2,2.1-2.1c1.4-0.1,2.9-0.1,4.3,0c1.2,0.1,2.1,1,2.1,2.1
				c0,1.1-0.8,2-2.1,2.1C48.2,61.2,47.4,61.1,46.7,61.1C46.7,61.1,46.7,61.1,46.7,61.1z"/>
		</g>
		<path d="M25.4,48.3c0-0.8,0-1.5,0-2.3c0.1-1.1,0.9-1.9,2-2c1.1,0,2.1,0.8,2.2,1.9c0.1,1.6,0.1,3.1,0,4.7c-0.1,1.1-1.1,2-2.2,1.9
			c-1.1,0-1.9-0.9-2-2C25.3,49.8,25.4,49,25.4,48.3z"/>
	</g>
</g>
</svg>
