<?xml version="1.0" encoding="utf-8"?>
<!-- Generator: Adobe Illustrator 24.0.0, SVG Export Plug-In . SVG Version: 6.00 Build 0)  -->
<svg version="1.1" id="Capa_1" xmlns="http://www.w3.org/2000/svg" xmlns:xlink="http://www.w3.org/1999/xlink" x="0px" y="0px"
	 viewBox="0 0 81.7 79.8" style="enable-background:new 0 0 81.7 79.8;" xml:space="preserve">
<style type="text/css">
	.st0{fill:#FFFFFF;}
</style>
<g id="XMLID_8_">
	<path class="st0" d="M45.3,7.7l7.5,15.2c0.7,1.4,2.1,2.5,3.7,2.7L73.2,28c4,0.6,5.6,5.5,2.7,8.4L63.8,48.1
		c-1.2,1.1-1.7,2.8-1.4,4.3l2.9,16.7c0.7,4-3.5,7.1-7.1,5.2l-15-7.9c-1.4-0.8-3.1-0.8-4.6,0l-15,7.9c-3.6,1.9-7.8-1.2-7.1-5.2
		l2.9-16.7c0.3-1.6-0.3-3.2-1.4-4.3L5.8,36.3c-2.9-2.8-1.3-7.8,2.7-8.4l16.7-2.4c1.6-0.2,3-1.2,3.7-2.7l7.5-15.2
		C38.3,4,43.5,4,45.3,7.7z"/>
</g>
</svg>
