<?xml version="1.0" encoding="utf-8"?>
<!-- Generator: Adobe Illustrator 24.0.0, SVG Export Plug-In . SVG Version: 6.00 Build 0)  -->
<svg version="1.1" id="Capa_1" xmlns="http://www.w3.org/2000/svg" xmlns:xlink="http://www.w3.org/1999/xlink" x="0px" y="0px"
	 viewBox="0 0 87.5 78.4" style="enable-background:new 0 0 87.5 78.4;" xml:space="preserve">
<style type="text/css">
	.st0{fill:#FFFFFF;}
</style>
<g>
	<path class="st0" d="M81,62.3c-0.2,0.9-0.3,1.8-0.6,2.6c-1.4,4-4.5,5.9-8.5,6.4c-1,0.1-2.1,0.1-3.1,0.1c-17,0-33.9,0-50.9,0
		c-1.8,0-3.6-0.2-5.3-0.9c-3.8-1.7-5.6-4.7-5.9-8.8c0-0.4,0-0.9,0-1.3c0-10.9,0-21.7,0-32.6c0-2.3,0.4-4.6,1.7-6.6
		c1.7-2.6,4.2-4,7.2-4.2c4.4-0.2,8.8-0.1,13.2-0.2c0.3,0,0.6,0,1,0c0-0.3,0-0.6,0-0.9c0-1.7-0.1-3.4,0.1-5.1
		c0.2-2.2,1.9-3.9,4.2-3.9C40.2,7,46.4,7,52.6,7c0.4,0,0.8,0,1.2,0.1c2.1,0.2,3.7,1.9,3.8,4c0.1,1.6,0,3.2,0.1,4.9
		c0,0.3,0,0.6,0,1.1c0.3,0,0.6,0,0.9,0c3.8,0,7.5,0,11.3,0c1.8,0,3.5,0.2,5.2,0.9c3.3,1.4,5.1,4,5.7,7.5c0,0.2,0.1,0.5,0.2,0.7
		C81,38.2,81,50.3,81,62.3z M43.7,68.3c8.7,0,17.3,0,26,0c0.6,0,1.1,0,1.7,0c2.8-0.3,5-1.4,6-4.2c0.4-1.1,0.5-2.3,0.5-3.4
		c0-11,0-22,0-33c0-0.3,0-0.6,0-0.9c-0.2-3.4-1.9-5.6-5.1-6.4c-0.9-0.2-1.9-0.3-2.9-0.3c-17.4,0-34.8,0-52.2,0c-0.7,0-1.4,0-2,0.1
		c-2.6,0.4-4.6,1.6-5.5,4.2c-0.4,1.1-0.5,2.4-0.5,3.6c0,10.9,0,21.7,0,32.6c0,0.4,0,0.8,0,1.2c0.2,2.8,1.3,5.1,4.1,6
		c1.2,0.4,2.6,0.6,3.8,0.6C26.3,68.4,35,68.3,43.7,68.3z M54.2,16.9c0-1.9,0-3.3,0-5.2c0-0.8-0.5-1.2-1.4-1.3c-0.2,0-0.4,0-0.6,0
		c-6,0-11,0-17,0c-0.2,0-0.5,0-0.7,0c-0.7,0.1-1.2,0.5-1.2,1.2c0,1.9,0,3.3,0,5.3C40.6,16.9,46.9,16.9,54.2,16.9z"/>
	<path class="st0" d="M36.9,50.6c-2,0-3.9,0-5.9,0c-1.8,0-2.6-0.9-2.7-2.6c0-2.8,0-5.6,0-8.4c0-1.7,0.9-2.6,2.6-2.6
		c1.9,0,3.9,0,5.9,0c0-0.3,0-0.6,0-0.8c0-1.7,0-3.4,0-5.1c0-1.7,0.9-2.6,2.7-2.6c2.8,0,5.5,0,8.3,0c1.7,0,2.6,0.9,2.6,2.6
		c0,1.9,0,3.9,0,5.9c0.3,0,0.6,0,0.8,0c1.7,0,3.5,0,5.2,0c1.5,0,2.4,0.9,2.4,2.4c0,2.9,0,5.9,0,8.8c0,1.5-0.9,2.4-2.4,2.4
		c-2,0-4,0-6,0c0,0.3,0,0.5,0,0.8c0,1.7,0,3.4,0,5.1c0,1.8-0.9,2.6-2.6,2.7c-2.8,0-5.5,0-8.3,0c-1.7,0-2.6-0.9-2.6-2.7
		C36.9,54.5,36.9,52.6,36.9,50.6z"/>
</g>
</svg>
