<?xml version="1.0" encoding="utf-8"?>
<!-- Generator: Adobe Illustrator 24.0.0, SVG Export Plug-In . SVG Version: 6.00 Build 0)  -->
<svg version="1.1" id="Capa_1" xmlns="http://www.w3.org/2000/svg" xmlns:xlink="http://www.w3.org/1999/xlink" x="0px" y="0px"
	 viewBox="0 0 43.2 71.4" style="enable-background:new 0 0 43.2 71.4;" xml:space="preserve">
<style type="text/css">
	.st0{fill:#474747;}
	.st1{fill:#FAFCFD;}
	.st2{fill:#262B5F;}
	.st3{opacity:0.3;}
	.st4{fill:#EF8000;}
	.st5{fill:#454443;}
</style>
<g>
	<path class="st0" d="M5,61.1L36.2,4.3c0.2-0.3,0.5,0,0.4,0.3L10,64.8c-0.8,1.7-2.5,2.4-4,1.5c-1.4-0.9-2-3.1-1.2-4.8
		C4.9,61.3,4.9,61.2,5,61.1z"/>
	<path class="st0" d="M33.2,64.8L6.7,4.5C6.5,4.2,6.9,4,7,4.3l31.1,56.8c0.8,1.4,0.7,3.3-0.3,4.5c-1.4,1.7-3.5,1.3-4.6-0.5
		C33.2,65,33.2,64.9,33.2,64.8z"/>
</g>
<g>
	<g>
		<g>
			<circle class="st1" cx="21.6" cy="36.4" r="12.8"/>
		</g>
		<g>
			<path class="st2" d="M34.5,35.7c0-0.2,0-0.4,0-0.6c0-0.7-0.2-1.4-0.4-2.1c-0.1-0.7-0.4-1.3-0.7-1.9c-0.2-0.5-0.4-0.9-0.7-1.4
				c0,0-0.1-0.1-0.1-0.2c0,0,0-0.1-0.1-0.1c-0.1-0.2-0.2-0.4-0.3-0.5c-0.2-0.3-0.4-0.5-0.6-0.8c-4.3-5.2-11.9-6.3-17.5-2.3
				c-0.8,0.6-1.5,1.2-2.1,1.9h0c-0.4,0.4-0.8,0.9-1.1,1.4c0,0-0.1,0.1-0.1,0.2c0,0-0.1,0.1-0.1,0.2c-0.3,0.5-0.6,0.9-0.8,1.4h0
				c-0.7,1.5-1.1,3-1.2,4.6C8.5,37.7,8.9,40,9.9,42c0.3,0.6,0.7,1.3,1.1,1.9c0.6,0.9,1.3,1.7,2.1,2.4c0.2,0.2,0.4,0.4,0.7,0.5
				c0.1,0.1,0.2,0.2,0.3,0.2c0.4,0.3,0.8,0.5,1.2,0.7c0.1,0.1,0.2,0.1,0.4,0.2c0.5,0.3,1.1,0.5,1.6,0.7c0.2,0.1,0.4,0.1,0.6,0.2
				c0,0,0.1,0,0.1,0c0.3,0.1,0.5,0.2,0.8,0.2c0.1,0,0.1,0,0.2,0c0,0,0,0,0,0c0,0,0.1,0,0.2,0c0.6,0.1,1.1,0.2,1.7,0.2
				c0.2,0,0.4,0,0.6,0c1.1,0,2.2-0.1,3.2-0.4c0.5-0.1,1-0.3,1.5-0.5c0.1,0,0.1,0,0.2,0v0c0.1,0,0.1,0,0.2-0.1
				c0.2-0.1,0.4-0.2,0.6-0.3c0.2-0.1,0.5-0.3,0.8-0.4c0.3-0.2,0.7-0.4,1-0.6c0.1-0.1,0.2-0.1,0.3-0.2c0.9-0.6,1.7-1.4,2.3-2.3
				c1.7-2.1,2.7-4.7,2.8-7.4c0-0.3,0-0.6,0-0.9C34.6,36.1,34.6,35.9,34.5,35.7z M34.2,36.9c0,0.5,0,1.1-0.1,1.6
				c-0.2,1.1-0.5,2.2-1,3.2c-0.4,0.9-0.9,1.7-1.5,2.4c-0.7,0.9-1.6,1.8-2.6,2.5c0,0-0.1,0.1-0.1,0.1c-0.3,0.2-0.6,0.4-0.8,0.5
				c-0.3,0.2-0.6,0.3-0.9,0.5c-0.1,0.1-0.3,0.1-0.5,0.2c-0.1,0-0.1,0-0.2,0.1c0,0,0,0,0,0c0,0-0.1,0-0.1,0.1c-0.5,0.2-1,0.3-1.5,0.5
				c-1.1,0.3-2.3,0.4-3.4,0.4c-0.6,0-1.2,0-1.7-0.2c-0.1,0-0.1,0-0.2,0c-0.1,0-0.1,0-0.2,0c-0.3,0-0.5-0.1-0.8-0.2c0,0-0.1,0-0.1,0
				c-0.2,0-0.4-0.1-0.6-0.2c0,0-0.1,0-0.1,0c-0.6-0.2-1.1-0.4-1.6-0.7c-0.1,0-0.2-0.1-0.3-0.2c-0.3-0.1-0.6-0.3-1-0.6
				c-0.1,0-0.2-0.1-0.2-0.2c-0.3-0.2-0.6-0.4-0.8-0.6c-0.8-0.6-1.5-1.4-2.1-2.3c-1.8-2.5-2.5-5.4-2.3-8.2c0.1-1.6,0.5-3.2,1.2-4.6
				c0.2-0.5,0.5-1,0.8-1.4c0-0.1,0.1-0.1,0.1-0.2c0,0,0.1-0.1,0.1-0.1c0.2-0.3,0.5-0.7,0.8-1c0.1-0.1,0.2-0.2,0.3-0.4
				c0.6-0.6,1.2-1.2,1.9-1.7c5.4-3.8,12.7-2.8,16.9,2.2c0.3,0.3,0.5,0.5,0.7,0.8c0.1,0.1,0.2,0.3,0.3,0.5c0,0,0.1,0.1,0.1,0.1
				c0,0,0.1,0.1,0.1,0.2c0.2,0.3,0.4,0.7,0.6,1c0,0.1,0.1,0.2,0.1,0.4c0.3,0.5,0.5,1.1,0.6,1.6c0.2,0.7,0.4,1.4,0.4,2.1
				c0,0.3,0,0.6,0,1c0,0,0,0.1,0,0.1C34.2,36.3,34.2,36.6,34.2,36.9z"/>
		</g>
	</g>
	<g class="st3">
		<g>
			<path class="st2" d="M29,46.8c2-1.4,3.5-3.3,4.4-5.4c-0.6,0.6-1.2,1.2-1.9,1.7c-5.8,4.1-13.7,2.7-17.8-3c-2.7-3.8-3-8.4-1.3-12.4
				C8.2,32,7.6,38.7,11.2,43.8C15.2,49.5,23.2,50.9,29,46.8z"/>
		</g>
	</g>
	<g>
		<g>
			<circle class="st4" cx="21.6" cy="36.4" r="6.4"/>
		</g>
	</g>
	<g>
		<g>
			<path class="st5" d="M16.3,46c-0.1,0-0.2-0.1-0.3-0.2c-0.4-0.2-0.8-0.5-1.2-0.8c-0.2-0.1-0.3-0.2-0.5-0.4
				c-0.2,0.5-0.5,0.9-0.9,1.3c0.3,0.2,0.5,0.5,0.8,0.6c0.1,0.1,0.1,0.1,0.2,0.2h3.3C17.3,46.6,16.8,46.3,16.3,46z M36.1,35.2
				c0-0.5-0.1-0.9-0.2-1.4c-0.2-1.1-0.5-2.2-1-3.2c-0.2-0.5-0.4-1-0.7-1.4c0,0-0.1-0.1-0.1-0.2c0,0-0.1-0.1-0.1-0.1
				c-0.2-0.3-0.4-0.6-0.6-0.9c-0.1-0.1-0.2-0.3-0.3-0.4c-4.7-6.2-13.5-7.6-19.9-3c-1.2,0.8-2.2,1.8-3,2.9c-0.4,0.5-0.7,1-1,1.5
				c0,0-0.1,0.1-0.1,0.2c0,0-0.1,0.1-0.1,0.2c-0.3,0.5-0.5,1-0.7,1.5c-0.6,1.6-1,3.2-1.1,4.9c-0.1,2.4,0.3,4.8,1.4,7.1
				c0.3,0.7,0.7,1.4,1.2,2.1c0.5,0.7,1.1,1.4,1.7,2c0.1,0.1,0.3,0.3,0.5,0.4c0.6,0.5,1.2,1,1.8,1.4c0.4,0.3,0.8,0.5,1.3,0.7
				c0.1,0,0.2,0.1,0.4,0.2c0.2,0.1,0.5,0.2,0.7,0.3c0,0,0,0,0.1,0c0.3,0.1,0.6,0.2,0.9,0.3c0.2,0.1,0.4,0.1,0.6,0.2c0,0,0.1,0,0.1,0
				c0.1,0,0.1,0,0.2,0v0c0,0,0.1,0,0.2,0c0,0,0,0,0,0c0.6,0.1,1.2,0.2,1.8,0.3c0.5,0.1,1.1,0.1,1.6,0.1c1.4,0,2.8-0.2,4.1-0.6
				c0.5-0.2,1-0.3,1.5-0.6c0,0,0.1,0,0.2-0.1c0.1,0,0.1,0,0.2-0.1c0.4-0.2,0.8-0.4,1.2-0.6c0.1,0,0.1-0.1,0.2-0.1
				c0.3-0.2,0.6-0.4,0.9-0.6c0.6-0.4,1.2-0.9,1.7-1.5c0.3-0.3,0.6-0.6,0.9-1c1.1-1.2,1.9-2.5,2.4-4c0.4-0.9,0.7-1.9,0.8-3
				c0-0.3,0.1-0.6,0.1-0.9c0-0.4,0.1-0.8,0.1-1.1c0-0.3,0-0.6,0-0.8v0C36.1,35.7,36.1,35.5,36.1,35.2z M20.1,47.3
				c-0.1,0-0.1,0-0.2,0c0,0,0,0-0.1,0c-0.4,0-0.8-0.1-1.2-0.3c-0.1,0-0.2,0-0.3-0.1c-0.2,0-0.4-0.1-0.5-0.1c0,0,0,0-0.1,0
				c-0.5-0.2-1-0.4-1.5-0.7c-0.1,0-0.2-0.1-0.3-0.2c-0.4-0.2-0.8-0.5-1.2-0.8c-0.2-0.1-0.3-0.2-0.5-0.4c-0.6-0.5-1.2-1.2-1.7-1.9
				c-1.5-2.1-2.2-4.6-2-7c0-1.1,0.3-2.3,0.7-3.3c0.2-0.4,0.3-0.8,0.6-1.2c0.2-0.5,0.5-0.9,0.8-1.4c0,0,0.1-0.1,0.1-0.2
				c0,0,0-0.1,0.1-0.1c0.3-0.4,0.7-0.8,1.1-1.2c0.4-0.4,0.8-0.7,1.2-1c4.6-3.3,10.9-2.5,14.6,1.6c0.3,0.3,0.6,0.6,0.8,1
				c0,0.1,0.1,0.2,0.2,0.2c0,0,0,0.1,0.1,0.2c0,0.1,0.1,0.1,0.1,0.2c0.2,0.3,0.4,0.6,0.6,1c0,0.1,0.1,0.2,0.1,0.4
				c0.1,0.1,0.1,0.2,0.1,0.3c0.3,0.6,0.5,1.3,0.6,1.9c0,0,0,0,0,0c0.1,0.5,0.2,0.9,0.2,1.4c0,0.2,0,0.3,0,0.5c0,0.3,0,0.7,0,1
				c0,0.4-0.1,0.7-0.1,1.1c-0.2,1.4-0.8,2.8-1.5,3.9c0,0,0,0,0,0c-0.5,0.7-1,1.4-1.6,2c-0.4,0.4-0.9,0.8-1.4,1.2
				c-0.2,0.2-0.5,0.3-0.8,0.5c-0.4,0.3-0.9,0.5-1.4,0.7c0,0,0,0-0.1,0c0,0,0,0-0.1,0c0,0,0,0,0,0c0,0-0.1,0-0.1,0c0,0-0.1,0-0.1,0
				c-0.5,0.2-0.9,0.3-1.4,0.4c-0.6,0.1-1.3,0.2-1.9,0.2c-0.6,0-1.2,0-1.7,0C20.2,47.4,20.2,47.3,20.1,47.3z"/>
		</g>
	</g>
</g>
</svg>
