<?xml version="1.0" encoding="utf-8"?>
<!-- Generator: Adobe Illustrator 24.0.0, SVG Export Plug-In . SVG Version: 6.00 Build 0)  -->
<svg version="1.1" id="Capa_1" xmlns="http://www.w3.org/2000/svg" xmlns:xlink="http://www.w3.org/1999/xlink" x="0px" y="0px"
	 viewBox="0 0 58.5 51.9" style="enable-background:new 0 0 58.5 51.9;" xml:space="preserve">
<style type="text/css">
	.st0{fill:#9B9B9B;}
	.st1{fill-rule:evenodd;clip-rule:evenodd;fill:#9B9B9B;}
</style>
<g>
	<g>
		<path class="st0" d="M3.3,51.9L7.1,38c-2.2-3.8-3.3-8-3.3-12.3C3.8,11.5,15.3,0,29.5,0c14.1,0,25.7,11.5,25.7,25.7
			c0,14.1-11.5,25.7-25.7,25.7c-4.2,0-8.4-1.1-12.2-3.1L3.3,51.9z M29.5,46.5c11.5,0,20.8-9.3,20.8-20.8S41,4.9,29.5,4.9
			C18,4.8,8.7,14.2,8.7,25.7c0,3.8,1.1,7.5,3,10.8l0.5,0.9l-2.1,7.8L18,43"/>
		<path class="st1" d="M39,29.2c-1.1-0.6-2.4-1.3-3.7-0.8c-1,0.4-1.6,1.9-2.2,2.6c-0.3,0.4-0.7,0.5-1.2,0.3
			c-3.6-1.4-6.3-3.8-8.3-7.1c-0.3-0.5-0.3-0.9,0.1-1.4c0.6-0.7,1.3-1.5,1.5-2.4s-0.3-2.1-0.7-2.9c-0.5-1.1-1.1-2.6-2.1-3.2
			c-1-0.6-2.3-0.2-3.2,0.5C17.7,16,16.9,18,17,19.9c0,0.5,0.1,1.1,0.2,1.6c0.3,1.3,0.9,2.5,1.6,3.6c0.5,0.9,1,1.7,1.6,2.5
			c1.9,2.6,4.3,4.9,7.1,6.6c1.4,0.8,2.9,1.6,4.4,2.1c1.7,0.6,3.3,1.2,5.1,0.8c2-0.4,3.9-1.6,4.6-3.5c0.2-0.6,0.3-1.2,0.2-1.8
			C41.7,30.5,40,29.8,39,29.2z"/>
	</g>
</g>
</svg>
