<?xml version="1.0" encoding="utf-8"?>
<!-- Generator: Adobe Illustrator 24.0.0, SVG Export Plug-In . SVG Version: 6.00 Build 0)  -->
<svg version="1.1" id="Capa_1" xmlns="http://www.w3.org/2000/svg" xmlns:xlink="http://www.w3.org/1999/xlink" x="0px" y="0px"
	 viewBox="0 0 117.8 117.8" style="enable-background:new 0 0 117.8 117.8;" xml:space="preserve">
<style type="text/css">
	.st0{fill:#474747;}
</style>
<g>
	<path class="st0" d="M109.4,83.1c-1,2-2.9,1.2-4.5,1.4c1.5,5.7,0.1,10.4-4.8,13.7c-4.1,2.7-8.5,2.8-12.6,0.2
		c-5.1-3.3-6.6-8.1-5-14.1c-1.2,0.2-2.6,0-3.3,0.6c-2.9,2.3-6.1,3.5-9.8,3.5c-8,0-16.1,0-24.1,0c-0.4,0-0.8,0-1.1,0
		c-0.5,7.8-6.3,11.6-11.2,11.8c-2.9,0.1-5.5-0.6-7.8-2.4c-3-2.3-4.5-5.5-4.7-9.4c-0.4,0-0.8,0-1.2,0c-2.8,0-5.5,0-8.3,0
		c-1.6,0-2.4-0.8-2.3-2.4c0.1-1.7,0.1-3.4,0.4-5.1c2.5-12.6,9.7-21.3,21.7-26c0.3-0.1,0.6-0.2,1-0.4C30.1,53,29,51.1,28.5,49
		c-2,0-3.9,0-5.8,0c-3.7,0-6.2-2.5-6.2-6.3c0-6.3,0-12.7,0-19c0-3.7,2.5-6.2,6.3-6.2c6.3,0,12.7,0,19,0c3.7,0,6.2,2.5,6.2,6.3
		c0,5.2,0,10.4,0,15.6c0,1.9,0,3.8,0,5.8c0.4,0,1,0,1.6,0c2.4,0,4.3,1,5.5,3.1c1.1,2.1,0.9,4.2-0.4,6.2c-0.1,0.2-0.2,0.7,0,0.9
		c0.9,1.2,1.2,2.6,1.2,4.1c0,2.3,0,4.6,0,6.9c0,1.6,0.8,2.3,2.4,2.4c1.8,0,3.7,0,5.5,0c5.9,0,10.2-4.3,10.2-10.3
		c0-5.7,0-11.5,0-17.2c0-1.4-0.6-2.1-2.1-2.1c-2.9,0-5.8,0-8.7,0c-1.8,0-3.4-0.6-4.7-2c-1.6-1.9-2-4-1-6.3s2.9-3.5,5.5-3.5
		c3-0.1,6,0,9,0c0.4,0,0.9-0.2,1.3-0.4c1.4-1,3-1.5,4.8-1.5c4.4,0,8.9,0,13.3,0c1.6,0,2.3,0.8,2.3,2.4c0,3.6,0,7.3,0,10.9
		c0,1.7-0.7,2.4-2.5,2.4c-1.6,0-3.2,0-4.9,0c1.7,8,3.3,15.9,5,23.8c0.2,0,0.3,0,0.4,0c6.8-0.8,13.3,2.6,16.1,8.8
		c0.7,1.6,1.1,3.3,1.6,5C109.4,80.2,109.4,81.7,109.4,83.1z M77.8,41.2c0,0.4,0,0.7,0,1.1c0,5.5,0,11,0,16.5
		c0,6.7-4.4,12.2-10.9,13.6c-1.8,0.4-3.7,0.3-5.5,0.3c-1.2,0-2.4,0-3.5,0c-3.5-0.1-6-2.5-6-6.1c0-2.4,0-4.8,0-7.2
		c0-1.7-0.7-2.5-2.4-2.5c-3.3,0-6.7-0.2-9.9,0.2C28,58.3,19.9,64.2,15,74.5c-1.5,3.1-2.2,6.4-2.5,9.9c1.3,0,2.6,0,4,0
		c0.7-4.5,2.8-8.2,6.6-10.8c3-2.1,6.4-3.1,10.1-2.8c7.1,0.5,13.4,5.7,14.6,13.8c0.3,0,0.7,0,1,0c6.9,0,13.7,0,20.6,0
		c3.7,0,6.5-1.4,8.7-4.4c2.6-3.7,5.3-7.4,8-11c1-1.4,1.4-2.9,1-4.6c-1.6-7.8-3.3-15.5-4.9-23.3C80.7,41.2,79.3,41.2,77.8,41.2z
		 M20.3,29.4c0,0.3,0,0.6,0,0.9c0,4.1,0,8.1,0,12.2c0,1.9,0.7,2.6,2.6,2.6c6.2,0,12.3,0,18.5,0c1.9,0,2.6-0.7,2.6-2.6
		c0-4.1,0-8.2,0-12.3c0-0.3,0-0.5,0-0.9C36,29.4,28.2,29.4,20.3,29.4z M95.7,68.9c-0.7-0.1-1.5-0.2-2.2-0.2c-1.6,0-2.9,0.3-4,2.1
		c-1.9,3.4-4.5,6.4-6.8,9.7c7.6,0,15.1,0,22.7,0C105.6,75.1,101.1,69.8,95.7,68.9z M43.7,84.4c-0.8-5.5-5.8-9.8-11.5-9.8
		s-10.8,4.3-11.6,9.8C28.3,84.4,36,84.4,43.7,84.4z M37.8,52.9c4,0.1,7.9,0,11.9,0c1.3,0,2.1-0.9,2.1-2S50.9,49,49.6,49
		c-5.7,0-11.3,0-17.1,0C33.3,51.3,35.4,52.9,37.8,52.9z M77.5,29.3c-2.1,0.1-3.6,1.9-3.6,3.9s1.7,3.8,3.7,3.9c1.3,0.1,2.7,0,4.1,0
		c0-2.6,0-5.2,0-7.8C80.3,29.3,78.9,29.3,77.5,29.3z M70,31.3c-1.6,0-3.2,0-4.9,0c-0.8,0-1.6,0-2.5,0c-1,0.1-1.8,1-1.8,1.9
		c0,1,0.7,1.9,1.7,1.9c2.5,0.1,5,0,7.4,0C70,33.9,70,32.6,70,31.3z"/>
	<path class="st0" d="M54.2,78.1c-0.3-0.7-0.7-1.9-1.3-2.9c-3.2-5.6-7.8-9.5-14-11.4c-1.3-0.4-2.5,0-2.8,1.2
		c-0.4,1.1,0.2,2.1,1.5,2.5c4.2,1.4,7.7,3.7,10.3,7.3c0.8,1.1,1.4,2.4,2.1,3.6c0.2,0.4,0.4,0.9,0.7,1.3c0.5,0.7,1.3,1,2.2,0.7
		C53.8,80.1,54.3,79.4,54.2,78.1z"/>
	<path class="st0" d="M28.2,64.7c0,1,0.9,2,1.9,2s2-0.9,2-1.9s-0.9-2-1.9-2C29.2,62.8,28.2,63.7,28.2,64.7z"/>
	<path class="st0" d="M32.1,33.3c-0.7,0-1.3,0-2,0c-1.1,0.1-1.9,1-1.9,2s0.8,1.8,1.9,1.9c1.3,0.1,2.7,0.1,4,0c1.1-0.1,1.9-1,1.9-2
		s-0.8-1.8-1.9-1.9C33.5,33.2,32.8,33.3,32.1,33.3z"/>
</g>
</svg>
