<?xml version="1.0" encoding="utf-8"?>
<!-- Generator: Adobe Illustrator 24.0.0, SVG Export Plug-In . SVG Version: 6.00 Build 0)  -->
<svg version="1.1" id="Capa_1" xmlns="http://www.w3.org/2000/svg" xmlns:xlink="http://www.w3.org/1999/xlink" x="0px" y="0px"
	 viewBox="0 0 117.8 117.8" style="enable-background:new 0 0 117.8 117.8;" xml:space="preserve">
<style type="text/css">
	.st0{fill:url(#SVGID_1_);}
	.st1{fill:url(#SVGID_2_);}
	.st2{fill:url(#SVGID_3_);}
</style>
<g>
	<linearGradient id="SVGID_1_" gradientUnits="userSpaceOnUse" x1="6.9426" y1="123.4974" x2="124.3026" y2="5.8974">
		<stop  offset="0" style="stop-color:#FF8D00"/>
		<stop  offset="1" style="stop-color:#FF1B00"/>
	</linearGradient>
	<path class="st0" d="M111.9,77.9c-3.5,0.1-6.9,0-10.4,0c-0.3,0-0.6,0-1.1-0.1c1.6-2.3,2.5-4.6,2.6-7.2c0.1-3.6,0.2-7.3,0-10.9
		c-0.5-7.5-6.2-12.8-13.7-12.9c0-0.1,0.1-0.2,0.1-0.4c0.3-0.6,0.7-1.6,1-3.8c0.2-1.5,0-6.1,0-6.1c0.1-8.7-1.3-11.9-1.4-12.1
		c-0.4-0.6-0.8-1.2-1.2-1.8c-1.1-1.7-2.6-3.1-4.4-4.1c-0.4-0.2-0.6-0.3-0.8-0.4c-1.9-0.8-3.9-1.3-6-1.3c-3.6,0-7.2,0-10.8,0
		c-2.1,0-4.1,0.5-6,1.3c-0.4,0.2-1,0.1-1.5,0c-1.7-0.4-3.4-1.1-5.1-1.2c-4.2-0.2-8.3-0.1-12.5,0c-7.1,0.2-13.2,6.5-13.3,13.6
		c0,1.3,0.5,2.1,1.6,2.1c1,0.1,1.7-0.6,1.8-2c0.3-3.8,2.1-7.4,5.5-9.1c8-4,15.8,1.7,15.9,9.4c0,2.9,0,5.8,0,8.7c0,3-1.2,5.6-3.4,7.7
		C48.3,47.7,47.6,48,47,48c-0.3,0-0.5,0-0.8,0c-1.6-0.4-3.1-1-4.7-1.1c-2.6-0.1-5.3-0.1-7.9-0.1c-0.1-0.1-0.1-0.1-0.2-0.2
		c-2-2.3-2.9-5-2.7-8.1c0-1.2-0.7-1.9-1.7-1.9s-1.6,0.7-1.6,1.9c-0.1,3,0.6,5.8,2.1,8.3c-0.2,0-0.3,0-0.5,0
		c-7.1,0.2-13.3,6.5-13.4,13.5c0,1.3,0.5,2.1,1.6,2.1c1.1,0.1,1.7-0.7,1.8-2.1C19.2,54.5,24,50,29.9,50c5.8,0.1,10.4,4.8,10.5,10.7
		c0,2.9,0,5.8,0,8.7c0,3-1.2,5.6-3.4,7.7c-0.5,0.4-1.2,0.7-1.8,0.7c-3.5,0.1-6.9,0-10.4,0.1c-1.4,0-2.3-0.5-3.1-1.4
		c-2-2.3-2.8-5-2.7-8.1c0-1.2-0.7-1.9-1.7-1.9s-1.6,0.7-1.6,1.9c-0.1,3.2,0.6,6.1,2.4,8.8c0.1,0.2,0.2,0.4,0.3,0.7
		c-0.5,0-0.9,0-1.2,0c-3.9,0-7.8,0-11.7,0c-2,0-3.1,1.1-3.1,3.1c0,2.2,0,4.5,0,6.7c0,2.5,1,3.5,3.5,3.5c1.2,0,2.5,0,3.8,0
		c0,2.4,0,4.6,0,6.8c0,2.1,1.1,3.1,3.1,3.2c5.2,0,10.3,0,15.5,0c2,0,3.1-1.1,3.1-3.1c0-1.7,0-3.4,0-5.1c0-0.6,0-1.1,0-1.8
		c0.6,0,1,0,1.4,0c7.6,0,15.2,0,22.9,0c0.2,0,0.3,0,0.5,0s0.4,0,0.6,0l0,0c6.8,0,22.4,0,28.8,0c0.4,0,0.8,0,1.2,0c0,2.4,0,4.7,0,6.9
		c0,1.8,1,3,2.7,3c5.5,0,10.9,0,16.4,0c1.5,0,2.5-1.1,2.6-2.6c0-0.6,0-1.2,0-1.8c0-1.8,0-3.7,0-5.6c1.2,0,2.4-0.1,3.4,0
		c1.7,0.1,3-0.4,3.8-2c0-3.1,0-6.2,0-9.3C114.8,78.4,113.6,77.8,111.9,77.9z M96.8,53.1c1.7,1.7,2.8,3.8,2.9,6.3
		c0.1,3.8,0.2,7.6,0,11.4c-0.1,1.5-0.7,3-1.4,4.3c-1,1.9-2.4,3.3-4.9,2.8c-1.2-0.2-2.4,0-3.6,0c0-0.1-0.1-0.2-0.1-0.2
		c2.4-3.4,2.9-7.3,2.7-11.4c-0.1-1.7,0-3.5,0-5.2c0.1-4.3-1.6-7.9-4.9-11C91.1,49.7,94.2,50.6,96.8,53.1z M84.7,72.3
		c2.9-4.1,2.8-10.2-0.1-14.2c-1.6-2.2-3.7-3.5-6.5-3.5c-0.3,0-0.7-0.1-0.8-0.3c-0.8-1.2-1.6-2.4-2.4-3.7c2.9-1,5.7-0.8,8.4,0.7
		c3.6,2,5.6,5.1,5.8,9.3c0.1,3,0.1,6,0,9.1c0,3.1-1.3,5.6-3.6,7.7c-0.3,0.2-0.6,0.5-0.9,0.5c-2.7,0-5.5,0-8.4,0
		c0.7-1.1,1-2.1,2.6-2.1C81.3,75.8,83.3,74.4,84.7,72.3z M78.7,72.5c0-2.1,0-4.1,0-6.1c1.5,0.9,2.8,1.6,4.1,2.5
		C82,70.7,80.9,72.2,78.7,72.5z M68,67.4c-0.1-2.1,0-4.1,0-6.2c0.1-4.4-1.5-8-4.9-11.1c2.5-0.3,4.8,0,6.9,1.2c3.1,1.8,5.1,4.4,5.3,8
		c0.2,3.8,0.2,7.7,0,11.5c-0.1,1.5-0.8,3-1.5,4.3c-1,1.9-2.4,3.2-4.8,2.8c-1.2-0.2-2.4,0-3.9,0C67.6,74.6,68.2,71.1,68,67.4z
		 M70.7,47.9h2c-0.1,0-0.2,0.1-0.2,0.1c-0.4,0.2-1.1,0.2-1.5,0C70.8,48,70.8,47.9,70.7,47.9z M81.8,21.3c3.1,1.8,5.1,4.4,5.3,8
		c0.2,3.8,0.2,7.7,0,11.5c-0.1,1.5-0.6,3.1-1.3,4.5c-0.3,0.5-0.6,1-0.9,1.4c-2.2,0-4.3,0-6.5,0c-0.2,0-0.5,0-0.7,0
		c1.8-2.9,2.3-6,2.1-9.3c-0.1-2.1,0-4.1,0-6.2c0.1-4.4-1.5-8-4.9-11.1C77.4,19.9,79.7,20.1,81.8,21.3z M68.2,20.3
		c4.7,1.1,8.2,5.4,8.2,10.2c0,3,0,6,0,9.1s-1.3,5.6-3.5,7.7c-0.3,0.3-0.7,0.5-1,0.6c-0.4,0-0.8,0-1.2,0c-1.8-0.8-3.7-1.2-5.7-1.2
		c-0.2,0-0.4,0-0.6,0c0.5-0.6,1.1-0.8,2-0.9c2.9-0.1,4.9-1.9,6.4-4.4c2.4-4.1,2.1-9.7-0.7-13.5c-1.6-2.1-3.6-3.4-6.4-3.4
		c-0.3,0-0.7-0.2-0.9-0.4c-0.8-1.1-1.6-2.3-2.4-3.6C64.2,19.9,66.2,19.9,68.2,20.3z M66.1,42.6v-6.2c1.5,0.9,2.8,1.6,4.2,2.5
		C69.5,40.7,68.3,42.2,66.1,42.6z M50.7,20.2c5.3-1,10.4,2.3,11.8,7.5c0.1,0.5,0.3,1,0.3,1.5c0,3.9,0.1,7.7,0,11.6
		c-0.1,1.4-0.7,2.8-1.3,4.1c-0.3,0.7-0.7,1.3-1.2,1.7c-2,0-4.1,0-6.1,0c-0.3,0-0.5,0-0.8,0c1.9-3,2.3-6.2,2.2-9.5c-0.1-2,0-4,0-6
		C55.5,26.9,53.9,23.2,50.7,20.2z M56.4,50.3c4.7,1.1,8.2,5.4,8.2,10.2c0,3,0,6,0,9.1s-1.3,5.6-3.5,7.7c-0.3,0.3-0.7,0.5-1,0.5
		c-2.7,0-5.4,0-8.2,0c0.5-1.4,1.2-2,2.7-2.1c2.9-0.1,4.9-1.9,6.4-4.4c2.4-4.1,2.1-9.7-0.7-13.5c-1.6-2.1-3.7-3.4-6.4-3.4
		c-0.3,0-0.7-0.2-0.9-0.4c-0.8-1.1-1.6-2.3-2.4-3.6C52.5,49.9,54.4,49.9,56.4,50.3z M54.4,72.6c0-2.1,0-4.1,0-6.2
		c1.5,0.9,2.8,1.6,4.2,2.5C57.7,70.7,56.5,72.1,54.4,72.6z M48.3,47.9c-0.1,0-0.2,0.1-0.3,0.1c-0.4,0.2-1,0.1-1.5,0
		c-0.1,0-0.2-0.1-0.3-0.1H48.3z M38.9,50.2c5.3-1,10.4,2.3,11.8,7.5c0.1,0.5,0.3,1,0.3,1.5c0,3.9,0.1,7.7,0,11.6
		c-0.1,1.4-0.7,2.8-1.3,4.1c-1,2-2.5,3.4-5.1,3c-1.1-0.2-2.3,0-3.8,0c2.5-3.3,3.1-6.9,2.9-10.7c-0.1-2,0-4,0-6
		C43.8,56.9,42.1,53.2,38.9,50.2z M112.2,87.9c-0.5,0-1,0-1.4,0c-14.9,0-29.8,0-44.7,0c-0.3,0-7.2,0-9.9,0c-16.4,0-32.8,0-49.3,0
		c-0.4,0-0.8,0-1.3,0c0-2.3,0-4.4,0-6.6c35.5,0,71,0,106.5,0C112.2,83.5,112.2,85.7,112.2,87.9z"/>
	<linearGradient id="SVGID_2_" gradientUnits="userSpaceOnUse" x1="-10.8235" y1="105.7676" x2="106.5365" y2="-11.8324">
		<stop  offset="0" style="stop-color:#FF8D00"/>
		<stop  offset="1" style="stop-color:#FF1B00"/>
	</linearGradient>
	<path class="st1" d="M24.8,74c2.9,2.5,6.7,2.5,9.6,0.1c2.7-2.3,3.8-5.4,3.8-8c0-3.6-0.7-6.1-2.4-8.3c-2.9-3.7-7.7-4.3-11.1-1.3
		C19.8,60.8,19.8,69.8,24.8,74z M24.7,63.2c1.7,0.2,3,1,4.3,2.1c0.8,0.7,1.5,1.4,2.4,2c0.8,0.6,1.8,1,2.7,1.6
		c-0.9,2.7-3.3,4.2-5.5,3.6c-0.5-0.1-0.9-0.3-1.3-0.6C24.9,70.2,23.6,65.8,24.7,63.2z"/>
	<linearGradient id="SVGID_3_" gradientUnits="userSpaceOnUse" x1="-19.9593" y1="96.6504" x2="97.4007" y2="-20.9496">
		<stop  offset="0" style="stop-color:#FF8D00"/>
		<stop  offset="1" style="stop-color:#FF1B00"/>
	</linearGradient>
	<path class="st2" d="M36.5,44c2.9,2.5,6.7,2.5,9.6,0.1c2.7-2.3,3.8-5.4,3.8-8c0-3.6-0.7-6.1-2.4-8.3c-2.9-3.7-7.7-4.3-11.1-1.3
		C31.6,30.8,31.6,39.8,36.5,44z M36.5,33.2c1.7,0.2,3,1,4.3,2.1c0.8,0.7,1.5,1.4,2.4,2c0.8,0.6,1.8,1,2.7,1.6
		c-0.9,2.7-3.3,4.3-5.5,3.6c-0.5-0.1-0.9-0.3-1.3-0.6C36.7,40.2,35.4,35.8,36.5,33.2z"/>
</g>
</svg>
