<?xml version="1.0" encoding="utf-8"?>
<!-- Generator: Adobe Illustrator 24.0.0, SVG Export Plug-In . SVG Version: 6.00 Build 0)  -->
<svg version="1.1" id="Capa_1" xmlns="http://www.w3.org/2000/svg" xmlns:xlink="http://www.w3.org/1999/xlink" x="0px" y="0px"
	 viewBox="0 0 65 53.8" style="enable-background:new 0 0 65 53.8;" xml:space="preserve">
<style type="text/css">
	.st0{fill:url(#SVGID_1_);}
	.st1{fill:url(#SVGID_2_);}
	.st2{fill:url(#SVGID_3_);}
	.st3{fill:url(#SVGID_4_);}
	.st4{fill:url(#SVGID_5_);}
	.st5{fill:url(#SVGID_6_);}
	.st6{fill:url(#SVGID_7_);}
	.st7{fill:url(#SVGID_8_);}
	.st8{fill:url(#SVGID_9_);}
	.st9{fill:url(#SVGID_10_);}
	.st10{fill:url(#SVGID_11_);}
	.st11{fill:url(#SVGID_12_);}
	.st12{fill:url(#SVGID_13_);}
	.st13{fill:url(#SVGID_14_);}
	.st14{fill:url(#SVGID_15_);}
	.st15{fill:url(#SVGID_16_);}
	.st16{fill:url(#SVGID_17_);}
	.st17{fill:url(#SVGID_18_);}
</style>
<g>
	<linearGradient id="SVGID_1_" gradientUnits="userSpaceOnUse" x1="16.8538" y1="26.9" x2="62.7805" y2="26.9">
		<stop  offset="0" style="stop-color:#0076FF"/>
		<stop  offset="1" style="stop-color:#00B2FF"/>
	</linearGradient>
	<path class="st0" d="M17.3,42.7c-0.5,0.5-0.5,1.3,0,1.7l2.1,2.1c7.7,7.7,20.4,7.7,28.1,0l12.1-12.1c4.1-4.1,4.1-10.9,0-15L47.5,7.3
		c-7.7-7.7-20.4-7.7-28.1,0l-2.2,2.2c-0.5,0.5-0.5,1.3,0,1.7c0.5,0.5,1.3,0.5,1.7,0l1.4-1.4c7.3-7.3,19.1-7.3,26.4,0l10.4,10.4
		c3.7,3.7,3.7,9.6,0,13.3L46.7,43.9c-7.3,7.3-19.1,7.3-26.4,0L19,42.7C18.5,42.2,17.8,42.2,17.3,42.7z"/>
	<g>
		<linearGradient id="SVGID_2_" gradientUnits="userSpaceOnUse" x1="1.765" y1="26.8963" x2="4.2595" y2="26.8963">
			<stop  offset="0" style="stop-color:#0076FF"/>
			<stop  offset="1" style="stop-color:#00B2FF"/>
		</linearGradient>
		<path class="st1" d="M3.9,27.8c0.2-0.2,0.4-0.6,0.4-0.9S4.1,26.3,3.9,26c-0.2-0.2-0.6-0.4-0.9-0.4S2.4,25.8,2.1,26
			c-0.2,0.2-0.4,0.6-0.4,0.9s0.1,0.6,0.4,0.9C2.4,28,2.7,28.1,3,28.1C3.3,28.1,3.7,28,3.9,27.8z"/>
		<linearGradient id="SVGID_3_" gradientUnits="userSpaceOnUse" x1="4.74" y1="23.9277" x2="7.2272" y2="23.9277">
			<stop  offset="0" style="stop-color:#0076FF"/>
			<stop  offset="1" style="stop-color:#00B2FF"/>
		</linearGradient>
		<path class="st2" d="M6.9,24.8c0.5-0.5,0.5-1.3,0-1.8c-0.5-0.5-1.3-0.5-1.8,0c-0.5,0.5-0.5,1.3,0,1.8C5.6,25.3,6.4,25.3,6.9,24.8z
			"/>
		<linearGradient id="SVGID_4_" gradientUnits="userSpaceOnUse" x1="7.7041" y1="20.9636" x2="10.1912" y2="20.9636">
			<stop  offset="0" style="stop-color:#0076FF"/>
			<stop  offset="1" style="stop-color:#00B2FF"/>
		</linearGradient>
		<path class="st3" d="M9.8,21.8c0.5-0.5,0.5-1.3,0-1.8c-0.5-0.5-1.3-0.5-1.8,0c-0.5,0.5-0.5,1.3,0,1.8C8.6,22.3,9.3,22.3,9.8,21.8z
			"/>
		<linearGradient id="SVGID_5_" gradientUnits="userSpaceOnUse" x1="10.6681" y1="17.9982" x2="13.1553" y2="17.9982">
			<stop  offset="0" style="stop-color:#0076FF"/>
			<stop  offset="1" style="stop-color:#00B2FF"/>
		</linearGradient>
		<path class="st4" d="M12.8,18.9c0.5-0.5,0.5-1.3,0-1.8c-0.5-0.5-1.3-0.5-1.8,0c-0.5,0.5-0.5,1.3,0,1.8
			C11.5,19.4,12.3,19.4,12.8,18.9z"/>
		<linearGradient id="SVGID_6_" gradientUnits="userSpaceOnUse" x1="13.6285" y1="15.0328" x2="16.123" y2="15.0328">
			<stop  offset="0" style="stop-color:#0076FF"/>
			<stop  offset="1" style="stop-color:#00B2FF"/>
		</linearGradient>
		<path class="st5" d="M15.8,15.9c0.2-0.2,0.4-0.6,0.4-0.9c0-0.3-0.1-0.6-0.4-0.9c-0.2-0.2-0.6-0.4-0.9-0.4s-0.6,0.1-0.9,0.4
			c-0.2,0.2-0.4,0.6-0.4,0.9c0,0.3,0.1,0.6,0.4,0.9c0.2,0.2,0.6,0.4,0.9,0.4C15.2,16.3,15.5,16.1,15.8,15.9z"/>
		<linearGradient id="SVGID_7_" gradientUnits="userSpaceOnUse" x1="16.6035" y1="18.0042" x2="19.0907" y2="18.0042">
			<stop  offset="0" style="stop-color:#0076FF"/>
			<stop  offset="1" style="stop-color:#00B2FF"/>
		</linearGradient>
		<path class="st6" d="M18.7,18.9c0.5-0.5,0.5-1.3,0-1.8c-0.5-0.5-1.3-0.5-1.8,0c-0.5,0.5-0.5,1.3,0,1.8
			C17.5,19.4,18.2,19.4,18.7,18.9z"/>
		<linearGradient id="SVGID_8_" gradientUnits="userSpaceOnUse" x1="19.5676" y1="20.9682" x2="22.0547" y2="20.9682">
			<stop  offset="0" style="stop-color:#0076FF"/>
			<stop  offset="1" style="stop-color:#00B2FF"/>
		</linearGradient>
		<path class="st7" d="M21.7,21.8c0.5-0.5,0.5-1.3,0-1.8c-0.5-0.5-1.3-0.5-1.8,0c-0.5,0.5-0.5,1.3,0,1.8
			C20.4,22.3,21.2,22.3,21.7,21.8z"/>
		<linearGradient id="SVGID_9_" gradientUnits="userSpaceOnUse" x1="22.5316" y1="23.9322" x2="25.0188" y2="23.9322">
			<stop  offset="0" style="stop-color:#0076FF"/>
			<stop  offset="1" style="stop-color:#00B2FF"/>
		</linearGradient>
		<path class="st8" d="M24.7,24.8c0.5-0.5,0.5-1.3,0-1.8c-0.5-0.5-1.3-0.5-1.8,0c-0.5,0.5-0.5,1.3,0,1.8
			C23.4,25.3,24.2,25.3,24.7,24.8z"/>
		<linearGradient id="SVGID_10_" gradientUnits="userSpaceOnUse" x1="25.492" y1="26.8963" x2="27.9865" y2="26.8963">
			<stop  offset="0" style="stop-color:#0076FF"/>
			<stop  offset="1" style="stop-color:#00B2FF"/>
		</linearGradient>
		<path class="st9" d="M27.6,27.8c0.2-0.2,0.4-0.6,0.4-0.9s-0.1-0.6-0.4-0.9c-0.2-0.2-0.6-0.4-0.9-0.4s-0.6,0.1-0.9,0.4
			c-0.2,0.2-0.4,0.6-0.4,0.9s0.1,0.6,0.4,0.9c0.2,0.2,0.6,0.4,0.9,0.4C27.1,28.1,27.4,28,27.6,27.8z"/>
		<linearGradient id="SVGID_11_" gradientUnits="userSpaceOnUse" x1="22.5301" y1="29.8603" x2="25.0203" y2="29.8603">
			<stop  offset="0" style="stop-color:#0076FF"/>
			<stop  offset="1" style="stop-color:#00B2FF"/>
		</linearGradient>
		<circle class="st10" cx="23.8" cy="29.9" r="1.2"/>
		<linearGradient id="SVGID_12_" gradientUnits="userSpaceOnUse" x1="16.6035" y1="35.7898" x2="19.0907" y2="35.7898">
			<stop  offset="0" style="stop-color:#0076FF"/>
			<stop  offset="1" style="stop-color:#00B2FF"/>
		</linearGradient>
		<path class="st11" d="M18.7,36.7c0.5-0.5,0.5-1.3,0-1.8c-0.5-0.5-1.3-0.5-1.8,0c-0.5,0.5-0.5,1.3,0,1.8
			C17.5,37.2,18.2,37.2,18.7,36.7z"/>
		<linearGradient id="SVGID_13_" gradientUnits="userSpaceOnUse" x1="19.5676" y1="32.8258" x2="22.0547" y2="32.8258">
			<stop  offset="0" style="stop-color:#0076FF"/>
			<stop  offset="1" style="stop-color:#00B2FF"/>
		</linearGradient>
		<path class="st12" d="M21.7,33.7c0.5-0.5,0.5-1.3,0-1.8c-0.5-0.5-1.3-0.5-1.8,0c-0.5,0.5-0.5,1.3,0,1.8
			C20.4,34.2,21.2,34.2,21.7,33.7z"/>
		<linearGradient id="SVGID_14_" gradientUnits="userSpaceOnUse" x1="13.6358" y1="38.7526" x2="16.1303" y2="38.7526">
			<stop  offset="0" style="stop-color:#0076FF"/>
			<stop  offset="1" style="stop-color:#00B2FF"/>
		</linearGradient>
		<path class="st13" d="M14.9,40c0.3,0,0.6-0.1,0.9-0.4s0.4-0.6,0.4-0.9s-0.1-0.6-0.4-0.9c-0.2-0.2-0.6-0.4-0.9-0.4
			c-0.3,0-0.6,0.1-0.9,0.4c-0.2,0.2-0.4,0.6-0.4,0.9s0.1,0.6,0.4,0.9S14.6,40,14.9,40z"/>
		<linearGradient id="SVGID_15_" gradientUnits="userSpaceOnUse" x1="4.74" y1="29.8677" x2="7.2272" y2="29.8677">
			<stop  offset="0" style="stop-color:#0076FF"/>
			<stop  offset="1" style="stop-color:#00B2FF"/>
		</linearGradient>
		<path class="st14" d="M6.9,30.7c0.5-0.5,0.5-1.3,0-1.8c-0.5-0.5-1.3-0.5-1.8,0c-0.5,0.5-0.5,1.3,0,1.8C5.6,31.2,6.4,31.2,6.9,30.7
			z"/>
		<linearGradient id="SVGID_16_" gradientUnits="userSpaceOnUse" x1="10.6681" y1="35.7957" x2="13.1553" y2="35.7957">
			<stop  offset="0" style="stop-color:#0076FF"/>
			<stop  offset="1" style="stop-color:#00B2FF"/>
		</linearGradient>
		<path class="st15" d="M12.8,36.7c0.5-0.5,0.5-1.3,0-1.8c-0.5-0.5-1.3-0.5-1.8,0c-0.5,0.5-0.5,1.3,0,1.8S12.3,37.2,12.8,36.7z"/>
		<linearGradient id="SVGID_17_" gradientUnits="userSpaceOnUse" x1="7.7041" y1="32.8317" x2="10.1912" y2="32.8317">
			<stop  offset="0" style="stop-color:#0076FF"/>
			<stop  offset="1" style="stop-color:#00B2FF"/>
		</linearGradient>
		<path class="st16" d="M9.8,33.7c0.5-0.5,0.5-1.3,0-1.8c-0.5-0.5-1.3-0.5-1.8,0c-0.5,0.5-0.5,1.3,0,1.8S9.3,34.2,9.8,33.7z"/>
	</g>
	<linearGradient id="SVGID_18_" gradientUnits="userSpaceOnUse" x1="25.5459" y1="26.8926" x2="44.3891" y2="26.8926">
		<stop  offset="0" style="stop-color:#0076FF"/>
		<stop  offset="1" style="stop-color:#00B2FF"/>
	</linearGradient>
	<path class="st17" d="M40.1,28.1l-5.5,5.5c-0.5,0.5-0.5,1.3,0,1.8c0.5,0.5,1.3,0.5,1.8,0l7.6-7.6c0.5-0.5,0.5-1.3,0-1.8l-7.6-7.6
		c-0.5-0.5-1.3-0.5-1.8,0c-0.5,0.5-0.5,1.3,0,1.8l5.5,5.5H26.8c-0.3,0-0.7,0.1-0.9,0.4s-0.4,0.5-0.4,0.9c0,0.7,0.6,1.2,1.2,1.2
		L40.1,28.1z"/>
</g>
</svg>
