<?xml version="1.0" encoding="utf-8"?>
<!-- Generator: Adobe Illustrator 24.0.0, SVG Export Plug-In . SVG Version: 6.00 Build 0)  -->
<svg version="1.1" id="Capa_1" xmlns="http://www.w3.org/2000/svg" xmlns:xlink="http://www.w3.org/1999/xlink" x="0px" y="0px"
	 viewBox="0 0 87.5 78.4" style="enable-background:new 0 0 87.5 78.4;" xml:space="preserve">
<style type="text/css">
	.st0{fill:#FFFFFF;}
</style>
<g>
	<path class="st0" d="M56.7,76c0-15,0-19.9,0-34.9c0-0.3,0.2-0.7,0.5-0.9c0.8-0.6,1.6-1.5,2.5-1.5c0.8,0,1.7,0.9,2.5,1.4
		c2.1,1.4,2.1,1.4,4.1,0c0.3-0.2,0.5-0.4,0.9-0.6c0,0.3,0.1,0.5,0.1,0.8c0,13.6,0,17.2,0,30.9c0,2.4-1,3.7-3.7,4.8
		C61.2,76,59,76,56.7,76z"/>
	<path class="st0" d="M68.5,5c4.8,0,7.9,4.9,6.2,9.6c-2.6,7-4.2,11.3-6.8,18.2c-0.2,0.6-0.5,1.2-0.7,1.8c-0.3,1.3-1.1,2.2-2.3,2.9
		c-0.5,0.3-0.8,0.3-1.2,0c-0.9-0.7-1.9-1.3-2.8-1.9c-0.7-0.5-1.4-0.5-2.1,0c-1,0.7-2,1.3-2.9,2c-0.4,0.3-0.6,0.3-1,0
		c-0.7-0.5-1.3-0.9-2-1.4c-0.4-0.3-0.4-0.5-0.3-0.9C56,25.9,58.6,19,62.2,9.4C63.2,6.7,65.7,5,68.5,5z M65.1,30.4
		c-0.7-2.1-1.3-4.1-2-6.1c-0.3-0.8-1.1-1.2-1.9-0.9l0,0c-0.8,0.3-1.2,1.1-0.9,1.9c0.7,2.1,1.3,4.1,2,6.1c0.3,0.8,1.1,1.2,1.9,0.9
		l0,0C64.9,32,65.3,31.2,65.1,30.4z M64.6,14.8c0.7,2.1,1.3,4.1,2,6.1c0.3,0.8,1.1,1.2,1.9,0.9l0,0c0.8-0.3,1.2-1.1,0.9-1.9
		c-0.7-2.1-1.3-4.1-2-6.1c-0.3-0.8-1.1-1.2-1.9-0.9l0,0C64.8,13.1,64.4,14,64.6,14.8z"/>
	<path class="st0" d="M27.4,31.5c-0.9-1.9-1.7-3.7-2.6-5.5c-1.3-2.8-3.5-4.4-6.5-4.8c-1.1-0.1-2.2-2.1-1.7-3.1
		c0.4-0.8,1.3-1.1,2.2-0.7c1,0.4,1.7,0.4,2.2-0.3c0.5-0.7,0.4-1.4-0.4-2.2c-1.1-1.2-2.3-2.4-3.5-3.6c-0.3-0.3-0.6-0.8-0.7-1.3
		c-0.1-0.7,0.2-1.3,0.9-1.6c0.6-0.3,1.3-0.3,1.8,0.2c0.7,0.7,1.4,1.4,2.1,2.1c0.5,0.5,1.1,0.8,1.8,0.5c0.7-0.3,0.9-0.9,0.9-1.6
		c0-1.8,0-3.6,0-5.5c0-1.1,0.6-1.8,1.5-1.8c0.9,0,1.4,0.7,1.4,1.8c0,1.8,0,3.6,0,5.4c0,0.7,0.2,1.3,0.9,1.7c0.7,0.3,1.3,0,1.8-0.5
		c0.6-0.6,1.3-1.3,1.9-1.9c0.7-0.7,1.7-0.8,2.3-0.1c0.7,0.6,0.7,1.7,0,2.4c-1.6,1.7-3.2,3.3-4.8,4.9c-0.5,0.5-0.7,1.1-0.7,1.8
		c0,3.9,0,7.7,0,11.6C28.3,30.3,28.1,31,27.4,31.5z"/>
	<path class="st0" d="M44.7,36.3c-1.1-6.3-7.2-10-13.3-7.8c0-3.2,0-6.4,0-9.6c4.4,0,8.9,0,13.3,0C44.7,24.7,44.7,30.4,44.7,36.3z"/>
	<path class="st0" d="M47.8,36.8c0-6.1,0-12.3,0-18.4c0-0.2,0.1-0.5,0.2-0.6c1.9-1.9,3.8-3.8,5.8-5.8c0.9,1,1.9,1.9,2.8,2.8
		c0.2,0.2,0.2,0.6,0.1,0.9c-2.5,6.7-5,13.3-7.5,20c-0.2,0.5-0.7,0.9-1.1,1.3C47.9,36.9,47.8,36.8,47.8,36.8z"/>
	<path class="st0" d="M13.9,33c-2.9-3.3-1.5-7.9,2.5-8.8c2.2-0.5,4.5,0.6,5.5,2.7c1.3,2.6,2.5,5.2,3.6,7.8c0.2,0.4,0,0.9,0,1.4
		c-0.3-0.2-0.5-0.3-0.7-0.4c-0.6-0.4-1.3-0.4-1.9,0c-1,0.7-2,1.3-2.9,2c-0.5,0.3-0.8,0.3-1.2,0c-1-0.7-2-1.4-3.1-2.1
		c1.4-1.1,2.6-2.1,4-3.1c-0.6-0.8-1.2-1.6-1.8-2.4C16.5,31,15.2,32,13.9,33z"/>
	<path class="st0" d="M41.3,35.3c-1.2,0.8-2.4,1.6-3.5,2.3c-0.4,0.3-0.6,0.3-1,0c-1-0.7-2-1.3-3-2c-0.7-0.5-1.3-0.5-2,0
		c-1.1,0.8-2.2,1.5-3.3,2.2c-0.5-2.2,1.2-5.8,4.8-6.8C36.7,30.1,40.2,32,41.3,35.3z"/>
	<path class="st0" d="M50.1,11.4c-1.5,1.5-2.9,2.9-4.3,4.3c-0.1,0.1-0.3,0.2-0.5,0.2c-3.8,0-7.6,0-11.4,0c-0.1,0-0.2,0-0.4,0
		c1.4-1.4,2.9-2.9,4.3-4.3c0.1-0.1,0.3-0.2,0.5-0.2C42.1,11.4,46,11.4,50.1,11.4z"/>
	<path class="st0" d="M38.8,8V5.8c0-0.2,0.2-0.4,0.4-0.4h12.6c0.2,0,0.4,0.2,0.4,0.4V8c0,0.2-0.2,0.4-0.4,0.4H39.2
		C39,8.4,38.8,8.2,38.8,8z"/>
	<path class="st0" d="M53.7,43.5c0-1,0.3-2.1-0.1-2.8c-0.4-0.8-1.5-1.2-2.3-1.7c0,0,0,0-0.1,0c-0.3,0-0.7-0.1-0.9,0
		c-1,0.6-2,1.3-2.9,1.9c-0.7,0.5-1.5,0.5-2.2,0c-0.9-0.6-1.9-1.2-2.8-1.9c-0.5-0.4-0.8-0.3-1.3,0c-0.9,0.7-1.9,1.2-2.8,1.9
		c-0.6,0.4-1.5,0.4-2.1,0c-0.9-0.7-1.9-1.2-2.8-1.9c-0.4-0.3-0.8-0.3-1.2,0c-0.9,0.7-1.9,1.3-2.8,1.9c-0.6,0.5-1.5,0.5-2.2,0
		c-0.9-0.7-1.9-1.3-2.8-1.9c-0.3-0.2-0.8-0.2-1.1,0c-0.9,0.7-1.9,1.3-2.9,1.9c-0.7,0.5-1.6,0.4-2.2-0.1c-0.6-0.4-1.2-0.8-1.8-1.2
		c0,6.4,0,12.7,0,18.9c0,2.3,0,4.6,0,6.8v6.2c0,2.5,2,4.4,4.4,4.4h24.8c2.7,0,5.4,0,8.1,0c0-0.3,0-0.6,0-1
		C53.7,61.2,53.7,57.4,53.7,43.5z"/>
</g>
</svg>
