<?xml version="1.0" encoding="utf-8"?>
<!-- Generator: Adobe Illustrator 24.0.0, SVG Export Plug-In . SVG Version: 6.00 Build 0)  -->
<svg version="1.1" id="Capa_1" xmlns="http://www.w3.org/2000/svg" xmlns:xlink="http://www.w3.org/1999/xlink" x="0px" y="0px"
	 viewBox="0 0 87.5 78.4" style="enable-background:new 0 0 87.5 78.4;" xml:space="preserve">
<style type="text/css">
	.st0{fill:#FFFFFF;}
</style>
<g>
	<path class="st0" d="M16.9,38c-3.3,0-6.5,0-9.7,0c-1.4,0-1.8-0.4-1.8-1.8c0-6,0.6-11.9,2.4-17.6c0.6-1.8,1.3-3.5,2.2-5.1
		c1.3-2.5,3.1-4.5,5.7-5.8c3.9-2,7.7-4.2,11.6-6.3C27.8,1.1,28.4,1,29,1c6.4,0,12.8,0,19.2,0c0.6,0,1.2,0.2,1.7,0.4
		c4.4,2.4,8.8,4.8,13.2,7.2c1.4,0.8,2.3,2.1,3.2,3.4c2.3,3.6,3.6,7.5,4.3,11.6c0.6,3.4,0.9,8.2,1.3,11.8c0.3,0,0.7,0,1.1,0
		c1.6,0,3.2,0,4.8,0c0.9,0,1.5,0.7,1.6,1.6c0,2.1,0,3,0,5.2c0,0.4,0.1,0.8,0.3,1.1c2,3,2.4,6.3,2.3,9.8c-0.2,7.5-0.1,15-0.1,22.6
		c0,1.5-0.4,1.8-1.8,1.8c-6.4,0-12.8,0-19.3,0c-0.9,0-1.7-0.6-1.9-1.5c-0.4-1.4-0.7-2.9-1.2-4.3c-0.2,0.6-0.3,1.2-0.5,1.8
		c-0.2,0.9-0.5,1.8-0.7,2.7c-0.3,1-0.6,1.3-1.7,1.3c-6.5,0-13.1,0-19.6,0c-1.3,0-1.7-0.4-1.7-1.7c0-1.9,0-8.1,0-10.2
		c-0.3,0-0.6,0-0.9,0c-3.8,0-7.7,0-11.5,0c-2.3,0-4.1-1.9-4.1-4.2c0-8.3,0-13.6,0-22.4C16.9,38.7,16.9,38.4,16.9,38z M33.5,63
		c0-4.8,0.2-5.2-0.1-9.9c-0.2-3.5,0.4-6.8,2.3-9.8C36,43,36,42.5,36,42.1c0-2,0-2.8,0-4.9c0-1,0.8-1.8,1.8-1.8c6.3,0,12.6,0,18.9,0
		c0.3,0,0.6,0,0.9,0c0-0.2,0.1-0.3,0.1-0.3c0.2-4.1,0.5-9.4,0.7-13.4c0-0.2-0.3-0.6-0.5-0.7c-4.6-2.5-9.2-4.9-13.8-7.4
		c-0.3-0.2-0.6-0.2-1-0.2c-3,0.5-6,0.5-9,0c-0.3-0.1-0.7,0-1,0.2c-4.6,2.5-9.3,4.9-13.9,7.4c-0.3,0.2-0.5,0.4-0.4,0.8
		c0.3,4.5,0.6,9,0.7,13.5c0.1,8,0.1,19.9,0,25.2c0,1.4,1.2,2.6,2.6,2.6L33.5,63z M41.2,74.9c4.4,0,8.7,0,13,0c0.8-3,1.5-6,2.3-9
		c0.2-0.7,0.5-1.2,1.3-1.2c0.7,0,1.1,0.5,1.3,1.2c0.3,1.3,0.6,2.5,0.9,3.8c0.4,1.7,0.9,3.5,1.3,5.2c4.4,0,8.7,0,13,0
		c0-0.3,0-0.6,0-0.9c0-6.2,0-12.4,0-18.7c0-1.9,0.3-3.8-0.1-5.5c-0.5-1.7-1.8-3.2-2.7-4.8c0,0,0,0,0-0.1c-0.2-0.4-0.5-0.6-1-0.6
		c-8.4,0-16.9,0-25.3,0c-0.5,0-0.8,0.2-1,0.6c-0.8,1.4-1.7,2.9-2.6,4.3c-0.2,0.4-0.3,0.8-0.3,1.3c0,7.9,0,15.7,0,23.6
		C41.2,74.3,41.2,74.6,41.2,74.9z M8,35.3c3.1,0,6,0,9,0c0-0.2,0-0.4,0-0.5c-0.2-4.2-0.3-8.4-0.7-12.6c-0.3-3.2-0.8-6.4-1.8-9.4
		c-0.1-0.3-0.2-0.5-0.4-1C9,19.1,8.4,27.1,8,35.3z M69.3,35.4c-0.2-2.5-0.4-6.2-0.7-8.6c-0.5-4.1-1.5-8-3.4-11.7c-0.5-1-1.2-2-1.9-3
		c-0.1,0-0.2,0.1-0.3,0.1c-2.4,7.1-2.5,15.8-2.7,23.2C63.3,35.4,66.2,35.4,69.3,35.4z M49.2,3.9c-2.8,3.4-6.5,4.7-10.6,4.7
		c-4.2,0-7.9-1.3-10.6-4.7c-1,0.5-1.9,1-2.8,1.5c5.6,7.8,21.9,7.4,26.8,0C51.1,4.9,50.2,4.4,49.2,3.9z M41.1,41.7c0-1.7,0-2.1,0-3.7
		c-0.9,0-1.7,0-2.5,0c0,1.7,0,2.1,0,3.7C39.5,41.7,40.3,41.7,41.1,41.7z M46.2,38c-0.9,0-1.7,0-2.5,0c0,1.7,0,2.1,0,3.7
		c0.9,0,1.7,0,2.5,0C46.2,40,46.2,39.7,46.2,38z M48.9,38c0,1.7,0,2.1,0,3.8c0.9,0,1.7,0,2.4,0c0-1.7,0-2.1,0-3.8
		C50.5,38,49.7,38,48.9,38z M53.9,41.7c0.9,0,1.7,0,2.5,0c0-1.7,0-2.1,0-3.7c-0.8,0-1.6,0-2.5,0C53.9,39.7,53.9,40,53.9,41.7z
		 M59,41.7c0.9,0,1.7,0,2.5,0c0-1.7,0-2.1,0-3.7c-0.9,0-1.7,0-2.5,0C59,39.7,59,40.1,59,41.7z M64.2,38c0,1.7,0,2.1,0,3.7
		c0.9,0,1.7,0,2.5,0c0-1.7,0-2.1,0-3.7C65.8,38,65,38,64.2,38z M69.3,38c0,1.7,0,2.1,0,3.7c0.8,0,1.7,0,2.4,0c0-1.7,0-2.1,0-3.7
		C70.9,38,70.1,38,69.3,38z M74.4,38c0,1.7,0,2.1,0,3.7c0.9,0,1.7,0,2.4,0c0-1.7,0-2.1,0-3.7C76,38,75.2,38,74.4,38z"/>
</g>
</svg>
