<?xml version="1.0" encoding="utf-8"?>
<!-- Generator: Adobe Illustrator 24.0.0, SVG Export Plug-In . SVG Version: 6.00 Build 0)  -->
<svg version="1.1" id="Capa_1" xmlns="http://www.w3.org/2000/svg" xmlns:xlink="http://www.w3.org/1999/xlink" x="0px" y="0px"
	 viewBox="0 0 87.5 78.4" style="enable-background:new 0 0 87.5 78.4;" xml:space="preserve">
<style type="text/css">
	.st0{fill:#FFFFFF;}
</style>
<g>
	<path class="st0" d="M57.6,50.2c-0.8,3.2-1.6,6.3-2.3,9.5c-0.1,0.3,0,0.7,0,1c0.5,2.4,0.2,4.7-1.1,6.9c-3,5.2-9.8,5.3-13,0.2
		C39,64,39.5,59,42.6,56.1c2.8-2.6,6.8-2.8,9.7-0.4c0.3,0.2,0.5,0.4,0.9,0.7c0.2-0.9,0.5-1.8,0.7-2.6c0.7-2.9,1.5-5.8,2.2-8.8
		c0.1-0.6,0.2-1.3,0-1.9c-3.2-12.9-6.4-25.7-9.6-38.6c0-0.1,0-0.1-0.1-0.2c-0.3-1.1,0-1.8,0.9-2.1c0.8-0.2,1.5,0.3,1.8,1.4
		c0.6,2.3,1.1,4.5,1.7,6.8c2.3,9.2,4.5,18.3,6.8,27.6c0.1-0.3,0.2-0.5,0.3-0.7c2.7-11.1,5.5-22.1,8.2-33.2c0.1-0.3,0.1-0.5,0.2-0.8
		c0.3-0.9,1-1.3,1.7-1c0.7,0.2,1.1,0.9,0.9,1.8c-0.6,2.5-1.2,4.9-1.8,7.4c-2.6,10.6-5.3,21.3-7.9,31.9c-0.1,0.3-0.1,0.7-0.1,1.1
		c1,4,1.9,7.9,2.9,12c0.2-0.2,0.4-0.3,0.5-0.4c3.5-3.1,8.4-2.6,11.2,1.3c3.1,4.4,1.9,10.5-2.7,13.3c-0.1,0-0.1,0.1-0.3,0.2
		c0.6,1.4,1.6,2,3,2.3c0.2,0,0.4,0,0.6,0.1c0.9,0.1,1.4,0.7,1.3,1.5c-0.1,0.8-0.7,1.3-1.6,1.3c-2.5-0.2-4.5-1.3-5.7-3.6
		c-0.3-0.6-0.6-0.9-1.4-0.9c-4-0.4-7.4-3.7-7.2-7.9c0.2-4.3-1-8.1-1.9-12.1c-0.1-0.4-0.2-0.8-0.3-1.2C57.7,50.2,57.7,50.2,57.6,50.2
		z M42.6,62.7c0,1.5,0.4,2.9,1.4,4.1c2,2.5,5.4,2.5,7.5,0c1.9-2.4,1.8-6.1-0.2-8.4c-1.9-2.2-5-2.2-7,0C43.1,59.5,42.6,61,42.6,62.7z
		 M72.8,62.7c0-1.6-0.5-3-1.4-4.2c-2-2.4-5.2-2.5-7.3-0.1c-2.1,2.4-2,6.4,0.1,8.7c2,2.1,5,2.1,6.9-0.1
		C72.3,65.9,72.8,64.4,72.8,62.7z"/>
	<g>
		<path class="st0" d="M15.9,25.4c0.4,5.8,0.6,10.4,0.9,15c0.2,4.4-0.2,8.8-0.8,13.1c-0.5,4.4-1.1,8.8-1.6,13.2
			c-0.1,1.3,0,2.7,0.2,4c0.3,1.8,1.2,2.6,3.1,2.6c1.1,0,2.1-0.1,3.2-0.3c1.3-0.2,2.1-1,2.1-2.2c0-2.2-0.1-4.4-0.3-6.5
			c-0.3-3.6-0.9-7.2-1.2-10.8c-0.1-1.5,0.2-3,0.6-4.5c0.7-2.8,2.6-4.4,5.5-4.6c2.4-0.2,4.7-0.4,7.1-0.5c1.1-0.1,1.8,0.5,1.8,1.3
			c0,0.8-0.6,1.3-1.7,1.4c-2.3,0.2-4.6,0.3-6.8,0.5c-2,0.2-2.9,0.9-3.3,2.8c-0.3,1.4-0.5,2.9-0.4,4.3c0.3,3.3,0.8,6.6,1.2,9.9
			c0.2,2,0.5,3.9,0.4,5.9c-0.1,3.5-1.7,5.4-5.2,5.9c-1.4,0.2-2.9,0.2-4.4,0c-2.8-0.4-4.4-2.7-4.7-6.1c-0.3-3.4,0.2-6.7,0.6-10
			c0.8-5.9,1.9-11.7,1.7-17.7c-0.1-3.6-0.4-7.2-0.6-10.9C13.1,24.6,13,17.8,13.9,11c0.2-1.6,0.6-3.2,1.1-4.8c0.9-3,2.1-4,5.2-4
			c3.6,0,7.2,0.2,10.9,0.4C32.4,2.8,33.7,3,35,3.2c1.1,0.1,1.7,0.7,1.6,1.5c-0.1,0.9-0.8,1.3-1.9,1.2c-3.8-0.3-7.6-0.7-11.4-0.9
			C22.1,4.9,20.9,5,19.6,5c-1.2,0-1.9,0.6-2.1,1.8c-0.4,1.8-0.9,3.6-1,5.4C16.2,17,16,21.8,15.9,25.4z"/>
		<path class="st0" d="M29.5,26.3c1.7,0,3.4,0,5.1,0c1.1,0,1.7,0.5,1.8,1.3c0,0.8-0.6,1.4-1.6,1.4c-3.5,0.1-7.1,0.2-10.6,0.2
			c-1,0-1.6-0.5-1.6-1.4c0-0.8,0.6-1.4,1.6-1.4c1.8,0,3.6,0,5.4,0C29.5,26.5,29.5,26.4,29.5,26.3z"/>
		<path class="st0" d="M29.4,35.2c-1.7,0.1-3.3,0.2-5,0.2c-1,0-1.7-0.4-1.8-1.3c-0.1-0.8,0.5-1.4,1.6-1.5c3.5-0.2,6.9-0.3,10.4-0.5
			c1.1,0,1.8,0.5,1.8,1.4c0,0.8-0.6,1.3-1.7,1.4C32.9,35.1,31.1,35.1,29.4,35.2z"/>
		<path class="st0" d="M29.5,23.1c-1.7,0-3.5,0-5.2,0c-1.1,0-1.7-0.5-1.7-1.4c0-0.9,0.6-1.4,1.7-1.4c3.5,0,6.9,0,10.4,0
			c1.1,0,1.7,0.5,1.7,1.3c0,0.9-0.6,1.4-1.7,1.4C33,23.1,31.2,23.1,29.5,23.1C29.5,23.1,29.5,23.1,29.5,23.1z"/>
		<path class="st0" d="M29.9,16.9c-1.7,0-3.5,0-5.2,0c-0.9,0-1.5-0.5-1.5-1.4c0-0.8,0.6-1.4,1.6-1.4c3.4,0.1,6.9,0.2,10.3,0.3
			c0.9,0,1.5,0.6,1.5,1.4c0,0.8-0.6,1.3-1.6,1.3c-1.7,0-3.4,0-5.1,0C29.9,17.1,29.9,17,29.9,16.9z"/>
		<path class="st0" d="M34.1,11.2c-2.9-0.2-5.9-0.3-8.8-0.5c-1-0.1-1.6-0.6-1.5-1.4c0-0.8,0.7-1.3,1.7-1.3c3.2,0.2,6.4,0.3,9.6,0.5
			c1,0.1,1.6,0.6,1.5,1.5c0,0.8-0.6,1.3-1.6,1.3C34.7,11.2,34.4,11.2,34.1,11.2C34.1,11.2,34.1,11.2,34.1,11.2z"/>
		<path class="st0" d="M26,41.6c-0.3,0-0.7,0.1-1,0.1c-0.8,0-1.4-0.5-1.4-1.2c-0.1-0.8,0.4-1.3,1.2-1.4c1.1-0.1,2.1-0.2,3.2-0.3
			c2.2-0.2,4.4-0.3,6.6-0.5c1-0.1,1.6,0.3,1.7,1.2c0.1,0.9-0.4,1.5-1.5,1.6C31.8,41.2,28.9,41.4,26,41.6C26,41.6,26,41.6,26,41.6z"
			/>
	</g>
</g>
</svg>
