<?xml version="1.0" encoding="utf-8"?>
<!-- Generator: Adobe Illustrator 24.0.0, SVG Export Plug-In . SVG Version: 6.00 Build 0)  -->
<svg version="1.1" id="Capa_1" xmlns="http://www.w3.org/2000/svg" xmlns:xlink="http://www.w3.org/1999/xlink" x="0px" y="0px"
	 viewBox="0 0 87.5 78.4" style="enable-background:new 0 0 87.5 78.4;" xml:space="preserve">
<style type="text/css">
	.st0{fill:#FFFFFF;}
</style>
<g>
	<path class="st0" d="M27.2,16.7c-0.2,0-0.2,0-0.3,0c-1.6,0.1-2-0.3-1.9-2c0.1-1.9,0-2.8,0-4.7c0-2.6,1.9-4.6,4.5-4.6
		c9.5,0,19,0,28.5,0c2.6,0,4.5,1.9,4.5,4.5c0,2,0,3.1,0,5.2c0,1.3-0.3,1.6-1.6,1.6c-0.2,0-0.4,0-0.6,0c0,0.6,0,1.2,0,1.8
		c0,1.5,0,2.9,0,4.4c1,1,2,2.1,3.1,3.1c0.6,0.6,1.1,1.1,1.7,1.7c1.9,2,2.9,4.4,2.9,7.2c0,10.8,0,21.7,0,32.5c0,3.4-2.4,5.8-5.8,5.8
		c-12.4,0-24.7,0-37.1,0c-3.4,0-5.8-2.4-5.8-5.7c0-10.9,0-21.8,0-32.7c0-2.7,1-5,2.8-7c1.5-1.5,3-3,4.5-4.5c0.2-0.2,0.4-0.6,0.4-0.9
		C27.2,20.4,27.2,18.6,27.2,16.7z M43.7,70.9c6.2,0,12.3,0,18.5,0c2.3,0,3.6-1.4,3.6-3.6c0-10.8,0-21.5,0-32.3c0-2.3-0.8-4.3-2.5-6
		c-1.4-1.4-2.8-2.8-4.2-4.2c-0.2-0.2-0.7-0.4-1-0.4c-9.6,0-19.2,0-28.9,0c-0.3,0-0.7,0.2-1,0.4c-1.4,1.3-2.7,2.7-4.1,4.1
		c-1.8,1.7-2.6,3.7-2.6,6.2c0,10.7,0,21.4,0,32c0,2.4,1.3,3.7,3.8,3.7C31.5,70.9,37.6,70.9,43.7,70.9z M58.1,16.7
		c-9.6,0-19.1,0-28.6,0c0,1.9,0,3.7,0,5.5c9.6,0,19.1,0,28.6,0C58.1,20.3,58.1,18.5,58.1,16.7z M31.6,7.6c0,2.6,0,4.2,0,6.7
		c0.7,0,1.4,0,2.1,0c0-2.6,0-4.2,0-6.7C33,7.6,32.4,7.6,31.6,7.6z M36,14.4c0.8,0,1.5,0,2.1,0c0-2.6,0-4.2,0-6.7c-0.7,0-1.4,0-2.1,0
		C36,10.2,36,11.8,36,14.4z M40.5,7.6c0,2.6,0,4.2,0,6.7c0.7,0,1.4,0,2.1,0c0-2.6,0-4.2,0-6.7C41.9,7.6,41.2,7.6,40.5,7.6z M47,14.4
		c0-2.6,0-4.2,0-6.7c-0.7,0-1.4,0-2.1,0c0,2.6,0,4.2,0,6.7C45.6,14.4,46.3,14.4,47,14.4z M49.3,7.6c0,2.6,0,4.2,0,6.7
		c0.7,0,1.4,0,2.1,0c0-2.6,0-4.2,0-6.7C50.7,7.6,50,7.6,49.3,7.6z M55.8,14.4c0-2.6,0-4.3,0-6.8c-0.7,0-1.4,0-2.1,0
		c0,2.6,0,4.2,0,6.7c0.1,0,0.3,0,0.4,0C54.7,14.4,55.2,14.4,55.8,14.4z M29.4,7.6c-1.3,0.1-2.2,1-2.2,2.2c0,1.2,0,1.5,0,2.7
		c0,0.6,0,1.3,0,1.9c0.8,0,1.5,0,2.2,0C29.4,11.8,29.4,10.2,29.4,7.6z M60.3,14.4c0-1.9,0-2.8,0-4.7c0-1.2-0.9-2-2.1-2.1
		c0,2.6,0,4.2,0,6.8C58.9,14.4,59.6,14.4,60.3,14.4z"/>
	<path class="st0" d="M43.8,29.9c-9.7,0-17.6,7.9-17.7,17.5c-0.1,9.9,7.8,17.9,17.6,17.9c9.7,0.1,17.7-7.9,17.8-17.6
		C61.5,37.9,53.6,29.9,43.8,29.9z M52.8,44.1c-3.2,5-6.4,10-9.6,14.9c-0.4,0.5-0.8,0.9-1.5,0.7c-0.6-0.2-0.8-0.7-0.7-1.5
		c0.3-2.7,0.6-5.5,0.9-8.4h-2.4c-0.6,0-1.1,0-1.7,0c-0.9,0-1.4-0.6-1.2-1.5c0.6-3.6,1.3-7.1,1.9-10.7c0.4-2.2,0.3-2.3,2.7-2.2
		c1.7,0,3.3,0,5,0c1.1,0,1.5,0.5,1.3,1.6c-0.3,1.6-0.6,3.2-0.9,4.8c0,0,0,0.1,0,0.2c1.7,0,3.4,0,5,0c0.5,0,1,0.1,1.3,0.6
		C53.3,43.2,53.1,43.6,52.8,44.1z"/>
</g>
</svg>
