<?xml version="1.0" encoding="utf-8"?>
<!-- Generator: Adobe Illustrator 24.0.0, SVG Export Plug-In . SVG Version: 6.00 Build 0)  -->
<svg version="1.1" id="Capa_1" xmlns="http://www.w3.org/2000/svg" xmlns:xlink="http://www.w3.org/1999/xlink" x="0px" y="0px"
	 viewBox="0 0 117.8 84.3" style="enable-background:new 0 0 117.8 84.3;" xml:space="preserve">
<style type="text/css">
	.st0{fill:#23B502;}
	.st1{opacity:0.2;}
	.st2{fill:#FFFFFF;}
</style>
<g>
	
		<ellipse transform="matrix(0.9239 -0.3827 0.3827 0.9239 -13.3609 21.1001)" class="st0" cx="46.4" cy="44.1" rx="35.3" ry="35.3"/>
	<path class="st1" d="M112.3,13.4c-1.1-2.1-4.9-3.5-11.4-4.2c-3.5-0.4-10.1-0.8-14.1,1.3C68.6,20,53.7,34.9,41,48.8l-7-12.6
		c-0.5-0.9-1.6-2.9-11.7-3.8c-3.6-0.3-9.9-0.5-12.9,1.1C7.3,34.7,6.6,37,7.7,39l17.6,31.4c0.8,1.4,2.4,2.7,9.5,3.5
		c1,0.1,2.3,0.2,3.7,0.3c4.6,0.3,10.6,0.2,12.6-2c2.2-2.4,4.4-4.8,6.5-7.2c15.8-17.7,32-35.9,53-46.8
		C112.8,17.1,113.1,14.9,112.3,13.4z"/>
	<path class="st2" d="M108.6,8.5c-1.2-2-5.1-3.2-11.6-3.5c-3.6-0.2-10.1-0.2-14,2.2c-17.7,10.6-31.6,26.4-43.4,41L31.8,36
		c-0.5-0.8-1.8-2.8-11.9-3c-3.6-0.1-10,0.1-12.8,1.9c-2,1.3-2.6,3.7-1.4,5.6l19.4,30.3c0.8,1.3,2.6,2.6,9.7,3c1,0.1,2.3,0.1,3.8,0.1
		c4.6,0,10.6-0.5,12.5-2.8c2-2.5,4.1-5.1,6-7.6c14.7-18.6,29.8-37.8,50-50C109.3,12.2,109.5,10,108.6,8.5z"/>
	<path class="st0" d="M84.5,9.7c-18.1,10.9-32.1,27-45.2,43.5c-3.3-5.2-6.7-10.4-10-15.6C27.9,35.3,5.8,35,8.2,38.9
		c6.5,10.1,13,20.2,19.4,30.3c1.4,2.2,19.3,2.3,21.1,0C65.6,48.1,82.1,25,105.6,10.9C109.5,8.6,90.6,6,84.5,9.7z"/>
</g>
</svg>
