<?xml version="1.0" encoding="utf-8"?>
<!-- Generator: Adobe Illustrator 24.0.0, SVG Export Plug-In . SVG Version: 6.00 Build 0)  -->
<svg version="1.1" id="Capa_1" xmlns="http://www.w3.org/2000/svg" xmlns:xlink="http://www.w3.org/1999/xlink" x="0px" y="0px"
	 viewBox="0 0 117.8 117.8" style="enable-background:new 0 0 117.8 117.8;" xml:space="preserve">
<style type="text/css">
	.st0{fill:#9B9B9B;}
</style>
<g>
	<path class="st0" d="M113.9,40.9c-1.1-4.4-3-8.5-6.7-11.1c-10.4-7.3-22-10.5-34.7-9.7c-1.3,0.1-2.7,0.2-4.3,0.4
		c-8.9,2.3-19.3,3.4-28.5,15c-4.7-0.5-8.5-0.5-12.1,0C16.2,37,11.9,40.1,9.3,42.1C4.2,46,4.3,49.8,4,53c-0.4,5-0.8,8.4-0.6,25.9
		c0,2.6,0.8,5.1,2.1,7.3c0.2,0.2,0.3,0.4,0.3,0.5c2.1,2.6,4.7,4.7,7.7,6.1c11.5,5.3,23.2,5.5,35,1C53.1,92,57,89.3,59.6,85
		c0.2-0.3,0.8-0.5,1.1-0.4c2.9,0.7,5.6,0.5,8-1.4c0.7-0.5,1.3-0.4,2,0c3.6,2.3,7.3,2.3,10.9,0c0.6-0.4,1.5-0.4,2.1,0
		c5.3,3.2,11.2,1.6,14.3-3.8c0.3-0.5,1.1-1.1,1.7-1.1c5.6-0.7,9.3-5.1,8.9-10.7c0-0.9,0.2-1.4,0.8-2c3.7-3.3,4.5-7.6,2.4-12.1
		c-0.1-0.3-0.3-0.7-0.2-0.9c0.6-1.6,1.1-3.2,1.7-4.8c0.5-1.3,0.7-2.6,0.7-4v-2.3C114.1,41.3,114,41.1,113.9,40.9z M47.5,32.8l3.8,6
		l-6.9-2.7L47.5,32.8z M9,47c1.9-2.4,4.3-4.1,7.1-5.2c10.7-4.5,21.5-4.5,32.2,0c2.7,1.1,5,2.7,6.9,5c2.9,3.6,2.9,7.7,0,11.2
		c-3.1,3.7-7.3,5.7-11.8,6.8c-3.6,0.9-11.1,1.6-11.2,1.5c-5.9-0.1-11.7-1-17-3.8c-2.3-1.2-4.4-2.6-6-4.7C6.3,54.5,6.2,50.5,9,47z
		 M57.4,62.9c0,5.1,0,10.3,0,15.4c0,2.9-1,5.2-3,7.1c-3.3,3.4-7.5,5.2-12,6.3c-8.6,2-17.1,1.7-25.3-1.6c-2.7-1.1-5.2-2.6-7.3-4.7
		c-1.9-2-3-4.3-2.9-7.2C7,73.2,7,68.1,7,63v-1.5c11.8,11.6,38.6,11.6,50.4,0V62.9z M107.4,62.3c-1.9,1.7-2.8,3.6-2.6,6.2
		c0.2,3.1-2.2,5.7-5.3,6c-2.3,0.2-3.9,1.2-5,3.3c-1.7,3.3-5.4,4.3-8.5,2.3c-2.3-1.4-4.4-1.4-6.6,0c-2.1,1.4-4.3,1.3-6.4,0
		c-2.2-1.4-4.3-1.4-6.5,0c-1.4,0.9-2.8,1.1-4.4,0.9c-0.8-0.1-1-0.4-1-1.2c0-6.2,0-12.4,0.1-18.6c0-0.4,0.4-0.9,0.8-1.2
		c1-0.6,2.2-1,3.2-1.7c7.3-4.6,14.6-4.6,21.9-0.1c4.6,2.8,9.4,3.4,14.6,2.1c2.7-0.7,5-2.2,7.2-4.2C109.7,58.7,109.1,60.7,107.4,62.3
		z M109.8,47.4c-1.4,5-6.3,9-11.7,9.6c-3.6,0.4-6.7-0.8-9.7-2.6c-6.9-4.1-14.2-4.6-21.6-1.4c-1.3,0.6-2.5,1.4-3.7,2.1
		c-0.5,0.3-1,0.6-1.8,1c0.1-3.5,0.2-6.9-1.8-9.9c0.5-0.2,0.9-0.4,1.3-0.5c2.8-1.3,4.4-4.2,3.8-7.3c-0.8-4.1-2.4-7.7-4.9-11.3
		c2.2-0.8,4.2-1.4,6.3-2.1c0.7-0.3,1.1,0,1.5,0.6c1.6,2.7,2.4,5.5,2.4,8.6c0,1.2-0.1,2.3,0.1,3.5c0.5,3,2.9,4.7,6.2,4.8
		c3.1,0.1,5.9-2,6.5-5c0.7-3.7,0.3-7.3-0.6-10.9c-0.2-0.8-0.4-1.5-0.8-2.6c2.8,0.6,5.3,1,7.8,1.6c0.3,0.1,0.6,0.6,0.8,1
		c1,3,0.9,6.1,0,9.1c-0.7,2.3-0.6,4.4,0.9,6.3c1.7,2.1,3.9,2.9,6.5,2.6c2.5-0.3,4-1.9,4.9-4.2c0.2-0.6,1-5.7,1.4-8.3
		c0.4,0.3,0.8,0.5,1.3,0.8C109.5,36.1,111.3,41.9,109.8,47.4z"/>
	<path class="st0" d="M30.6,78.9c-0.8-0.8-1.7-0.8-2.6-0.2c-0.9,0.6-1,1.7-0.4,2.6c1.1,1.6,2.6,2.3,4.5,2.4c1.9-0.1,3.5-0.9,4.6-2.4
		c0.6-0.9,0.4-1.8-0.4-2.5c-0.9-0.6-1.8-0.6-2.6,0.1C32.2,80.2,32,80.2,30.6,78.9z"/>
	<path class="st0" d="M20.1,75.9c-1-0.1-1.9,0.6-2,1.7c-0.1,0.6,0,1.2,0,1.8C18,80,18,80.5,18.1,81c0.1,1.2,0.9,1.9,1.9,1.9
		c1.1,0,1.9-0.8,1.9-2c0-1.1,0.1-2.1,0-3.2C21.8,76.6,21.2,76,20.1,75.9z"/>
	<path class="st0" d="M44.3,82.8c1,0,1.8-0.7,1.9-1.8c0.1-1.1,0.1-2.3,0-3.4s-1-1.8-2-1.7c-1.1,0.1-1.7,0.7-1.8,1.8
		c0,0.6,0,1.1,0,1.7c0,0.5,0,1.1,0,1.5C42.5,82,43.3,82.8,44.3,82.8z"/>
	<path class="st0" d="M19.7,55.2c1,2.9,5.8,5.1,11.5,5.1c0.2,0,0.4,0,0.6,0c0.1,0,0.1,0,0.2,0c4,0.1,7.7-0.6,10.9-3.1
		c1.8-1.4,2.8-3.2,2.4-5.6c-0.3-2-1.5-3.3-3.1-4.4c-3.1-2-6.5-2.6-10.7-2.6c-3,0-6.5,0.6-9.4,2.7c-2.1,1.4-3.4,3.3-3,5.9
		C19.2,53.9,19.4,54.6,19.7,55.2z"/>
</g>
</svg>
