<?xml version="1.0" encoding="utf-8"?>
<!-- Generator: Adobe Illustrator 24.0.0, SVG Export Plug-In . SVG Version: 6.00 Build 0)  -->
<svg version="1.1" id="Capa_1" xmlns="http://www.w3.org/2000/svg" xmlns:xlink="http://www.w3.org/1999/xlink" x="0px" y="0px"
	 viewBox="0 0 87.5 78.4" style="enable-background:new 0 0 87.5 78.4;" xml:space="preserve">
<style type="text/css">
	.st0{fill:#FFFFFF;}
</style>
<g>
	<path class="st0" d="M36.8,43.7c-1.1-1.2-2.2-2.4-3.3-3.6c-1.4,1.4-2.7,2.7-4,4.1c-0.3-0.4-0.5-0.6-0.7-0.8
		c-6.8-9-10.6-14.5-17.4-23.5c-2.5-3.3-3.8-7-3.8-11.1c0-0.5,0-1,0.1-1.5v0c0-0.3,0.4-0.4,0.5-0.2c12,11.9,20.9,20.5,32.9,32.4
		c1.8-1.7,3.5-3.3,5.1-4.8c-0.6-1.1-1.3-2.1-1.6-3.3c-0.8-2.8-0.1-5.3,2-7.3c4.4-4.5,8.9-8.9,13.4-13.4c1.6-1.6,3.2-3.2,4.8-4.7
		c0.8-0.8,1.7-0.9,2.3-0.2c0.7,0.7,0.2,1.8-1.5,3.1c-1.5,1.3-12.6,12.9-13,13.3c-0.6,0.7-0.5,1.5,0.1,2c0.6,0.5,1.3,0.6,2,0
		c0.2-0.2,0.4-0.4,0.6-0.6c4.5-4.5,8.9-8.9,13.4-13.4c0.5-0.5,0.9-1.1,1.8-0.9c0.2,0.1,0.5,0.2,0.7,0.3c0.6,0.5,0.6,1.2,0.2,1.8
		c-0.2,0.3-0.5,0.6-0.7,0.8c-4.4,4.5-8.9,8.9-13.3,13.4c-0.2,0.2-0.4,0.4-0.6,0.7c-0.4,0.6-0.4,1.3,0.1,1.8c0.5,0.6,1.2,0.7,1.9,0.2
		c0.3-0.2,0.5-0.4,0.7-0.7c4.5-4.5,8.9-8.9,13.4-13.4c0.2-0.2,0.5-0.5,0.7-0.7c0.6-0.4,1.2-0.4,1.8,0.1c0.6,0.5,0.6,1.2,0.2,1.8
		c-0.2,0.3-0.4,0.5-0.7,0.7c-4.5,4.5-8.9,9-13.4,13.4c-0.2,0.2-0.4,0.4-0.6,0.6c-0.4,0.6-0.5,1.3,0.1,1.9c0.6,0.6,1.2,0.6,1.9,0.1
		c0.3-0.2,0.5-0.5,0.8-0.7c4.4-4.4,8.8-8.8,13.2-13.2c0.2-0.2,0.4-0.4,0.7-0.6c0.6-0.5,1.4-0.4,1.9,0.1c0.5,0.6,0.6,1.2,0.1,1.8
		c-0.2,0.2-0.4,0.4-0.6,0.6c-5.8,5.8-11.7,11.6-17.4,17.5c-3,3.1-7.4,3.8-11,0.6c-1.5,1.7-3.1,3.3-5,5.3c0.3,0.2,0.7,0.2,0.9,0.5
		c6.7,6.3,13.3,12.7,20,19.1c1.8,1.7,2.2,3.7,1,5.5c-1.6,2.7-4.9,3.1-7,0.8c-2.2-2.3-4.3-4.7-6.4-7.1c-4.1-4.6-8.2-9.1-12.4-13.7
		c-0.1-0.2-0.2-0.3-0.5-0.7c-0.4,0.4-0.6,0.7-0.8,1C33.7,56.8,26.8,64.1,20,71.4c-1.2,1.3-2.6,1.9-4.3,1.4c-1.6-0.4-2.9-1.8-3.3-3.4
		c-0.5-1.8,0.3-3.1,1.5-4.2c3.6-3.3,7.1-6.7,10.7-10c3.9-3.6,7.7-7.2,11.6-10.9C36.3,44.1,36.6,43.9,36.8,43.7z"/>
</g>
</svg>
