<?xml version="1.0" encoding="utf-8"?>
<!-- Generator: Adobe Illustrator 24.0.0, SVG Export Plug-In . SVG Version: 6.00 Build 0)  -->
<svg version="1.1" id="Capa_1" xmlns="http://www.w3.org/2000/svg" xmlns:xlink="http://www.w3.org/1999/xlink" x="0px" y="0px"
	 viewBox="0 0 87.5 78.4" style="enable-background:new 0 0 87.5 78.4;" xml:space="preserve">
<style type="text/css">
	.st0{fill:#FFFFFF;}
</style>
<g>
	<path class="st0" d="M82.4,41.9c-0.1,3.6-2.4,5.5-5.2,7c-4.4,2.3-8.9,3.9-13.8,4.6c-15.3,1.9-30.6,3.8-46,5.7
		c-1.9,0.2-3.8,0.4-5.7,0.3c-4.9-0.2-7.9-3.8-7-8.6C5.8,44.1,6,37.3,6.5,30.5c0.1-1,0.2-2.1,0.2-3.1C6.8,25.8,8,25.2,9.3,26
		c1.3,0.8,2.5,1.6,3.8,2.3c1.5,0.9,3.1,1.2,4.9,1.2c3.3-0.1,6.5-0.6,9.6-1.7c2.4-0.9,3.8-3,3.5-5.6c-0.1-0.8-0.2-1.6-0.3-2.4
		c-0.1-0.7,0-1.3,0.6-1.7c0.6-0.4,1.2-0.4,1.8,0c2.1,1.1,4.3,2.1,6.5,3.2c0.6-1.1,1-2.7,2.7-1.8c1.5,0.8,0.5,2.1,0.1,3.2
		c1.2,0.6,2.3,1.1,3.5,1.8c0.2-0.4,0.4-0.8,0.5-1.1c0.4-0.8,1.3-1.2,2-0.8c0.8,0.4,1.1,1.2,0.7,2.1c-0.2,0.4-0.3,0.7-0.5,1.2
		c0.6,0.3,1.2,0.6,1.7,0.9c0.6,0.3,1.1,0.6,1.8,0.9c0.6-1,0.9-2.6,2.6-1.9c1.7,0.8,0.7,2.1,0.2,3.2c2.2,1.3,4.5,2.1,7,2.5
		c4.4,0.7,8.8,1.4,13.2,2.1c2.8,0.5,5.1,1.6,6.3,4.3c0.2,0.5,0.4,1,0.6,1.5C82.1,40.2,82.2,41.1,82.4,41.9z M41.1,25.6
		c-0.3,0.7-0.6,1.4-0.9,2c-0.1,0.3-0.2,0.5-0.4,0.8c-0.4,0.8-1.2,1-2,0.7c-0.8-0.3-1.1-1.2-0.8-2c0.4-1,0.8-1.9,1.3-2.9
		c-1.3-0.7-2.6-1.3-3.8-1.9c-0.1,0-0.2-0.1-0.3-0.1c0,0.2,0,0.3,0,0.4c0.1,3.6-2,6.8-5.4,8c-3.3,1.2-6.8,1.8-10.4,2
		c-2.6,0.1-5-0.4-7.2-1.8c-0.5-0.3-1-0.6-1.6-0.9L8.6,44.6c0.4,0,0.6,0,0.9,0c1.4-0.1,2.7,0,4.1,0c3.1,0,6-0.4,8.8-1.7
		c3.9-1.7,8-2.1,12.3-1.2c3.2,0.7,6.4,1.1,9.7,1.4c3.2,0.2,6.3,0.1,9.5,0.1c4.2,0,8.4,0.2,12.7,0c3.1-0.2,6.1-0.8,9.2-1.3
		c0.6-0.1,1.2-0.2,1.8-0.3c1-0.2,1.6-1.3,1.2-2.3c-0.6-1.3-1.8-2.2-3.6-2.5c-3.6-0.6-7.3-1.2-10.9-1.7c-3.6-0.5-7.1-1.2-10.2-3
		c-0.1,0-0.2,0-0.3-0.1c-0.4,0.8-0.6,1.2-1,2c-0.5,1-1.3,1.3-2.1,0.9c-0.8-0.4-1.1-1.3-0.7-2.2c0.4-0.9,0.6-1.2,1-2.2
		c-1.2-0.6-2.3-1.2-3.5-1.7c-0.1,0.1-0.1,0.1-0.1,0.2c-0.3,0.7-0.7,1.5-1,2.2c-0.5,1-1.3,1.4-2.1,1.1c-0.9-0.4-1.2-1.3-0.7-2.3
		c0.4-0.8,0.8-1.7,1.2-2.5C43.4,26.7,42.3,26.2,41.1,25.6z M33,54.1c-0.4-3.3-0.8-6.5-1.2-9.7c-2.3-0.4-4.5,0-6.6,0.8
		c0.4,3.3,0.8,6.5,1.2,9.8C28.7,54.6,30.8,54.3,33,54.1z M23.3,55.3c-0.4-3-0.7-6-1.1-8.9c-2.2,0.5-4.3,0.9-6.5,1.4
		c0.3,2.7,0.7,5.5,1,8.3C18.9,55.8,21.1,55.6,23.3,55.3z M42.8,52.9c-0.3-2.2-0.5-4.3-0.8-6.4c0-0.2-0.3-0.4-0.5-0.4
		c-1.5-0.3-3-0.5-4.5-0.8c-0.6-0.1-1.2-0.2-1.9-0.3c0.4,3,0.7,5.9,1.1,8.8C38.4,53.4,40.5,53.2,42.8,52.9z M13.5,56.4
		c-0.4-3-0.7-5.9-1.1-8.8c-1.3,0-2.5,0-3.7,0c-0.2,0-0.5,0.3-0.5,0.4c-0.2,1-0.5,2.1-0.6,3.2c-0.4,2.7,0.8,4.5,3.4,5
		C11.8,56.4,12.6,56.4,13.5,56.4z M52.5,51.7c-0.2-1.7-0.4-3.4-0.7-5.1c0-0.2-0.4-0.3-0.6-0.4c-0.7-0.1-1.4,0-2.1,0
		c-1.3,0-2.6,0-4,0c0.3,2.2,0.5,4.2,0.8,6.3C48.1,52.2,50.3,51.9,52.5,51.7z M55.6,51.3c2.3-0.3,4.4-0.6,6.6-0.8
		c-0.2-1.4-0.3-2.8-0.5-4.2c-2.2,0-4.4,0-6.7,0C55.2,48,55.4,49.6,55.6,51.3z M75.4,45.1c-3.5,0.6-7,1.3-10.6,1.2l0.5,3.8
		c3.6-1.1,7.2-2.1,10.5-4C76.3,45.7,76,45,75.4,45.1z"/>
</g>
</svg>
