<?xml version="1.0" encoding="utf-8"?>
<!-- Generator: Adobe Illustrator 24.0.0, SVG Export Plug-In . SVG Version: 6.00 Build 0)  -->
<svg version="1.1" id="Capa_1" xmlns="http://www.w3.org/2000/svg" xmlns:xlink="http://www.w3.org/1999/xlink" x="0px" y="0px"
	 viewBox="0 0 87.5 78.4" style="enable-background:new 0 0 87.5 78.4;" xml:space="preserve">
<style type="text/css">
	.st0{fill:#FFFFFF;}
</style>
<g>
	<path class="st0" d="M85.7,40c-0.4,1.2-0.8,2.3-1.9,3c-0.3,0.2-0.6,0.3-1,0.6c0-3,0-5.8,0-8.8c1.7,0.6,2.4,2,2.9,3.5
		C85.7,38.9,85.7,39.4,85.7,40z"/>
	<path class="st0" d="M27.7,39.3c0,5.1,0,10.2,0,15.3c0,3.3-2.4,5.8-5.6,5.8c-3.1,0.1-5.8-2.5-5.9-5.7c0-10.4,0-20.7,0-31.1
		c0-3.1,2.7-5.6,5.7-5.6c3.1,0,5.7,2.5,5.7,5.6C27.7,28.9,27.7,34.1,27.7,39.3C27.7,39.3,27.7,39.3,27.7,39.3z"/>
	<path class="st0" d="M59.8,39.2c0-5.2,0-10.3,0-15.5c0-2.3,1.2-4.1,3.3-5.1c2.1-1,4.1-0.8,5.9,0.6c1.5,1.2,2.2,2.8,2.2,4.7
		c0,6.7,0,13.3,0,20c0,3.6,0,7.2,0,10.7c0,3.2-2.6,5.8-5.8,5.8c-3.1,0-5.7-2.6-5.7-5.9C59.8,49.4,59.8,44.3,59.8,39.2z"/>
	<path class="st0" d="M30,44c0-3.2,0-6.4,0-9.6c9.1,0,18.2,0,27.4,0c0,3.2,0,6.3,0,9.6C48.3,44,39.2,44,30,44z"/>
	<path class="st0" d="M73.6,51.6c0-8.3,0-16.4,0-24.6c3.1-0.8,6.7,1.9,6.8,5.3c0.1,4.7,0.1,9.4,0,14.2c0,2.7-2.6,5-5.4,5.2
		C74.6,51.6,74.1,51.6,73.6,51.6z"/>
	<path class="st0" d="M13.9,27c0,8.2,0,16.4,0,24.5c-3.1,0.9-6.8-1.9-6.8-5.3C7,41.6,7,36.9,7.1,32.3C7.1,28.9,10.3,26.5,13.9,27z"
		/>
	<path class="st0" d="M4.7,34.8c0,3,0,5.8,0,8.7c-1.4-0.3-2.7-2-2.9-3.8C1.6,37.6,2.7,35.7,4.7,34.8z"/>
</g>
</svg>
