<?xml version="1.0" encoding="utf-8"?>
<!-- Generator: Adobe Illustrator 24.0.0, SVG Export Plug-In . SVG Version: 6.00 Build 0)  -->
<svg version="1.1" id="Capa_1" xmlns="http://www.w3.org/2000/svg" xmlns:xlink="http://www.w3.org/1999/xlink" x="0px" y="0px"
	 viewBox="0 0 67.3 64.4" style="enable-background:new 0 0 67.3 64.4;" xml:space="preserve">
<style type="text/css">
	.st0{fill:#FFFFFF;}
</style>
<g>
	<path class="st0" d="M40.6,46.1c-4.6,0-9.3,0-13.9,0c-2.8,0-3.7-0.7-4.4-3.4c-2.2-8.2-4.5-16.3-6.7-24.5c-0.3-1.2-0.9-1.6-2.1-1.7
		c-2.5-0.3-5-0.8-7.5-1.2c-1.8-0.3-3-2-2.8-3.7c0.3-1.8,1.7-3.1,3.6-2.8c3.8,0.5,7.7,1.2,11.5,1.9c1.6,0.3,2.5,1.6,2.9,3.2
		c2.2,8.2,4.5,16.4,6.7,24.5c0.3,1,0.6,1.3,1.7,1.3c7.5,0,15,0,22.5,0c0.9,0,1.2-0.2,1.5-1.1c1.3-4.5,2.7-8.9,4.1-13.4
		c0.6-2.1,2.3-3.1,4.2-2.5c1.8,0.5,2.7,2.3,2.1,4.3c-1.6,5.5-3.2,10.9-4.9,16.4c-0.7,2.2-1.6,2.9-3.9,2.9
		C50.3,46.1,45.4,46.1,40.6,46.1C40.6,46.1,40.6,46.1,40.6,46.1z"/>
	<path class="st0" d="M38.3,19.2c0-0.9,0-1.7,0-2.6c0-3.3,0-6.7,0-10c0-1.8,1.2-3,2.8-3c1.7,0,2.8,1.2,2.8,3.1c0,4.1,0,8.2,0,12.5
		c0.3-0.2,0.5-0.3,0.7-0.5c1.1-1.1,2.2-2.2,3.4-3.3c1.3-1.2,3-1.3,4.1-0.1c1.1,1.1,1.1,2.8-0.1,4.1c-2.9,3-5.9,5.9-8.9,8.8
		c-1.2,1.2-2.8,1.2-4,0c-3-2.9-6.1-5.8-9.1-8.8c-1.2-1.2-1.3-2.9-0.2-4c1.1-1.1,2.8-1.2,4,0c1.3,1.3,2.6,2.8,3.9,4.2
		C38,19.4,38.2,19.3,38.3,19.2z"/>
	<path class="st0" d="M29.5,48.6c3.4,0,6.1,2.8,6.1,6.2c0,3.3-2.8,6-6.1,6c-3.4,0-6.1-2.8-6.1-6.2C23.4,51.3,26.2,48.6,29.5,48.6z"
		/>
	<path class="st0" d="M57.1,54.7c0,3.3-2.7,6-6,6c-3.4,0-6.2-2.8-6.1-6.1c0-3.3,2.8-6,6.1-6C54.4,48.6,57.1,51.3,57.1,54.7z"/>
</g>
</svg>
