<?xml version="1.0" encoding="utf-8"?>
<!-- Generator: Adobe Illustrator 24.0.0, SVG Export Plug-In . SVG Version: 6.00 Build 0)  -->
<svg version="1.1" id="Capa_1" xmlns="http://www.w3.org/2000/svg" xmlns:xlink="http://www.w3.org/1999/xlink" x="0px" y="0px"
	 viewBox="0 0 71.7 110.1" style="enable-background:new 0 0 71.7 110.1;" xml:space="preserve">
<style type="text/css">
	.st0{fill:#FFFFFF;}
</style>
<g>
	<g>
		<path class="st0" d="M36.3,38.7h-2.2c-2.6,0-4.6-2.1-4.6-4.6V6.8c0-2.6,2.1-4.6,4.6-4.6h2.2c2.6,0,4.6,2.1,4.6,4.6V34
			C40.9,36.6,38.8,38.7,36.3,38.7z"/>
		<g>
			<path class="st0" d="M35.2,72.7c-18.1,0-32.9-14.8-32.9-32.9c0-10.9,5.4-21.1,14.5-27.3c2.3-1.5,5.4-0.9,6.9,1.3
				c1.5,2.3,0.9,5.4-1.3,6.9c-6.3,4.3-10.1,11.4-10.1,19c0,12.6,10.3,22.9,22.9,22.9c12.6,0,22.9-10.3,22.9-22.9
				c0-7.8-4-15.1-10.6-19.3c-2.3-1.5-3-4.6-1.5-6.9c1.5-2.3,4.6-3,6.9-1.5c9.5,6.1,15.2,16.4,15.2,27.7
				C68.1,57.9,53.3,72.7,35.2,72.7z"/>
		</g>
	</g>
	<g>
		<path class="st0" d="M6.1,91.9v15.7H3V91.9H6.1z"/>
		<path class="st0" d="M20.1,100.7v6.9h-2.9v-6.3c0-1.5-0.6-2.6-2.2-2.6c-1.7,0-2.4,1.3-2.4,2.6v6.3H9.8V96.2h2.8v1.4
			c0.6-0.9,1.7-1.7,3.3-1.7C18.8,95.9,20.1,98.3,20.1,100.7z"/>
		<path class="st0" d="M23.6,93c0-0.8,0.7-1.5,1.5-1.5c0.9,0,1.5,0.7,1.5,1.5c0,0.9-0.7,1.5-1.5,1.5C24.3,94.5,23.6,93.9,23.6,93z
			 M23.7,96.2h2.9v11.4h-2.9V96.2z"/>
		<path class="st0" d="M38.1,103.7l2.5,1.4c-1.1,1.7-2.9,2.8-5.1,2.8c-3.4,0-6-2.6-6-6c0-3.3,2.6-6,6-6c2.2,0,4.1,1.1,5.1,2.8
			l-2.5,1.4c-0.5-0.9-1.4-1.5-2.6-1.5c-1.9,0-3.1,1.5-3.1,3.2c0,1.8,1.2,3.2,3.1,3.2C36.7,105.1,37.6,104.5,38.1,103.7z"/>
		<path class="st0" d="M43.1,93c0-0.8,0.7-1.5,1.5-1.5c0.9,0,1.5,0.7,1.5,1.5c0,0.9-0.7,1.5-1.5,1.5C43.7,94.5,43.1,93.9,43.1,93z
			 M43.2,96.2H46v11.4h-2.9V96.2z"/>
		<path class="st0" d="M59.1,100.7v6.9h-2.9v-1.2c-0.5,0.9-1.8,1.5-3.3,1.5c-1.7,0-4-0.9-4-3.3c0-3.7,4.6-3.7,6.1-3.7
			c0.4,0,1,0,1.2,0c0-1.6-0.6-2.4-2.4-2.4c-1,0-2,0.5-2.4,0.8l-2-1.5c1.3-1.1,2.8-1.8,4.7-1.8C57.9,95.9,59.1,98,59.1,100.7z
			 M56.3,102.6c-0.1,0-0.1,0-0.2,0c-2,0-4.3,0-4.3,1.7c0,0.9,0.6,1.5,2,1.5c1.5,0,2.2-0.8,2.5-1.3V102.6z"/>
		<path class="st0" d="M69.4,95.9V99c-3.4-0.4-3.8,1.8-3.8,3.9v4.7h-2.9V96.2h2.9v1.9C66.4,96.6,68,95.9,69.4,95.9z"/>
	</g>
</g>
</svg>
