<svg id="Capa_1" data-name="Capa 1" xmlns="http://www.w3.org/2000/svg" viewBox="0 0 71.45 72.18"><defs><style>.cls-1{fill:#fff;}</style></defs><title>icon-supermarket</title><path class="cls-1" d="M35.22,75.32a19.37,19.37,0,0,1-3.41-1.4,7.65,7.65,0,0,1-2.75-9.52c.07-.17.15-.33.25-.55a9.17,9.17,0,0,1-4.48-2.46,9.27,9.27,0,0,1-2.57-5.65q-1.44-11-2.93-22.05l-3-22.47A5.15,5.15,0,0,0,14.89,8a2.52,2.52,0,0,0-1.41-.6c-1.08-.09-2.16,0-3.24,0a2.12,2.12,0,1,1,0-4.23c1,0,2,.05,3,0A6.2,6.2,0,0,1,18.74,6a11.74,11.74,0,0,1,2,5.87c.09.84.22,1.67.34,2.58h50.9A7.12,7.12,0,0,1,78.57,18a8.19,8.19,0,0,1,.74,5.53c-.82,5.88-1.58,11.77-2.37,17.66-.2,1.46-.34,2.94-.61,4.39a8.69,8.69,0,0,1-8.52,7.11c-3,0-6,0-9,0H26.05a27.17,27.17,0,0,0,.89,4.4,4.19,4.19,0,0,0,4.16,2.71c2.07,0,4.14,0,6.21,0H73a4.71,4.71,0,0,1,1.19.1,2.09,2.09,0,0,1,1.5,2.2A2.15,2.15,0,0,1,73.49,64c-1.53,0-3,0-4.58,0h-.77a18.86,18.86,0,0,1,.62,2.4,7.7,7.7,0,0,1-6.37,8.79.77.77,0,0,0-.24.12H60a1.2,1.2,0,0,0-.31-.13,7.72,7.72,0,0,1-6.32-8.64A22.36,22.36,0,0,1,54,64H43.16l.29.77a7.79,7.79,0,0,1-5,10.16l-1.27.35Zm3.13-56.59H21.64c0,.3,0,.56.07.81.49,3.7,1,7.39,1.47,11.09.09.73.34.85,1,.85,4.72,0,9.44,0,14.17,0h.86Zm-14.45,17c0,.36.05.64.09.92.49,3.69,1,7.39,1.47,11.09.08.58.27.72.82.71,4.44,0,8.87,0,13.31,0,.22,0,.45,0,.74,0l-.85-12.67Zm36.52-17-.84,12.72H74c.4-3,.78-6,1.2-9,.34-2.39-.75-3.68-3.18-3.68H60.42Zm-2,29.68a2.89,2.89,0,0,0,.36.06c3.08,0,6.15,0,9.23,0a4.4,4.4,0,0,0,4.12-3.6c.14-.83.24-1.67.36-2.5.29-2.18.57-4.36.87-6.58H59.29C59,39.94,58.73,44.13,58.45,48.37ZM42.59,18.72l.85,12.69h11.9l.84-12.69Zm2,29.66h9.64l.84-12.64H43.73ZM32.64,67.56A3.54,3.54,0,1,0,36.14,64,3.51,3.51,0,0,0,32.64,67.56Zm28.44,3.53A3.54,3.54,0,0,0,61.13,64a3.53,3.53,0,0,0-3.59,3.54A3.58,3.58,0,0,0,61.08,71.09Z" transform="translate(-8.02 -3.13)"/></svg>