<?xml version="1.0" encoding="utf-8"?>
<!-- Generator: Adobe Illustrator 24.0.0, SVG Export Plug-In . SVG Version: 6.00 Build 0)  -->
<svg version="1.1" id="Capa_1" xmlns="http://www.w3.org/2000/svg" xmlns:xlink="http://www.w3.org/1999/xlink" x="0px" y="0px"
	 viewBox="0 0 65 53.8" style="enable-background:new 0 0 65 53.8;" xml:space="preserve">
<style type="text/css">
	.st0{fill:url(#SVGID_1_);}
	.st1{fill:url(#SVGID_2_);}
	.st2{fill:url(#SVGID_3_);}
	.st3{fill:url(#SVGID_4_);}
	.st4{fill:url(#SVGID_5_);}
	.st5{fill:url(#SVGID_6_);}
	.st6{fill:url(#SVGID_7_);}
	.st7{fill:url(#SVGID_8_);}
	.st8{fill:url(#SVGID_9_);}
	.st9{fill:url(#SVGID_10_);}
	.st10{fill:url(#SVGID_11_);}
	.st11{fill:url(#SVGID_12_);}
	.st12{fill:url(#SVGID_13_);}
	.st13{fill:url(#SVGID_14_);}
	.st14{fill:url(#SVGID_15_);}
	.st15{fill:url(#SVGID_16_);}
	.st16{fill:url(#SVGID_17_);}
	.st17{fill:url(#SVGID_18_);}
	.st18{fill:url(#SVGID_19_);}
</style>
<g>
	<linearGradient id="SVGID_1_" gradientUnits="userSpaceOnUse" x1="23.9903" y1="46.9632" x2="45.5794" y2="46.9632">
		<stop  offset="0" style="stop-color:#0076FF"/>
		<stop  offset="1" style="stop-color:#00B2FF"/>
	</linearGradient>
	<path class="st0" d="M30.2,49.6l-3.8-3.8l0,1.9c0,0.6-0.5,1.2-1.2,1.2c-0.6,0-1.2-0.5-1.2-1.2l0-4.7c0-0.3,0.1-0.6,0.3-0.8
		s0.5-0.3,0.8-0.3l4.7,0c0.3,0,0.6,0.1,0.8,0.3c0.2,0.2,0.3,0.5,0.3,0.8c0,0.6-0.5,1.2-1.2,1.2l-1.9,0l3.8,3.8c2.5,2.5,6.5,2.5,9,0
		l2.8-2.8c0.5-0.5,1.2-0.5,1.7,0c0.5,0.5,0.5,1.2,0,1.7l-2.8,2.8C39.1,53,33.6,53,30.2,49.6z"/>
	<linearGradient id="SVGID_2_" gradientUnits="userSpaceOnUse" x1="37.9064" y1="26.7933" x2="61.7181" y2="26.7933">
		<stop  offset="0" style="stop-color:#0076FF"/>
		<stop  offset="1" style="stop-color:#00B2FF"/>
	</linearGradient>
	<path class="st1" d="M59.3,21l-8.8-8.6c-0.5-0.5-1.2-0.4-1.7,0l-8.6,8.8c-3.1,3.2-3.1,8.4,0.1,11.5l8.8,8.6c0.5,0.5,1.2,0.4,1.7,0
		l8.6-8.8C62.5,29.2,62.5,24.1,59.3,21z M49.7,14.8l7.1,7c2.7,2.7,2.8,7.1,0.1,9.8l-7,7.1l-7.1-7c-2.7-2.7-2.8-7.1-0.1-9.8
		L49.7,14.8L49.7,14.8z"/>
	<linearGradient id="SVGID_3_" gradientUnits="userSpaceOnUse" x1="22.3" y1="6.8385" x2="43.8891" y2="6.8385">
		<stop  offset="0" style="stop-color:#0076FF"/>
		<stop  offset="1" style="stop-color:#00B2FF"/>
	</linearGradient>
	<path class="st2" d="M38,12c-0.6,0-1.2-0.5-1.2-1.2c0-0.6,0.5-1.2,1.2-1.2l1.9,0l-3.8-3.8c-2.5-2.5-6.5-2.5-9,0l-2.8,2.8
		c-0.5,0.5-1.2,0.5-1.7,0c-0.5-0.5-0.5-1.2,0-1.7l2.8-2.8c3.4-3.4,8.9-3.4,12.3,0L41.5,8l0-1.9c0-0.6,0.5-1.2,1.2-1.2
		c0.3,0,0.6,0.1,0.8,0.3c0.2,0.2,0.3,0.5,0.3,0.8l0,4.7c0,0.6-0.5,1.2-1.2,1.2L38,12z"/>
	<g>
		<linearGradient id="SVGID_4_" gradientUnits="userSpaceOnUse" x1="3.2819" y1="27.0321" x2="5.6307" y2="27.0321">
			<stop  offset="0" style="stop-color:#0076FF"/>
			<stop  offset="1" style="stop-color:#00B2FF"/>
		</linearGradient>
		<path class="st3" d="M5.3,26.2c0.2,0.2,0.3,0.5,0.3,0.8c0,0.3-0.1,0.6-0.3,0.8c-0.2,0.2-0.5,0.3-0.8,0.3c-0.3,0-0.6-0.1-0.8-0.3
			c-0.2-0.2-0.3-0.5-0.3-0.8c0-0.3,0.1-0.6,0.3-0.8c0.2-0.2,0.5-0.3,0.8-0.3C4.8,25.9,5.1,26,5.3,26.2z"/>
		<linearGradient id="SVGID_5_" gradientUnits="userSpaceOnUse" x1="10.1077" y1="33.8311" x2="12.4495" y2="33.8311">
			<stop  offset="0" style="stop-color:#0076FF"/>
			<stop  offset="1" style="stop-color:#00B2FF"/>
		</linearGradient>
		<path class="st4" d="M12.1,33c0.5,0.5,0.5,1.2,0,1.7c-0.5,0.5-1.2,0.5-1.7,0s-0.5-1.2,0-1.7C10.9,32.5,11.6,32.5,12.1,33z"/>
		<linearGradient id="SVGID_6_" gradientUnits="userSpaceOnUse" x1="6.6965" y1="30.4323" x2="9.0384" y2="30.4323">
			<stop  offset="0" style="stop-color:#0076FF"/>
			<stop  offset="1" style="stop-color:#00B2FF"/>
		</linearGradient>
		<path class="st5" d="M8.7,29.6c0.5,0.5,0.5,1.2,0,1.7c-0.5,0.5-1.2,0.5-1.7,0c-0.5-0.5-0.5-1.2,0-1.7C7.5,29.1,8.2,29.1,8.7,29.6z
			"/>
		<linearGradient id="SVGID_7_" gradientUnits="userSpaceOnUse" x1="13.5119" y1="37.2257" x2="15.8537" y2="37.2257">
			<stop  offset="0" style="stop-color:#0076FF"/>
			<stop  offset="1" style="stop-color:#00B2FF"/>
		</linearGradient>
		<path class="st6" d="M15.5,36.4c0.5,0.5,0.5,1.2,0,1.7c-0.5,0.5-1.2,0.5-1.7,0c-0.5-0.5-0.5-1.2,0-1.7S15.1,35.9,15.5,36.4z"/>
		<linearGradient id="SVGID_8_" gradientUnits="userSpaceOnUse" x1="16.9196" y1="40.6259" x2="19.2683" y2="40.6259">
			<stop  offset="0" style="stop-color:#0076FF"/>
			<stop  offset="1" style="stop-color:#00B2FF"/>
		</linearGradient>
		<path class="st7" d="M17.3,41.5c-0.2-0.2-0.3-0.5-0.3-0.8s0.1-0.6,0.3-0.8s0.5-0.3,0.8-0.3c0.3,0,0.6,0.1,0.8,0.3
			c0.2,0.2,0.3,0.5,0.3,0.8c0,0.3-0.1,0.6-0.3,0.8s-0.5,0.3-0.8,0.3C17.8,41.8,17.5,41.7,17.3,41.5z"/>
		<linearGradient id="SVGID_9_" gradientUnits="userSpaceOnUse" x1="27.1236" y1="30.3951" x2="29.4654" y2="30.3951">
			<stop  offset="0" style="stop-color:#0076FF"/>
			<stop  offset="1" style="stop-color:#00B2FF"/>
		</linearGradient>
		<path class="st8" d="M27.5,31.2c-0.5-0.5-0.5-1.2,0-1.7c0.5-0.5,1.2-0.5,1.7,0c0.5,0.5,0.5,1.2,0,1.7
			C28.7,31.7,27.9,31.7,27.5,31.2z"/>
		<linearGradient id="SVGID_10_" gradientUnits="userSpaceOnUse" x1="23.7234" y1="33.8062" x2="26.0652" y2="33.8062">
			<stop  offset="0" style="stop-color:#0076FF"/>
			<stop  offset="1" style="stop-color:#00B2FF"/>
		</linearGradient>
		<path class="st9" d="M24.1,34.6c-0.5-0.5-0.5-1.2,0-1.7c0.5-0.5,1.2-0.5,1.7,0s0.5,1.2,0,1.7C25.3,35.1,24.5,35.1,24.1,34.6z"/>
		<linearGradient id="SVGID_11_" gradientUnits="userSpaceOnUse" x1="20.3232" y1="37.2161" x2="22.6651" y2="37.2161">
			<stop  offset="0" style="stop-color:#0076FF"/>
			<stop  offset="1" style="stop-color:#00B2FF"/>
		</linearGradient>
		<path class="st10" d="M20.7,38c-0.5-0.5-0.5-1.2,0-1.7c0.5-0.5,1.2-0.5,1.7,0c0.5,0.5,0.5,1.2,0,1.7C21.9,38.5,21.1,38.5,20.7,38z
			"/>
		<linearGradient id="SVGID_12_" gradientUnits="userSpaceOnUse" x1="30.5134" y1="26.9882" x2="32.8622" y2="26.9882">
			<stop  offset="0" style="stop-color:#0076FF"/>
			<stop  offset="1" style="stop-color:#00B2FF"/>
		</linearGradient>
		<path class="st11" d="M30.9,27.8c-0.2-0.2-0.3-0.5-0.3-0.8c0-0.3,0.1-0.6,0.3-0.8c0.2-0.2,0.5-0.3,0.8-0.3c0.3,0,0.6,0.1,0.8,0.3
			s0.3,0.5,0.3,0.8s-0.1,0.6-0.3,0.8c-0.2,0.2-0.5,0.3-0.8,0.3C31.4,28.2,31.1,28,30.9,27.8z"/>
		<linearGradient id="SVGID_13_" gradientUnits="userSpaceOnUse" x1="27.1057" y1="23.5868" x2="29.4476" y2="23.5868">
			<stop  offset="0" style="stop-color:#0076FF"/>
			<stop  offset="1" style="stop-color:#00B2FF"/>
		</linearGradient>
		<path class="st12" d="M29.1,22.8c0.5,0.5,0.5,1.2,0,1.7c-0.5,0.5-1.2,0.5-1.7,0c-0.5-0.5-0.5-1.2,0-1.7
			C27.9,22.3,28.6,22.3,29.1,22.8z"/>
		<linearGradient id="SVGID_14_" gradientUnits="userSpaceOnUse" x1="23.7015" y1="20.1922" x2="26.0433" y2="20.1922">
			<stop  offset="0" style="stop-color:#0076FF"/>
			<stop  offset="1" style="stop-color:#00B2FF"/>
		</linearGradient>
		<path class="st13" d="M25.7,19.4c0.5,0.5,0.5,1.2,0,1.7c-0.5,0.5-1.2,0.5-1.7,0c-0.5-0.5-0.5-1.2,0-1.7
			C24.5,18.9,25.2,18.9,25.7,19.4z"/>
		<linearGradient id="SVGID_15_" gradientUnits="userSpaceOnUse" x1="20.2904" y1="16.7933" x2="22.6322" y2="16.7933">
			<stop  offset="0" style="stop-color:#0076FF"/>
			<stop  offset="1" style="stop-color:#00B2FF"/>
		</linearGradient>
		<path class="st14" d="M22.3,16c0.5,0.5,0.5,1.2,0,1.7c-0.5,0.5-1.2,0.5-1.7,0s-0.5-1.2,0-1.7C21.1,15.5,21.8,15.5,22.3,16z"/>
		<linearGradient id="SVGID_16_" gradientUnits="userSpaceOnUse" x1="16.8758" y1="13.3944" x2="19.2245" y2="13.3944">
			<stop  offset="0" style="stop-color:#0076FF"/>
			<stop  offset="1" style="stop-color:#00B2FF"/>
		</linearGradient>
		<path class="st15" d="M18.9,12.6c0.2,0.2,0.3,0.5,0.3,0.8c0,0.3-0.1,0.6-0.3,0.8s-0.5,0.3-0.8,0.3c-0.3,0-0.6-0.1-0.8-0.3
			s-0.3-0.5-0.3-0.8c0-0.3,0.1-0.6,0.3-0.8c0.2-0.2,0.5-0.3,0.8-0.3C18.4,12.2,18.7,12.3,18.9,12.6z"/>
		<linearGradient id="SVGID_17_" gradientUnits="userSpaceOnUse" x1="13.4859" y1="16.7986" x2="15.8278" y2="16.7986">
			<stop  offset="0" style="stop-color:#0076FF"/>
			<stop  offset="1" style="stop-color:#00B2FF"/>
		</linearGradient>
		<path class="st16" d="M15.5,16c0.5,0.5,0.5,1.2,0,1.7c-0.5,0.5-1.2,0.5-1.7,0s-0.5-1.2,0-1.7C14.3,15.5,15,15.5,15.5,16z"/>
		<linearGradient id="SVGID_18_" gradientUnits="userSpaceOnUse" x1="10.0858" y1="20.2098" x2="12.4276" y2="20.2098">
			<stop  offset="0" style="stop-color:#0076FF"/>
			<stop  offset="1" style="stop-color:#00B2FF"/>
		</linearGradient>
		<path class="st17" d="M12.1,19.4c0.5,0.5,0.5,1.2,0,1.7c-0.5,0.5-1.2,0.5-1.7,0s-0.5-1.2,0-1.7C10.9,18.9,11.6,18.9,12.1,19.4z"/>
		<linearGradient id="SVGID_19_" gradientUnits="userSpaceOnUse" x1="6.6856" y1="23.6209" x2="9.0274" y2="23.6209">
			<stop  offset="0" style="stop-color:#0076FF"/>
			<stop  offset="1" style="stop-color:#00B2FF"/>
		</linearGradient>
		<path class="st18" d="M8.7,22.8c0.5,0.5,0.5,1.2,0,1.7c-0.5,0.5-1.2,0.5-1.7,0s-0.5-1.2,0-1.7C7.5,22.3,8.2,22.3,8.7,22.8z"/>
	</g>
</g>
</svg>
