<?xml version="1.0" encoding="utf-8"?>
<!-- Generator: Adobe Illustrator 24.0.0, SVG Export Plug-In . SVG Version: 6.00 Build 0)  -->
<svg version="1.1" id="Capa_1" xmlns="http://www.w3.org/2000/svg" xmlns:xlink="http://www.w3.org/1999/xlink" x="0px" y="0px"
	 viewBox="0 0 54.9 53.8" style="enable-background:new 0 0 54.9 53.8;" xml:space="preserve">
<style type="text/css">
	.st0{fill:url(#SVGID_1_);}
	.st1{fill:url(#SVGID_2_);}
	.st2{fill:url(#SVGID_3_);}
	.st3{fill:url(#SVGID_4_);}
	.st4{fill:url(#SVGID_5_);}
	.st5{fill:url(#SVGID_6_);}
	.st6{fill:url(#SVGID_7_);}
	.st7{fill:url(#SVGID_8_);}
	.st8{fill:url(#SVGID_9_);}
	.st9{fill:url(#SVGID_10_);}
	.st10{fill:url(#SVGID_11_);}
	.st11{fill:url(#SVGID_12_);}
	.st12{fill:url(#SVGID_13_);}
	.st13{fill:url(#SVGID_14_);}
	.st14{fill:url(#SVGID_15_);}
	.st15{fill:url(#SVGID_16_);}
</style>
<g>
	<linearGradient id="SVGID_1_" gradientUnits="userSpaceOnUse" x1="19.8344" y1="26.7217" x2="51.9545" y2="26.7217">
		<stop  offset="0" style="stop-color:#0076FF"/>
		<stop  offset="1" style="stop-color:#00B2FF"/>
	</linearGradient>
	<path class="st0" d="M36.4,51.8c0.4,0,0.8-0.2,1.1-0.6L51.8,27c0.2-0.4,0.2-0.9,0-1.3L36.4,2.3c-0.2-0.4-0.7-0.6-1.1-0.6
		c-0.4,0-0.8,0.2-1.1,0.6L20,26.4c-0.1,0.2-0.2,0.4-0.2,0.7c0,0.2,0.1,0.5,0.2,0.7l15.3,23.4C35.6,51.5,36,51.8,36.4,51.8z
		 M36.4,48.1L22.6,27L35.4,5.3l13.8,21.1L36.4,48.1z"/>
	<linearGradient id="SVGID_2_" gradientUnits="userSpaceOnUse" x1="25.6633" y1="3.1302" x2="28.188" y2="3.1302">
		<stop  offset="0" style="stop-color:#0076FF"/>
		<stop  offset="1" style="stop-color:#00B2FF"/>
	</linearGradient>
	<path class="st1" d="M28.2,3.1c0,0.3-0.1,0.7-0.3,0.9c-0.2,0.2-0.5,0.4-0.9,0.4c-0.3,0-0.7-0.1-0.9-0.3c-0.2-0.2-0.4-0.5-0.4-0.9
		c0-0.3,0.1-0.7,0.3-0.9c0.2-0.2,0.5-0.4,0.9-0.4c0.3,0,0.7,0.1,0.9,0.3S28.2,2.8,28.2,3.1z"/>
	<linearGradient id="SVGID_3_" gradientUnits="userSpaceOnUse" x1="23.2771" y1="7.1456" x2="25.8036" y2="7.1456">
		<stop  offset="0" style="stop-color:#0076FF"/>
		<stop  offset="1" style="stop-color:#00B2FF"/>
	</linearGradient>
	<path class="st2" d="M25.6,7.8c-0.4,0.6-1.1,0.8-1.7,0.4c-0.4-0.2-0.6-0.6-0.6-1.1c0-0.2,0.1-0.5,0.2-0.7c0.4-0.6,1.1-0.8,1.7-0.4
		C25.8,6.4,26,7.2,25.6,7.8z"/>
	<linearGradient id="SVGID_4_" gradientUnits="userSpaceOnUse" x1="16.14" y1="19.1896" x2="18.6642" y2="19.1896">
		<stop  offset="0" style="stop-color:#0076FF"/>
		<stop  offset="1" style="stop-color:#00B2FF"/>
	</linearGradient>
	<path class="st3" d="M18.5,19.8c-0.4,0.6-1.1,0.8-1.7,0.4c-0.4-0.2-0.6-0.6-0.6-1.1c0-0.2,0.1-0.5,0.2-0.7c0.4-0.6,1.1-0.8,1.7-0.4
		C18.6,18.5,18.8,19.2,18.5,19.8z"/>
	<linearGradient id="SVGID_5_" gradientUnits="userSpaceOnUse" x1="13.754" y1="23.2055" x2="16.2804" y2="23.2055">
		<stop  offset="0" style="stop-color:#0076FF"/>
		<stop  offset="1" style="stop-color:#00B2FF"/>
	</linearGradient>
	<path class="st4" d="M16.1,23.9c-0.4,0.6-1.1,0.8-1.7,0.4c-0.4-0.2-0.6-0.6-0.6-1.1c0-0.2,0.1-0.5,0.2-0.7c0.4-0.6,1.1-0.8,1.7-0.4
		C16.3,22.5,16.5,23.2,16.1,23.9z"/>
	<linearGradient id="SVGID_6_" gradientUnits="userSpaceOnUse" x1="18.5157" y1="15.1783" x2="21.042" y2="15.1783">
		<stop  offset="0" style="stop-color:#0076FF"/>
		<stop  offset="1" style="stop-color:#00B2FF"/>
	</linearGradient>
	<path class="st5" d="M20.9,15.8c-0.4,0.6-1.1,0.8-1.7,0.4c-0.4-0.2-0.6-0.6-0.6-1.1c0-0.2,0.1-0.5,0.2-0.7c0.4-0.6,1.1-0.8,1.7-0.4
		C21,14.4,21.2,15.2,20.9,15.8z"/>
	<linearGradient id="SVGID_7_" gradientUnits="userSpaceOnUse" x1="20.8911" y1="11.1616" x2="23.4176" y2="11.1616">
		<stop  offset="0" style="stop-color:#0076FF"/>
		<stop  offset="1" style="stop-color:#00B2FF"/>
	</linearGradient>
	<path class="st6" d="M23.2,11.8c-0.4,0.6-1.1,0.8-1.7,0.4c-0.4-0.2-0.6-0.6-0.6-1.1c0-0.2,0.1-0.5,0.2-0.7c0.4-0.6,1.1-0.8,1.7-0.4
		C23.4,10.4,23.6,11.2,23.2,11.8z"/>
	<linearGradient id="SVGID_8_" gradientUnits="userSpaceOnUse" x1="11.3786" y1="27.2184" x2="13.9033" y2="27.2184">
		<stop  offset="0" style="stop-color:#0076FF"/>
		<stop  offset="1" style="stop-color:#00B2FF"/>
	</linearGradient>
	<path class="st7" d="M13.6,28.1c-0.2,0.2-0.5,0.4-0.9,0.4c-0.3,0-0.7-0.1-0.9-0.3c-0.2-0.2-0.4-0.5-0.4-0.9c0-0.3,0.1-0.7,0.3-0.9
		c0.2-0.2,0.5-0.4,0.9-0.4c0.3,0,0.7,0.1,0.9,0.3s0.4,0.5,0.4,0.9C13.9,27.5,13.8,27.8,13.6,28.1z"/>
	<linearGradient id="SVGID_9_" gradientUnits="userSpaceOnUse" x1="13.9359" y1="31.1355" x2="16.4548" y2="31.1355">
		<stop  offset="0" style="stop-color:#0076FF"/>
		<stop  offset="1" style="stop-color:#00B2FF"/>
	</linearGradient>
	<path class="st8" d="M15.9,32.2c-0.6,0.4-1.4,0.2-1.7-0.4c-0.1-0.2-0.2-0.4-0.2-0.7c0-0.4,0.2-0.8,0.6-1.1c0.6-0.4,1.4-0.2,1.7,0.4
		C16.6,31,16.5,31.8,15.9,32.2z"/>
	<linearGradient id="SVGID_10_" gradientUnits="userSpaceOnUse" x1="24.1428" y1="46.7612" x2="26.6663" y2="46.7612">
		<stop  offset="0" style="stop-color:#0076FF"/>
		<stop  offset="1" style="stop-color:#00B2FF"/>
	</linearGradient>
	<path class="st9" d="M26.1,47.8c-0.6,0.4-1.4,0.2-1.7-0.4c-0.1-0.2-0.2-0.4-0.2-0.7c0-0.4,0.2-0.8,0.6-1.1c0.6-0.4,1.4-0.2,1.7,0.4
		C26.8,46.7,26.7,47.4,26.1,47.8z"/>
	<linearGradient id="SVGID_11_" gradientUnits="userSpaceOnUse" x1="16.4822" y1="35.0366" x2="19.0057" y2="35.0366">
		<stop  offset="0" style="stop-color:#0076FF"/>
		<stop  offset="1" style="stop-color:#00B2FF"/>
	</linearGradient>
	<path class="st10" d="M18.4,36.1c-0.6,0.4-1.4,0.2-1.7-0.4c-0.1-0.2-0.2-0.4-0.2-0.7c0-0.4,0.2-0.8,0.6-1.1
		c0.6-0.4,1.4-0.2,1.7,0.4C19.2,34.9,19,35.7,18.4,36.1z"/>
	<linearGradient id="SVGID_12_" gradientUnits="userSpaceOnUse" x1="19.0393" y1="38.9485" x2="21.5582" y2="38.9485">
		<stop  offset="0" style="stop-color:#0076FF"/>
		<stop  offset="1" style="stop-color:#00B2FF"/>
	</linearGradient>
	<path class="st11" d="M21,40c-0.6,0.4-1.4,0.2-1.7-0.4C19.1,39.4,19,39.2,19,39c0-0.4,0.2-0.8,0.6-1.1c0.6-0.4,1.4-0.2,1.7,0.4
		C21.7,38.8,21.6,39.6,21,40z"/>
	<linearGradient id="SVGID_13_" gradientUnits="userSpaceOnUse" x1="21.5859" y1="42.8601" x2="24.1047" y2="42.8601">
		<stop  offset="0" style="stop-color:#0076FF"/>
		<stop  offset="1" style="stop-color:#00B2FF"/>
	</linearGradient>
	<path class="st12" d="M23.5,43.9c-0.6,0.4-1.4,0.2-1.7-0.4c-0.1-0.2-0.2-0.4-0.2-0.7c0-0.4,0.2-0.8,0.6-1.1
		c0.6-0.4,1.4-0.2,1.7,0.4C24.3,42.8,24.1,43.5,23.5,43.9z"/>
	<linearGradient id="SVGID_14_" gradientUnits="userSpaceOnUse" x1="26.6891" y1="50.6678" x2="29.2138" y2="50.6678">
		<stop  offset="0" style="stop-color:#0076FF"/>
		<stop  offset="1" style="stop-color:#00B2FF"/>
	</linearGradient>
	<path class="st13" d="M26.7,50.7c0-0.3,0.1-0.7,0.3-0.9c0.2-0.2,0.5-0.4,0.9-0.4c0.3,0,0.7,0.1,0.9,0.3c0.2,0.2,0.4,0.5,0.4,0.9
		c0,0.3-0.1,0.7-0.3,0.9c-0.2,0.2-0.5,0.4-0.9,0.4c-0.3,0-0.7-0.1-0.9-0.3C26.8,51.3,26.7,51,26.7,50.7z"/>
	<linearGradient id="SVGID_15_" gradientUnits="userSpaceOnUse" x1="2.9335" y1="27.0919" x2="20.7602" y2="27.0919">
		<stop  offset="0" style="stop-color:#0076FF"/>
		<stop  offset="1" style="stop-color:#00B2FF"/>
	</linearGradient>
	<path class="st14" d="M19.6,4L5.7,27.4l14.9,22.8c0.4,0.6,0.2,1.4-0.4,1.7c-0.6,0.4-1.4,0.2-1.7-0.4L3.1,28.1
		c-0.1-0.2-0.2-0.4-0.2-0.7c0-0.2,0.1-0.5,0.2-0.7L17.4,2.7c0.4-0.6,1.1-0.8,1.7-0.4C19.7,2.6,19.9,3.4,19.6,4z"/>
	<g>
		<linearGradient id="SVGID_16_" gradientUnits="userSpaceOnUse" x1="30.1458" y1="26.7165" x2="41.6426" y2="26.7165">
			<stop  offset="0" style="stop-color:#0076FF"/>
			<stop  offset="1" style="stop-color:#00B2FF"/>
		</linearGradient>
		<path class="st15" d="M35.9,35.5c-3.3,0-5.7-3.8-5.7-8.8c0-5,2.5-8.8,5.7-8.8c3.3,0,5.7,3.8,5.7,8.8
			C41.6,31.7,39.2,35.5,35.9,35.5z M35.9,21.4c-0.9,0-2.3,2.1-2.3,5.3c0,3.2,1.4,5.3,2.3,5.3s2.3-2.1,2.3-5.3
			C38.2,23.5,36.8,21.4,35.9,21.4z"/>
	</g>
</g>
</svg>
