<?xml version="1.0" encoding="utf-8"?>
<!-- Generator: Adobe Illustrator 24.0.0, SVG Export Plug-In . SVG Version: 6.00 Build 0)  -->
<svg version="1.1" id="Capa_1" xmlns="http://www.w3.org/2000/svg" xmlns:xlink="http://www.w3.org/1999/xlink" x="0px" y="0px"
	 viewBox="0 0 376.3 146.3" style="enable-background:new 0 0 376.3 146.3;" xml:space="preserve">
<style type="text/css">
	.st0{fill:#EFEFEF;}
	.st1{fill:url(#SVGID_1_);}
	.st2{fill:url(#SVGID_2_);}
	.st3{fill:url(#SVGID_3_);}
	.st4{fill:url(#SVGID_4_);}
	.st5{fill:url(#SVGID_5_);}
	.st6{fill:url(#SVGID_6_);}
	.st7{fill:url(#SVGID_7_);}
	.st8{fill:url(#SVGID_8_);}
	.st9{fill:url(#SVGID_9_);}
	.st10{fill:url(#SVGID_10_);}
	.st11{fill:url(#SVGID_11_);}
	.st12{fill:url(#SVGID_12_);}
	.st13{fill:url(#SVGID_13_);}
	.st14{fill:#2FA124;}
	.st15{fill:#FFFFFF;}
	.st16{enable-background:new    ;}
	.st17{fill:#EF8000;}
</style>
<g>
	<path class="st0" d="M335.5,138.3h-307c-13.2,0-23.8-10.7-23.8-23.8V69.7c0-13.2,10.7-23.8,23.8-23.8h307.1
		c13.2,0,23.8,10.7,23.8,23.8v44.8C359.4,127.6,348.7,138.3,335.5,138.3z"/>
	<g>
		
			<linearGradient id="SVGID_1_" gradientUnits="userSpaceOnUse" x1="40.1185" y1="-78.3404" x2="99.0953" y2="-29.7712" gradientTransform="matrix(1 0 0 -1 0 46)">
			<stop  offset="0" style="stop-color:#FF1B00"/>
			<stop  offset="1" style="stop-color:#FF8D00"/>
		</linearGradient>
		<path class="st1" d="M101.2,102.2c-1.9,0-3.7,0-5.6,0c-0.2,0-0.3,0-0.6,0c0.8-1.2,1.3-2.5,1.4-3.9c0-2,0.1-3.9,0-5.9
			c-0.2-4-3.3-6.8-7.3-6.9c0-0.1,0-0.1,0.1-0.2c0.1-0.3,0.4-0.9,0.5-2c0.1-0.8,0-3.3,0-3.3c0-4.6-0.7-6.4-0.7-6.5
			c-0.2-0.3-0.4-0.6-0.7-1c-0.6-0.9-1.4-1.7-2.4-2.2c-0.2-0.1-0.3-0.2-0.4-0.2c-1-0.4-2.1-0.7-3.2-0.7c-1.9,0-3.9,0-5.8,0
			c-1.1,0-2.2,0.3-3.2,0.7c-0.2,0.1-0.6,0.1-0.8,0c-0.9-0.2-1.8-0.6-2.7-0.6c-2.2-0.1-4.5-0.1-6.7,0C59.3,69.6,56,73,56,76.8
			c0,0.7,0.3,1.1,0.8,1.1s0.9-0.3,0.9-1.1c0.1-2,1.1-4,3-4.9c4.3-2.1,8.5,0.9,8.5,5c0,1.6,0,3.1,0,4.7s-0.6,3-1.8,4.1
			c-0.2,0.2-0.6,0.4-1,0.4c-0.1,0-0.3,0-0.4,0c-0.8-0.2-1.7-0.5-2.5-0.6c-1.4-0.1-2.8-0.1-4.2-0.1l-0.1-0.1
			c-1.1-1.2-1.5-2.7-1.5-4.3c0-0.6-0.4-1-0.9-1s-0.8,0.4-0.9,1c-0.1,1.6,0.3,3.1,1.1,4.4c-0.1,0-0.2,0-0.3,0
			c-3.8,0.1-7.1,3.5-7.1,7.2c0,0.7,0.3,1.1,0.8,1.1c0.6,0,0.9-0.4,0.9-1.1c0.1-3.2,2.7-5.6,5.9-5.5c3.1,0,5.6,2.6,5.6,5.7
			c0,1.6,0,3.1,0,4.7s-0.6,3-1.8,4.1c-0.2,0.2-0.6,0.4-1,0.4c-1.9,0-3.7,0-5.6,0c-0.7,0-1.2-0.2-1.7-0.8c-1.1-1.2-1.5-2.7-1.5-4.3
			c0-0.6-0.4-1-0.9-1s-0.8,0.4-0.9,1c-0.1,1.7,0.3,3.3,1.3,4.7c0.1,0.1,0.1,0.2,0.2,0.4c-0.3,0-0.5,0-0.6,0c-2.1,0-4.2,0-6.3,0
			c-1.1,0-1.6,0.6-1.7,1.6c0,1.2,0,2.4,0,3.6c0,1.3,0.5,1.9,1.9,1.9c0.7,0,1.3,0,2,0c0,1.3,0,2.5,0,3.6s0.6,1.7,1.7,1.7
			c2.8,0,5.5,0,8.3,0c1.1,0,1.6-0.6,1.7-1.7c0-0.9,0-1.8,0-2.7c0-0.3,0-0.6,0-1c0.3,0,0.5,0,0.7,0c4.1,0,8.2,0,12.2,0
			c0.1,0,0.2,0,0.3,0c0.1,0,0.2,0,0.3,0l0,0c3.6,0,12,0,15.4,0c0.2,0,0.4,0,0.7,0c0,1.3,0,2.5,0,3.7c0,1,0.6,1.6,1.4,1.6
			c2.9,0,5.8,0,8.8,0c0.8,0,1.4-0.6,1.4-1.4c0-0.3,0-0.6,0-0.9c0-1,0-2,0-3c0.7,0,1.3,0,1.8,0c0.9,0.1,1.6-0.2,2-1.1
			c0-1.7,0-3.3,0-5C102.8,102.5,102.2,102.2,101.2,102.2z M93.1,89c0.9,0.9,1.5,2,1.6,3.4c0.1,2,0.1,4.1,0,6.1
			c0,0.8-0.4,1.6-0.8,2.3c-0.5,1-1.3,1.8-2.6,1.5c-0.6-0.1-1.3,0-1.9,0c0-0.1,0-0.1,0-0.1c1.3-1.8,1.5-3.9,1.4-6.1
			c0-0.9,0-1.9,0-2.8c0-2.3-0.8-4.3-2.6-5.9C90.1,87.2,91.8,87.6,93.1,89z M86.7,99.3c1.5-2.2,1.5-5.5-0.1-7.6
			c-0.9-1.2-2-1.9-3.5-1.8c-0.2,0-0.4-0.1-0.4-0.2c-0.4-0.6-0.8-1.3-1.3-2c1.5-0.5,3-0.4,4.5,0.4c2,1.1,3,2.7,3.1,5
			c0,1.6,0,3.2,0,4.9c0,1.6-0.7,3-1.9,4.1c-0.1,0.1-0.3,0.3-0.5,0.3c-1.5,0-2.9,0-4.5,0c0.4-0.6,0.5-1.1,1.4-1.1
			C84.8,101.2,85.9,100.4,86.7,99.3z M83.5,99.4c0-1.1,0-2.2,0-3.3c0.8,0.5,1.5,0.9,2.2,1.3C85.3,98.4,84.6,99.2,83.5,99.4z
			 M77.7,96.7c0-1.1,0-2.2,0-3.3c0-2.3-0.8-4.3-2.6-6c1.3-0.2,2.6,0,3.7,0.6c1.7,1,2.7,2.4,2.8,4.3c0.1,2,0.1,4.1,0,6.1
			c0,0.8-0.4,1.6-0.8,2.3c-0.5,1-1.3,1.7-2.6,1.5c-0.6-0.1-1.3,0-2.1,0C77.5,100.5,77.8,98.6,77.7,96.7z M79.2,86.2h1.1h-0.1
			c-0.2,0.1-0.6,0.1-0.8,0C79.2,86.2,79.2,86.2,79.2,86.2z M85.1,72c1.7,1,2.7,2.4,2.8,4.3c0.1,2,0.1,4.1,0,6.1
			c0,0.8-0.3,1.7-0.7,2.4c-0.1,0.3-0.3,0.5-0.5,0.7c-1.2,0-2.3,0-3.5,0c-0.1,0-0.2,0-0.4,0c1-1.6,1.2-3.2,1.1-5c0-1.1,0-2.2,0-3.3
			c0-2.3-0.8-4.3-2.6-6C82.8,71.2,84,71.3,85.1,72z M77.8,71.4c2.5,0.6,4.4,2.9,4.4,5.5c0,1.6,0,3.2,0,4.9c0,1.6-0.7,3-1.9,4.1
			c-0.2,0.1-0.4,0.3-0.6,0.3s-0.4,0-0.6,0c-1-0.4-2-0.6-3.1-0.6c-0.1,0-0.2,0-0.3,0c0.2-0.3,0.6-0.5,1.1-0.5c1.6-0.1,2.7-1,3.4-2.3
			c1.3-2.2,1.1-5.2-0.4-7.2c-0.8-1.1-2-1.8-3.4-1.8c-0.2,0-0.4-0.1-0.5-0.2c-0.4-0.6-0.8-1.2-1.3-1.9C75.7,71.2,76.8,71.2,77.8,71.4
			z M76.7,83.3V80c0.8,0.5,1.5,0.9,2.2,1.3C78.5,82.3,77.9,83.1,76.7,83.3z M68.5,71.4c2.8-0.5,5.6,1.2,6.3,4
			c0.1,0.3,0.1,0.5,0.1,0.8c0,2.1,0.1,4.1,0,6.2c0,0.7-0.4,1.5-0.7,2.2c-0.2,0.4-0.4,0.7-0.6,0.9c-1.1,0-2.2,0-3.3,0
			c-0.1,0-0.3,0-0.4,0c1-1.6,1.2-3.3,1.2-5.1c-0.1-1.1,0-2.1,0-3.2C71,74.9,70.2,73,68.5,71.4z M71.5,87.5c2.5,0.6,4.4,2.9,4.4,5.5
			c0,1.6,0,3.2,0,4.9c0,1.6-0.7,3-1.9,4.1c-0.1,0.1-0.4,0.3-0.6,0.3c-1.5,0-2.9,0-4.4,0c0.3-0.8,0.6-1.1,1.4-1.1
			c1.6-0.1,2.6-1,3.4-2.3c1.3-2.2,1.1-5.2-0.4-7.2c-0.9-1.1-2-1.8-3.4-1.8c-0.2,0-0.4-0.1-0.5-0.2c-0.4-0.6-0.8-1.2-1.3-1.9
			C69.4,87.3,70.5,87.2,71.5,87.5z M70.4,99.4c0-1.1,0-2.2,0-3.3c0.8,0.5,1.5,0.9,2.2,1.3C72.2,98.4,71.6,99.2,70.4,99.4z
			 M67.2,86.2C67.2,86.2,67.1,86.2,67.2,86.2c-0.3,0.2-0.7,0.2-0.9,0.1c-0.1,0-0.1,0-0.2,0L67.2,86.2L67.2,86.2z M62.2,87.4
			c2.8-0.5,5.6,1.2,6.3,4c0.1,0.3,0.1,0.5,0.1,0.8c0,2.1,0.1,4.1,0,6.2c0,0.8-0.4,1.5-0.7,2.2c-0.5,1.1-1.3,1.8-2.7,1.6
			c-0.6-0.1-1.3,0-2,0c1.3-1.8,1.7-3.7,1.6-5.7c0-1.1,0-2.1,0-3.2C64.8,91,63.9,89,62.2,87.4z M101.4,107.6c-0.3,0-0.5,0-0.8,0
			c-8,0-16,0-23.9,0c-0.2,0-3.8,0-5.3,0c-8.8,0-17.6,0-26.4,0c-0.2,0-0.5,0-0.7,0c0-1.2,0-2.4,0-3.5c19,0,38,0,57,0
			C101.4,105.3,101.4,106.4,101.4,107.6z"/>
		
			<linearGradient id="SVGID_2_" gradientUnits="userSpaceOnUse" x1="32.8279" y1="-69.4876" x2="91.8047" y2="-20.9184" gradientTransform="matrix(1 0 0 -1 0 46)">
			<stop  offset="0" style="stop-color:#FF1B00"/>
			<stop  offset="1" style="stop-color:#FF8D00"/>
		</linearGradient>
		<path class="st2" d="M54.6,100.2c1.5,1.3,3.6,1.3,5.1,0c1.4-1.2,2-2.9,2-4.3c0-1.9-0.4-3.3-1.3-4.4c-1.5-2-4.1-2.3-5.9-0.7
			C51.9,93.1,52,97.9,54.6,100.2z M54.6,94.4c0.9,0.1,1.6,0.5,2.3,1.1c0.4,0.4,0.8,0.7,1.3,1.1c0.4,0.3,0.9,0.5,1.5,0.8
			c-0.5,1.4-1.7,2.3-2.9,1.9c-0.2-0.1-0.5-0.2-0.7-0.3C54.7,98.1,54,95.8,54.6,94.4z"/>
		
			<linearGradient id="SVGID_3_" gradientUnits="userSpaceOnUse" x1="27.4754" y1="-62.9881" x2="86.4522" y2="-14.4189" gradientTransform="matrix(1 0 0 -1 0 46)">
			<stop  offset="0" style="stop-color:#FF1B00"/>
			<stop  offset="1" style="stop-color:#FF8D00"/>
		</linearGradient>
		<path class="st3" d="M60.9,84.1c1.5,1.3,3.6,1.4,5.1,0c1.5-1.2,2-2.9,2-4.3c0-1.9-0.4-3.3-1.3-4.4c-1.5-2-4.1-2.3-5.9-0.7
			C58.2,77.1,58.2,81.9,60.9,84.1z M60.9,78.3c0.9,0.1,1.6,0.5,2.3,1.1c0.4,0.4,0.8,0.7,1.3,1.1c0.5,0.3,1,0.6,1.5,0.8
			c-0.5,1.4-1.7,2.3-2.9,1.9c-0.2-0.1-0.5-0.2-0.7-0.3C61,82.1,60.3,79.7,60.9,78.3z"/>
	</g>
	<g>
		<g>
			
				<linearGradient id="SVGID_4_" gradientUnits="userSpaceOnUse" x1="155.3543" y1="-69.4333" x2="203.9235" y2="-26.0681" gradientTransform="matrix(1 0 0 -1 0 46)">
				<stop  offset="0" style="stop-color:#FF1B00"/>
				<stop  offset="1" style="stop-color:#FF8D00"/>
			</linearGradient>
			<path class="st4" d="M211.5,82.7c-0.6-2.3-1.6-4.6-3.6-5.9c-5.6-3.9-11.8-5.6-18.6-5.2c-0.7,0-1.4,0.1-2.3,0.2
				c-4.7,1.2-10.4,1.8-15.3,8c-2.5-0.3-4.5-0.3-6.5,0c-6.1,0.8-8.4,2.5-9.8,3.6c-2.7,2.1-2.7,4.1-2.8,5.8c-0.2,2.7-0.4,4.5-0.3,13.9
				c0,1.4,0.4,2.7,1.1,3.9c0.1,0.1,0.1,0.2,0.2,0.2c1.1,1.4,2.5,2.5,4.1,3.2c6.2,2.9,12.4,2.9,18.8,0.6c2.5-0.9,4.5-2.4,5.9-4.7
				c0.1-0.1,0.4-0.2,0.6-0.2c1.6,0.4,3,0.3,4.3-0.7c0.4-0.3,0.7-0.2,1.1,0c1.9,1.2,3.9,1.2,5.8,0c0.3-0.2,0.8-0.2,1.1,0
				c2.9,1.7,6,0.9,7.6-2c0.2-0.3,0.6-0.6,0.9-0.6c3-0.4,5-2.7,4.8-5.7c0-0.5,0.1-0.8,0.4-1.1c2-1.8,2.4-4.1,1.3-6.5
				c-0.1-0.2-0.1-0.4-0.1-0.5c0.3-0.9,0.6-1.7,0.9-2.5c0.2-0.7,0.4-1.4,0.4-2.1V83C211.6,82.9,211.5,82.8,211.5,82.7z M175.9,78.3
				l2,3.2l-3.7-1.4L175.9,78.3z M155.4,86c1-1.3,2.3-2.2,3.8-2.8c5.7-2.4,11.5-2.4,17.2,0c1.4,0.6,2.7,1.5,3.7,2.7
				c1.6,1.9,1.6,4.1,0,6c-1.7,2-3.9,3.1-6.3,3.6c-2,0.5-6,0.9-6,0.8c-3.2,0-6.3-0.5-9.1-2c-1.2-0.6-2.4-1.4-3.2-2.5
				C153.9,90,153.9,87.9,155.4,86z M179.7,106.5c-1.8,1.8-4,2.8-6.4,3.4c-4.6,1.1-9.1,0.9-13.6-0.8c-1.5-0.6-2.8-1.4-3.9-2.5
				c-1-1.1-1.6-2.3-1.6-3.8c0-2.7,0-5.5,0-8.2v-0.8c6.3,6.2,20.7,6.2,27,0v0.7c0,2.7,0,5.5,0,8.3
				C181.3,104.2,180.7,105.5,179.7,106.5z M208,94.1c-1,0.9-1.5,1.9-1.4,3.3c0.1,1.7-1.2,3.1-2.9,3.2c-1.2,0.1-2.1,0.7-2.7,1.8
				c-0.9,1.8-2.9,2.3-4.6,1.2c-1.2-0.8-2.3-0.8-3.5,0c-1.1,0.7-2.3,0.7-3.4,0c-1.2-0.8-2.3-0.8-3.5,0c-0.7,0.5-1.5,0.6-2.4,0.5
				c-0.4-0.1-0.5-0.2-0.5-0.6c0-3.3,0-6.7,0.1-10c0-0.2,0.2-0.5,0.4-0.6c0.5-0.3,1.2-0.6,1.7-0.9c3.9-2.5,7.8-2.5,11.7,0
				c2.4,1.5,5,1.8,7.8,1.1c1.5-0.4,2.7-1.2,3.8-2.2C209.3,92.2,209,93.3,208,94.1z M209.3,86.2c-0.7,2.7-3.4,4.8-6.3,5.1
				c-1.9,0.2-3.6-0.4-5.2-1.4c-3.7-2.2-7.6-2.5-11.6-0.7c-0.7,0.3-1.3,0.7-2,1.1c-0.3,0.2-0.5,0.3-0.9,0.5c0-1.9,0.1-3.7-1-5.3
				c0.3-0.1,0.5-0.2,0.7-0.3c1.5-0.7,2.3-2.3,2-3.9c-0.4-2.2-1.3-4.1-2.6-6.1c1.2-0.4,2.3-0.8,3.4-1.1c0.4-0.1,0.6,0,0.8,0.3
				c0.9,1.4,1.3,3,1.3,4.6c0,0.6-0.1,1.3,0.1,1.9c0.3,1.6,1.5,2.5,3.3,2.6c1.6,0,3.2-1.1,3.5-2.7c0.4-2,0.2-3.9-0.3-5.9
				c-0.1-0.4-0.2-0.8-0.4-1.4c1.5,0.3,2.9,0.6,4.2,0.9c0.2,0,0.3,0.3,0.4,0.5c0.5,1.6,0.5,3.2,0,4.9c-0.4,1.2-0.3,2.4,0.5,3.4
				c0.9,1.1,2.1,1.6,3.5,1.4c1.3-0.2,2.2-1,2.6-2.2c0.1-0.3,0.5-3.1,0.8-4.4c0.2,0.1,0.4,0.3,0.7,0.4
				C209.2,80.1,210.1,83.2,209.3,86.2z"/>
			
				<linearGradient id="SVGID_5_" gradientUnits="userSpaceOnUse" x1="155.0427" y1="-69.0844" x2="203.6118" y2="-25.719" gradientTransform="matrix(1 0 0 -1 0 46)">
				<stop  offset="0" style="stop-color:#FF1B00"/>
				<stop  offset="1" style="stop-color:#FF8D00"/>
			</linearGradient>
			<path class="st5" d="M167.7,105.6c-1-0.1-1.8-0.4-2.4-1.3c-0.3-0.5-0.3-1.1,0.2-1.4s0.9-0.3,1.4,0.1c0.8,0.7,0.9,0.7,1.7,0
				c0.4-0.4,0.9-0.4,1.4,0s0.5,0.9,0.2,1.3C169.6,105.2,168.7,105.5,167.7,105.6z"/>
			
				<linearGradient id="SVGID_6_" gradientUnits="userSpaceOnUse" x1="151.8979" y1="-65.562" x2="200.4669" y2="-22.1968" gradientTransform="matrix(1 0 0 -1 0 46)">
				<stop  offset="0" style="stop-color:#FF1B00"/>
				<stop  offset="1" style="stop-color:#FF8D00"/>
			</linearGradient>
			<path class="st6" d="M160.2,103.3c0-0.3,0-0.6,0-1c0.1-0.6,0.5-1,1.1-0.9s0.9,0.4,0.9,1s0,1.1,0,1.7s-0.5,1.1-1,1.1s-1-0.4-1-1
				C160.2,103.9,160.2,103.6,160.2,103.3L160.2,103.3z"/>
			
				<linearGradient id="SVGID_7_" gradientUnits="userSpaceOnUse" x1="157.7365" y1="-72.1014" x2="206.3057" y2="-28.7361" gradientTransform="matrix(1 0 0 -1 0 46)">
				<stop  offset="0" style="stop-color:#FF1B00"/>
				<stop  offset="1" style="stop-color:#FF8D00"/>
			</linearGradient>
			<path class="st7" d="M173.3,103.3c0-0.3,0-0.6,0-0.9c0.1-0.6,0.4-0.9,1-1c0.6,0,1,0.3,1.1,0.9c0,0.6,0,1.2,0,1.8c0,0.6-0.5,1-1,1
				s-1-0.4-1-1C173.2,103.9,173.2,103.6,173.3,103.3z"/>
			
				<linearGradient id="SVGID_8_" gradientUnits="userSpaceOnUse" x1="147.6639" y1="-60.82" x2="196.233" y2="-17.4547" gradientTransform="matrix(1 0 0 -1 0 46)">
				<stop  offset="0" style="stop-color:#FF1B00"/>
				<stop  offset="1" style="stop-color:#FF8D00"/>
			</linearGradient>
			<path class="st8" d="M167.4,84.7c2.3,0,4.1,0.3,5.7,1.4c0.8,0.6,1.5,1.3,1.7,2.3c0.2,1.3-0.3,2.2-1.3,3c-1.7,1.3-3.7,1.7-5.8,1.7
				c-0.6,0-0.9-0.4-0.9-1s0.4-0.9,1-1c0.8-0.1,1.6-0.1,2.4-0.3c0.5-0.1,1-0.3,1.5-0.6c0.5-0.3,1.1-0.6,1.1-1.3
				c0-0.7-0.6-1.1-1.1-1.3c-0.8-0.3-1.6-0.6-2.4-0.8c-1.5-0.2-2.9-0.2-4.3,0.3c-0.3,0.1-0.7,0.3-1,0.4c-1.4,0.8-1.5,1.6-0.1,2.5
				c0.1,0.1,0.2,0.1,0.3,0.2c0.5,0.4,0.6,0.8,0.3,1.3s-0.8,0.7-1.3,0.4c-1.2-0.6-2.1-1.4-2.3-2.8s0.5-2.4,1.6-3.1
				C163.9,85,165.8,84.7,167.4,84.7z"/>
		</g>
		
			<linearGradient id="SVGID_9_" gradientUnits="userSpaceOnUse" x1="147.8687" y1="-61.0494" x2="196.4378" y2="-17.684" gradientTransform="matrix(1 0 0 -1 0 46)">
			<stop  offset="0" style="stop-color:#FF1B00"/>
			<stop  offset="1" style="stop-color:#FF8D00"/>
		</linearGradient>
		<ellipse class="st9" cx="167.3" cy="89.7" rx="6.3" ry="3.4"/>
	</g>
	<g>
		
			<linearGradient id="SVGID_10_" gradientUnits="userSpaceOnUse" x1="-6636.8193" y1="-76.2534" x2="-6564.9238" y2="-21.666" gradientTransform="matrix(-1 0 0 -1 -6303.2905 46)">
			<stop  offset="0" style="stop-color:#FF1B00"/>
			<stop  offset="1" style="stop-color:#FF8D00"/>
		</linearGradient>
		<path class="st10" d="M323.4,105c-0.5,1.1-1.6,0.6-2.4,0.8c0.8,3,0.1,5.6-2.5,7.3c-2.2,1.5-4.5,1.5-6.8,0.1
			c-2.7-1.7-3.5-4.3-2.7-7.6c-0.7,0.1-1.4,0-1.8,0.3c-1.6,1.2-3.3,1.9-5.2,1.9c-4.3,0-8.6,0-12.9,0c-0.2,0-0.4,0-0.6,0
			c-0.3,4.2-3.4,6.2-6,6.3c-1.6,0.1-3-0.3-4.2-1.3c-1.6-1.3-2.4-3-2.5-5c-0.2,0-0.4,0-0.6,0c-1.5,0-3,0-4.4,0
			c-0.9,0-1.3-0.4-1.3-1.3s0.1-1.8,0.2-2.7c1.3-6.8,5.2-11.4,11.6-13.9c0.2-0.1,0.3-0.1,0.5-0.2c-0.9-0.8-1.5-1.8-1.8-3
			c-1,0-2.1,0-3.1,0c-2,0-3.3-1.3-3.3-3.4c0-3.4,0-6.8,0-10.2c0-2,1.3-3.3,3.3-3.3c3.4,0,6.8,0,10.2,0c2,0,3.3,1.3,3.3,3.3
			c0,2.8,0,5.6,0,8.3c0,1,0,2,0,3.1c0.2,0,0.5,0,0.9,0c1.3,0,2.3,0.5,2.9,1.7c0.6,1.1,0.5,2.3-0.2,3.3c-0.1,0.1-0.1,0.4,0,0.5
			c0.5,0.7,0.6,1.4,0.6,2.2c0,1.2,0,2.5,0,3.7c0,0.9,0.4,1.3,1.3,1.3c1,0,2,0,3,0c3.2,0,5.5-2.3,5.5-5.5c0-3.1,0-6.2,0-9.2
			c0-0.8-0.3-1.1-1.1-1.1c-1.5,0-3.1,0-4.6,0c-1,0-1.8-0.3-2.5-1c-0.9-1-1.1-2.2-0.5-3.4c0.6-1.2,1.6-1.9,2.9-1.9c1.6,0,3.2,0,4.8,0
			c0.2,0,0.5-0.1,0.7-0.2c0.8-0.6,1.6-0.8,2.6-0.8c2.4,0,4.7,0,7.1,0c0.9,0,1.3,0.4,1.3,1.3c0,2,0,3.9,0,5.9c0,0.9-0.4,1.3-1.3,1.3
			s-1.7,0-2.6,0c0.9,4.3,1.8,8.5,2.7,12.7c0.1,0,0.2,0,0.2,0c3.6-0.5,7.1,1.4,8.6,4.7c0.4,0.8,0.6,1.8,0.9,2.7
			C323.4,103.5,323.4,104.3,323.4,105z M306.5,82.6c0,0.2,0,0.4,0,0.6c0,2.9,0,5.9,0,8.8c0,3.6-2.3,6.5-5.9,7.3
			c-0.9,0.2-2,0.1-2.9,0.2c-0.6,0-1.3,0-1.9,0c-1.9,0-3.2-1.4-3.2-3.2c0-1.3,0-2.6,0-3.9c0-0.9-0.4-1.3-1.3-1.3
			c-1.8,0-3.6-0.1-5.3,0.1c-6.1,0.6-10.5,3.8-13.1,9.3c-0.8,1.7-1.2,3.4-1.3,5.3c0.7,0,1.4,0,2.1,0c0.4-2.4,1.5-4.4,3.5-5.8
			c1.6-1.1,3.4-1.7,5.4-1.5c3.8,0.3,7.2,3,7.8,7.4c0.2,0,0.4,0,0.5,0c3.7,0,7.3,0,11,0c2,0,3.5-0.8,4.6-2.4c1.4-2,2.8-3.9,4.3-5.9
			c0.5-0.7,0.7-1.6,0.6-2.4c-0.9-4.2-1.7-8.3-2.6-12.5C308,82.6,307.3,82.6,306.5,82.6z M275.8,76.3c0,0.2,0,0.3,0,0.5
			c0,2.2,0,4.4,0,6.5c0,1,0.4,1.4,1.4,1.4c3.3,0,6.6,0,9.9,0c1,0,1.4-0.4,1.4-1.4c0-2.2,0-4.4,0-6.6c0-0.1,0-0.3,0-0.5
			C284.1,76.3,280,76.3,275.8,76.3z M316.1,97.5c-0.4-0.1-0.8-0.1-1.2-0.1c-0.9,0-1.6,0.1-2.1,1.1c-1,1.8-2.4,3.4-3.6,5.2
			c4.1,0,8.1,0,12.1,0C321.4,100.7,319,97.9,316.1,97.5z M288.2,105.8c-0.4-2.9-3.1-5.2-6.2-5.3c-3.1,0-5.8,2.3-6.2,5.3
			C280,105.8,284.1,105.8,288.2,105.8z M285.1,88.9c2.1,0,4.2,0,6.4,0c0.7,0,1.1-0.5,1.1-1.1s-0.5-1-1.2-1c-3,0-6.1,0-9.1,0
			C282.7,88,283.8,88.9,285.1,88.9z M306.4,76.3c-1.1,0.1-1.9,1-1.9,2.1s0.9,2,2,2.1c0.7,0,1.4,0,2.2,0c0-1.4,0-2.8,0-4.2
			C307.8,76.3,307.1,76.2,306.4,76.3z M302.4,77.3c-0.8,0-1.7,0-2.6,0c-0.4,0-0.9,0-1.3,0c-0.6,0.1-0.9,0.5-1,1c0,0.5,0.4,1,0.9,1
			c1.3,0,2.7,0,4,0C302.4,78.7,302.4,78,302.4,77.3z"/>
		
			<linearGradient id="SVGID_11_" gradientUnits="userSpaceOnUse" x1="-6631.8862" y1="-82.7509" x2="-6559.9907" y2="-28.1634" gradientTransform="matrix(-1 0 0 -1 -6303.2905 46)">
			<stop  offset="0" style="stop-color:#FF1B00"/>
			<stop  offset="1" style="stop-color:#FF8D00"/>
		</linearGradient>
		<path class="st11" d="M293.9,102.4c-0.2-0.4-0.4-1-0.7-1.5c-1.7-3-4.2-5.1-7.5-6.1c-0.7-0.2-1.3,0-1.5,0.6s0.1,1.1,0.8,1.4
			c2.3,0.7,4.1,2,5.5,3.9c0.4,0.6,0.7,1.3,1.1,1.9c0.1,0.2,0.2,0.5,0.4,0.7c0.3,0.4,0.7,0.5,1.2,0.4
			C293.6,103.4,293.9,103.1,293.9,102.4z"/>
		
			<linearGradient id="SVGID_12_" gradientUnits="userSpaceOnUse" x1="-6630.6348" y1="-84.3992" x2="-6558.7388" y2="-29.8117" gradientTransform="matrix(-1 0 0 -1 -6303.2905 46)">
			<stop  offset="0" style="stop-color:#FF1B00"/>
			<stop  offset="1" style="stop-color:#FF8D00"/>
		</linearGradient>
		<path class="st12" d="M280,95.2c0,0.6,0.5,1.1,1,1.1c0.6,0,1.1-0.5,1.1-1c0-0.6-0.5-1.1-1-1.1C280.5,94.2,280,94.7,280,95.2z"/>
		
			<linearGradient id="SVGID_13_" gradientUnits="userSpaceOnUse" x1="-6638.5918" y1="-73.9193" x2="-6566.6958" y2="-19.3319" gradientTransform="matrix(-1 0 0 -1 -6303.2905 46)">
			<stop  offset="0" style="stop-color:#FF1B00"/>
			<stop  offset="1" style="stop-color:#FF8D00"/>
		</linearGradient>
		<path class="st13" d="M282,78.4c-0.4,0-0.7,0-1.1,0c-0.6,0-1,0.5-1,1.1c0,0.5,0.4,1,1,1c0.7,0,1.4,0,2.2,0c0.6,0,1-0.5,1-1.1
			c0-0.5-0.4-1-1-1C282.8,78.3,282.4,78.4,282,78.4z"/>
	</g>
</g>
<g>
	<g>
		<path class="st14" d="M352.6,72.5c-9.6,0-17.4-7.8-17.4-17.4s7.8-17.4,17.4-17.4S370,45.5,370,55.1S362.2,72.5,352.6,72.5z"/>
		<path class="st15" d="M352.6,39.3c8.7,0,15.8,7.1,15.8,15.8s-7.1,15.8-15.8,15.8c-8.7,0-15.8-7.1-15.8-15.8S343.9,39.3,352.6,39.3
			 M352.6,36c-10.5,0-19,8.5-19,19s8.5,19,19,19s19-8.5,19-19S363.1,36,352.6,36L352.6,36z"/>
	</g>
	<path class="st15" d="M343.2,57c1.1,0.8,1.5,0.9,2.4,2.2c1.5,2,1.3,2.9,1.7,3.3s2.5,0.7,3.9-1.1s3.5-6.7,6.3-9.6
		c2.8-2.9,4.1-3.8,4.9-4.2s-1.8-0.3-7,3.8c-3.6,2.9-6.1,6.8-6.1,6.8s-0.7-2.2-2.3-3.6C345.3,53.1,341.4,55.6,343.2,57z"/>
</g>
<g class="st16">
	<path class="st17" d="M94.3,21.8c0,2-1.5,3.6-4,3.6h-2v3.9h-1.6V18.1h3.5C92.8,18.1,94.3,19.7,94.3,21.8z M92.7,21.8
		c0-1.3-0.9-2.2-2.4-2.2h-2V24h2C91.8,23.9,92.7,23.1,92.7,21.8z"/>
	<path class="st17" d="M103.2,29.2l-2.3-4.3c-0.1,0-0.3,0-0.4,0h-1.9v4.3H97V18.1h3.4c2.5,0,4,1.5,4,3.4c0,1.4-0.7,2.5-2,3l2.6,4.7
		H103.2z M100.5,23.5c1.5,0,2.4-0.8,2.4-2s-0.8-2-2.4-2h-1.9v3.9h1.9V23.5z"/>
	<path class="st17" d="M118.1,23.7c0,3.3-2.4,5.8-5.6,5.8c-3.3,0-5.7-2.5-5.7-5.8s2.4-5.8,5.7-5.8C115.7,17.9,118.1,20.4,118.1,23.7
		z M116.5,23.7c0-2.2-1.4-4.3-4-4.3s-4,2.1-4,4.3s1.4,4.3,4,4.3C115,28,116.5,25.8,116.5,23.7z"/>
	<path class="st17" d="M129.2,26.5l1.3,0.9c-1,1.3-2.6,2.1-4.4,2.1c-3.3,0-5.7-2.5-5.7-5.8s2.4-5.8,5.7-5.8c1.8,0,3.4,0.8,4.4,2.1
		l-1.3,0.9c-0.7-0.9-1.7-1.4-3.1-1.4c-2.6,0-4,2.1-4,4.3s1.4,4.3,4,4.3C127.5,28,128.5,27.4,129.2,26.5z"/>
	<path class="st17" d="M139.3,27.8v1.4H133V18.1h6.1v1.4h-4.5v3.2h4.2v1.4h-4.2v3.6L139.3,27.8L139.3,27.8z"/>
	<path class="st17" d="M149.5,26.2c0,1.6-1.1,3.3-3.9,3.3c-1.7,0-3.5-0.8-4-2.5l1.6-0.5c0.2,0.7,1,1.5,2.5,1.5
		c1.2,0,2.3-0.5,2.3-1.7c0-1.5-1.4-1.6-3.1-2c-2.2-0.5-2.8-1.7-2.8-3.2c0-1.9,1.6-3.2,3.7-3.2c1.6,0,2.9,0.9,3.4,2.4l-1.6,0.4
		c-0.2-0.7-0.8-1.3-2-1.3c-1.1,0-1.9,0.7-1.9,1.7c0,1.4,1.4,1.6,2.8,2C148.5,23.6,149.5,24.4,149.5,26.2z"/>
	<path class="st17" d="M162.9,23.7c0,3.3-2.4,5.8-5.6,5.8c-3.3,0-5.7-2.5-5.7-5.8s2.4-5.8,5.7-5.8C160.6,17.9,162.9,20.4,162.9,23.7
		z M161.3,23.7c0-2.2-1.4-4.3-4-4.3c-2.6,0-4,2.1-4,4.3s1.4,4.3,4,4.3C159.9,28,161.3,25.8,161.3,23.7z"/>
	<path class="st17" d="M186.7,26.5l1.3,0.9c-1,1.3-2.6,2.1-4.4,2.1c-3.3,0-5.7-2.5-5.7-5.8s2.4-5.8,5.7-5.8c1.8,0,3.4,0.8,4.4,2.1
		l-1.3,0.9c-0.7-0.9-1.7-1.4-3.1-1.4c-2.6,0-4,2.1-4,4.3s1.4,4.3,4,4.3C184.9,28,186,27.4,186.7,26.5z"/>
	<path class="st17" d="M201.1,23.7c0,3.3-2.4,5.8-5.6,5.8c-3.3,0-5.7-2.5-5.7-5.8s2.4-5.8,5.7-5.8C198.7,17.9,201.1,20.4,201.1,23.7
		z M199.5,23.7c0-2.2-1.4-4.3-4-4.3s-4,2.1-4,4.3s1.4,4.3,4,4.3S199.5,25.8,199.5,23.7z"/>
	<path class="st17" d="M215.3,18.1v11.1h-1.6V21l-3.8,5.6h-0.6l-3.8-5.6v8.2h-1.6V18.1h1.6l4.1,6.1l4.1-6.1H215.3z"/>
	<path class="st17" d="M226,21.8c0,2-1.5,3.6-4,3.6h-2v3.9h-1.6V18.1h3.5C224.5,18.1,226,19.7,226,21.8z M224.4,21.8
		c0-1.3-0.9-2.2-2.4-2.2h-2V24h2C223.5,23.9,224.4,23.1,224.4,21.8z"/>
	<path class="st17" d="M234.9,27.8v1.4h-6.2V18.1h1.6v9.7H234.9z"/>
	<path class="st17" d="M243.9,27.8v1.4h-6.3V18.1h6.1v1.4h-4.5v3.2h4.2v1.4h-4.2v3.6L243.9,27.8L243.9,27.8z"/>
	<path class="st17" d="M253.5,19.6h-2.8v9.7h-1.6v-9.7h-2.8v-1.4h7.2L253.5,19.6L253.5,19.6z"/>
	<path class="st17" d="M261.9,26.6h-4.8l-0.9,2.7h-1.7l4.1-11.1h1.8l4.1,11.1h-1.7L261.9,26.6z M261.4,25.1l-1.9-5.3l-1.9,5.3
		C257.6,25.1,261.4,25.1,261.4,25.1z"/>
	<path class="st17" d="M275.9,23.7c0,3.1-2,5.6-5.8,5.6H267V18.1h3.1C273.8,18.1,275.9,20.5,275.9,23.7z M274.3,23.7
		c0-2.5-1.6-4.1-4.2-4.1h-1.6v8.2h1.6C272.7,27.8,274.3,26.2,274.3,23.7z"/>
	<path class="st17" d="M289.6,23.7c0,3.3-2.4,5.8-5.6,5.8c-3.3,0-5.7-2.5-5.7-5.8s2.4-5.8,5.7-5.8C287.2,17.9,289.6,20.4,289.6,23.7
		z M288,23.7c0-2.2-1.4-4.3-4-4.3s-4,2.1-4,4.3s1.4,4.3,4,4.3S288,25.8,288,23.7z"/>
</g>
</svg>
