<?xml version="1.0" encoding="utf-8"?>
<!-- Generator: Adobe Illustrator 24.0.0, SVG Export Plug-In . SVG Version: 6.00 Build 0)  -->
<svg version="1.1" id="Capa_1" xmlns="http://www.w3.org/2000/svg" xmlns:xlink="http://www.w3.org/1999/xlink" x="0px" y="0px"
	 viewBox="0 0 159 193.8" style="enable-background:new 0 0 159 193.8;" xml:space="preserve">
<style type="text/css">
	.st0{fill:#474747;}
	.st1{fill:url(#SVGID_1_);}
	.st2{fill:#FFFFFF;}
</style>
<g>
	<path class="st0" d="M122.6,10.1c-6.5-1.8-17.5-4.4-31.1-5.6c0,0-7.4-0.5-14.2-0.5C69.1,4,64,4.4,63.8,4.4
		C54.4,5.2,44.5,6.9,34.4,10c-3.7,1.1-6.2,4.3-6.2,7.9v0.4c0,2,1.8,3.6,3.9,3.6c0.3,0,0.6,0,1-0.1c2.2-0.5,5-1.3,8.4-2.1
		c2.3-0.6,4.7,0.2,6.1,1.8c1.9,2.1,4.9,3.4,8.3,3.4c5.7,0,10.2-3.7,10.2-8.4l0,0c0-0.6,0.6-1.2,1.4-1.2c0.4,0,2.2-0.2,2.7-0.2
		c0.2,0,0.5,0,0.7,0c0.2,0,0.4,0,0.7,0c0.5,0,0.9-0.1,1.4-0.1c0.7,0,1.4-0.1,2.2-0.1c0.4,0,0.7,0,1.1,0c0.4,0,0.7,0,1.1,0
		c0.9,0,1.9,0,2.8,0c2.8,0,5.6,0.1,8.6,0.3c0.8,0,1.4,0.6,1.4,1.2c0,0.1,0,0.2,0,0.3c0,4.6,4.6,8.4,10.2,8.4c3.6,0,6.8-1.5,8.6-3.8
		c1.4-1.7,3.9-2.6,6.3-2c2.9,0.7,5.9,1.6,8.9,2.5c0.4,0.1,0.8,0.2,1.1,0.2c2,0,3.8-1.6,3.8-3.6v-0.2
		C129.1,14.4,126.5,11.2,122.6,10.1z"/>
	<g>
		<linearGradient id="SVGID_1_" gradientUnits="userSpaceOnUse" x1="13.2817" y1="168.1873" x2="148.8535" y2="25.1613">
			<stop  offset="0" style="stop-color:#0076FF"/>
			<stop  offset="1" style="stop-color:#00B2FF"/>
		</linearGradient>
		<path class="st1" d="M151.6,55.4c-4.4-8.3-28.9-15.5-54.5-19c-2.4-0.3-4.7-1.3-6.6-2.6c-3-2.1-7.1-3.8-11.6-3.8
			c-4.8,0-9.1,1.9-12.1,4.2c-1.9,1.4-4.1,2.4-6.5,2.8c-21.5,3.6-44.2,11-51.8,21C-1.8,71.5,6.5,88.4,12,108.4
			c8.8,32,8.6,25.9,13.2,39.3c11.7,34.3,38.1,42.2,58.6,42.2c20.4,0,38.6-15.8,49.1-40.5c7.5-17.8,5.6-15,14.8-44.9
			C153.5,85.2,159.5,70.2,151.6,55.4z"/>
		<g>
			<path class="st2" d="M48.2,83.7c1.8,1.4,3.2,3.1,4.2,5c1,1.9,1.5,3.9,1.6,5.8c0.1,2-0.2,3.9-0.8,5.9c-0.6,2-1.5,3.8-2.8,5.4
				c-1.2,1.7-2.7,3.1-4.4,4.2c-2.2,1.5-4.8,2.7-7.7,3.6c-2.9,0.9-5.9,1.3-9.1,1.2c-3.2-0.1-6-0.8-8.4-2.1c-1.5-0.8-2.3-1.6-2.3-2.6
				c-0.1-0.6,0.5-1,1.6-1c1.2-0.1,3.5,0.1,7,0.4c3.4,0.3,6.1,0.3,8.1,0c3.3-0.7,6.3-2.5,8.9-5.3c2.7-2.8,3.7-6,3.3-9.5
				c-0.8,3-2.2,5.7-4.1,8.1c-3.1,4.1-5.4,5.8-7,5.1c2.9-2.2,5-5,6.4-8.5c1.1-2.8,1.5-4.7,1.1-5.8c-0.1-0.3-0.2-0.7-0.4-1
				c-0.2-0.3-0.4-0.6-0.6-0.8c-0.2-0.2-0.5-0.5-0.9-0.7c-0.4-0.2-0.7-0.4-1-0.6c-0.3-0.2-0.6-0.4-1.1-0.6c-0.5-0.2-0.9-0.4-1.1-0.5
				c-0.2-0.1-0.6-0.3-1.2-0.4s-0.9-0.3-1-0.3c-0.1,0-0.5-0.1-1-0.3c-0.5-0.2-0.8-0.3-0.8-0.3c-1.4-0.4-3.4-0.8-6.1-1.1
				c-2.6-0.3-4.4-0.6-5.2-0.8c-2.1-0.3-4-1-5.7-2.2c-1.7-1.2-3.1-2.7-4.2-4.6c-2.2-3.9-2.6-7.9-1-12.1c1.6-4.1,4.2-7.4,7.7-9.9
				c3.5-2.5,7.4-3.8,11.7-3.9c-0.1-0.1-0.2-0.2-0.3-0.4c-0.1-0.1-0.2-0.2-0.3-0.4c-0.1-0.1-0.3-0.3-0.5-0.5c-0.4-0.4-4.8-4.1-5-4.3
				c-0.2-0.2-1.7-1.4-1.9-1.7c-0.2-0.3-0.2-0.6,0-0.8c0.2-0.2,0.6-0.4,1.2-0.4c0.8-0.1,3,1.3,4.4,1.8c1.7,0.6,5.8,3.7,6.8,4.5
				c2.9,2.8,5.3,7.4,6.2,11.3c0.2,0.9,0.3,1.4,0.4,1.7c0.5,2.1,0.3,3.5-0.5,4.2c-0.3,0.3-1,0.7-2,1.1c-1,0.5-2,0.9-3,1.2
				c-1,0.3-1.7,0.2-2.1-0.2c-0.1-0.1-0.2-0.3-0.1-0.6c0.1-0.3,0.1-0.5,0.2-0.7c0.1-0.2,0.2-0.4,0.3-0.7c0.1-0.2,0.2-0.4,0.2-0.6
				c0.4-1.9,0.4-3.8-0.2-5.7c-0.4-1.5-0.9-3-1.5-4.4c0-0.1-0.1-0.3-0.2-0.5c-0.1-0.3-0.2-0.4-0.2-0.5c0-0.1-0.1-0.2-0.1-0.3
				c-0.1-0.1-0.2-0.2-0.2-0.2c-0.1,0-0.1-0.1-0.2-0.1c-0.1,0-0.2-0.1-0.4-0.1c-0.1,0-0.3,0-0.5-0.1c-1.5,0.3-2.8,0.8-4.1,1.7
				c-2.5,1.5-4.8,3.8-7,6.9c-3.3,4.8-3.4,8.1-0.1,9.9c0.4,0.2,0.9,0.5,1.5,0.7c3.3,0.7,6.6,1.3,9.9,1.5
				C38.3,78.1,43.5,80.2,48.2,83.7z M13.8,72.5c0.2-0.3,0.1-0.4-0.3-0.4C13.4,72.3,13.5,72.4,13.8,72.5z M15,67.5
				c-0.2,0-0.3,0.1-0.5,0.3c-0.2,0.2-0.3,0.4-0.4,0.7c-0.1,0.3-0.2,0.5-0.3,0.8c-0.1,0.3-0.2,0.6-0.3,0.9c0.2,0,0.5-0.4,0.9-1.2
				C14.9,68.3,15.1,67.7,15,67.5z M16.1,80.1c0.1,0,0.1-0.1,0-0.2c-0.1-0.1-0.1-0.3-0.3-0.4c-0.1-0.1-0.2-0.2-0.3-0.1
				c-0.1,0.1-0.1,0.2,0.1,0.5C15.9,80,16,80.1,16.1,80.1z M14.6,71.3C14.5,71.3,14.6,71.2,14.6,71.3c0-0.2,0-0.3,0-0.4
				c0-0.1,0-0.2-0.1-0.3c0-0.1-0.1-0.1-0.1-0.1c-0.2,0.1-0.2,0.4,0,0.8C14.5,71.5,14.5,71.5,14.6,71.3z M15.1,72.7
				c-0.1,0.6-0.1,0.9,0.1,1C15.4,73.3,15.4,73,15.1,72.7z M14.2,66.9L14.2,66.9L14.2,66.9c-0.2,0.5-0.2,0.8,0.1,0.9
				c0.4-0.4,0.5-0.8,0.4-1.2C14.4,66.4,14.2,66.5,14.2,66.9z M16,77.1c-0.1,0.2-0.1,0.4,0,0.5c0.1,0.2,0.2,0.3,0.4,0.3
				C16.5,77.5,16.4,77.2,16,77.1z M16.8,80.1L16.8,80.1c0.1,0.2,0.3,0.3,0.4,0.3c0-0.1-0.1-0.3-0.4-0.6l-0.2,0
				C16.6,80,16.6,80,16.8,80.1z M16.2,76.1L16.2,76.1c0-0.1,0-0.3,0-0.4c0-0.1-0.1-0.2-0.2-0.3c-0.1,0.1-0.1,0.3-0.1,0.4
				C15.9,75.9,16,76,16.2,76.1z M15.8,73.7c0.2,0.4,0.4,0.4,0.5-0.2c0.2-0.7,0.1-1-0.3-1.1c-0.1,0-0.2,0-0.2,0
				C15.5,72.9,15.5,73.4,15.8,73.7z M16.8,77.6c0,0.1,0,0.2,0.1,0.3c0.1,0.1,0.2,0.1,0.3,0.1C17.1,77.8,17,77.7,16.8,77.6z
				 M15.3,69.2c0.2-0.1,0.3-0.2,0.2-0.5C15.2,68.8,15.2,69,15.3,69.2z M17.7,81.7L17.7,81.7c0,0.1,0.1,0.1,0.1,0
				c0.1-0.1,0.1-0.1,0-0.2c-0.1-0.2-0.2-0.2-0.3,0L17.7,81.7z M16.7,75.1c-0.1,0.1-0.1,0.3,0,0.4c0.1,0.1,0.2,0.2,0.3,0.3
				C17.2,75.5,17.1,75.3,16.7,75.1z M15.4,67.4L15.4,67.4c-0.1,0.2-0.1,0.3-0.1,0.4c0.1,0.1,0.1,0.2,0.3,0.3c0.2,0,0.3-0.1,0.3-0.3
				c0-0.2,0-0.4-0.2-0.5L15.4,67.4z M17.8,79L17.8,79c0.1,0.2,0.1,0.2,0.1,0.2c0-0.1,0-0.2-0.1-0.3L17.8,79z M16.8,72.4
				c0.2,0.4,0.4,0.5,0.5,0.1c0.1-0.4,0-0.7-0.2-0.9C16.7,71.7,16.6,72,16.8,72.4z M15.8,65c-0.1,0.2-0.2,0.4-0.2,0.7
				c0.3,0.3,0.6-0.2,0.9-1.4C16.2,64.5,15.9,64.8,15.8,65z M18.6,80.5L18.6,80.5c-0.1,0.1,0,0.1,0.1,0.2c0.1,0.1,0.3,0.2,0.5,0.2
				c0.2,0.1,0.3,0.1,0.4,0c-0.1-0.1-0.2-0.2-0.5-0.4C18.8,80.4,18.7,80.4,18.6,80.5z M16.8,68.7L16.8,68.7c-0.3,0.1-0.3,0.3-0.2,0.5
				c0.1,0,0.1-0.1,0.1-0.2C16.8,68.9,16.8,68.8,16.8,68.7z M19.9,83.8L19.9,83.8C19.9,83.9,19.9,83.9,19.9,83.8l0.7,0.1
				c0-0.2-0.2-0.3-0.4-0.5c-0.3-0.2-0.5-0.2-0.6,0L19.9,83.8z M19.6,79.9l-0.4,0c-0.2,0.1-0.1,0.2,0.1,0.3c0.3,0.1,0.5,0,0.5-0.1
				C19.8,80.1,19.7,80,19.6,79.9z M17.1,67L17.1,67l-0.2,0.7L17,68C17.3,67.7,17.4,67.4,17.1,67z M18.4,75.1L18.4,75.1
				c-0.1,0.1-0.1,0.2,0.2,0.4C18.7,75.4,18.7,75.2,18.4,75.1z M18.4,73.3c0.2-0.1,0.2-0.2,0-0.4C18.2,73.1,18.2,73.2,18.4,73.3z
				 M19,77c0.2,0.2,0.3,0.2,0.4,0c-0.1,0-0.1-0.1-0.2-0.1C19.1,76.9,19.1,76.9,19,77z M20.4,83.1c0.1,0,0.2,0.1,0.3,0.1
				c0.1,0,0.1,0,0.1-0.1c-0.1-0.2-0.3-0.3-0.6-0.4L20.4,83.1z M18.9,73.3c-0.4,0.2-0.3,0.4,0.1,0.5C19.1,73.7,19.1,73.5,18.9,73.3z
				 M17.9,67.7c-0.2,0-0.3,0.2-0.2,0.4C17.9,68,17.9,67.9,17.9,67.7z M17.3,66.3c0,0.2,0.1,0.3,0.3,0.1
				C17.7,66.2,17.6,66.2,17.3,66.3z M20.1,79.2L20.1,79.2c-0.2,0-0.2,0.2,0.2,0.4c0.2,0.1,0.3,0.2,0.4,0.1c-0.1,0-0.1-0.1-0.2-0.2
				c-0.1-0.1-0.1-0.2-0.2-0.2C20.2,79.2,20.2,79.2,20.1,79.2z M17.9,63.2c0,0.1-0.1,0.1-0.1,0.2l0.4-0.2c0.1-0.1,0.1-0.2,0.1-0.2
				L17.9,63.2z M22.3,81.3L22.3,81.3c0.5,0.1,0.8,0,0.7-0.4c-0.1-0.5-0.5-0.7-1.2-0.9c-0.1,0-0.2-0.1-0.3,0
				c-0.3,0.1-0.4,0.2-0.5,0.3c0,0.1,0,0.2,0.1,0.3c0.1,0.1,0.2,0.2,0.3,0.4c0.1,0.1,0.1,0.2,0.1,0.2c-0.1,0-0.2,0-0.3,0.1
				c0,0.1,0.1,0.1,0.2,0.1c0.1,0,0.3,0,0.5,0C22.1,81.3,22.2,81.3,22.3,81.3z M22,83.9L22,83.9c0.1,0,0.2-0.1,0-0.3
				C21.7,83.5,21.7,83.6,22,83.9z M19.6,65.5c0-0.1-0.1-0.1-0.2,0c-0.1,0.1-0.2,0-0.2,0c-0.1,0-0.2,0.1-0.2,0.2
				c0-0.1,0.1-0.1,0.3-0.1C19.3,65.6,19.5,65.6,19.6,65.5L19.6,65.5z M19.6,66.2c0.2-0.2,0.2-0.3,0-0.3c-0.2,0-0.3,0.1-0.3,0.2
				c0,0.1,0,0.2,0,0.2C19.4,66.3,19.6,66.3,19.6,66.2z M22.4,82.9L22.4,82.9c0,0.2,0.2,0.3,0.4,0.1c0-0.1-0.1-0.1-0.1-0.1
				C22.5,82.9,22.4,82.9,22.4,82.9z M19.7,66.8c0.1-0.3,0.1-0.5-0.2-0.4l-0.1,0.1C19.5,67,19.6,67.1,19.7,66.8z M19.3,64.1
				L19.3,64.1c-0.2,0.2-0.3,0.3,0,0.3C19.5,64.3,19.5,64.2,19.3,64.1z M19.3,63.2c-0.3,0.3-0.3,0.4,0,0.3
				C19.5,63.2,19.5,63.1,19.3,63.2z M20.3,64.2c-0.2,0.1-0.3,0.3-0.2,0.6l0.5-0.4c-0.2,0-0.2-0.2,0-0.7c-0.2-0.1-0.3,0-0.3,0.3
				L20.3,64.2L20.3,64.2z M19.7,61.6L19.7,61.6c-0.2,0.1-0.1,0.1,0,0.2c0.4-0.1,0.6-0.2,0.7-0.4C20.1,61.3,19.9,61.4,19.7,61.6z
				 M20.5,63.3c0-0.2-0.2-0.3-0.4-0.1c-0.2,0.1-0.2,0.3-0.1,0.4C20,63.6,20.2,63.5,20.5,63.3z M24.1,81.9L24.1,81.9
				c0,0-0.1-0.1-0.2-0.1l-0.5,0.1c0,0.1,0.1,0.1,0.2,0.1L24.1,81.9z M23.5,79.3L23.5,79.3c-0.3,0.4-0.3,0.6,0.2,0.7
				c0.6,0.1,1-0.1,1.1-0.6l-0.4-0.1C24,79.2,23.7,79.2,23.5,79.3z M20.9,64.3L20.9,64.3c0.2-0.1,0.2-0.2,0-0.3
				c-0.1,0.1-0.2,0.1-0.3,0.2C20.7,64.5,20.8,64.5,20.9,64.3z M20.8,63.2L20.8,63.2c-0.1-0.1-0.2-0.1-0.3,0
				C20.6,63.4,20.7,63.4,20.8,63.2z M25.8,84.8c0.5-0.1,0.3-0.3-0.5-0.5c-0.2,0-0.5-0.1-0.9-0.1l-0.1,0c0.1,0,0.3,0.2,0.7,0.3
				C25.3,84.8,25.6,84.8,25.8,84.8L25.8,84.8z M25.5,82.4L25.5,82.4L25.5,82.4c-0.1-0.2-0.1-0.3-0.1-0.3c0-0.1-0.1-0.1-0.3-0.1
				c-0.2,0-0.4,0.1-0.8,0.2L25.5,82.4z M21.1,62.6C21,62.8,21,62.9,21.1,63c0,0,0.1,0,0.2-0.2C21.4,62.6,21.3,62.5,21.1,62.6z
				 M21.4,60.7c-0.1,0-0.3,0-0.5,0.2C21.3,61,21.5,61,21.4,60.7z M21.7,60.3L21.7,60.3c-0.1,0.2-0.1,0.2,0,0.3l0.2-0.1L21.7,60.3z
				 M23,61.2L23,61.2c-0.2,0.2-0.2,0.2,0,0.3c0.3-0.1,0.4-0.2,0.4-0.4L23,61.2z M27.6,82.9L27.6,82.9c0.6,0.1,0.9-0.1,0.8-0.7
				c-0.1-0.3-0.3-0.4-0.7-0.4c-0.6,0.1-0.9,0.3-1,0.6c0,0.2,0.1,0.3,0.5,0.4C27.3,82.9,27.4,82.9,27.6,82.9z M23.4,62L23.4,62
				c0.2-0.1,0.2-0.2,0-0.3C23,62,23.1,62.1,23.4,62z M28.1,85.5C28.1,85.5,28.1,85.5,28.1,85.5c0.3,0,0.5-0.2,0.7-0.4l-0.2,0
				c-0.7-0.1-1-0.1-1,0.1L28.1,85.5z M25.3,58.1L25.3,58.1c-0.1,0-0.2,0-0.4,0.1c-0.1,0.1-0.3,0.3-0.5,0.5l0.7-0.1
				C25.3,58.5,25.4,58.3,25.3,58.1z M28.9,80.3L28.9,80.3c-0.4,0-0.4,0.1-0.1,0.2C29.1,80.4,29.2,80.3,28.9,80.3z M30.1,85.3
				L30.1,85.3L30.1,85.3c-0.1-0.4-0.3-0.5-0.5-0.3c0,0.1,0,0.2,0.2,0.4C29.9,85.3,30,85.3,30.1,85.3z M29.9,80.3L29.9,80.3
				L29.9,80.3c-0.4,0.1-0.4,0.1,0,0.3C30.3,80.5,30.3,80.4,29.9,80.3z M30.8,85.4l0.4-0.1c0-0.1-0.1-0.2-0.2-0.2
				c-0.1,0-0.3,0-0.4,0.1c-0.1,0-0.1,0.1-0.1,0.2C30.6,85.3,30.7,85.3,30.8,85.4z M30.6,83.1L30.6,83.1c0.1,0,0.2,0,0.2,0
				c0-0.1-0.1-0.2-0.3-0.3C30.1,82.8,30.1,82.9,30.6,83.1z M36,112.4c0.3-0.2,0.3-0.3,0.1-0.4c-0.1,0-0.2,0.1-0.2,0.2
				C35.9,112.3,36,112.4,36,112.4z M31.4,81.6L31.4,81.6c0.2,0,0.2-0.1-0.2-0.1C31,81.5,31.1,81.5,31.4,81.6z M31.9,81L31.9,81
				c-0.1,0-0.1-0.1-0.2-0.1c-0.1,0-0.2,0-0.2,0C31.6,81.1,31.7,81.1,31.9,81z M37,110.6L37,110.6c0.3,0.1,0.6,0.1,0.8-0.2
				c0-0.2-0.1-0.2-0.5,0L37,110.6z M32.3,82.1l0.4-0.1l-0.5-0.2c-0.1,0-0.2,0-0.2,0.1L32.3,82.1z M32.5,83.9L32.5,83.9
				c0.3,0.1,0.3,0,0.1-0.2c-0.2,0-0.3,0-0.3,0C32.3,83.8,32.4,83.8,32.5,83.9z M37.8,111.3L37.8,111.3c0,0.2,0.4,0.2,1,0.1
				s1-0.2,1-0.2l-1.3-0.3C38,110.8,37.7,110.9,37.8,111.3z M33.2,84.1L33.2,84.1c0,0.2,0.1,0.3,0.2,0.3c0.1,0,0.2,0,0.2-0.2
				C33.6,84,33.4,84,33.2,84.1z M34.2,86.6L34.2,86.6c0.2,0,0.2-0.1,0.1-0.2C33.9,86.4,33.9,86.5,34.2,86.6z M33.3,80.3L33.3,80.3
				c-0.2,0.1-0.3,0-0.3,0c-0.2,0.1,0,0.3,0.6,0.5c0.2,0,0.3-0.1,0.3-0.1L33.3,80.3z M33.7,82.6L33.7,82.6c0.4,0,0.4-0.1-0.1-0.3
				C33.2,82.3,33.3,82.5,33.7,82.6z M34.1,81.1L34.1,81.1c-0.4-0.1-0.7-0.1-0.9,0c0,0.1,0.1,0.1,0.3,0.2
				C33.8,81.4,34,81.3,34.1,81.1z M34.9,84.3l0.4-0.1c0-0.2-0.4-0.4-1-0.5C34.5,84,34.7,84.2,34.9,84.3z M34.3,80.2
				c-0.3,0-0.4,0.1-0.1,0.2C34.6,80.4,34.6,80.4,34.3,80.2z M40.6,109.6L40.6,109.6c0.1-0.2,0-0.3-0.5-0.3l-0.2,0.1
				c0.2,0,0.3,0.1,0.1,0.3C40.2,109.9,40.4,109.8,40.6,109.6z M35.7,83.8L35.7,83.8c-0.1,0.2-0.1,0.3-0.1,0.4c0,0.1,0.2,0.2,0.3,0.3
				c0.2,0.1,0.3,0.1,0.3,0c0.1,0,0-0.1-0.2-0.3c-0.2-0.2-0.4-0.3-0.6-0.5c-0.2-0.1-0.3-0.2-0.4-0.1c0,0.1,0.1,0.1,0.2,0.1L35.7,83.8
				z M36.3,82.4L36.3,82.4c0.1-0.4,0-0.6-0.5-0.6c-0.4-0.1-0.7,0.1-0.8,0.6c0,0.2,0.2,0.3,0.6,0.3C36.1,82.5,36.3,82.5,36.3,82.4z
				 M40.7,111.4L40.7,111.4c0.2-0.1,0.1-0.2-0.2-0.1C40.3,111.4,40.4,111.5,40.7,111.4z M37.4,86.6L37.4,86.6
				c0.2,0.1,0.1-0.1-0.4-0.7c-0.3-0.4-0.5-0.6-0.5-0.6c-0.5,0.2-0.3,0.6,0.5,1.2C37.2,86.6,37.3,86.6,37.4,86.6z M36.4,85.1
				L36.4,85.1c0.1,0.2,0.2,0.2,0.4,0.1C36.7,85,36.6,84.9,36.4,85.1z M41.9,109.3L41.9,109.3c-0.3,0.1-0.6,0.3-0.8,0.5
				c0.1-0.1,0.2-0.1,0.3-0.2c0.1,0,0.2-0.1,0.3-0.1C41.8,109.4,41.9,109.4,41.9,109.3z M42.1,110.9L42.1,110.9
				c0.3,0,0.4-0.1,0.3-0.4C42.1,110.6,42.1,110.7,42.1,110.9z M41.9,108.8c-0.1,0.1-0.1,0.2-0.1,0.2c0,0,0.1,0,0.3-0.1
				c0.1-0.1,0.1-0.2,0.1-0.2C42.2,108.7,42.1,108.7,41.9,108.8z M37.3,82.6L37.3,82.6c0.3,0.1,0.3,0,0.1-0.2
				C37.1,82.3,37.1,82.4,37.3,82.6z M37.6,84.4L37.6,84.4c0.2,0.2,0.3,0.1,0.1-0.1L37.6,84.4z M38.4,85.1L38.4,85.1
				c0.1,0.4,0.3,0.5,0.6,0.2c0-0.1-0.1-0.1-0.3-0.2C38.5,85,38.4,85,38.4,85.1z M38.4,83.3c0.3,0,0.3-0.1,0-0.3
				C38.1,83.1,38.1,83.1,38.4,83.3z M39.3,86.6L39.3,86.6c-0.3,0.2-0.1,0.4,0.6,0.7l0.3,0c0-0.1,0-0.2-0.1-0.3
				c-0.1-0.1-0.3-0.2-0.4-0.3C39.5,86.6,39.3,86.6,39.3,86.6z M40.4,88.4L40.4,88.4l-0.5-0.3l-0.1,0.1C40,88.3,40.2,88.4,40.4,88.4z
				 M43.7,106.8l-0.3,0.4c0.1,0.1,0.3,0,0.4-0.1c0.1-0.1,0.1-0.2,0-0.3C43.8,106.7,43.8,106.8,43.7,106.8z M44.3,109.1l0.3-0.4
				c-0.1-0.2-0.3-0.2-0.5,0.2c-0.1,0.1-0.1,0.2-0.1,0.3C44,109.2,44.1,109.2,44.3,109.1z M44.4,109.6L44.4,109.6
				c0.2-0.2,0.2-0.4-0.1-0.2C44.1,109.7,44.1,109.7,44.4,109.6z M40.4,88.7L40.4,88.7c0,0,0-0.1,0-0.3
				C40.4,88.6,40.4,88.6,40.4,88.7z M40.5,88.2L40.5,88.2c0,0.1,0.2,0.1,0.3,0c0.1,0,0.2-0.1,0.2-0.2l0-0.2L40.5,88.2z M40,84.4
				l-0.1,0.2C40.1,84.6,40.1,84.6,40,84.4z M44.3,106.3l0.5-0.3c-0.7,0.1-1,0.2-1,0.3c0,0.1,0,0.1,0.1,0.2
				C44.1,106.5,44.2,106.5,44.3,106.3z M40,82.5L40,82.5l-0.4,0c-0.1,0.1,0,0.2,0.3,0.4c0.3,0.1,0.5,0.1,0.5,0.1
				C40.4,82.8,40.3,82.7,40,82.5z M35.2,57.6L35,57.7C35.1,57.6,35.1,57.5,35.2,57.6z M34.5,53.9L34.5,53.9L34.5,53.9z M34.9,53.8
				L34.9,53.8c-0.2-0.1-0.3-0.1-0.4,0.1C34.7,54.1,34.8,54.1,34.9,53.8z M40.8,86.6L40.8,86.6c0,0.2,0.1,0.3,0.2,0.3
				c0.1,0,0.2,0,0.3,0C41.3,86.6,41.1,86.5,40.8,86.6z M35.9,58.5L35.9,58.5c0,0,0.1,0,0.1-0.1c0-0.1,0-0.2-0.1-0.2
				C35.6,58.3,35.6,58.4,35.9,58.5z M35.8,55.7L35.8,55.7c-0.2,0.1-0.2,0.2-0.1,0.2c0.1,0,0.1,0,0.2,0
				C35.9,55.7,35.9,55.7,35.8,55.7z M35.6,55.6c0.1,0,0.2,0,0.5-0.2L35.6,55.6z M37.1,57.4l0.3-0.4c-0.2-0.1-0.3-0.1-0.5,0
				c-0.1,0.1-0.2,0.2-0.2,0.4L37.1,57.4z M37.6,61.8c0.1,0,0.1,0.1,0.2,0.2c0,0.1,0.1,0.1,0.3,0.1l0-0.4c-0.2-0.1-0.3-0.2-0.4-0.1
				C37.7,61.8,37.6,61.8,37.6,61.8z M37.1,58L37.1,58c0.1,0,0.3-0.1,0.3-0.4c-0.1,0-0.2,0-0.3,0.1C37,57.8,37,57.9,37.1,58z
				 M46,106.7L46,106.7c0.3,0,0.3-0.1,0.1-0.5C46.1,106.6,46.1,106.7,46,106.7z M38,62.6L38,62.6l0.2,0.1c0.1-0.1,0.1-0.2,0.1-0.3
				C38.3,62.4,38.2,62.4,38,62.6z M36.7,55.2L36.7,55.2C36.6,55.2,36.6,55.2,36.7,55.2z M42.5,86.9L42.5,86.9l0,0.2L42.5,86.9
				c0.2,0.3,0.5,0.5,0.9,0.7c0.4-0.4,0.3-0.6-0.4-0.8C42.7,86.7,42.5,86.8,42.5,86.9z M38,57.9l-0.1,0.1l-0.4,0.5
				c0,0.2,0.2,0.1,0.6-0.3C38.4,58,38.3,57.9,38,57.9z M46.6,106.5L46.6,106.5c0.1,0,0.2-0.1,0.3-0.3c-0.4-0.9-0.6-0.9-0.8-0.1
				C46.3,106,46.5,106.2,46.6,106.5z M40.1,62.9c-0.5-0.2-1-0.2-1.5-0.1C39.7,63.1,40.2,63.2,40.1,62.9z M43.7,87.9L43.7,87.9
				c0,0.1,0,0-0.1-0.2l-0.1-0.2C43.4,87.7,43.5,87.9,43.7,87.9z M46.7,104.9l0.5-0.1l-0.2-0.4L46.7,104.9L46.7,104.9z M38.8,60.7
				c0.3-0.3,0.2-0.5-0.1-0.4c0,0.1-0.1,0.2-0.1,0.3L38.8,60.7L38.8,60.7z M43.3,83.6L43.3,83.6c-0.1-0.2-0.3-0.3-0.6-0.3
				C42.8,83.6,43,83.7,43.3,83.6z M39.6,64.4l-0.2,0.1l0,0.1C39.4,64.7,39.5,64.6,39.6,64.4z M38.8,59.7L38.8,59.7
				c-0.2,0.1-0.2,0.2,0,0.3c0.1,0,0.2-0.1,0.2-0.2L38.8,59.7z M43.7,86.6L43.7,86.6c0.2,0.1,0.3,0.1,0.1-0.2
				C43.5,86.3,43.5,86.3,43.7,86.6z M38.5,57.3L38.5,57.3c-0.1,0.3-0.2,0.4-0.1,0.4l0.6-0.5l0-0.1C38.8,57,38.6,57.1,38.5,57.3z
				 M47.4,104L47.4,104c0.2-0.1,0.1-0.3-0.2-0.5c0-0.1-0.1,0-0.1,0.2c-0.1,0.3-0.1,0.4,0.1,0.4C47.3,104.1,47.4,104.1,47.4,104z
				 M39.4,60.5c0,0.1,0.1,0,0.2-0.1c0.1-0.1,0.1-0.2,0.1-0.3C39.5,60.1,39.4,60.2,39.4,60.5z M40.3,64.7L40.3,64.7l0.1-0.2l-0.1,0
				C40.2,64.6,40.2,64.6,40.3,64.7z M39.8,62L39.8,62c0.1,0.1,0.3,0,0.4,0C40.1,62,39.9,62,39.8,62z M40.7,63.8L40.7,63.8
				c-0.2,0.2-0.3,0.3-0.4,0.3c0,0.1,0.1,0.2,0.2,0.2C40.7,64.1,40.8,63.9,40.7,63.8z M47.3,102.5L47.3,102.5c0.1,0.5,0.5,0.2,1-0.7
				l0.1-0.4c-0.1,0.2-0.2,0.3-0.4,0.4c-0.2,0.1-0.3,0.1-0.5,0.2c-0.1,0-0.2,0.1-0.3,0.1C47.2,102.2,47.2,102.3,47.3,102.5z
				 M40.3,62.4L40.3,62.4l-0.2,0c-0.2,0.1-0.3,0.2-0.1,0.2c0,0.1,0,0,0.1-0.1C40.2,62.5,40.2,62.4,40.3,62.4z M48.2,103.4
				L48.2,103.4c0,0,0-0.1,0-0.1c0,0-0.1,0-0.2,0.1c-0.2,0.2-0.2,0.3-0.1,0.3C47.9,103.6,48,103.5,48.2,103.4L48.2,103.4z M48,102.9
				L48,102.9c0.1-0.1,0.1-0.2,0-0.2l-0.2,0C47.6,103.1,47.7,103.1,48,102.9z M41.4,65.9L41.4,65.9l-0.2-0.1l-0.1,0
				c-0.1,0.1-0.1,0.2-0.1,0.2L41.4,65.9z M47.4,99.3c-0.2,0.1-0.2,0.2-0.2,0.4C47.3,99.6,47.4,99.5,47.4,99.3z M45,86L45,86
				c0,0.2,0,0.3,0.1,0.4c0.1,0.1,0.2,0.1,0.3,0c0-0.1,0-0.2-0.1-0.3C45.2,86,45.1,86,45,86z M47.5,98.1L47.5,98.1
				c0,0.5,0,0.6,0.2,0.2c0-0.2,0-0.3,0-0.3C47.7,98,47.6,98,47.5,98.1z M45.9,88.5c0.3,0.2,0.3,0.2,0.2,0
				C45.9,88.3,45.8,88.3,45.9,88.5z M48.9,102.7L48.9,102.7c0,0,0-0.1,0-0.4c0-0.3-0.1-0.4-0.2-0.4c-0.1,0-0.2,0.1-0.2,0.4
				c0,0.2,0,0.4,0,0.6l0.1,0.3L48.9,102.7z M49.5,99.1L49.5,99.1c0.5-0.1,0.7-0.6,0.5-1.3c0-0.5-0.3-0.7-0.7-0.4
				c-0.4,0.7-0.7,1.5-0.9,2.3c0.3-0.2,0.5-0.4,0.4-0.8c0.1,0,0.1,0.1,0.1,0.1c0,0,0,0.1,0,0.1c0,0.2,0,0.3,0,0.3c0,0,0.1,0,0.3-0.1
				c-0.2,0.7-0.3,1-0.2,1.1l0.1-0.1C49.3,99.9,49.4,99.5,49.5,99.1z M46.5,87.3L46.5,87.3c-0.1,0.1,0,0.2,0,0.3
				c0,0.1,0.1,0.2,0.3,0.2c0.1,0,0.2,0.1,0.3,0c0-0.2-0.1-0.3-0.2-0.4C46.7,87.3,46.6,87.2,46.5,87.3z M48.5,92.4L48.5,92.4
				c-0.2,0.2-0.2,0.4-0.1,0.5c0.1,0.2,0.2,0.3,0.3,0.3C49,93,48.9,92.7,48.5,92.4z M50.6,99.8L50.6,99.8c0-0.1,0-0.2,0-0.3
				c-0.1,0-0.1,0.1-0.2,0.2C50.2,100.2,50.3,100.2,50.6,99.8z M49.5,94.4L49.5,94.4c0.1,0,0.2-0.1,0.1-0.2c0-0.1-0.1-0.2-0.2-0.3
				C49.3,94.1,49.3,94.3,49.5,94.4z M49.1,91L49.1,91c0.1-0.1,0.1-0.3-0.1-0.4C48.9,90.8,48.9,90.9,49.1,91z M50,94.1L50,94.1
				c0.2,0.3,0.4,0.2,0.3-0.1c0,0.2-0.1,0-0.3-0.7C50,93.5,50,93.8,50,94.1z M51.1,97.5L51.1,97.5L51,97.7
				C51.1,97.7,51.1,97.6,51.1,97.5z M49.7,89.4L49.7,89.4L49.7,89.4c0.1,0.2,0.2,0.3,0.4,0.4c0.1-0.3,0-0.5-0.2-0.7
				C49.6,89,49.5,89.1,49.7,89.4z"/>
			<path class="st2" d="M101.2,74c0.2,0.2,0.4,0.5,0.7,1c0.2,0.5,0.3,0.8,0.2,1c-0.3,0.2-0.8,0.2-1.4,0.1c-0.7-0.1-1.5-0.2-2.4-0.4
				c-0.9-0.1-1.5-0.2-1.7-0.1c-0.2,0.1-0.4,0.1-0.6,0.2c-0.1,0.1-0.3,0.2-0.3,0.3c-0.1,0.1-0.1,0.3-0.1,0.4s0,0.4,0,0.7
				c0,0.3,0,0.6,0,0.9c-0.1,1.8-0.1,4.2,0,7.4c-0.1,5.5,0.3,11,1,16.5c0.2,1,0.2,1.8,0,2.3c-0.2,0.6-0.7,1.1-1.5,1.5
				c-0.5,0.3-1,0.5-1.4,0.5c-0.4,0-0.8-0.1-1.1-0.4c-0.3-0.3-0.5-0.6-0.7-0.9c-0.2-0.3-0.3-0.8-0.4-1.4c-0.1-0.6-0.2-1.1-0.3-1.5
				c0-0.4-0.1-1-0.1-1.7c-0.1-0.7-0.1-1.2-0.1-1.5c-0.1-1.2-0.3-3.4-0.6-6.5c-0.2-3.1-0.5-5.5-0.7-7.2c-0.5,3.7-0.4,7.4,0.2,11.1
				c0.1,1.9,0.3,3.8,0.5,5.5c0,0.1,0.2,0.8,0.5,2c0.3,1.2,0.5,2,0.4,2.3c-1,0.3-1.9-1-2.5-3.7c-0.7-2.8-1.1-6-1.3-9.7
				c-0.2-3.7-0.4-7.2-0.5-10.5c-0.1-3.3-0.1-5.4,0.1-6.3c-3.6,0.5-7.1,1.3-10.6,2.3c-2.1,0.4-4.1,1-6,1.9c-0.5,0.4-0.8,0.6-0.9,0.8
				c0,0.1-0.1,0.7-0.2,1.7c-0.1,0.9-0.2,1.8-0.3,2.6c-0.5,5.2-1.1,9.7-2,13.5c-0.8,3.8-2.1,7.3-3.9,10.4c0.9-6.8,1.3-13.7,1.2-20.6
				c-0.6,3.7-1,7.5-1,11.3c-0.2,1.5-0.3,2.8-0.4,3.8c0,0.3-0.1,1-0.1,2c0,1-0.1,2-0.2,2.8c-0.1,0.8-0.2,1.4-0.4,1.7
				c-0.3-0.1-0.5-0.3-0.7-0.7c-0.2-0.4-0.3-0.9-0.4-1.6c-0.1-0.6-0.1-1.3-0.1-2c0-0.7,0-1.5,0-2.3c0-0.9,0.1-1.6,0.1-2.2
				c0-0.6,0.1-1.2,0.1-1.8c0-0.6,0.1-1,0.1-1.1c0.2-3.9,0.3-8.5,0.3-13.8c-0.1,0.1-0.3,0.3-0.5,0.4c-0.2,0.1-0.4,0.3-0.6,0.5
				c-0.2,0.2-0.4,0.4-0.7,0.6c-0.3,0.2-0.5,0.4-0.8,0.5c-0.2,0.1-0.5,0.3-0.8,0.4c-0.3,0.1-0.5,0.2-0.8,0.3
				c-0.2,0.1-0.5,0.1-0.7,0.1c-0.2,0-0.4-0.1-0.6-0.2c-0.4-0.2-0.8-1.3-1.2-3.1c-0.9-2.6-1.4-5.3-1.5-8.1c0-0.4,0.2-0.8,0.5-1.1
				c0.3-0.4,0.7-0.7,1.2-0.9c0.5-0.3,0.9-0.5,1.2-0.6c0.3-0.1,0.8-0.3,1.4-0.4c0.7-0.2,1-0.3,1.1-0.4c0.1-0.1,0.4-0.1,0.7-0.2
				c0.3-0.1,0.5-0.1,0.5-0.1c0.1,0,0.2-0.1,0.4-0.2c0.2-0.1,0.3-0.2,0.3-0.3c0-0.1,0-0.2,0-0.4c0-0.2,0-0.4,0-0.6
				c0-0.2-0.1-0.5-0.1-0.8c-0.1-1.1-0.3-2.2-0.5-3.3c-0.5-2.7-1.1-5.3-1.9-7.8c-0.1-0.4-0.3-1-0.7-1.7c-0.4-0.7-0.7-1.4-1.1-2.1
				c-0.3-0.6-0.6-1.3-0.9-2.1c-0.3-0.7-0.4-1.4-0.3-2.1c0.1-0.6,0.3-1.2,0.8-1.7c2.3-1.8,4.8-2.7,7.5-2.6c0.9,0,1.8,0.2,2.7,0.5
				c0.3,0.2,0.5,0.6,0.8,1.1c0.2,0.6,0.4,1.1,0.5,1.5c0.1,0.4,0.2,1.1,0.3,1.8c0.1,0.8,0.2,1.2,0.3,1.4c1.1,5.5,1.6,11.1,1.7,16.6
				c5.8-1.1,11.6-1.4,17.5-0.9c0.4-5.9,1.1-11.7,2.1-17.4c0-2.3,0.8-4.3,2.2-5.8c0.8-0.6,1.7-0.9,2.6-0.6c0.9,0.2,1.7,0.8,2.2,1.8
				c0.1,0.2,0.2,0.5,0.4,0.9c0.2,0.4,0.4,0.8,0.5,1c0.1,0.2,0.3,0.3,0.4,0.5c0.1,0.1,0.2,0.2,0.3,0.3c0,0,0.1,0.1,0.1,0.2
				c0,0.1,0.1,0.3,0.1,0.4c0,0.2,0.1,0.4,0.1,0.8c-0.2,3-0.7,6-1.5,8.9c-0.4,3.2-0.7,6.1-0.9,8.8c-0.1,1.2-0.1,2,0.1,2.2
				c0.1,0.2,0.7,0.6,1.7,1.1C99,72.4,100.1,73.1,101.2,74z M58.1,76.3c0.1-0.2,0.1-0.4-0.1-0.4C58,76,58,76,58,76.1
				S58,76.3,58.1,76.3z M58.2,75.5c0.1,0,0.2-0.1,0.2-0.2c-0.1-0.1-0.2-0.2-0.2-0.4C58,75.3,58,75.5,58.2,75.5z M58.3,73.5
				c0.1,0.2,0.2,0.2,0.2,0C58.5,73.2,58.4,73.2,58.3,73.5z M58.7,75.4L58.7,75.4c-0.2,0.3-0.2,0.4-0.1,0.4c0.1,0.1,0.2,0,0.2-0.3
				C58.8,75.4,58.8,75.4,58.7,75.4z M61.1,74.9c0-0.1-0.1,0-0.3,0.3C60.9,75.2,61,75.1,61.1,74.9z M62.4,58.1
				c-0.2,0.1-0.2,0.2,0.1,0.4l0.2,0C62.8,58.4,62.7,58.3,62.4,58.1z M62.3,63.1c0,0.2,0,0.5,0.1,0.7C62.9,63.8,62.8,63.6,62.3,63.1z
				 M62.6,53.3L62.6,53.3c-0.2,0.2-0.2,0.3,0.1,0.3C62.8,53.4,62.8,53.3,62.6,53.3z M62.8,66.6l-0.4,0l0,0.1l0.1,0L62.8,66.6z
				 M62.5,65.6c0.2-0.1,0.4-0.2,0.4-0.5c0-0.3-0.1-0.5-0.2-0.6C62.5,64.8,62.5,65.2,62.5,65.6z M62.7,69.3c-0.2,0.2-0.3,0.3-0.1,0.4
				C62.9,69.5,62.9,69.4,62.7,69.3z M63,60.9L63,60.9c-0.2-0.1-0.3,0-0.4,0.3L63,60.9L63,60.9z M62.9,60.2L62.9,60.2
				c-0.1,0.1-0.1,0.1-0.1,0.2C63,60.3,63,60.2,62.9,60.2z M62.9,54l0.1,0.4c0.1,0.2,0.2,0.1,0.2-0.1C63.1,54.2,63,54.1,62.9,54z
				 M63.1,64.4c-0.1,0-0.2,0.1-0.1,0.2c0.1,0.1,0.2,0.1,0.4,0.1C63.5,64.4,63.4,64.4,63.1,64.4z M63,66c0.1,0.2,0.3,0.3,0.4,0.1
				c0-0.1-0.1-0.2-0.2-0.3C63,65.8,63,65.9,63,66z M63.2,53.4c-0.1,0.1-0.1,0.1-0.1,0.3c0,0.1,0,0.2,0.1,0.3
				c0.1-0.1,0.2-0.2,0.4-0.4C63.4,53.6,63.3,53.5,63.2,53.4z M63.2,57L63.2,57l0.1,0.4l0.1-0.1c0-0.1,0-0.1,0-0.2
				C63.4,57.1,63.3,57,63.2,57z M64.3,58.1L64.3,58.1c-0.2-0.2-0.4-0.4-0.7-0.5c-0.1,0.4-0.1,0.6,0,0.7c0.1,0.1,0.3,0.1,0.5,0
				C64.3,58.2,64.4,58.2,64.3,58.1z M63.8,66.6c-0.2,0.1-0.1,0.3,0.1,0.4C64.2,66.9,64.1,66.8,63.8,66.6z M64.1,70.9
				c0-0.1,0-0.2,0-0.3c0-0.1-0.1-0.2-0.2-0.2C63.8,70.4,63.8,70.6,64.1,70.9z M64,68.9c0.2-0.1,0.3-0.2,0.1-0.4
				C63.8,68.6,63.8,68.8,64,68.9z M64,61.1c-0.1,0.2-0.1,0.3,0.1,0.4C64.2,61.4,64.2,61.3,64,61.1z M64,59.2c-0.1,0.2-0.1,0.3,0,0.4
				C64.2,59.4,64.2,59.2,64,59.2z M64,63.8L64,63.8c0.3,0.2,0.4,0.2,0.4,0.2C64.3,63.6,64.1,63.6,64,63.8z M64.5,67.8L64.5,67.8
				c-0.3,0.1-0.2,0.2,0,0.4C64.6,68,64.6,67.9,64.5,67.8z M64.8,67.2L64.8,67.2c0.4-0.2,0.4-0.4-0.1-0.7c-0.1,0-0.2,0-0.1,0l0,0.6
				C64.5,67.1,64.6,67.2,64.8,67.2z M64.6,53.9c-0.2,0.2-0.2,0.3,0,0.4C64.8,54.1,64.8,54,64.6,53.9z M64.8,62.3
				c0.1,0,0.2,0,0.2-0.1c-0.4,0.3-0.6,0.4-0.5,0.4C64.6,62.6,64.7,62.6,64.8,62.3z M64.7,70.3l-0.1,0.1l0.2,0.2
				C65,70.5,64.9,70.5,64.7,70.3z M64.9,84c0-0.1,0.1-0.1,0.1-0.3C64.8,83.8,64.7,83.9,64.9,84z M65,83.7c0.3,0.1,0.4,0,0.4-0.4
				l-0.2-0.3C65.1,83,65,83.1,65,83.3C65,83.4,65,83.6,65,83.7z M65.2,68.1c0.4-0.2,0.4-0.3-0.1-0.4C65,67.9,65,68,65.2,68.1z
				 M65.1,86.5L65.1,86.5C65.1,86.4,65.1,86.4,65.1,86.5z M65.4,62.4c-0.1-0.2-0.2-0.1-0.3,0.2L65.4,62.4z M65.9,66.3
				c0-0.1,0-0.1-0.1-0.2c-0.1-0.1-0.2-0.1-0.3-0.2c-0.1,0-0.2,0-0.2,0c-0.1,0.2-0.1,0.3,0.2,0.4C65.7,66.4,65.8,66.3,65.9,66.3z
				 M65.8,62.6c0-0.1-0.1-0.1-0.2-0.1c-0.1,0-0.1,0-0.2,0.1l0.1,0C65.7,62.8,65.8,62.8,65.8,62.6z M67.2,66.9c0.1-0.2,0.1-0.3,0-0.4
				C66.9,66.7,66.9,66.8,67.2,66.9z M69.8,74L69.8,74c0.2-0.1,0.2-0.3,0-0.4C69.6,73.8,69.6,73.9,69.8,74z M70.5,75.6L70.5,75.6
				c0.1-0.1,0.1-0.2-0.1-0.4C70.3,75.4,70.3,75.6,70.5,75.6z M71.2,72.6L71.2,72.6c-0.1,0.3-0.1,0.4,0,0.5c0.1,0,0.1-0.1,0.1-0.2
				C71.3,72.8,71.3,72.7,71.2,72.6z M71.5,71.8l-0.4,0l0,0.1C71.3,72.2,71.5,72.2,71.5,71.8z M71.1,73.9L71.1,73.9
				c0.1,0.1,0.2,0.1,0.3-0.2c0-0.1,0-0.2,0-0.2c0,0-0.1,0-0.3,0.2L71.1,73.9z M72.2,72.6c0.3-0.1,0.4-0.3,0.3-0.7
				c-0.1-0.4-0.3-0.5-0.6-0.1c0,0.1-0.1,0.3,0,0.4c0,0.2,0.1,0.4,0.1,0.5l0.1,0.3c0,0,0-0.1,0-0.2C72.1,72.7,72.1,72.6,72.2,72.6z
				 M72,75c0.1,0.2,0.2,0.2,0.3-0.1C72.1,74.7,72,74.8,72,75z M72,75.9c0.1,0.2,0.2,0.2,0.4,0C72.2,75.5,72.1,75.5,72,75.9z
				 M72.5,70.7c0.2,0.2,0.3,0,0.4-0.4l0-0.7c-0.1-0.1-0.2,0.1-0.3,0.4L72.6,70C72.4,70.1,72.3,70.3,72.5,70.7z M73,72.4
				c-0.1,0.1-0.2,0.2-0.1,0.3C73.1,72.6,73.2,72.6,73,72.4z M73.2,72.7l0.4,0.1c0.1-0.1,0.2-0.2,0.1-0.4
				C73.5,72.1,73.3,72.2,73.2,72.7z M74.1,75.1c0.3-0.4,0.1-0.5-0.6-0.3C73.6,75,73.8,75.1,74.1,75.1z M74.1,72.3L74.1,72.3
				c0.1,0.7,0.4,0.7,0.7-0.1l-0.5-0.4c-0.1-0.1-0.2,0.1-0.2,0.4C74.1,72.1,74.1,72.2,74.1,72.3z M75,75.3l0.2-0.4
				c-0.3,0.2-0.5,0.3-0.4,0.4C74.8,75.4,74.9,75.4,75,75.3z M75.7,72.4L75.7,72.4c0.2-0.1,0.2-0.2,0-0.4
				C75.5,72.3,75.5,72.4,75.7,72.4z M75.8,74.9L75.8,74.9L75.8,74.9z M76.1,74.8c0.2-0.1,0.2-0.3,0-0.4
				C75.9,74.5,75.9,74.6,76.1,74.8z M76.4,71.1L76.4,71.1c0.2-0.1,0.2-0.2,0-0.4C76.2,70.9,76.2,71,76.4,71.1z M77.6,72.7
				c0.2,0,0.2-0.1,0.1-0.4c-0.1-0.2-0.3-0.3-0.4-0.2c0,0.1,0,0.2,0.1,0.3C77.5,72.6,77.6,72.7,77.6,72.7z M77.7,70.8l-0.2,0
				c0,0.1,0.1,0.1,0.1,0C77.6,70.8,77.6,70.8,77.7,70.8z M78,72.5C78.1,72.6,78.1,72.6,78,72.5l-0.3-0.8l-0.1,0
				C77.8,72,77.9,72.2,78,72.5z M78.9,74.2L78.9,74.2c0.1,0,0.1-0.1,0-0.3c-0.1-0.2-0.3-0.4-0.6-0.7c-0.1,0.2-0.1,0.4,0.1,0.7
				C78.6,74.2,78.7,74.3,78.9,74.2z M78.8,73.5L78.8,73.5C78.8,73.6,78.8,73.5,78.8,73.5z M79.2,72.6c0.2-0.2,0.2-0.3,0-0.4
				C79,72.3,79,72.4,79.2,72.6z M80,73.8L80,73.8c0.1,0.1,0.1,0.1,0.1,0l-0.4-0.5C79.5,73.4,79.6,73.5,80,73.8z M80.4,74.4
				L80.4,74.4c0.2-0.1,0.2-0.3,0.1-0.4C80.4,74,80.3,74.2,80.4,74.4z M80.5,74.9L80.5,74.9c0.1,0,0.1-0.1-0.1-0.2
				C80.4,74.8,80.5,74.9,80.5,74.9z M80.9,72.2l0.4,0.1c0-0.3,0-0.5-0.1-0.5C81,71.7,80.9,71.9,80.9,72.2z M81.5,72.4
				c0.1-0.1,0.1-0.1,0-0.2c0,0-0.1,0-0.1,0C81.4,72.4,81.5,72.5,81.5,72.4z M88.5,68.8L88.5,68.8c-0.1-0.3-0.2-0.3-0.4-0.1l0.3,0.2
				L88.5,68.8z M88.1,79.5L88.1,79.5l0.1-0.2L88.1,79.5z M88.8,79.6L88.8,79.6c0.2-0.1,0.2-0.1,0.1-0.2c-0.2-0.1-0.4-0.1-0.4-0.1
				C88.6,79.5,88.7,79.6,88.8,79.6z M89.2,77.3l0.3-0.4c-0.1-0.1-0.3-0.1-0.5,0c-0.2,0.1-0.3,0.3-0.3,0.6c0,0.1,0.2,0,0.4-0.1
				L89.2,77.3z M89.1,66.6c-0.2,0.1-0.3,0.2-0.1,0.4C89.2,66.9,89.2,66.8,89.1,66.6z M89.3,62.2L89.3,62.2c0.1-0.2,0.1-0.3,0.1-0.5
				c0-0.1-0.2-0.2-0.4,0C88.9,61.9,89,62.1,89.3,62.2z M89.8,62.8c0.1-0.4,0.1-0.6-0.1-0.8l-0.1,0.2c-0.3,0.5-0.4,0.8-0.4,0.9
				c0,0.1,0,0.1,0.1,0C89.4,63.1,89.5,63,89.8,62.8L89.8,62.8z M89.2,79L89.2,79c0.1-0.2,0.1-0.3,0.2-0.4c0-0.4-0.1-0.4-0.2,0.1
				C89.2,78.9,89.2,79,89.2,79z M89.2,64L89.2,64l0.2,0.1l0.1,0.1c0.1-0.1,0.1-0.1,0-0.2C89.3,63.9,89.2,63.9,89.2,64z M89.3,77.5
				L89.3,77.5l-0.1-0.2C89.2,77.5,89.2,77.5,89.3,77.5z M89.8,60.5L89.8,60.5l-0.1,0.2c-0.1,0.3-0.2,0.5-0.1,0.5
				c0.3,0.1,0.4,0.1,0.4-0.1L89.8,60.5z M89.9,63.2L89.9,63.2c-0.1,0.3-0.1,0.4,0.1,0.4l0.1-0.1L89.9,63.2z M90.3,68.2L90.3,68.2
				c0.1,0,0-0.2-0.3-0.4L90.3,68.2L90.3,68.2z M90,77.9c0.1,0.2,0.2,0.3,0.3,0.1C90.3,77.7,90.2,77.6,90,77.9z M90.2,80.6
				c-0.1,0.1-0.2,0.2-0.1,0.2C90.2,80.8,90.2,80.7,90.2,80.6z M90.6,62.2c-0.1-0.3-0.3-0.4-0.5-0.2c0,0.1,0,0.1,0.1,0.2
				C90.3,62.3,90.5,62.3,90.6,62.2z M90.2,75.7L90.2,75.7c-0.2,0.2-0.2,0.3,0,0.4C90.6,75.8,90.6,75.7,90.2,75.7z M90.2,80.6
				L90.2,80.6c0.2,0.2,0.4,0.1,0.4-0.4L90.3,80L90.2,80.6z M90.3,76.7L90.3,76.7c0,0,0-0.1,0.1-0.2c0.1-0.1,0.2-0.2,0.2-0.2l0.2-0.2
				l-0.1-0.1C90.4,76.4,90.3,76.6,90.3,76.7z M90.4,66.4L90.4,66.4c0.2,0,0.3-0.1,0.1-0.4C90.2,66.1,90.2,66.2,90.4,66.4z
				 M90.6,64.2L90.6,64.2c-0.2,0.1-0.2,0.3,0.1,0.4C90.8,64.6,90.8,64.5,90.6,64.2z M90.9,69.3l0.9,0.2c0-0.3-0.1-0.5-0.4-0.5
				c-0.3-0.1-0.6,0-0.7,0.1C90.5,69.1,90.6,69.2,90.9,69.3z M90.8,84.6c0.3-0.1,0.3-0.3,0-0.4C90.6,84.2,90.6,84.4,90.8,84.6z
				 M90.9,68l-0.1,0l0.2,0.3C91.1,68.2,91.1,68.1,90.9,68z M90.8,65.6c0.1,0.2,0.2,0.3,0.3,0.1C91,65.5,90.9,65.5,90.8,65.6z
				 M91,58.1L91,58.1c0-0.1-0.1,0-0.1,0.2C91.1,58.2,91.1,58.1,91,58.1z M91.1,55.8C91,55.8,91,55.9,91.1,55.8
				c-0.1,0.3,0,0.5,0.1,0.6C91.3,56.3,91.2,56.1,91.1,55.8z M91.3,64.3c-0.1,0-0.2,0.1-0.2,0.2c0,0.2,0.1,0.4,0.3,0.5
				c0.1,0,0.2-0.1,0.3-0.2C91.7,64.5,91.5,64.4,91.3,64.3z M91.1,87.4c0,0.4,0.1,0.3,0.2-0.3l0.4,0.2l-0.1,0.2l-0.1,0.2
				c0.1,0.1,0.3,0.1,0.4,0c0.2-0.5,0.2-0.9-0.2-1.1c-0.4-0.2-0.6,0-0.7,0.6C91.1,87.2,91.1,87.3,91.1,87.4z M91.4,62.1L91.4,62.1
				c0.2-0.1,0.2-0.2,0.1-0.3c-0.1-0.1-0.2-0.2-0.3,0C91.2,62,91.3,62.1,91.4,62.1z M91.3,88.9c0.1,0.1,0.3,0.1,0.4,0.1
				c0.1,0,0.2-0.1,0.3-0.3c0.1-0.2,0.1-0.4,0-0.5l-0.5,0.7L91.3,88.9z M91.9,65.7c-0.1-0.2-0.3-0.1-0.4,0.1c0,0.1,0.1,0.2,0.4,0.4
				c0,0,0.1-0.1,0.1-0.3C91.9,65.8,91.9,65.8,91.9,65.7z M91.5,68.6c0,0.1,0.1,0.1,0.1,0c0.1-0.1,0.2-0.2,0.1-0.4
				C91.6,68.2,91.5,68.3,91.5,68.6z M91.6,76c0,0.1,0,0.2,0.2,0.4c0.2,0.1,0.3,0.2,0.3,0.2l0.4-0.3C92.3,76,91.9,75.9,91.6,76z
				 M92.1,90.9l-0.4,0.4c0,0.1,0,0.1,0.2,0.1C92,91.3,92.1,91.1,92.1,90.9z M92.1,81.7L92.1,81.7c-0.2,0.2-0.2,0.3-0.1,0.4
				C92.2,81.9,92.2,81.8,92.1,81.7z M92.1,64c-0.2,0.2-0.1,0.3,0.2,0.4c0.1,0.1,0.2,0.1,0.3,0c-0.1-0.2-0.2-0.3-0.3-0.4
				C92.2,64,92.1,64,92.1,64z M92.1,89.3L92.1,89.3l0.1,0.2c0.1,0.1,0.2,0,0.3-0.1C92.5,89.2,92.3,89.2,92.1,89.3z M92.1,88.4
				L92.1,88.4l0.5,0.4c0.1,0,0.1-0.1,0.1-0.4c0,0.1-0.1,0.1-0.2,0c-0.1,0-0.2,0-0.3,0C92.2,88.3,92.1,88.4,92.1,88.4z M92.2,55.8
				L92.2,55.8c0.1-0.1,0.1-0.2,0-0.3c0-0.1-0.1-0.1-0.1-0.1C92,55.5,92.1,55.6,92.2,55.8z M92.6,59.8c-0.1,0.1-0.2,0-0.3-0.1
				c-0.1-0.1-0.1-0.2-0.2-0.1c-0.1,0.1-0.1,0.2,0.1,0.3C92.4,59.9,92.5,59.9,92.6,59.8z M92.7,89.8L92.7,89.8
				c-0.1-0.1-0.2,0-0.4,0.1c0,0.1,0,0.1,0.1,0.1C92.5,89.9,92.6,89.9,92.7,89.8z M92.2,60.8c0-0.1,0.1-0.1,0.3-0.2
				C92.3,60.5,92.2,60.5,92.2,60.8z M92.8,57L92.8,57c0.3-0.2,0.1-0.5-0.4-1.1c-0.1,0.2-0.2,0.5-0.1,0.7C92.4,56.9,92.6,57,92.8,57z
				 M92.4,93.5L92.4,93.5c0,0.1,0,0.2,0,0.2c0,0,0.1,0,0.2-0.1c0-0.1,0.1-0.1,0.2-0.2C92.7,93.5,92.5,93.5,92.4,93.5z M93.2,90.6
				c0.1-0.1,0-0.1-0.1-0.1c-0.1-0.1-0.2-0.1-0.2-0.2c0,0.1,0.1,0.1,0.2,0c0.3-0.1,0.4-0.1,0.4-0.1c0-0.1-0.1-0.1-0.2-0.2L92.9,90
				c-0.2,0-0.4,0.1-0.5,0.3c0,0.1,0.1,0.1,0.3,0.3C93,90.7,93.1,90.7,93.2,90.6z M92.6,95.2c0.1-0.1,0.1-0.3,0-0.4
				c-0.1,0-0.1,0.1-0.1,0.2C92.5,95.1,92.5,95.2,92.6,95.2z M92.7,78L92.7,78c-0.2,0.1-0.2,0.3-0.1,0.4C92.8,78.4,92.8,78.2,92.7,78
				z M92.7,51.7L92.7,51.7c-0.2,0-0.2,0.1,0,0.3C92.9,51.9,92.9,51.8,92.7,51.7z M92.8,52.9c0.1,0.1,0.1,0.1,0.1,0
				c0-0.2-0.1-0.4-0.2-0.5c0,0.1-0.1,0.2,0,0.3C92.7,52.9,92.7,52.9,92.8,52.9z M93.1,93.2c0-0.1,0-0.1,0-0.2s0-0.1-0.1-0.1
				C92.9,93,92.9,93.1,93.1,93.2z M92.9,61.2L92.9,61.2l0-0.2C92.9,61.1,92.9,61.2,92.9,61.2z M93.1,83.1c-0.1,0.1-0.1,0.2,0,0.4
				C93.3,83.4,93.3,83.2,93.1,83.1z M93.3,94.8c0,0,0.1-0.1,0.3-0.4c0.1-0.3,0.2-0.5,0.1-0.5c-0.1-0.1-0.3,0.1-0.5,0.5
				c-0.1,0.2-0.1,0.4,0,0.4C93.2,94.8,93.3,94.8,93.3,94.8z M93.2,52.2c0,0.1-0.1,0.2-0.1,0.3c0.1-0.1,0.3-0.1,0.4-0.1
				c0-0.1-0.1-0.2-0.2-0.3C93.3,52.1,93.2,52.1,93.2,52.2z M94,65.3L94,65.3c0-0.2-0.1-0.2-0.3,0C93.8,65.5,93.9,65.5,94,65.3z
				 M94,92.7c0-0.2-0.1-0.2-0.1-0.1C93.9,92.7,93.9,92.7,94,92.7z M94.3,53.5L94.3,53.5c0.2,0.1,0.3,0,0.1-0.3
				C94.2,53.3,94.2,53.3,94.3,53.5z"/>
			<path class="st2" d="M149.8,63.1c-0.1,2.8-0.4,5.5-0.7,8.2c-0.3,2.7-0.9,5.5-1.5,8.6c-0.7,3-1.4,5.9-2.3,8.5
				c-0.9,2.7-2,5.3-3.4,7.8c-1.4,2.5-2.9,4.8-4.6,6.7c-2.6,2.9-5.7,4.8-9.3,5.6c-3.6,0.8-7.1,0.6-10.5-0.7c-3.4-1.3-6.3-3.4-8.6-6.4
				c-5.2-6.8-6.6-17.5-4.3-32.3c0.5-3.7,0.4-4.4,2.3-10.2c1.3-3.5,2.7-5.6,4.2-6.2c1.8-0.7,2.9,0.1,3.3,2.5c0,0.7,0.1,1.4,0.3,2
				c0,0.1,0.1,0.2,0.3,0.3c0.2,0.1,0.3,0.2,0.3,0.2c0.1,0.2,0.1,0.4,0.2,0.6c0.1,0.3,0.2,0.7,0.2,1.2c0,0.1,0,0.2,0,0.3
				c-0.3,3-1,5.8-1.9,8.6c-0.6,1.7-0.7,3.1-1,4.9c-0.8,4.5-1.1,8.9-0.6,13.3c0.5,4.4,1.8,8.5,3.7,12.3c0.9,1.5,1.8,2.7,2.8,3.5
				c1,0.8,2.2,1.3,3.5,1.3c1.3,0,2.7-0.5,4-1.6c3.3-2.8,5.8-6.3,7.5-10.5c4.4-10,7.4-23.8,8.3-34.8c0-1.5,0.1-2.9,0.4-4.3
				c0.3-1.4,1-2.5,2-3.3c2.7-2.1,3.7,0.2,3.1,7.1c0,0.2,0,0.4,0,0.7c0,0.2-0.3,3.6-0.3,3.7c-0.5,4.8-1.1,9-1.7,12.7
				c-0.6,3.7-1.6,7.9-3,12.4c-1.4,4.5-3.1,8.4-5,11.7c1.4-1.7,2.6-3.9,3.7-6.5c1.1-2.6,1.9-4.8,2.4-6.6c0.5-1.7,1.1-4.2,2-7.5
				c1-4.1,1.8-8.4,2.3-12.6c0.3-2.1,0.5-4.1,0.7-5.9c-0.1-1.7,0-3.3,0.2-5C149.9,53.3,150.2,56.6,149.8,63.1z M104.9,81.9
				c0.1,0.5,0.2,0.7,0.4,0.7c0.2-0.4,0.1-0.8-0.2-1.2C104.9,81.5,104.8,81.6,104.9,81.9z M105.5,80.4c0.4,0.1,0.5-0.3,0.2-1.2
				l-0.2-0.4c-0.2,0.6-0.2,1-0.2,1.2C105.3,80.1,105.3,80.3,105.5,80.4z M107.5,68.1c-0.2,0.1-0.2,0.5,0,1.2c0.1,0,0.1-0.3,0.1-0.6
				C107.6,68.3,107.6,68.1,107.5,68.1z M108,66.2c-0.2,0-0.3,0.1-0.3,0.3c0,0.1,0,0.3,0.2,0.3c0.1,0,0.1-0.1,0.1-0.2
				C108,66.5,108,66.4,108,66.2z M106.3,76.8c-0.1-0.4-0.2-0.3-0.3,0.2C106.2,77.3,106.3,77.3,106.3,76.8z M106.6,74.7
				c0.3-0.3,0.3-0.5,0.2-0.7C106.7,74,106.6,74.2,106.6,74.7z M107.1,72.5c0.1-0.1,0.1-0.2,0.1-0.3C107,72.2,107,72.3,107.1,72.5z
				 M106.9,73.2c0.2-0.2,0.3-0.4,0.2-0.5L106.9,73.2z M109.1,62.2L109.1,62.2c-0.2,0.1-0.2,0.3-0.1,0.5c0.1-0.1,0.1-0.2,0.1-0.3
				C109.1,62.3,109.1,62.2,109.1,62.2z M105.6,84.2c0.3-0.1,0.4-0.5,0.4-1c0-0.5-0.1-0.9-0.2-1.2c-0.1,0.2-0.2,0.5-0.3,1
				c-0.1,0.4-0.1,1.1-0.1,2c0.1,0,0.1-0.2,0.1-0.4C105.4,84.4,105.4,84.2,105.6,84.2z M109.6,60.4L109.6,60.4
				c-0.1,0.1-0.1,0.2-0.1,0.4C109.7,60.7,109.7,60.5,109.6,60.4z M107.1,76c-0.2,0-0.2,0.2-0.1,0.4C107.2,76.3,107.2,76.2,107.1,76z
				 M106.2,81.6c-0.2,0-0.2,0.1-0.1,0.3c0.2,0.5,0.4,0.6,0.4,0.3c0-0.1,0-0.1,0-0.3c0-0.1,0-0.2-0.1-0.3
				C106.4,81.6,106.3,81.6,106.2,81.6z M108.8,66.7c-0.2,0.3-0.2,0.6-0.1,0.9C108.8,67.6,108.8,67.3,108.8,66.7L108.8,66.7z
				 M109.3,69.3c-0.1-0.5-0.3-1-0.4-1.5c-0.4,0.6-0.5,1.1-0.5,1.3c0,0.3,0.1,0.4,0.3,0.3c0.1-0.1,0.2-0.1,0.3-0.1l0,0.1
				c0,0.3,0.1,0.5,0.1,0.5C109.3,69.7,109.4,69.6,109.3,69.3z M110.6,58.9L110.6,58.9c-0.4,0.1-0.4,0.3-0.1,0.6
				c0.1,0,0.2-0.1,0.2-0.3C110.7,59.1,110.6,59,110.6,58.9z M107.9,75.3c-0.2-0.2-0.3-0.1-0.3,0.2c-0.1,0.1-0.1,0.2,0,0.3
				c0,0.1,0.1,0.1,0.2,0.1L107.9,75.3z M108.5,71.4c-0.3,0.3-0.3,0.5-0.1,0.7C108.6,71.8,108.7,71.6,108.5,71.4z M110.2,61.4
				L110.2,61.4l0.2-0.9L110.2,61.4z M105.7,86.7L105.7,86.7c0.3,0.2,0.4,0.1,0.3-0.1l-0.1-0.2L105.7,86.7L105.7,86.7z M106.4,85.8
				L106.4,85.8c0.2-0.2,0.1-0.5-0.2-0.9C106,85.2,106,85.5,106.4,85.8z M108.1,74.2c-0.2,0.1-0.2,0.3,0,0.4c0.1,0,0.1-0.1,0.1-0.2
				C108.2,74.3,108.2,74.2,108.1,74.2z M106.6,82.9c-0.2,0.1-0.2,0.3,0,0.4C106.7,83.2,106.7,83,106.6,82.9z M107.7,77L107.7,77
				c0-0.3,0-0.4-0.2-0.2C107.5,77.1,107.6,77.2,107.7,77z M108,75c-0.2,0.2-0.2,0.3,0,0.4C108.2,75.1,108.2,75,108,75z M107.1,79.8
				c0.1,0.2,0.2,0.2,0.3,0C107.4,79.5,107.3,79.5,107.1,79.8z M109.5,67.3L109.5,67.3c-0.2,0.1-0.2,0.2-0.1,0.3
				C109.6,67.6,109.6,67.4,109.5,67.3z M110.9,59.8L110.9,59.8c-0.2,0.2-0.2,0.4-0.2,0.7l0.1-0.2L111,60c0,0.2,0,0.3,0,0.5l0-0.9
				C111,59.6,110.9,59.7,110.9,59.8z M110.6,61.6c-0.1,0-0.2,0.1-0.2,0.2c0,0.1,0,0.2,0,0.3C110.7,62,110.7,61.8,110.6,61.6z
				 M109.9,65.7c0.1-0.1,0.1-0.2,0.1-0.3c0-0.1,0-0.2,0-0.4c-0.1,0.1-0.2,0.2-0.2,0.3C109.8,65.4,109.8,65.6,109.9,65.7z
				 M107.2,80.5l0.1,0.9l0.1,0.1C107.6,81.1,107.5,80.8,107.2,80.5z M108.5,76c-0.1,0.1-0.2-0.1-0.4-0.5c-0.1,0,0,0.3,0.1,0.7
				l0.1,0.5C108.4,76.7,108.5,76.5,108.5,76z M109,72.3L109,72.3c0,0,0.1,0,0.1-0.2c0-0.1,0-0.2,0-0.3
				C108.8,71.9,108.8,72.1,109,72.3z M108.1,78.1c-0.1,0-0.1,0.1-0.1,0.2c0,0.1,0,0.2,0,0.2c-0.1,0,0-0.1,0.1-0.2
				c0.1-0.1,0.2-0.3,0.3-0.4c0.1-0.1,0.1-0.2,0.1-0.2c-0.1,0-0.1,0.1-0.1,0.2C108.3,78,108.2,78.1,108.1,78.1z M108.8,75.4
				L108.8,75.4c-0.1,0.1-0.2,0.1-0.2,0.3c0,0.1,0,0.2-0.1,0.3C108.7,75.9,108.7,75.7,108.8,75.4z M107.2,85.2L107.2,85.2
				c0.1-0.1,0.1-0.2,0.1-0.3c0-0.1,0-0.2-0.1-0.2C106.9,84.9,106.9,85,107.2,85.2z M107.6,82.2c-0.1,0.2-0.1,0.4,0,0.4
				c0.1,0,0.2-0.1,0.1-0.2C107.7,82.4,107.7,82.3,107.6,82.2z M109.9,69.9c-0.1,0-0.2,0.1-0.2,0.3c0,0.1,0,0.3,0.1,0.3
				C110,70.2,110,70,109.9,69.9z M108.2,80.9L108.2,80.9c-0.1-0.3-0.1-0.2-0.2,0c0.1,0.2,0.1,0.3,0.1,0.2
				C108.1,81.2,108.2,81.1,108.2,80.9z M107.1,86.6c0,0,0.1,0.1,0,0.4c0,0.3,0,0.4,0.2,0.5C107.4,87.2,107.4,86.9,107.1,86.6z
				 M108.9,78.6L108.9,78.6c-0.1-0.3-0.1-0.5-0.1-0.5c-0.1,0.2-0.2,0.3-0.2,0.5c0,0.1,0,0.1,0.1,0C108.7,78.6,108.8,78.6,108.9,78.6
				z M111.9,61.5c-0.3,0.1-0.3,0.3-0.2,0.6c0.1,0,0.2,0,0.2-0.1C112,61.7,112,61.6,111.9,61.5z M109.1,79c0.2-0.1,0.2-0.3,0-0.4
				l-0.2,0c0,0.1,0.1,0.1,0,0.2c0,0.1,0.1,0.2,0.1,0.2C109,79,109,79,109.1,79z M107.7,86.3L107.7,86.3c-0.3,0-0.4,0.4,0,1.2
				l0.3,0.2c0.2-0.1,0.2-0.4,0.1-0.8C108.1,86.5,108,86.3,107.7,86.3L107.7,86.3z M107,93.3L107,93.3c0.1-0.1,0.1-0.3,0-0.5
				l-0.2-0.2c-0.1,0-0.1,0.2-0.1,0.4C106.9,93.1,106.9,93.2,107,93.3z M108,89.1L108,89.1c-0.1,0.2-0.1,0.4,0.1,0.6
				c0.1-0.1,0.1-0.2,0.1-0.3C108.2,89.2,108.1,89.1,108,89.1z M107.9,90.6L107.9,90.6c-0.2,0.1-0.2,0.2-0.2,0.4
				c0,0.2,0.1,0.3,0.3,0.4c0.1-0.2,0.1-0.3,0.1-0.5C108,90.8,108,90.7,107.9,90.6z M108.8,85.2L108.8,85.2c0,0.4,0.1,0.7,0.1,0.9
				C109.3,86.1,109.2,85.8,108.8,85.2z M112.8,64.2L112.8,64.2c-0.1,0-0.2,0-0.2,0.1c0,0.1,0,0.2,0,0.3c0.1,0,0.2-0.1,0.2-0.2
				C112.8,64.3,112.8,64.2,112.8,64.2z M107.5,93.4c0.1,0.2,0.2,0.3,0.2,0.4C107.6,93.7,107.6,93.6,107.5,93.4z M107.7,95.1
				L107.7,95.1l0-0.4l-0.2,0.1C107.5,94.9,107.5,95,107.7,95.1z M110.5,79.1c-0.3,0.4-0.3,0.6,0,0.6
				C110.6,79.5,110.6,79.3,110.5,79.1z M108.9,89.4c0.3-0.2,0.2-0.4-0.3-0.8c-0.1,0.2-0.1,0.3,0,0.5
				C108.7,89.3,108.8,89.4,108.9,89.4z M108.4,91.4c0.1,0.3,0.2,0.3,0.2-0.1C108.4,91.1,108.3,91.1,108.4,91.4z M108.5,98L108.5,98
				c0.1-0.2,0.1-0.4,0-0.7c-0.1-0.3-0.3-0.3-0.5-0.3c0,0.2,0,0.4,0.1,0.6C108.2,97.8,108.3,97.9,108.5,98z M110.2,86
				c-0.1,0.2-0.1,0.3,0.1,0.5c0.1,0,0.1-0.1,0.1-0.2C110.3,86.1,110.3,86.1,110.2,86z M108.8,94.3c-0.2,0.1-0.1,0.3,0.3,0.7
				c0.1,0.1,0.2,0.1,0.2,0C109.2,94.7,109.1,94.4,108.8,94.3z M110.6,86.3c-0.3,0.4-0.3,0.6,0.1,0.6c0.1-0.1,0.1-0.2,0.1-0.3
				C110.8,86.5,110.7,86.4,110.6,86.3z M108.9,97.3c0.2,0.2,0.3,0.3,0.3,0.2c0.1-0.2,0.1-0.4-0.1-0.6c0-0.1-0.1,0-0.2,0.1
				L108.9,97.3z M110.4,88.6l0,0.3l0.2,0.4l0.1-0.2L110.4,88.6z M109.6,94.1c-0.1,0-0.1,0.1,0,0.3c0.1,0.1,0.2,0.2,0.3,0.2
				C110,94.3,109.9,94.1,109.6,94.1z M110.6,91.1C110.6,91.1,110.6,91.2,110.6,91.1c0.1,0.3,0.2,0.4,0.3,0.4c0.1,0,0.1-0.1,0-0.4
				C110.8,91,110.7,91,110.6,91.1z M110.5,93.9L110.5,93.9c0,0.4,0.1,0.6,0.3,0.7l0-0.1C110.6,94.1,110.5,93.9,110.5,93.9z
				 M110.7,96.2c-0.2,0-0.2,0-0.1,0.2c0,0.1,0.1,0.1,0.1,0C110.8,96.5,110.8,96.4,110.7,96.2z M111,96.6L111,96.6
				c0.5,0.5,0.8,0.6,1,0.2c0.2-0.4,0-0.8-0.4-1.3c-0.4-0.4-0.7-0.4-0.8,0C110.8,95.9,110.8,96.3,111,96.6z M112,101.9
				c0.4,0.1,0.3-0.1-0.1-0.6c-0.4-0.4-0.6-0.7-0.8-0.8c0,0.1,0.1,0.4,0.3,0.7C111.6,101.6,111.8,101.8,112,101.9z M112.2,98.2
				l-0.3-0.2c-0.1,0-0.1,0.2,0.2,0.4c0.1,0.1,0.2,0.2,0.2,0.2C112.2,98.5,112.2,98.4,112.2,98.2z M112.2,98.8l0.8,0.9
				c-0.1-0.1-0.1-0.1,0-0.2c0.1-0.1,0.1-0.2-0.1-0.3C112.9,99,112.6,98.9,112.2,98.8z M114,97L114,97c0-0.5-0.3-0.7-0.7-0.8
				c-0.1,0-0.2,0-0.2,0c-0.6,0.4-0.5,0.6,0.4,0.8L114,97z M113.7,103.9L113.7,103.9c0.2,0.1,0.5,0.1,0.8,0l-0.1,0
				c-0.7-0.5-1-0.7-1-0.4L113.7,103.9z M114.4,101.4c0.4,0.3,0.7,0.2,0.9-0.1c0.2-0.3,0.1-0.5-0.3-0.7c-0.6-0.3-0.9-0.3-1.1,0
				C113.9,100.8,114,101,114.4,101.4L114.4,101.4L114.4,101.4z M115.8,104.8L115.8,104.8L115.8,104.8l0.1-0.2
				c-0.1-0.3-0.3-0.4-0.5-0.4c-0.1,0.2-0.1,0.3,0.1,0.5c-0.1,0.1-0.2,0.1-0.4,0c0.1,0,0.3,0,0.4,0
				C115.6,104.7,115.7,104.7,115.8,104.8z M116.5,105.1l0.4,0.1c-0.1-0.4-0.3-0.6-0.7-0.4C116.3,104.9,116.3,105,116.5,105.1z
				 M117.3,102.8l-0.4-0.1l0.1,0.1C117.1,102.9,117.3,102.9,117.3,102.8z M118.6,104.2c0.3,0.1,0.4,0,0.2-0.1
				C118.5,103.9,118.4,104,118.6,104.2z M119.5,104.7c0.3,0,0.3-0.1,0.1-0.2C119.2,104.4,119.1,104.5,119.5,104.7z M120.1,107.1
				L120.1,107.1c0.4-0.1,0.4-0.1,0-0.3C119.9,106.8,119.8,106.9,120.1,107.1z M121,104.8L121,104.8L121,104.8l0.4-0.2
				c-0.1-0.2-0.4-0.4-1-0.4C120.5,104.5,120.7,104.7,121,104.8z M122,104.7L122,104.7l0.4,0.1c0,0,0-0.1-0.2-0.2
				c-0.2-0.1-0.4-0.3-0.6-0.4c-0.2-0.1-0.3-0.2-0.3-0.1c0-0.1,0.1,0,0.2,0.1C121.6,104.3,121.7,104.5,122,104.7L122,104.7z
				 M122.6,105.6L122.6,105.6c-0.4,0.1-0.2,0.4,0.5,0.8l0.7,0.2c0.2,0,0.1-0.2-0.4-0.5c-0.1,0-0.2-0.1-0.3-0.2
				C122.8,105.7,122.7,105.6,122.6,105.6z M122.8,105.2c-0.3,0.1-0.4,0.1-0.1,0.2C123,105.3,123,105.3,122.8,105.2z M123.8,104.2
				c-0.3,0.1-0.3,0.1-0.1,0.2C123.9,104.4,124,104.3,123.8,104.2z M123.6,105.9l0.3,0C123.7,105.7,123.6,105.8,123.6,105.9z
				 M124.7,105l0.4-0.3c0-0.2-0.2-0.2-0.5,0c-0.2,0.1-0.2,0.2-0.1,0.2C124.5,105,124.6,105,124.7,105z M126.8,106
				c0.3,0,0.3-0.1,0-0.2c-0.4-0.2-0.6-0.3-0.8-0.1C125.9,106.1,126.2,106.2,126.8,106z M127.5,100.8c0,0.1,0,0.1-0.1,0.2
				L127.5,100.8z M127.5,104.7c-0.2,0-0.3,0.1-0.2,0.1c0.2,0.1,0.4,0.1,0.6-0.1L127.5,104.7L127.5,104.7z M127.2,106.7
				c0.2,0,0.5,0,0.7-0.1L127.2,106.7L127.2,106.7z M128,105.8c-0.2,0-0.3,0.2-0.2,0.5c0.4-0.3,0.6-0.5,0.4-0.6L128,105.8z
				 M128.1,106.7C128.4,106.7,128.4,106.7,128.1,106.7c-0.1-0.1-0.2-0.1-0.2-0.1C127.9,106.7,128,106.8,128.1,106.7z M128.7,103.6
				c-0.1,0.3,0.3,0.2,1.3-0.1c0-0.2-0.1-0.3-0.3-0.3c-0.2,0-0.4,0-0.6,0.1C128.8,103.3,128.7,103.4,128.7,103.6z M129.6,102.4
				c-0.1,0-0.1,0-0.2,0c-0.1,0-0.1,0.1-0.1,0.2c0,0.1,0.1,0.1,0.2,0C129.5,102.6,129.5,102.6,129.6,102.4z M129.9,101
				c-0.3,0.2-0.3,0.3,0,0.3C130.2,101.1,130.2,101,129.9,101z M130.3,103.5C130.3,103.4,130.3,103.4,130.3,103.5
				c0-0.1-0.1-0.1-0.3,0C130.1,103.6,130.2,103.6,130.3,103.5z M131.4,100.4c0.1-0.1,0.1-0.2,0-0.2c-0.2,0-0.4,0.1-0.4,0.3
				L131.4,100.4z M132.4,97.5c-0.3,0.4-0.2,0.5,0.1,0.4C132.7,97.6,132.7,97.5,132.4,97.5z M131.8,101.4l0-0.2
				C131.6,101.4,131.6,101.4,131.8,101.4z M134.8,96.5L134.8,96.5c0,0.2,0.1,0.2,0.2,0.1c0.1-0.1,0.3-0.2,0.5-0.4
				c-0.1-0.2-0.2-0.2-0.4-0.1C134.8,96.2,134.7,96.3,134.8,96.5z M135.9,93.3L135.9,93.3c-0.1,0.4-0.1,0.4,0.1,0.2
				C136.2,93.1,136.1,93.1,135.9,93.3z M135.5,98.2l0.2-0.5c-0.4,0-0.6,0.2-0.5,0.6C135.3,98.4,135.4,98.4,135.5,98.2z M135.8,96.5
				L135.8,96.5c0,0.2,0,0.3,0,0.3c0,0,0.1,0,0.2-0.2c0.1-0.2,0.1-0.2,0-0.3C136,96.4,135.9,96.4,135.8,96.5z M136.7,91.8L136.7,91.8
				c0.1,0,0.2,0,0.2-0.1c0-0.1,0-0.2,0-0.3c-0.1,0-0.2,0-0.2,0.1C136.7,91.7,136.7,91.7,136.7,91.8z M138.2,92.6L138.2,92.6
				C138.2,92.6,138.2,92.6,138.2,92.6c0.3-0.2,0.4-0.2,0.4-0.3c0.1-0.1,0.1-0.2,0-0.4C138.4,92,138.2,92.3,138.2,92.6
				C138.1,92.6,138.1,92.6,138.2,92.6c-0.1-0.1,0-0.2,0-0.3c0-0.2,0-0.2-0.2,0c0.1-0.6,0.1-0.9,0.1-1c-0.5,0.8-0.9,1.7-1.1,2.7
				c0.1,0.3,0.4,0.2,0.7-0.2C137.9,93.3,138.1,92.9,138.2,92.6L138.2,92.6z M139.4,81.6L139.4,81.6c-0.2,0.2-0.3,0.3-0.1,0.5
				c0.1,0,0.1-0.1,0.1-0.2C139.4,81.8,139.4,81.7,139.4,81.6z M138.4,89c0.1-0.2,0.1-0.3-0.1-0.4c-0.2,0.1-0.3,0.2-0.3,0.4
				c0,0.2,0,0.4,0.1,0.6c0.1,0.2,0.2,0.3,0.2,0.2c0.1-0.1,0.2-0.2,0.2-0.3c0-0.1,0-0.2-0.1-0.3C138.4,89.1,138.4,89.1,138.4,89z
				 M139.6,82.5c0.1,0,0.2-0.1,0.2-0.3c0-0.1,0-0.3,0-0.4c-0.1,0.1-0.2,0.2-0.2,0.3C139.5,82.3,139.5,82.4,139.6,82.5z M140.1,79.5
				L140.1,79.5c-0.1,0.2-0.1,0.3,0,0.5C140.2,79.7,140.2,79.5,140.1,79.5z M139.7,85.3L139.7,85.3c0,0,0,0-0.1-0.1
				c-0.1-0.1-0.1-0.2-0.2-0.4c-0.2,0.1-0.3,0.2-0.1,0.3l0.3,0.1c0.1,0.3,0,0.4-0.2,0.3c-0.1,0-0.3-0.1-0.4-0.2c-0.1,0-0.1,0.3,0,0.7
				c0.6-0.1,1-0.2,0.9-0.4C140,85.5,139.9,85.4,139.7,85.3z M140.5,78.2c-0.1,0.2-0.2,0.3-0.1,0.4c0.1,0,0.1-0.1,0.1-0.2
				C140.6,78.3,140.6,78.2,140.5,78.2z M139.6,87c0.2-0.3,0.1-0.4-0.3-0.2l-0.2,0.1C139.4,87,139.5,87,139.6,87z M139.5,87.9
				c0-0.3-0.2-0.3-0.5-0.1C139.2,88.1,139.4,88.1,139.5,87.9z M139.6,89.6l0.1-0.2l-0.2-0.4c-0.1-0.1-0.3,0.1-0.5,0.4
				c-0.2,0.4-0.3,0.7-0.3,0.9c0.1,0,0.1-0.2,0.2-0.4c0.1-0.2,0.1-0.3,0.2-0.3c0,0,0.1-0.1,0.2-0.1C139.3,89.4,139.5,89.4,139.6,89.6
				z M138.9,88.7c-0.1,0.3-0.1,0.4,0.1,0.1C139.1,88.6,139,88.5,138.9,88.7z M141.1,77.4l-0.1,0.5c0,0.1,0.2,0,0.5-0.4
				c0.6-0.8,0.8-1.2,0.3-1.4c-0.1,0-0.1,0-0.2,0.1c-0.1,0.1-0.1,0.2-0.2,0.4c-0.1,0.1-0.1,0.3-0.2,0.4
				C141.2,77.3,141.2,77.3,141.1,77.4z M141.9,74.2c-0.3,0-0.3,0.1-0.1,0.3C142,74.5,142,74.4,141.9,74.2z M141.1,79.7
				c0,0.1,0,0.3,0,0.4c-0.1,0.2-0.1,0.3,0,0.4C141.2,80.2,141.2,80,141.1,79.7z M141.1,80.9c0,0.2,0.1,0.2,0.2,0
				C141.3,80.7,141.2,80.7,141.1,80.9z M141.7,78.5c0.1,0,0.2-0.1,0.2-0.3c0-0.1,0-0.2,0-0.3l-0.2,0.1
				C141.6,78.3,141.6,78.4,141.7,78.5z M140.9,84.7c0.1,0,0.2-0.2,0.3-0.4c0.1-0.2,0.1-0.4,0-0.5l-0.6,0.7
				C140.6,84.7,140.7,84.8,140.9,84.7z M139,93.7c0.3-0.1,0.3-0.2,0.2-0.5C139.1,93.3,139,93.5,139,93.7z M142,79L142,79
				c-0.1-0.1-0.2-0.1-0.3,0c-0.1,0.1-0.1,0.2-0.1,0.3c0.1,0.3,0.3,0.2,0.5-0.2c0.1-0.1,0.1-0.2,0-0.3C142.1,78.9,142.1,78.9,142,79z
				 M141,83.1L141,83.1c-0.1,0.5,0,0.6,0.2,0.3C141.2,83,141.2,82.9,141,83.1z M139.6,92.4c0.1-0.1,0.2-0.3,0.2-0.5
				C139.6,91.9,139.6,92,139.6,92.4z M142.6,76.6c0,0.1,0.1,0.1,0.1,0c0.2-0.3,0.2-0.6,0.1-0.8l-0.3,0.2L142.6,76.6z"/>
			<g>
				<path class="st2" d="M115.5,139c0.4,2.9,0.4,6-0.1,9.2c-0.5,3.2-1.3,6.3-2.4,9.2c-1.1,2.9-2.7,5.6-4.7,8.1
					c-2,2.5-4.2,4.4-6.7,5.7c-4.7,2.6-9.6,3.3-14.7,2.2c-5.1-1.2-9.3-4-12.4-8.4c-2.1-2.8-3.5-6-4.4-9.6c-0.9-3.6-1.1-7.2-0.8-10.8
					c0.3-3.6,1.2-7.1,2.5-10.6c2.1-5.5,5.4-9.8,9.9-13c4.4-3.2,9.3-4.4,14.7-3.7c4.8,0.7,9,3,12.4,7.1c3.4,4,5.6,8.8,6.6,14.1
					c0,0.1,0.1,0.1,0.1,0.2l0,0.6L115.5,139z M71,143.3c-0.2,0.3-0.2,0.5,0.1,0.7C71.3,143.8,71.2,143.5,71,143.3z M71.2,144.7
					c0-0.1-0.1,0-0.2,0c-0.1,0.1-0.2,0-0.1-0.1c0,0.1,0,0.1,0,0.2l0.4,0.3c0,0,0.1,0,0.1-0.2C71.3,144.8,71.3,144.7,71.2,144.7z
					 M71.8,138.3c-0.3,0.1-0.4,0.4-0.2,0.6C71.9,138.8,72,138.6,71.8,138.3z M71.1,145.8c0.2-0.1,0.2-0.3,0-0.5
					C70.9,145.4,70.9,145.6,71.1,145.8z M71.8,141.5l0-0.2c0,0.1-0.1,0.1-0.2,0.2c-0.1,0.1-0.2,0.2-0.3,0.3c-0.1,0.1-0.1,0.2,0,0.3
					C71.6,142.6,71.7,142.4,71.8,141.5z M71.1,153.3l0-0.5l-0.1,0.1C70.9,153.1,70.9,153.2,71.1,153.3z M71,153.7l0.1-0.2
					C71,153.5,71,153.5,71,153.7z M72.4,138.7L72.4,138.7c-0.3,0.1-0.3,0.2-0.1,0.4C72.5,139,72.5,138.8,72.4,138.7z M71.9,149.7
					c-0.3-0.3-0.5-0.2-0.6,0.4l0,0.6l0-0.1L71.9,149.7z M71.7,153.5c0.1-0.1,0.1-0.2-0.1-0.2l-0.2-0.1
					C71.5,153.5,71.6,153.6,71.7,153.5z M71.8,150.5c0-0.1,0-0.1-0.1-0.1C71.7,150.6,71.7,150.6,71.8,150.5z M73,135.8L73,135.8
					c-0.3,0-0.3,0.2-0.2,0.4C73.1,136.2,73.2,136,73,135.8z M71.9,152.7L71.9,152.7c0-0.5,0-0.7,0-0.7c-0.2-0.1-0.3-0.1-0.3,0.1
					C71.7,152.3,71.8,152.5,71.9,152.7z M72.2,147.3L72.2,147.3c-0.2,0.1-0.2,0.2,0,0.3C72.4,147.5,72.4,147.4,72.2,147.3z
					 M73.2,136.4L73.2,136.4c-0.2,0.1-0.2,0.2-0.2,0.4c0.1,0,0.2-0.1,0.2-0.2C73.3,136.5,73.3,136.4,73.2,136.4z M72.6,148
					c-0.2,0.2-0.3,0.3-0.3,0.4c0,0.1,0.1,0.2,0.3,0.2c0.1,0,0.2,0,0.2-0.2C72.8,148.4,72.8,148.2,72.6,148
					C72.7,147.9,72.6,148,72.6,148z M73.4,144.1L73.4,144.1c0.2,0,0.3,0,0.4-0.1c0.1-0.1,0.1-0.2,0-0.4c-0.1-0.2-0.2-0.4-0.3-0.7
					C72.8,143.6,72.7,144,73.4,144.1z M72.9,145.3L72.9,145.3c0,0.3,0.1,0.3,0.3,0C73.1,145.1,73,145.1,72.9,145.3z M73.1,148.5
					c-0.1,0.1-0.1,0.1-0.1,0.2c0,0.1-0.1,0.1-0.2,0.3c-0.1,0.1-0.2,0.2-0.2,0.3c0,0.1,0,0.1,0,0.2l0.3-0.5L73.1,148.5L73.1,148.5z
					 M72.7,150.8c-0.3,0.1-0.3,0.3,0,0.4C72.8,151.1,72.8,151,72.7,150.8z M73.7,138.3c0.1-0.2,0.1-0.4-0.1-0.7
					C73.5,137.8,73.5,138,73.7,138.3z M72.6,153.3L72.6,153.3c0.1-0.2,0.1-0.3,0-0.4c-0.1,0-0.1,0.1-0.1,0.2
					C72.5,153.1,72.5,153.2,72.6,153.3z M73.8,141.9l-0.3-0.6l0,0.5C73.6,142.4,73.7,142.5,73.8,141.9z M73.9,141
					c0-0.3-0.1-0.3-0.2-0.2C73.6,141.2,73.6,141.3,73.9,141z M74.3,132.2c0,0.1,0.1,0.2,0.2,0.3C74.7,132.5,74.6,132.4,74.3,132.2z
					 M74.7,140.4c0.6-0.4,0.6-0.7,0.1-1c-0.5-0.2-0.8-0.2-1,0.1c0,0.1,0.1,0.2,0.3,0.6C74.3,140.4,74.5,140.5,74.7,140.4z M75,131
					l-0.4,0.2l0.1,0.1c0.2,0.1,0.5,0,0.8-0.4s0.5-0.7,0.5-0.9C75.4,129.9,75.1,130.3,75,131z M74.4,135.9c0.3-0.1,0.3-0.2,0.2-0.5
					C74.3,135.4,74.2,135.6,74.4,135.9z M74.4,137.9c-0.1-0.1-0.1-0.1-0.2,0l0.1,0.4C74.6,138.2,74.6,138.1,74.4,137.9z M73.8,147.4
					c-0.1-0.2-0.2-0.2-0.2,0C73.6,147.7,73.7,147.7,73.8,147.4z M73.4,154.5c0.2-0.1,0.2-0.3,0.2-0.5c0-0.2-0.1-0.4-0.2-0.4
					C73.1,153.8,73.1,154.2,73.4,154.5L73.4,154.5z M73.7,146.6c0.1,0.3,0.2,0.3,0.3-0.1C74,146.3,73.9,146.3,73.7,146.6z
					 M73.3,154.9c0-0.1,0-0.2-0.1-0.3C73.2,154.8,73.2,154.9,73.3,154.9z M73.3,154.5c0,0,0.1,0,0.1,0l-0.2,0.1
					C73.3,154.6,73.3,154.5,73.3,154.5z M75.3,129.5c-0.1,0.3-0.1,0.5,0.1,0.6c0.3-0.2,0.3-0.4,0.2-0.7
					C75.5,129.1,75.4,129.2,75.3,129.5z M75.3,131.6c-0.2,0-0.3,0.2-0.2,0.4c0,0.2,0.1,0.3,0.2,0.2C75.4,132,75.4,131.8,75.3,131.6z
					 M74.5,148.9l0.4-0.2c-0.5-0.5-0.8-0.6-1-0.4c-0.1,0.2,0,0.3,0.2,0.5C74.2,149,74.4,149,74.5,148.9z M75,138.8
					c0.2-0.2,0.2-0.4,0-0.5c-0.4,0.2-0.5,0.4-0.2,0.4L75,138.8z M75.3,134.7c-0.3,0-0.3,0.2-0.2,0.4
					C75.3,135.1,75.4,134.9,75.3,134.7z M75.3,133.2c0,0.2,0,0.3,0,0.5l0.2-0.2C75.5,133.2,75.4,133.1,75.3,133.2z M74.8,147.1
					l-0.2,0.2c0,0.2,0.1,0.3,0.2,0.4C74.8,147.4,74.8,147.2,74.8,147.1z M75.9,133.3c-0.1,0.1-0.2,0.2-0.1,0.4
					c0,0.2,0.1,0.3,0.2,0.4c0.5,0.1,0.6-0.1,0.3-0.5C76,133.1,75.9,133,75.9,133.3z M75.5,141.6c0.1,0.1,0.3,0.2,0.5,0.2
					c0.1-0.1,0-0.3,0-0.4c-0.1-0.2-0.2-0.3-0.3-0.5c-0.1-0.1-0.3-0.1-0.4,0c0.1,0,0.1,0,0.1,0.1l0,0.2
					C75.4,141.5,75.4,141.6,75.5,141.6z M74.9,145.1L74.9,145.1c0,0.2,0.1,0.3,0.2,0C75.1,144.9,75,144.9,74.9,145.1z M75.7,135.2
					c0,0.1,0,0.2,0.1,0.3c0.1,0.1,0.2,0.1,0.3,0.1c0.1-0.3,0.1-0.5-0.2-0.6c0-0.1-0.1-0.1-0.2,0C75.8,135.1,75.8,135.1,75.7,135.2z
					 M76.2,132.1c-0.2,0-0.3,0.1-0.2,0.2C76.3,132.4,76.3,132.3,76.2,132.1z M76.5,128.5c-0.1,0.2-0.2,0.3-0.2,0.5
					c0.3,0.3,0.5,0.1,0.6-0.5l0.1-0.3C76.7,128.2,76.6,128.3,76.5,128.5z M76.4,130.5c0,0.1,0.1,0,0.2-0.1c0.1-0.2,0-0.3-0.1-0.4
					c0-0.1-0.1-0.1-0.2,0.1c0,0.1,0,0.1,0,0.2C76.2,130.4,76.3,130.5,76.4,130.5z M75,147.3c0,0.3,0.1,0.3,0.3,0l0-0.3
					C75.2,147,75.1,147.1,75,147.3z M75.1,151.2c0.2-0.2,0.2-0.3,0-0.5c-0.1,0-0.2,0.1-0.2,0.2C75,151.1,75,151.2,75.1,151.2z
					 M75.3,154.7c0.1-0.2,0.1-0.3,0-0.4C75.1,154.4,75.1,154.5,75.3,154.7z M76.4,137.1c-0.1,0.2,0,0.3,0.1,0.3
					C76.6,137.3,76.6,137.2,76.4,137.1z M77,133.1c-0.1,0.1-0.2,0.2-0.1,0.3c0,0.1,0.1,0.2,0.2,0.3c0.1,0.1,0.2,0.1,0.2,0.1
					c0.1,0,0.1-0.1,0.1-0.3c0-0.1,0-0.3-0.1-0.4C77.2,133.1,77.1,133.1,77,133.1z M82.5,169.2L82.5,169.2c1.9,1.3,3.9,2.1,6.1,2.6
					c-0.3-0.6-0.5-0.9-0.5-0.9c0-0.1-0.3-0.2-0.8-0.5c-0.3-0.2-0.8-0.4-1.5-0.6c-0.6-0.2-1.1-0.4-1.4-0.5c-1.5-0.7-2.8-1.6-4.1-2.6
					c-2-1.7-3.8-3.8-5.3-6.1c1.6,3.7,4,6.5,7.3,8.4l0.1,0C82.4,169.1,82.5,169.1,82.5,169.2z M75.7,155.5L75.7,155.5
					c-0.1-0.2-0.2-0.2-0.2-0.1l0,0.2C75.6,155.8,75.7,155.7,75.7,155.5z M77.5,130.2L77.5,130.2c-0.2,0.2-0.2,0.4,0,0.5
					c0.2,0,0.2-0.2,0.2-0.4C77.7,130,77.6,130,77.5,130.2z M77.2,135.9L77.2,135.9c-0.2,0.3-0.2,0.3,0.1,0.2
					C77.4,135.9,77.4,135.8,77.2,135.9z M75.5,158.7L75.5,158.7c-0.2,0.2-0.1,0.4,0.2,0.4C75.9,158.9,75.8,158.7,75.5,158.7z
					 M78.2,127.4c0-0.1-0.1-0.1-0.2,0C77.9,127.7,78,127.7,78.2,127.4z M78.3,135.2c0.2,0,0.2-0.2,0.1-0.4
					C78,134.9,78,135,78.3,135.2z M79.5,126.3c-0.2-0.1-0.4,0-0.5,0.1l0.2,0.1C79.4,126.6,79.5,126.5,79.5,126.3z M78.8,129.4
					L78.8,129.4c0-0.1,0-0.1,0.1-0.1c0.1,0,0.2,0,0.3,0c0.1,0,0.1,0,0.1,0C79.4,129.3,79.3,129.3,78.8,129.4z M77.3,156.6
					L77.3,156.6c-0.2-0.3-0.3-0.2-0.3,0.1C77.1,156.9,77.2,156.9,77.3,156.6z M76.9,158.6c-0.1,0-0.1,0.2-0.1,0.6
					c0.2,0,0.3-0.1,0.3-0.3C77.1,158.7,77,158.6,76.9,158.6z M79.2,129.8c0,0.2,0.1,0.2,0.3,0C79.5,129.5,79.4,129.5,79.2,129.8z
					 M94.9,169.1L94.9,169.1c0.4-0.1,1.2-0.6,2.3-1.5c1.1-0.9,1.7-1.3,1.9-1.3c2.8-2.7,4.8-6.3,6.1-10.7c1.3-4.4,1.8-8.8,1.6-13.3
					c-0.3-4.5-1.3-8.5-3-12c-0.8-2-2.1-3.8-3.8-5.1c-1.7-1.4-3.7-2.2-5.8-2.4c-2-0.1-3.9,0.3-5.6,1.2c-1.8,0.9-3.2,2.3-4.4,4
					c-3.5,5.5-5.4,11.4-5.9,17.9c-0.7,6,0.2,11.7,2.5,17.1c1.5,3.3,4,5.5,7.3,6.5C90.3,170.1,92.6,170,94.9,169.1z M79.5,127.6
					c-0.1,0.3,0,0.4,0.1,0.3c0.1,0,0.1-0.1,0.2-0.2C79.8,127.5,79.7,127.5,79.5,127.6z M80.1,125.8L80.1,125.8
					c-0.1-0.1-0.2,0-0.3,0.1C80,126,80.2,125.9,80.1,125.8z M79.7,130.3L79.7,130.3c0-0.2,0-0.3,0-0.3c0,0,0,0-0.1,0
					c-0.1,0.1-0.1,0-0.1,0l0,0.1c0,0.1,0,0.2,0,0.2C79.5,130.3,79.6,130.3,79.7,130.3z M80.1,128.5c-0.1-0.1-0.2-0.2-0.1-0.5
					l-0.3,0.7l0,0.1C79.8,128.8,79.9,128.7,80.1,128.5z M78.3,161.2c0-0.6-0.1-0.8-0.3-0.6l-0.6,0.7c0,0,0.1,0.1,0.2,0.3
					c0.1,0.2,0.2,0.3,0.2,0.5c0.1,0.2,0.1,0.3,0.2,0.3c0.1-0.3,0-0.5-0.2-0.6c0.2-0.1,0.4-0.1,0.4,0.2c0,0.1,0,0.2,0.1,0.2
					c0.2,0,0.3-0.1,0.3-0.3L78.3,161.2z M80.1,128.5l0.3,0l0-0.1C80.3,128.2,80.2,128.2,80.1,128.5z M80.6,131.2
					c-0.3,0.1-0.4,0.2-0.3,0.3C80.5,131.4,80.6,131.3,80.6,131.2z M81.5,126.2c0-0.2-0.1-0.2-0.3,0
					C81.2,126.4,81.3,126.5,81.5,126.2z M82,123.6c-0.1,0.2-0.2,0.4-0.3,0.5c-0.1,0.1-0.1,0.2,0,0.2c0.1,0.1,0.3,0,0.5-0.3
					C82.1,123.8,82.1,123.7,82,123.6z M79,162.5L79,162.5c0.2,0.8,0.2,1.2,0.1,1.1c0,0.1,0.1,0,0.2,0c0.1-0.1,0.1-0.2,0.2-0.5
					C79.3,162.7,79.1,162.5,79,162.5z M80,162.5c0.2,0.1,0.2-0.1,0-0.4c-0.1,0.1-0.1,0.1-0.3,0.1c-0.1,0-0.2,0.1-0.2,0.1
					C79.4,162.5,79.5,162.6,80,162.5z M83,124.6c-0.3,0-0.4,0.1-0.5,0.3c-0.1,0.2-0.1,0.4-0.1,0.6c0,0.2,0.1,0.3,0.1,0.3
					c0.1,0.1,0.2,0,0.3-0.2c0.1-0.2,0.2-0.4,0.2-0.6C83.1,124.7,83.1,124.6,83,124.6z M83,123c-0.2,0.2-0.1,0.3,0.1,0.3
					c0.1-0.2,0.2-0.2,0.1-0.3C83.2,123,83.2,123,83,123z M83,126.5c0.1-0.3,0-0.3-0.1-0.2C82.7,126.6,82.8,126.6,83,126.5z
					 M80.4,163.2c-0.3,0.1-0.4,0.2-0.3,0.4C80.3,163.5,80.4,163.4,80.4,163.2z M83.5,123.9c-0.2,0-0.3,0.1-0.4,0.4
					C83.2,124.4,83.3,124.3,83.5,123.9z M80.9,164.8L80.9,164.8C80.9,164.9,80.9,164.9,80.9,164.8L80.9,164.8z M81.3,165.2
					L81.3,165.2c0,0.3,0.1,0.4,0.4,0.3l-0.1-0.1C81.5,164.8,81.4,164.8,81.3,165.2z M84.6,124.1c-0.1,0.2,0,0.3,0.2,0.2
					C85,124.1,84.9,124,84.6,124.1z M81.9,165.3c0,0.2,0.1,0.3,0.3,0.2C82.2,165.3,82.1,165.2,81.9,165.3z M102.2,121.9
					c-1.8-1.2-3.8-2.1-6-2.6c0.3,0.6,0.5,0.9,0.5,0.9c0,0.1,0.3,0.2,0.8,0.5c0.3,0.2,0.8,0.4,1.5,0.6c0.6,0.2,1.1,0.4,1.4,0.6
					c1.5,0.7,2.8,1.6,4.1,2.6c2,1.7,3.8,3.7,5.3,6c-1.6-3.6-4.1-6.4-7.3-8.4L102.2,121.9L102.2,121.9z M99.4,123.7
					c-0.1-0.2-0.3-0.2-0.5-0.1L99.4,123.7L99.4,123.7z M100.7,124.9c0.1-0.1,0.1-0.3-0.1-0.5L100.7,124.9z M101.1,125.5
					c-0.1-0.2-0.2-0.2-0.4-0.2c0.1,0,0.2,0,0.3,0.1C101,125.5,101,125.5,101.1,125.5z M102.9,125.8c0-0.2-0.1-0.2-0.3-0.2
					C102.6,125.9,102.7,125.9,102.9,125.8z M100.1,167L100.1,167c0.1-0.2,0.1-0.2-0.1-0.1C99.8,167,99.8,167.1,100.1,167z
					 M103.2,127.1c-0.3,0.1-0.4,0.1-0.4,0.2c0,0.1,0,0.1,0,0.2C102.9,127.4,103,127.3,103.2,127.1L103.2,127.1
					c0.1,0.2,0,0.4-0.3,0.7c0,0.1,0.2,0,0.6-0.2c0.1-0.2,0.2-0.4,0.1-0.5C103.6,127,103.5,127,103.2,127.1z M103.1,125.7
					c0,0.3,0.1,0.5,0.3,0.6C103.3,125.9,103.2,125.7,103.1,125.7z M104,127.3c-0.1,0.2-0.1,0.3,0,0.2c0.1,0,0.1-0.1,0.2-0.1
					L104,127.3L104,127.3z M101.6,166.8L101.6,166.8c-0.1-0.1-0.2,0-0.4,0.4C101.4,167.2,101.6,167.1,101.6,166.8z M104.4,127.9
					c0.3,0,0.3-0.2,0.3-0.4c-0.1,0-0.2,0-0.2,0.1L104.4,127.9z M101.7,168L101.7,168c0.2-0.1,0.1-0.2-0.1-0.2
					c-0.1,0.1-0.2,0.2-0.1,0.2C101.5,168.1,101.6,168.1,101.7,168z M102,164.6c-0.3,0-0.3,0.1-0.2,0.2
					C102,164.9,102.1,164.8,102,164.6z M101.7,166.6c0.3,0,0.5-0.1,0.6-0.3c0.1-0.2,0.1-0.4,0.1-0.6c0-0.2-0.1-0.3-0.1-0.3
					c-0.2,0-0.3,0.1-0.4,0.3C101.8,165.8,101.7,166.1,101.7,166.6L101.7,166.6z M104.8,128.7L104.8,128.7l-0.2,0l0.3,0.4
					c0-0.1,0.2-0.2,0.5-0.3C105.4,128.6,105.2,128.6,104.8,128.7z M105.3,128.2c0.1,0.3,0.2,0.4,0.4,0.4c-0.1-0.7-0.1-1,0-1.1
					c-0.1-0.1-0.3,0-0.3,0.3L105.3,128.2z M102.7,167.5L102.7,167.5L102.7,167.5c0.2-0.2,0.3-0.4,0.4-0.6c-0.1-0.1-0.3,0-0.5,0.3
					C102.7,167.3,102.7,167.4,102.7,167.5z M105.8,129.5C105.8,129.4,105.8,129.4,105.8,129.5L105.8,129.5z M103.2,164.9
					c0,0.2,0.1,0.2,0.3,0C103.5,164.6,103.4,164.6,103.2,164.9z M106.1,129.3c0.1,0.2,0.2,0.3,0.4,0.2c-0.1,0-0.1-0.1-0.1-0.2
					c0-0.1,0-0.2,0-0.2C106.3,129,106.2,129.1,106.1,129.3z M104.2,159.9c0.3-0.1,0.4-0.2,0.2-0.4
					C104.2,159.6,104.1,159.8,104.2,159.9z M107,129.4L107,129.4c-0.1-0.1-0.2-0.1-0.2-0.1c-0.1,0-0.1,0.1-0.2,0.1
					C106.7,129.5,106.9,129.4,107,129.4z M107,129.4c0.1-0.1,0-0.2-0.1-0.3c-0.1,0-0.2,0-0.2,0L107,129.4z M104.4,162.5
					c-0.1,0.1-0.1,0.2,0,0.2c0.1,0.1,0.2,0,0.2-0.1c0-0.1,0-0.1-0.1-0.1C104.5,162.5,104.5,162.5,104.4,162.5z M104.7,162.6l0.3,0.5
					l-0.1-0.2c0-0.1,0-0.2,0.1-0.3c0.1-0.2,0.1-0.3,0.1-0.3C105,162.3,104.9,162.4,104.7,162.6z M104.7,165.3L104.7,165.3
					c0.1,0.1,0.2,0,0.3-0.1C104.7,165.2,104.6,165.2,104.7,165.3z M105.1,160.9c0,0.2,0.1,0.3,0.2,0.3
					C105.2,161,105.1,160.9,105.1,160.9z M105.2,163.5L105.2,163.5c0.1-0.2,0.1-0.3-0.1-0.3c0,0.1,0,0.1-0.1,0.2
					C105,163.6,105.1,163.6,105.2,163.5z M105.5,161.3c0-0.1-0.1-0.1-0.3,0C105.2,161.6,105.3,161.6,105.5,161.3z M105.3,164.8
					L105.3,164.8c0.2,0.1,0.4,0,0.5-0.1l-0.2-0.1C105.4,164.6,105.3,164.7,105.3,164.8z M107.9,132.6L107.9,132.6
					c0.1-0.1,0.1-0.2,0.1-0.3c0-0.2,0-0.3-0.1-0.3C107.8,132.2,107.8,132.4,107.9,132.6z M106.3,156.1c0,0.3,0.1,0.3,0.3,0
					C106.6,155.8,106.5,155.8,106.3,156.1z M106.5,163.6c0,0.3,0.1,0.3,0.3,0C106.9,163.4,106.8,163.4,106.5,163.6z M109,132.3
					c0.2,0.3,0.3,0.2,0.3-0.1C109.1,131.9,108.9,131.9,109,132.3z M107.5,155c-0.1,0.3-0.1,0.4,0.1,0.3
					C107.7,155,107.7,154.9,107.5,155z M107.3,160.9L107.3,160.9c0.2-0.2,0.2-0.4,0-0.5c-0.1,0-0.2,0.2-0.2,0.4
					C107.2,160.9,107.2,160.9,107.3,160.9z M107.7,158L107.7,158c0.2,0,0.2-0.1,0.2-0.3c0-0.1-0.1-0.2-0.2-0.3
					c-0.1-0.1-0.2-0.1-0.3-0.1c-0.1,0.1-0.1,0.1-0.1,0.3c0,0.1,0.1,0.3,0.1,0.4C107.5,158,107.6,158,107.7,158z M109.3,135.5
					c-0.1-0.2-0.2-0.1-0.2,0.1c0.1,0.1,0.2,0.2,0.2,0.1C109.3,135.8,109.3,135.7,109.3,135.5z M109.5,136.5
					c-0.2,0.2-0.1,0.3,0.1,0.3C109.7,136.7,109.7,136.6,109.5,136.5z M108.3,154c0.1-0.2,0-0.3-0.2-0.3
					C108.1,153.8,108.1,153.9,108.3,154z M109.6,139.9c-0.2,0.2-0.2,0.4,0,0.6c0.1,0,0.2-0.2,0.2-0.3
					C109.8,139.9,109.7,139.9,109.6,139.9z M109.5,150.2L109.5,150.2c0.2-0.1,0.2-0.3,0.1-0.4c-0.1-0.1-0.2-0.3-0.4-0.4
					c-0.2-0.1-0.3-0.1-0.4-0.1c0,0.3,0.1,0.6,0.2,0.9L109.5,150.2z M108.3,162.6c0.1-0.1,0.1-0.3,0.1-0.5c-0.2-0.3-0.4-0.1-0.6,0.5
					l0,0.3C108,162.9,108.1,162.8,108.3,162.6z M108.9,157.8L108.9,157.8c0.1-0.1,0.2-0.2,0.1-0.4c0-0.2-0.1-0.3-0.2-0.5
					c-0.5,0-0.6,0.2-0.3,0.5C108.7,157.9,108.9,158.1,108.9,157.8z M109.8,143.8c0-0.3-0.1-0.3-0.3,0c-0.1,0.2-0.1,0.3,0,0.4
					C109.6,144.1,109.7,144,109.8,143.8z M108.4,160.6L108.4,160.6c-0.1,0-0.1,0-0.2,0.1c-0.1,0.1-0.1,0.2,0,0.4
					c0.1,0,0.2,0,0.3-0.1c0-0.1,0-0.1,0-0.2C108.5,160.7,108.5,160.6,108.4,160.6z M109,155.9c0-0.1,0-0.2-0.1-0.3
					c-0.1-0.1-0.2-0.1-0.3-0.1c-0.1,0.3-0.1,0.5,0.2,0.6c0,0.1,0.1,0.1,0.2,0C108.9,156,109,156,109,155.9z M108.6,158.9
					L108.6,158.9c0.1,0.1,0.2,0,0.2-0.2C108.5,158.7,108.4,158.8,108.6,158.9z M109.5,146c0.1,0.2,0.2,0.2,0.3,0
					C109.8,145.7,109.7,145.7,109.5,146z M110.3,142.2l-0.3,0.3c0.5,0.5,0.8,0.6,0.9,0.3c0.1-0.1,0-0.2-0.2-0.4
					C110.5,142.2,110.4,142.1,110.3,142.2z M110,143.5l0.1,0.5l0.1-0.1C110.2,143.7,110.2,143.6,110,143.5z M109.8,160.1
					L109.8,160.1l0.3-0.1l0-0.2c-0.2-0.1-0.5,0-0.9,0.4c-0.3,0.4-0.5,0.7-0.4,0.9C109.4,161.1,109.7,160.8,109.8,160.1z
					 M109.6,152.8L109.6,152.8c0.5-0.2,0.6-0.4,0.3-0.5l-0.2,0L109.6,152.8z M109.5,156.4c0.2,0,0.2-0.1,0.1-0.3
					C109.4,156.1,109.3,156.2,109.5,156.4z M109.4,158c0.1-0.2,0.1-0.3,0-0.5l-0.2,0.2C109.3,157.9,109.3,158,109.4,158z
					 M109.4,161.6L109.4,161.6L109.4,161.6c0.1-0.3,0.1-0.5-0.1-0.6c-0.3,0.2-0.3,0.4-0.2,0.7C109.3,161.9,109.4,161.9,109.4,161.6z
					 M110.7,151.7l0.1,0.1c0.1,0.1,0.1,0.1,0.2-0.1l-0.3-0.7c-0.4-0.1-0.6-0.1-0.7,0.2c-0.1,0.3,0,0.6,0.2,0.7
					C110.4,151.8,110.5,151.8,110.7,151.7z M109.5,159.4c0.2,0,0.2-0.2,0-0.5C109.4,159.1,109.4,159.3,109.5,159.4z M111.3,136.6
					c-0.2,0-0.2,0.2-0.2,0.4c0,0.2,0.1,0.4,0.2,0.4c0.3-0.2,0.4-0.5,0.1-0.9L111.3,136.6z M111.3,136.6L111.3,136.6
					C111.4,136.6,111.4,136.6,111.3,136.6z M111,144.6c-0.1-0.3-0.2-0.3-0.3,0C110.8,144.8,110.9,144.8,111,144.6z M111.4,136.2
					c-0.1,0.1,0,0.2,0.1,0.3C111.5,136.4,111.5,136.3,111.4,136.2z M110.4,153.2c0,0.1,0.1,0.1,0.2,0l-0.1-0.3
					C110.2,152.9,110.2,153,110.4,153.2z M111,143.7L111,143.7c0.1,0.2,0.2,0.2,0.2-0.1C111.2,143.4,111.1,143.4,111,143.7z
					 M110.4,155.3c-0.3,0-0.3,0.2-0.2,0.4C110.5,155.7,110.5,155.5,110.4,155.3z M111.3,148.2L111.3,148.2c0.6,0.1,0.7-0.3,0.2-1.2
					l-0.1,0c-0.1,0.1-0.1,0.1-0.2,0.2c-0.1,0.1-0.1,0.2-0.3,0.4c-0.1,0.2-0.1,0.3-0.1,0.4C110.9,148.1,111,148.2,111.3,148.2z
					 M110.2,158.6c-0.1,0,0,0.1,0.2,0.3C110.5,158.8,110.4,158.7,110.2,158.6L110.2,158.6z M111,149.2l0.3,0.6l0-0.5
					C111.2,148.7,111.1,148.6,111,149.2z M110.9,150.1c0,0.3,0,0.4,0.2,0.2C111.2,149.9,111.1,149.8,110.9,150.1z M111.7,142.6
					L111.7,142.6c0.5-0.5,0.6-0.7,0.4-0.9l-0.3,0.5L111.7,142.6L111.7,142.6z M112.1,137.9c-0.2,0.2-0.1,0.3,0,0.4
					c0.1,0,0.1-0.1,0.1-0.2C112.3,138,112.2,137.9,112.1,137.9z M112.1,140.3c0.2-0.2,0.2-0.4,0-0.5
					C111.9,140,111.9,140.2,112.1,140.3z M111.1,152.8L111.1,152.8c-0.2,0.2-0.1,0.4,0.1,0.7C111.3,153.3,111.2,153.1,111.1,152.8z
					 M111.9,145.7c-0.1-0.3-0.2-0.3-0.3,0C111.6,146.1,111.7,146.1,111.9,145.7z M112.1,143.2c0.2-0.5,0.4-0.7,0.3-0.5
					c-0.1-0.1-0.2-0.1-0.2-0.2C112,142.5,112,142.8,112.1,143.2z M111.6,154.8c0.2-0.1,0.2-0.3,0.2-0.5c-0.1,0-0.2,0.1-0.2,0.2
					C111.5,154.6,111.5,154.7,111.6,154.8z M112.9,138.5c0,0.4,0,0.7,0,0.7c0.2,0.1,0.3,0.1,0.3-0.1
					C113.1,138.8,113,138.6,112.9,138.5z M112.5,143.7c0,0.3,0.1,0.3,0.2,0C112.6,143.5,112.5,143.5,112.5,143.7z M111.8,155.3
					L111.8,155.3c0.3,0,0.3-0.2,0.2-0.4C111.7,154.9,111.6,155.1,111.8,155.3z M113.1,137.6c-0.2,0.1-0.1,0.2,0.1,0.3l0.2,0
					C113.3,137.6,113.1,137.6,113.1,137.6z M112.9,141.4c0.3,0.4,0.5,0.3,0.6-0.3l0-0.7l0,0.1L112.9,141.4z M112.9,140.6
					L112.9,140.6c0,0.1,0.1,0.2,0.1,0.2C113.1,140.6,113,140.5,112.9,140.6z M112.4,152.4L112.4,152.4c0.3-0.1,0.3-0.2,0.1-0.4
					C112.3,152.1,112.3,152.3,112.4,152.4z M113.8,137.5c-0.1,0-0.1,0.1-0.1,0.2C113.7,137.7,113.8,137.6,113.8,137.5z M113.7,137.8
					l0,0.5l0.2,0C113.9,138,113.8,137.9,113.7,137.8z M112.9,149.9l0.1-0.2c0.2-0.7,0.2-1,0-0.9c-0.1,0.1-0.1,0.1-0.1,0.2
					c0,0.1-0.1,0.2-0.1,0.3s0,0.2,0.1,0.3C112.9,149.8,112.9,149.9,112.9,149.9z M113,152.8c0.3-0.1,0.4-0.3,0.2-0.6
					C112.8,152.3,112.8,152.5,113,152.8z M113.7,145.3c-0.2,0.1-0.2,0.3,0,0.6C113.8,145.7,113.8,145.5,113.7,145.3z M113.9,146.5
					L113.9,146.5l0-0.2l-0.4-0.3c-0.1,0.1-0.1,0.1-0.1,0.2c0,0.1,0,0.1,0.1,0.2c0,0.1,0.1,0,0.2,0
					C113.9,146.3,114,146.4,113.9,146.5z M113.8,147.8L113.8,147.8c0.2-0.2,0.2-0.4-0.1-0.7C113.4,147.4,113.5,147.6,113.8,147.8z"
					/>
				<g>
					<path class="st2" d="M124.3,162.4c0.7,0.2,1.3,0.6,1.7,1.1c0.5,0.5,0.7,1.2,0.7,1.8c-0.2,2.7-1.7,4.3-4.5,5
						c-2.4,0.5-4.4,0.1-5.9-1.1c-1.4-1.2-1.5-2.6-0.2-4.5c0.8-1.4,2-2.3,3.6-2.7C121.3,161.6,122.8,161.7,124.3,162.4z M116.4,167.7
						L116.4,167.7c0.2-0.1,0.2-0.2-0.1-0.3C116.1,167.5,116.1,167.6,116.4,167.7z M117.2,165L117.2,165c-0.2,0.1-0.1,0.2,0.2,0.3
						c0-0.1,0-0.1-0.1-0.2C117.3,165.1,117.3,165,117.2,165z M117.8,165.4l-0.6,0c0.1,0,0.1,0,0.2,0.1c0.1,0,0.2,0.1,0.3,0.1
						c0.1,0,0.2,0,0.2,0L117.8,165.4z M117.8,169L117.8,169c0.3,0.1,0.3-0.1-0.3-0.4C117.6,168.8,117.7,169,117.8,169z M117.8,164.9
						l-0.1,0.1c-0.1,0-0.2,0.1-0.1,0.1c0.1,0,0.2,0.1,0.3,0.1C118,165.1,118,165.1,117.8,164.9z M118,166.6L118,166.6l0.3,0.1
						C118.2,166.6,118.1,166.6,118,166.6z M118.3,165.8c-0.1-0.1-0.1-0.1-0.2-0.1L118.3,165.8L118.3,165.8z M119,169.6L119,169.6
						c-0.6,0-0.8,0-0.8,0c0,0.1,0.1,0.1,0.3,0.1C118.7,169.7,118.9,169.7,119,169.6z M118.6,167.2L118.6,167.2l-0.2,0l0.3,0.1
						C118.8,167.2,118.7,167.2,118.6,167.2z M118.4,167.5c0.1,0,0.2,0,0.3,0c0.2,0,0.4,0,0.8-0.1
						C119.4,167.3,119.1,167.4,118.4,167.5z M121.1,158.9c-0.4-0.2-0.7-0.6-0.7-1.1c-0.6-4-0.3-8,0.9-12c0-0.2,0.7-3.3,2.1-9.4
						c0.2-1,0.6-2.6,1-5c0.5-2.4,0.9-4.3,1.1-5.6c0.1-0.3,0.2-0.9,0.4-1.8c0.1-0.9,0.3-1.7,0.4-2.3c0.1-0.6,0.3-1.3,0.6-2
						c0.3-0.7,0.7-1.3,1.2-1.7c0.5-0.4,1.2-0.6,2-0.7c1.3,0.1,2.3,0.5,3.2,1.4c0.9,0.8,1.4,1.8,1.4,3c-0.2,1.3-0.5,2.5-0.8,3.7
						l-3.7,16c-0.2,0.9-0.5,2.1-0.8,3.7c-0.3,1.5-0.5,2.6-0.6,3.2c-0.3,1.3-0.6,2.8-1.1,4.5c-0.1,0.4-0.2,1-0.3,2
						c-0.1,0.9-0.2,1.8-0.3,2.6c-0.1,0.8-0.4,1.3-0.6,1.7c-0.5,0.6-1.3,0.9-2.4,0.9c-1.1,0-1.8-0.4-2.1-1.2c-0.1-1.1,0-2.2,0.4-3.2
						c1-5.9,1.6-9.4,1.7-10.7c-1,2.3-1.6,4.8-1.9,7.3c-0.3,1.5-0.6,2.8-0.8,3.8C121.5,156.8,121.4,157.9,121.1,158.9z M119,167.9
						c0.1-0.1,0.1-0.2,0.1-0.2c0,0-0.1,0-0.3,0.1l0.2,0.1L119,167.9z M119.1,165.8L119.1,165.8l-0.2,0c0.1,0.1,0.2,0.2,0.3,0.2
						C119.2,166,119.2,165.9,119.1,165.8z M119.1,165.7l-0.2-0.1C119,165.7,119,165.7,119.1,165.7L119.1,165.7z M119.2,166.8
						l0.3,0.1L119.2,166.8L119.2,166.8z M119.6,167.8c-0.3,0.1-0.5,0.2-0.4,0.5C119.4,168.3,119.6,168.1,119.6,167.8z M119.2,167.3
						C119.2,167.3,119.3,167.3,119.2,167.3c0.1-0.1,0.1-0.1,0.2-0.1C119.3,167.2,119.2,167.2,119.2,167.3z M119.4,166.4
						C119.5,166.5,119.5,166.5,119.4,166.4L119.4,166.4z M119.9,167.3L119.9,167.3c-0.1,0-0.2,0-0.2,0.1L119.9,167.3z M119.9,164.5
						c0,0.1,0.1,0.1,0.2,0.1C120,164.6,119.9,164.5,119.9,164.5z M120,167.4L120,167.4C120,167.4,120,167.4,120,167.4l0.1,0.3
						C120.1,167.6,120,167.5,120,167.4z M120.1,164.9L120.1,164.9l-0.1-0.2L120.1,164.9z M120.1,167.6c0,0.1,0,0.1,0.1,0.2
						L120.1,167.6L120.1,167.6z M120.4,164.9L120.4,164.9C120.4,164.9,120.3,164.9,120.4,164.9L120.4,164.9z M120.4,164L120.4,164
						C120.4,164.1,120.4,164.1,120.4,164C120.5,164.1,120.5,164,120.4,164z M120.4,168c0.2,0.1,0.3,0.3,0.4,0.4L120.4,168L120.4,168
						z M120.5,167.6C120.5,167.7,120.5,167.7,120.5,167.6L120.5,167.6z M120.6,164.8L120.6,164.8L120.6,164.8z M120.7,167.5
						L120.7,167.5C120.7,167.6,120.7,167.6,120.7,167.5L120.7,167.5z M120.8,165.1C120.8,165.1,120.8,165.1,120.8,165.1L120.8,165.1
						c-0.1-0.1-0.1-0.1-0.2,0C120.7,165,120.7,165,120.8,165.1z M120.7,167.9L120.7,167.9L120.7,167.9L120.7,167.9z M121,168.6
						L121,168.6L121,168.6z M121.5,169.1L121.5,169.1c-0.3-0.2-0.4-0.3-0.4-0.4C121.1,168.8,121.3,168.9,121.5,169.1z M121.7,167.8
						L121.7,167.8c-0.2-0.1-0.3-0.2-0.3-0.1C121.5,167.9,121.7,167.9,121.7,167.8z M121.4,168.7L121.4,168.7L121.4,168.7z
						 M121.5,167.8C121.4,167.9,121.5,167.9,121.5,167.8L121.5,167.8z M122.3,168.7L122.3,168.7c-0.1,0,0,0.1,0.1,0.3
						C122.5,168.8,122.4,168.7,122.3,168.7z M124.4,140.5l0.2,0.2C124.8,140.6,124.7,140.5,124.4,140.5z M123.5,167.2L123.5,167.2
						c0.7-0.5,1.2-1.3,1.3-2.1c-0.3-1.1-1.1-1.7-2.3-1.8c0.1,0.2,0.4,0.5,0.9,0.9c0.4,0.4,0.6,0.7,0.7,0.9c0.1,0.3,0,0.7-0.2,1.2
						C123.7,166.8,123.5,167.1,123.5,167.2z M125.3,136.5L125.3,136.5c0,0-0.1,0-0.4-0.1l0,0.1l0.1,0c0.1,0.1,0.2,0.1,0.2,0.2
						C125.3,136.7,125.3,136.6,125.3,136.5z M125.4,139.2c0.1-0.1,0.2-0.2,0.2-0.3c0-0.2-0.1-0.2-0.5,0c-0.2,0.1-0.3,0.2-0.2,0.3
						C125.1,139.4,125.2,139.4,125.4,139.2z M125.1,135.7c-0.3,0.1-0.2,0.3,0.1,0.4C125.3,135.9,125.3,135.7,125.1,135.7z
						 M125.1,140.3c0.3-0.1,0.3-0.2,0.2-0.3c-0.1-0.1-0.2-0.1-0.3,0C125,140.2,125,140.3,125.1,140.3z M125.3,133.2
						c-0.2,0-0.3,0.1,0,0.3C125.5,133.5,125.6,133.4,125.3,133.2z M125.5,134.8c-0.2,0.2-0.1,0.4,0.2,0.4c0.1,0,0.2-0.1,0.1-0.2
						C125.8,134.8,125.7,134.8,125.5,134.8z M126.2,147.5c0.2-0.1,0.2-0.2,0.1-0.3c-0.1,0-0.2,0.1-0.3,0.2s-0.2,0.1-0.4,0.2
						C125.7,147.6,125.8,147.6,126.2,147.5z M125.6,149.2c0,0.1,0.1,0,0.3-0.2C125.8,149,125.7,149,125.6,149.2z M125.8,141.8
						c0.1,0,0.1-0.1,0-0.2C125.6,141.7,125.6,141.7,125.8,141.8z M125.9,146.3c-0.3,0.1-0.3,0.2-0.1,0.3
						C125.9,146.5,125.9,146.4,125.9,146.3c0,0.1,0.1,0.1,0.2,0.1c0.1,0,0.1,0,0.2,0c0,0.1,0,0.1-0.1,0.1c-0.1,0-0.1,0.1-0.1,0.1
						c0.1,0.1,0.2,0.1,0.4,0c0.3-0.2,0.3-0.5-0.2-0.8c-0.2-0.1-0.3-0.1-0.4,0C125.9,146,125.9,146.1,125.9,146.3z M125.8,144.2
						c0,0.2,0.1,0.3,0.3,0.1C126,144.1,125.9,144.1,125.8,144.2z M125.8,141.7l0.1-0.1c0.2,0,0.4-0.1,0.3-0.4
						C125.9,141.2,125.8,141.4,125.8,141.7z M125.9,141.6l-0.1,0.1C125.8,141.6,125.8,141.6,125.9,141.6z M126.6,151.7
						c0-0.1,0-0.1,0.1-0.1c0.2-0.1,0.2-0.2,0.1-0.2c-0.3,0.1-0.5,0.2-0.7,0.3C126.3,151.9,126.5,151.9,126.6,151.7z M126.7,138.3
						c-0.2-0.1-0.3-0.1-0.4,0.1c-0.1,0.1-0.1,0.2,0.1,0.2C126.5,138.6,126.6,138.5,126.7,138.3z M126.6,147.9
						c-0.2-0.1-0.3-0.1-0.4,0C126.4,148,126.5,148,126.6,147.9z M126.3,129.6c0.3,0,0.6-0.1,0.8-0.2l-0.1-0.1c0-0.4-0.1-0.5-0.3-0.3
						l-0.4,0.5L126.3,129.6z M126.6,129c0.1-0.3,0-0.4-0.2-0.4C126.2,128.8,126.3,128.9,126.6,129z M126.4,148.2L126.4,148.2
						C126.3,148.3,126.3,148.3,126.4,148.2l0.4,0C126.7,148.2,126.5,148.2,126.4,148.2z M126.6,150.7L126.6,150.7
						c-0.1-0.1-0.1-0.1-0.1-0.2c0-0.1,0-0.1-0.1-0.1C126.4,150.5,126.5,150.6,126.6,150.7z M127.3,148.7L127.3,148.7l-0.7-0.3
						l-0.2,0.1l0.6,0.3l-0.3-0.1c-0.1-0.1-0.1-0.1,0.1-0.1L127.3,148.7z M127,147.6L127,147.6c0.2,0,0.1-0.1-0.1-0.3
						c-0.1,0-0.1,0-0.2,0c-0.1-0.1-0.2-0.1-0.2,0C126.7,147.4,126.8,147.6,127,147.6z M126.7,138.7L126.7,138.7L126.7,138.7
						l-0.1,0.1C126.6,138.8,126.7,138.8,126.7,138.7z M126.7,152.5l0.2,0L126.7,152.5z M126.9,144.7c-0.1,0-0.2,0.1-0.2,0.1
						c0.2,0.1,0.3,0.1,0.3,0.1C127.1,144.9,127,144.8,126.9,144.7z M127,127.9l-0.1,0.1c-0.2,0.2-0.2,0.3-0.1,0.4
						c0.2,0.1,0.4,0.1,0.5,0L127,127.9z M126.8,132.9L126.8,132.9c0,0,0.1,0.1,0.2,0.3c0.1,0,0.1-0.1,0-0.2
						C127,133,126.9,132.9,126.8,132.9z M127.3,135.7c-0.5-0.1-0.6,0.1-0.1,0.6l0.4-0.4C127.6,135.8,127.4,135.7,127.3,135.7z
						 M127.5,135.2c-0.1-0.3-0.2-0.4-0.4-0.2c-0.1,0.2,0,0.3,0.2,0.4C127.4,135.3,127.5,135.3,127.5,135.2z M127.4,128.9
						L127.4,128.9c-0.2-0.1-0.2,0.1,0.1,0.3C127.7,129.1,127.7,129,127.4,128.9z M128.2,134.4c0.3-0.2,0.3-0.5-0.1-0.7
						c-0.3,0.1-0.5,0.1-0.7,0.2C127.6,134.1,127.9,134.3,128.2,134.4z M128.5,139c-0.2-0.2-0.5-0.4-0.8-0.4
						c-0.1,0.1-0.1,0.3,0.2,0.4L128.5,139z M128.5,130.9l-0.3-0.4c-0.3-0.1-0.3,0-0.1,0.3C128.2,131,128.4,131,128.5,130.9z
						 M128.3,124.8c-0.2-0.1-0.2,0,0,0.2c0,0.1,0.1,0.2,0.2,0.2C128.5,125.1,128.5,124.9,128.3,124.8z M128.3,128.8
						c0.2,0.4,0.3,0.4,0.3,0.2C128.6,128.7,128.5,128.6,128.3,128.8z M128.5,131.4c-0.2,0.1-0.1,0.2,0.3,0.4
						C128.9,131.6,128.8,131.5,128.5,131.4z M129.3,134.9c0.1-0.1,0-0.2-0.1-0.2c-0.2,0-0.3,0-0.4,0c-0.2,0.2-0.1,0.4,0.4,0.5
						c0.2,0,0.3,0,0.4,0c0-0.1,0-0.2,0-0.2C129.4,134.9,129.4,134.9,129.3,134.9z M128.8,138.4c0.3-0.1,0.3-0.2,0.2-0.3
						c-0.1,0-0.2,0-0.3,0.1L128.8,138.4z M129.2,130.8c0.2,0,0.2-0.1,0.1-0.2c-0.2-0.2-0.3-0.2-0.3-0.1
						C128.9,130.6,129,130.7,129.2,130.8z M130,125.3l-0.5-0.5c-0.1,0.1-0.2,0.2-0.3,0.4L130,125.3z M129.8,122.7L129.8,122.7l0-0.3
						L129.8,122.7z M129.8,128.3L129.8,128.3L129.8,128.3z M130.3,122.1c-0.1,0-0.2,0.1-0.1,0.3c0.1,0,0.1,0,0.2,0l0.1,0
						L130.3,122.1z"/>
				</g>
				<g>
					<path class="st2" d="M67.2,158.4c-0.1,1.8,0.1,4.3,0.5,7.3c0.4,3,1,5.4,1.9,7c0,0.5-0.5,1.2-1.6,2c-1,0.8-1.8,1.1-2.3,1.1
						c-0.7-0.1-1.2-0.7-1.7-1.7c-0.5-1-0.9-2.3-1.3-3.8c-0.4-1.5-0.7-2.4-0.8-2.8c-0.1,0.2-0.2,0.5-0.2,0.9c0,0.4,0.1,0.7,0.1,1.2
						c0.1,0.4,0.1,0.8,0.2,1.1c0.1,0.3,0.2,0.7,0.3,1.1c0.1,0.5,0.2,0.8,0.2,0.9c0,0.1,0.2,0.5,0.5,1.1c0.3,0.6,0.7,1.5,1.2,2.7
						c-1.9,1-3.7-1.7-5.2-8.3c-1,2.6-2.4,4.5-4.3,5.8c-1.9,1.3-4,2-6.2,2c-2.2,0-4.5-0.4-6.7-1.3c-2.3-0.9-4.3-2.1-6.2-3.7
						c-1.9-1.7-3.6-3.8-5-6.2c-1.4-2.4-2.5-5-3.2-7.7c-0.7-2.7-1.2-5.4-1.5-8.2c-0.3-2.8-0.3-5.5-0.1-8.1c0.2-3,0.9-5.9,1.9-8.7
						c1-2.7,2.6-5.2,4.6-7.4c2.1-2.2,4.4-3.7,7.2-4.5c2.5-0.7,5-1,7.6-0.7c0.6,0,1.3,0.1,2.1,0.3c0.8,0.2,1.6,0.4,2.4,0.6
						c0.8,0.2,1.5,0.3,2,0.3c0.3,0,0.5,0,0.7,0c0,0,0.1,0,0.1-0.1c0,0,0-0.1,0.1-0.1c0,0,0.1-0.1,0.1-0.1c0.1-0.1,0.2-0.1,0.2-0.2
						c0.1-0.1,0.2-0.1,0.2-0.3c0-0.1,0.1-0.2,0.1-0.3c0-0.1,0.1-0.2,0.2-0.3c0.2-0.1,0.4-0.2,0.6-0.2c0.8,0,1.5,0.3,2.2,0.8
						c0.6,0.3,1.2,0.7,1.9,1.1c0.7,0.5,1.3,1.1,2,1.7c0.7,0.7,1,1.3,1.2,1.8c-0.1,1.2-0.3,2.3-0.7,3.5c-0.4,1.9-0.7,3.9-0.8,5.9
						c0,0.4,0,1.1,0.2,2.3c0.1,1.2,0.2,2.2,0.2,3.1c0,0.9-0.1,1.5-0.3,1.7c-0.2,0.2-0.4,0.3-0.7,0.3c-0.3,0-0.5,0-0.7-0.1
						c-0.2-0.1-0.5-0.2-0.7-0.3c-0.3-0.1-0.5-0.2-0.7-0.2c-0.2,0-0.5,0.1-1,0.3c-0.5,0.2-0.9,0.1-1-0.1c-0.3-0.2-0.8-1-1.5-2.3
						c-1-2-1.8-4.1-2.2-6.4c-0.3-1.7-0.5-3.4-0.5-5.2c0.1-1.3-0.1-2.1-0.5-2.5c-0.4-0.3-1.3-0.5-2.7-0.5c-1.7,0.1-3.4,0.6-5,1.5
						c-1.6,0.9-2.8,2.1-3.8,3.7c-1.6,2.3-2.8,5.1-3.5,8.3c-0.7,3.2-1,6.4-0.7,9.5c0.3,3.1,0.8,6.1,1.7,9.1c1.1,3.3,2.8,6,5.1,8.2
						c2.3,2.2,4.9,2.9,7.8,2.1c2.7-0.7,4.8-2.3,6-4.9c0.6-1.3,0.8-2.7,0.7-4.2l-0.2-2.7c-0.1-1.3,0.1-2.6,0.6-3.8
						c1.5-0.9,3.1-1,4.7-0.3c1.2,0.3,2.3,0.8,3.5,1.4c0.3,0.3,0.6,0.8,0.7,1.6c0.1,0.8,0.1,1.7,0.1,2.9
						C67.1,157.5,67.1,158.2,67.2,158.4z M28.2,152.6c0.1-0.1,0.1-0.2-0.1-0.3C28,152.4,28,152.5,28.2,152.6z M27.7,147
						c-0.3,0.3-0.2,0.6,0.2,0.8c0-0.4,0-0.6,0-0.7C27.9,146.9,27.8,146.9,27.7,147z M28.3,149c0-0.1,0.1-0.1,0.1-0.3
						c0-0.1,0-0.2-0.1-0.2c-0.1,0-0.2,0-0.3,0.1c-0.1,0.1-0.2,0.1-0.2-0.1l0,0.2L28.3,149z M27.3,141.3L27.3,141.3L27.3,141.3
						c-0.3,0.2-0.3,0.4,0,0.7c0.1,0,0.2-0.1,0.3-0.3C27.7,141.5,27.6,141.3,27.3,141.3z M28.4,149.8c0.2-0.2,0.2-0.4,0-0.6
						C28.1,149.4,28.1,149.6,28.4,149.8z M28,145.7c0.4,0.1,0.4-0.4,0.1-1.3c0,0.1,0,0.3-0.1,0.5c-0.1,0.2-0.2,0.4-0.2,0.5
						C27.8,145.5,27.9,145.6,28,145.7z M29.7,157.8c0.1-0.1,0.1-0.3,0-0.5c-0.1,0-0.1,0-0.2,0C29.5,157.6,29.5,157.7,29.7,157.8z
						 M29.6,158.1c0,0,0.1-0.1,0.1-0.2C29.6,158,29.6,158,29.6,158.1z M29.4,154.9c0.1,0.2,0.3-0.1,0.6-0.8l0.1-0.3
						c-0.3-0.2-0.5-0.2-0.7,0.2C29.3,154.4,29.3,154.7,29.4,154.9z M28.2,141.5c-0.2,0.2-0.2,0.3,0.1,0.5
						C28.4,141.8,28.4,141.6,28.2,141.5z M30.5,158c0-0.1-0.1-0.2-0.4-0.2l-0.1,0l0.1,0.1C30.2,158,30.4,158.1,30.5,158z
						 M28.4,138.2L28.4,138.2c-0.2,0-0.2,0.1-0.3,0.2c0,0.1,0,0.2,0.1,0.3c0.1,0,0.2,0,0.2-0.2C28.5,138.3,28.5,138.2,28.4,138.2z
						 M30.2,154.6c0-0.1-0.1-0.1-0.2-0.1C30.1,154.5,30.1,154.6,30.2,154.6z M30.6,157c0-0.5,0-0.8-0.1-0.8
						c-0.2-0.1-0.3-0.1-0.3,0.1C30.2,156.7,30.4,156.9,30.6,157z M28.7,138.7c-0.1,0.2-0.2,0.3-0.1,0.5c0.1-0.1,0.2-0.1,0.2-0.2
						C28.8,138.9,28.7,138.8,28.7,138.7z M30.3,151.3c-0.1-0.3-0.2-0.3-0.3,0C30.1,151.5,30.2,151.5,30.3,151.3z M30.2,150.6
						c0.1-0.1,0.1-0.2,0-0.3C30.1,150.4,30.1,150.5,30.2,150.6z M30.9,151.7l-0.3,0.8c0,0.1,0.1,0.1,0.2,0.1
						c0.2-0.1,0.3-0.4,0.1-0.7C30.9,151.8,30.9,151.8,30.9,151.7z M30.6,145.9L30.6,145.9c-0.3,0.1-0.4,0.2-0.5,0.2
						c-0.1,0.1-0.1,0.2,0,0.3c0.1,0.1,0.1,0.3,0.2,0.4c0.1,0.1,0.2,0.3,0.4,0.4c0-0.1,0.1-0.1,0.2-0.3c0.1-0.1,0.2-0.3,0.3-0.5
						c0.1-0.2,0.1-0.4,0-0.5C31,145.9,30.8,145.9,30.6,145.9z M29.7,140.8c0.2-0.2,0.1-0.5-0.2-0.7
						C29.4,140.4,29.5,140.6,29.7,140.8z M30.8,148.8c-0.2-0.3-0.3-0.3-0.4,0C30.6,149.2,30.7,149.1,30.8,148.8z M31,153.4l0.3-0.5
						l0.1-0.2l0.2-0.3l-0.1-0.1l-0.1,0.2C31,153,30.9,153.3,31,153.4z M31.6,157.7c0.2-0.2,0.1-0.4-0.1-0.5
						C31.3,157.4,31.4,157.5,31.6,157.7z M31.5,155.4c0-0.1-0.1-0.3-0.2-0.5C31.1,155.2,31.1,155.3,31.5,155.4z M30.7,144.9
						l-0.5-0.6c0-0.1,0-0.1-0.1-0.1c-0.1,0.2,0,0.5,0.3,0.9c0.1,0.2,0.2,0.2,0.2,0.1C30.6,145.1,30.7,145,30.7,144.9z M29.2,134
						L29.2,134c-0.2,0.1-0.1,0.2,0.2,0.2l0.1-0.1C29.3,134,29.2,133.9,29.2,134z M30.5,143.9L30.5,143.9c-0.1-0.4-0.2-0.4-0.3-0.2
						C30.2,144.1,30.3,144.2,30.5,143.9z M31.3,143c0.6-0.6,0.6-1-0.3-1.2c-0.5-0.1-0.8,0-0.9,0.1c0.2,0.5,0.4,0.9,0.6,1.1
						C30.9,143.2,31.1,143.2,31.3,143z M30,138L30,138c0.3-0.2,0.3-0.3,0.2-0.6C29.8,137.5,29.7,137.7,30,138z M29.9,132.5
						L29.9,132.5l-0.4,0.3l0.1,0.1c0.2,0,0.4,0,0.6-0.3c0.2-0.2,0.4-0.5,0.6-0.8c0.2-0.3,0.2-0.5,0.2-0.7
						C30.3,131.1,29.9,131.6,29.9,132.5z M30.4,140.3c-0.2,0-0.2,0-0.2,0.1c0.1,0.2,0.2,0.3,0.3,0.3
						C30.7,140.5,30.7,140.4,30.4,140.3z M32.7,159c0.2-0.1,0.3-0.2,0.2-0.5c-0.1-0.3-0.2-0.4-0.3-0.5c-0.3,0.2-0.3,0.6,0,1.1
						L32.7,159z M32.6,159.5c0-0.1,0-0.2,0-0.4C32.4,159.3,32.5,159.4,32.6,159.5z M30.4,138.4c0.1-0.1,0.2-0.2,0-0.3
						C30.2,138.1,30.2,138.3,30.4,138.4z M32.6,159c0,0,0.1,0,0.2,0L32.6,159L32.6,159C32.5,159.1,32.5,159,32.6,159z M32,151.2
						c0.2-0.2,0.1-0.3-0.1-0.4C31.7,151,31.8,151.1,32,151.2z M31.8,150c0.2,0.4,0.4,0.3,0.4,0c0-0.2-0.1-0.3-0.3-0.2
						C31.8,149.8,31.8,149.9,31.8,150z M30.4,133.1c-0.3,0.1-0.4,0.3-0.2,0.6c0.1,0.2,0.2,0.2,0.3,0.1
						C30.5,133.5,30.5,133.3,30.4,133.1z M30,130.7L30,130.7c-0.1,0.3,0,0.5,0.2,0.5c0.1-0.1,0.2-0.2,0.3-0.3c0-0.2,0-0.3-0.1-0.5
						C30.2,130.2,30,130.3,30,130.7z M30.7,136.7c0,0.3,0.1,0.4,0.3,0.1C31,136.5,30.9,136.4,30.7,136.7z M30.7,135.3
						c0.3-0.1,0.3-0.4,0.1-0.7c-0.1,0.1-0.2,0.2-0.2,0.4C30.5,135.2,30.6,135.3,30.7,135.3z M33.2,152.7l0.4-0.4
						c-0.1,0-0.3-0.1-0.6-0.2c-0.4-0.1-0.6-0.1-0.6,0c0,0.2,0.1,0.3,0.3,0.5C32.9,152.7,33.1,152.7,33.2,152.7z M31.6,140.6
						c-0.2-0.1-0.3-0.1-0.3,0.3l0.1,0.3C31.5,141,31.6,140.8,31.6,140.6z M33.2,154.4c0.1-0.2,0.1-0.3-0.1-0.3
						C33,154.2,33,154.3,33.2,154.4z M33.6,158.8c0.1-0.2,0.1-0.3-0.1-0.3C33.4,158.6,33.5,158.7,33.6,158.8z M31.6,134.7
						c-0.2,0-0.3,0-0.4,0.2c-0.1,0.2-0.1,0.3,0,0.5c0.1,0.2,0.2,0.3,0.3,0.3c0.3,0,0.4-0.2,0.4-0.4C32,135,31.8,134.8,31.6,134.7z
						 M33.1,150.4c-0.1,0-0.1,0.1-0.1,0.2c0,0.3,0.1,0.4,0.4,0.4C33.3,150.8,33.2,150.5,33.1,150.4z M31.6,136.9
						c0,0.1,0,0.1,0.1,0.2c0.1,0.1,0.1,0.1,0.2,0.1c0.1,0,0.2,0,0.2-0.1c0.1-0.2,0-0.4-0.3-0.5C31.7,136.7,31.6,136.8,31.6,136.9z
						 M32.7,144.1c0.4,0.1,0.6,0.1,0.6,0.1c0-0.1-0.1-0.2-0.2-0.4c-0.1-0.2-0.2-0.4-0.4-0.5c-0.1-0.1-0.2-0.2-0.3-0.1
						c-0.2,0.3-0.3,0.6-0.1,0.9C32.5,144.1,32.6,144.1,32.7,144.1z M31.3,133.5L31.3,133.5c0,0.1,0,0.2,0.2,0.1c0.1,0,0.2,0,0.2-0.1
						C31.6,133.4,31.5,133.4,31.3,133.5z M33.1,148.3L33.1,148.3c0.2-0.2,0.2-0.3,0-0.4C32.8,148,32.8,148.2,33.1,148.3z
						 M32.8,147.3c0.1,0.3,0.2,0.3,0.2,0.1C33,147.1,32.9,147.1,32.8,147.3z M31.5,132c-0.2,0.1-0.3,0.2-0.2,0.3
						C31.5,132.3,31.6,132.1,31.5,132z M31.2,131.1c-0.1,0.1-0.1,0.1-0.1,0.2c0.1,0.1,0.1,0.2,0.3,0.2c0.2,0,0.3,0,0.3-0.3
						c0-0.2-0.1-0.3-0.3-0.4C31.4,130.9,31.3,131,31.2,131.1z M31.3,129.3c-0.1,0.1-0.1,0.3-0.1,0.5c0.4,0.3,0.6,0.1,0.7-0.7l0-0.4
						C31.7,128.9,31.5,129.1,31.3,129.3z M33.5,150.6L33.5,150.6c0.1,0.4,0.3,0.3,0.4-0.2c0-0.2,0-0.3-0.1-0.3
						C33.6,150.2,33.5,150.4,33.5,150.6z M53.8,172.5L53.8,172.5L53.8,172.5c0.3-0.2,0.9-0.7,1.7-1.6c0.8-0.9,1.2-1.3,1.4-1.3
						c-0.6,0.2-1.5,0.6-2.7,1.3c-1.2,0.7-2.1,1.2-2.8,1.3c-2,0.7-4,0.7-6,0.2c-4-1.1-7.4-3.2-10.1-6.5c1.8,3.2,4.4,5.4,7.8,6.5
						C46.6,173.9,50.2,173.9,53.8,172.5L53.8,172.5z M34.6,154.9c0-0.1,0-0.2,0-0.2c-0.1-0.1-0.2-0.1-0.3,0.1
						c-0.1,0.3-0.1,0.4,0.1,0.5L34.6,154.9z M34.8,158.7c-0.1,0.2-0.1,0.3,0.1,0.4C35.1,159,35.1,158.8,34.8,158.7z M33,139.3
						c0-0.2-0.1-0.3-0.3-0.4l0.1,0.4L33,139.3z M34.3,151.1L34.3,151.1c0.1-0.1,0.1-0.2,0-0.3C34.1,150.8,34.1,151,34.3,151.1z
						 M35.7,163.7c-0.2,0.3,0,0.5,0.4,0.5C36.2,163.9,36.1,163.7,35.7,163.7z M33,134.4L33,134.4c-0.2-0.2-0.3-0.1-0.4,0.3
						c0,0.2,0.1,0.3,0.2,0.3c0.3,0.1,0.4,0.1,0.5,0C33.2,134.7,33.1,134.5,33,134.4z M35.6,160.1L35.6,160.1
						c-0.3-0.2-0.3-0.2-0.3,0.2C35.5,160.4,35.6,160.3,35.6,160.1z M32.7,132.1c-0.2,0-0.2,0.1-0.1,0.3
						C32.8,132.4,32.8,132.3,32.7,132.1z M35.5,156.7c-0.2-0.2-0.2-0.2-0.2,0.1C35.5,157,35.6,156.9,35.5,156.7z M32.8,130.9l0,0.6
						L33,131l0-0.2C32.9,130.8,32.9,130.8,32.8,130.9z M33.5,137.6c0.1-0.3,0.1-0.4-0.2-0.3C33.4,137.5,33.4,137.6,33.5,137.6z
						 M33.3,130.2c-0.2,0-0.3,0-0.1,0.3C33.4,130.5,33.4,130.4,33.3,130.2z M37,164.5L37,164.5c-0.3-0.2-0.4-0.2-0.2,0.1
						C36.9,164.7,37,164.7,37,164.5z M33.4,127.9c0.1-0.3,0-0.3-0.3,0c0,0.2,0.1,0.3,0.2,0.1C33.3,128,33.3,127.9,33.4,127.9z
						 M34.3,135.8L34.3,135.8c0-0.3-0.1-0.3-0.2-0.1C34.1,135.9,34.2,136,34.3,135.8z M34.3,136.2c0.2,0.3,0.3,0.3,0.5,0
						C34.7,135.9,34.5,135.9,34.3,136.2z M37.7,167.6c-0.1,0.2,0,0.3,0.3,0.3C38,167.8,37.9,167.7,37.7,167.6z M37.3,164.2
						c0.2-0.1,0.4-0.2,0.3-0.4c0-0.2-0.1-0.2-0.3-0.2C37.3,163.6,37.2,163.7,37.3,164.2L37.3,164.2z M37.3,164.2L37.3,164.2
						L37.3,164.2z M37.7,161.3c-0.2-0.2-0.3-0.2-0.3,0.1C37.5,161.6,37.6,161.6,37.7,161.3z M34.4,127.8c-0.2,0.2-0.2,0.3,0,0.2
						C34.6,127.9,34.6,127.8,34.4,127.8z M34.4,129.8l0.8-0.1C34.9,129.7,34.7,129.7,34.4,129.8z M39.3,165.9
						c-0.7-0.6-1-0.5-0.8,0.2c0.1,0.8,0.3,1.3,0.8,1.4c0.1,0,0.1,0,0.2,0c0-0.1,0-0.1,0-0.2c-0.1,0-0.2-0.2-0.3-0.4
						c0.2-0.1,0.3-0.2,0.4-0.2c0.1,0,0.1,0.1,0.1,0.2c0,0.1,0.1,0.2,0.2,0.3c0.2,0,0.3-0.1,0.4-0.3
						C39.8,166.7,39.5,166.3,39.3,165.9z M35,126.3c-0.3,0-0.5,0.1-0.7,0.3c-0.1,0,0,0,0.1,0.1C34.8,126.7,35,126.5,35,126.3z
						 M34.9,130.3l0.4,0c0-0.1,0.1-0.1,0.1-0.2C35.3,130,35.2,130,34.9,130.3z M35.2,130.6c0.1,0.2,0.2,0.3,0.3,0.1
						c0-0.3-0.1-0.4-0.3-0.3C35.3,130.5,35.2,130.6,35.2,130.6z M35.5,127.9c-0.1-0.2-0.2-0.2-0.3-0.2c-0.1,0-0.2,0.1-0.2,0.3
						C35.1,128.2,35.2,128.2,35.5,127.9z M35.8,128.8L35.8,128.8c-0.1-0.1-0.1-0.3-0.1-0.6c-0.1,0-0.1,0.1-0.2,0.4
						c-0.1,0.3-0.1,0.5-0.1,0.5C35.6,129,35.7,128.9,35.8,128.8z M35.9,125.8L35.9,125.8c-0.1-0.1-0.2,0-0.4,0.2
						C35.9,126,36,125.9,35.9,125.8z M36.3,128.6c-0.1-0.1-0.2,0-0.4,0.2L36.3,128.6L36.3,128.6z M36.4,131.9
						c0.1,0.2,0.2,0.1,0.3-0.2C36.6,131.5,36.5,131.5,36.4,131.9z M36.1,125.4c-0.1,0.2,0,0.2,0.2,0.1c0.1-0.1,0.1-0.1,0.1-0.1
						C36.3,125.3,36.2,125.4,36.1,125.4z M40.6,166c0-0.2-0.1-0.2-0.3-0.2C40.3,166,40.4,166.1,40.6,166z M41.3,168.1
						c0-0.1,0-0.1-0.1-0.2c-0.1-0.1-0.1-0.2-0.2-0.2c-0.1,0-0.2-0.1-0.3-0.1c0.1,0.2,0.2,0.4,0.3,0.7c0.1,0.2,0.1,0.4,0.1,0.5
						c0.1,0,0.1,0,0.2-0.1c0.1-0.1,0.1-0.2,0.2-0.3C41.5,168.3,41.4,168.2,41.3,168.1z M41.3,167.3c-0.3,0-0.2,0.1,0.1,0.2
						c0.4,0.1,0.7,0,0.8-0.1C42.2,167.1,41.9,167.1,41.3,167.3L41.3,167.3z M41.7,168.1c0.2,0.1,0.3,0,0.1-0.2c-0.1,0-0.2-0.1-0.2,0
						C41.6,167.9,41.6,168,41.7,168.1z M37.4,126.1c-0.1,0.1-0.1,0.2,0.1,0.2c0.2-0.1,0.3-0.2,0.3-0.3L37.4,126.1z M38,126.9
						c0.1-0.2,0.1-0.3-0.1-0.2C37.6,126.9,37.7,127,38,126.9z M42.6,168.2c0-0.2-0.1-0.1-0.4,0.2l0,0.2c0.1,0,0.2-0.1,0.3-0.1
						C42.6,168.4,42.7,168.3,42.6,168.2z M42.9,168.6L42.9,168.6l0.1,0.2c0.2,0.2,0.3,0.2,0.2,0l0-0.4l-0.1,0.1
						C43,168.5,42.9,168.6,42.9,168.6z M39.1,123.4c-0.1,0-0.2,0-0.3,0c-0.1,0.1-0.3,0.2-0.5,0.5l0.6-0.1
						C39.2,123.8,39.2,123.6,39.1,123.4z M43.6,168.6L43.6,168.6c-0.2,0.2-0.1,0.3,0.3,0.2c0.6,0,0.8-0.1,0.7-0.3
						c-0.1-0.1-0.3-0.1-0.4,0.1c0-0.2,0.1-0.4,0.1-0.5c0-0.1,0.1-0.1,0.1-0.1c-0.1-0.2-0.3,0-0.6,0.4
						C43.7,168.5,43.6,168.6,43.6,168.6z M40,124.5c-0.7-0.2-1,0.2-0.9,1l0,0.3c0.2,0,0.3,0,0.5-0.2c0.2-0.2,0.3-0.4,0.4-0.6
						C40.1,124.7,40.1,124.6,40,124.5z M39.6,126.6c0-0.1,0-0.2,0-0.2c0,0-0.1,0-0.3,0c-0.1,0.1-0.1,0.2-0.1,0.2
						C39.4,126.7,39.5,126.6,39.6,126.6z M44.8,170.2c0-0.1,0-0.1-0.1-0.2c-0.1-0.1-0.3-0.2-0.4-0.2l0-0.1l0.4,0.7L44.8,170.2z
						 M40.9,123.9c-0.3,0-0.5,0.1-0.7,0.3C40.2,124.3,40.4,124.2,40.9,123.9z M45.4,170c-0.3-0.1-0.4,0-0.2,0.2
						C45.5,170.2,45.6,170.2,45.4,170z M40.4,122.9c-0.3,0.2-0.3,0.3,0.1,0.2C40.8,122.9,40.8,122.8,40.4,122.9z M46.4,168.6
						L46.4,168.6c0-0.2-0.1-0.3-0.3-0.1C46.1,168.7,46.2,168.8,46.4,168.6z M42.2,124.4c-0.2,0.2-0.2,0.3,0.2,0.2
						C42.6,124.5,42.6,124.4,42.2,124.4z M47.7,169.6c0,0.1-0.1,0.1-0.3,0.1c-0.1,0-0.2,0-0.3,0C47.4,169.8,47.6,169.8,47.7,169.6z
						 M47.9,170.1c-0.1,0.1-0.1,0.2,0,0.4c0.1,0.1,0.1,0.1,0.2,0.1c0,0,0-0.1,0-0.2C48.2,170.2,48.1,170.1,47.9,170.1z M48.5,169.8
						c-0.2,0.1-0.2,0.2,0.1,0.3C48.8,169.9,48.7,169.8,48.5,169.8z M48.7,169L48.7,169c0.2,0.2,0.5,0.3,0.8,0.6
						C49.3,169.4,49,169.2,48.7,169z M44.3,122.5c-0.4,0.1-0.4,0.2-0.1,0.3C44.5,122.6,44.5,122.6,44.3,122.5z M45.1,123.9
						c-0.4,0-0.4,0.1-0.1,0.3C45.3,124.1,45.3,124,45.1,123.9z M50,170L50,170c-0.2,0-0.3,0.1-0.3,0.3l0.5-0.3
						C50.2,170,50.2,170,50,170z M46.1,123.5l-0.8,0.1l0.7-0.1L46.1,123.5z M45.8,122.6c-0.2,0.1-0.2,0.2,0,0.2
						C46,122.8,46,122.7,45.8,122.6z M46.6,123.9c-0.2-0.1-0.4-0.1-0.5,0c0,0.1,0.1,0.1,0.2,0.1c0.2,0.1,0.3,0.1,0.2,0.1
						c-0.2,0-0.3,0.1-0.4,0.1l0.7-0.2l0-0.1L46.6,123.9z M47.2,123.2l-0.3,0.2c0,0.3,0.1,0.3,0.4,0
						C47.5,123.3,47.4,123.2,47.2,123.2z M60,165.1L60,165.1c0.1,0.1,0.2,0,0.2,0L60,165.1z M60.7,165.1L60.7,165.1
						c0.1-0.1,0-0.1-0.4,0C60.5,165.1,60.7,165.1,60.7,165.1z M60,161.3L60,161.3c0,0.1,0,0.1,0,0.2c0,0.2,0,0.2,0.2,0.1
						C60.3,161.5,60.3,161.4,60,161.3z M61,164.1L61,164.1c0.1-0.1,0.2-0.2,0.3-0.2l-0.1,0c-0.6,0.1-0.8,0.2-0.7,0.3
						C60.7,164.2,60.9,164.2,61,164.1z M59.7,157L59.7,157c0.3,0.4,0.3,0.5,0.2,0.3c0.1,0.2,0.2,0.1,0.2-0.2
						C60,157,59.9,157,59.7,157z M60,157.6c-0.2,0-0.2,0-0.2,0.1l0,0.3l0.4-0.1c0,0.1-0.1,0-0.2-0.1L60,157.6z M61.1,164.8
						L61.1,164.8c0.2-0.1,0.2-0.2,0.1-0.2c-0.1,0-0.2,0-0.2,0.1c-0.1,0.1-0.1,0.1,0,0.2C60.9,164.9,61,164.9,61.1,164.8z
						 M60.5,160.7L60.5,160.7L60.5,160.7z M60.3,157.6c0.1,0.1,0.2,0.1,0.4,0.1l0.1,0L60.3,157.6z M60.4,154.9L60.4,154.9
						L60.4,154.9c0.1,0.2,0.1,0.3,0.2,0.3C60.6,155.1,60.6,155,60.4,154.9z M60.9,160L60.9,160l0.4,0.1
						C61.3,160.2,61.2,160.1,60.9,160L60.9,160z M62.1,163.3L62.1,163.3c-0.3,0.2-0.4,0.3-0.1,0.3C62.1,163.4,62.1,163.4,62.1,163.3
						z M61.7,161.8L61.7,161.8c0.1,0.1,0.2,0.2,0.3,0.2c0.2,0,0.3,0,0.5,0c0.1-0.1,0.2-0.1,0.2-0.2c0-0.1-0.1-0.2-0.3-0.2
						c-0.2,0-0.3,0-0.5,0C61.7,161.7,61.7,161.8,61.7,161.8z M61.6,160.6c0.4,0.1,0.8,0.2,1.2,0.2c0.3-0.1,0.2-0.2-0.3-0.3
						C61.9,160.5,61.6,160.5,61.6,160.6z M61.8,161.2c-0.1,0-0.1,0-0.2,0c0,0.1,0.1,0.2,0.3,0.3c0.2,0,0.2,0,0.2-0.2L61.8,161.2z
						 M62.3,163.6L62.3,163.6l-0.4,0.1L62.3,163.6L62.3,163.6z M62.1,165.4L62.1,165.4c0.3,0.1,0.4,0,0.4-0.2l-0.2-0.1
						C62.2,165.1,62.1,165.2,62.1,165.4z M61.8,160L61.8,160c-0.1,0-0.1,0-0.1,0.1l0.4,0C62,160,62,160,61.8,160z M62.2,165l0.2,0
						C62.3,165,62.2,165,62.2,165z M61.8,157.5c-0.1-0.2-0.3-0.2-0.4-0.1C61.5,157.5,61.6,157.5,61.8,157.5z M62.3,158.7
						c0-0.1-0.1-0.2-0.4-0.2l-0.3,0C61.9,158.8,62.1,158.9,62.3,158.7z M62.4,155.2L62.4,155.2c0,0-0.1,0-0.2-0.1
						c-0.2-0.1-0.3-0.1-0.4-0.1c-0.1,0-0.2,0-0.3,0.1C61.5,155.2,61.8,155.2,62.4,155.2z M63.1,166.9L63.1,166.9
						c0.3-0.1,0.3-0.1,0-0.2C62.8,166.8,62.8,166.9,63.1,166.9z M61.7,153.7c0.1,0,0.2,0,0.2,0l-0.3-0.2l-0.1,0L61.7,153.7z
						 M61.8,155.5c0.1,0,0.1,0,0.2,0L61.8,155.5z M61.9,156.3C62,156.4,61.9,156.4,61.9,156.3L61.9,156.3z M62.5,157.6l-0.2-0.1
						C62.3,157.5,62.4,157.6,62.5,157.6z M62.5,159.2c0.1,0,0.2,0,0.3,0c0-0.1,0-0.1,0-0.1C62.8,159,62.7,159,62.5,159.2z
						 M62.3,153.5c-0.3-0.1-0.4-0.2-0.4-0.1c0,0.1,0.1,0.1,0.3,0.1L62.3,153.5z M63.5,168.1L63.5,168.1c0.1-0.1,0.2-0.1,0.5,0
						c0.2,0,0.3,0,0.5,0l-0.1-0.2l0.2-0.3c-0.1-0.3-0.3-0.3-0.6-0.1C63.6,167.7,63.5,167.9,63.5,168.1z M62.6,158.3
						c0,0.2,0.2,0.3,0.4,0.2c0.1,0,0.1,0,0.1-0.1L62.6,158.3z M63.9,168.6L63.9,168.6c0.3-0.2,0.4-0.3,0.4-0.4l-0.6,0.5L63.9,168.6z
						 M63.6,163.4c0.3,0.1,0.5,0.1,0.8-0.1c-0.7-0.3-1-0.3-1-0.2C63.4,163.2,63.4,163.3,63.6,163.4L63.6,163.4z M63.3,157.2
						L63.3,157.2c-0.2-0.1-0.3-0.1-0.3-0.1C63.1,157.1,63.2,157.2,63.3,157.2z M64.3,166.8c-0.1,0.1-0.2,0.1-0.2,0.2l0.4-0.1
						C64.5,166.8,64.5,166.8,64.3,166.8z M64.4,160.9c-0.5-0.1-0.8-0.1-0.9-0.1c0,0.1,0,0.1,0.1,0.2l0.6,0
						C64.5,161.1,64.6,161.1,64.4,160.9z M63.6,159.6L63.6,159.6L63.6,159.6L63.6,159.6z M64.6,168.7L64.6,168.7c0.3,0,0.4,0,0.5,0
						L64.6,168.7z M64.7,168.3c0.2,0,0.3,0.1,0.4,0c0.2,0.1,0.2,0,0.2-0.2C65.1,168.2,64.9,168.3,64.7,168.3z M65.3,168.7
						L65.3,168.7c-0.1,0-0.3,0.1-0.4,0.1L65.3,168.7z M65,170.4L65,170.4l0.5-0.1L65,170.4z M63.4,154.1L63.4,154.1
						C63.3,154,63.4,154.1,63.4,154.1z M64.9,168C64.9,167.9,64.8,167.9,64.9,168L64.9,168z M63.4,153.7L63.4,153.7l0.2,0.1
						C63.5,153.8,63.5,153.7,63.4,153.7z M64.6,163L64.6,163l0.3-0.1l-0.5,0l0,0.1C64.5,162.9,64.5,163,64.6,163z M65.5,169
						C65.4,169,65.4,169,65.5,169c0.3-0.2,0.5-0.3,0.5-0.2c-0.4,0-0.6,0.1-0.8,0.1c-0.2,0-0.2,0-0.2,0.1l0.7,0L65.5,169z
						 M65.6,169.9L65.6,169.9c0,0.1,0.1,0.1,0.2,0.1C65.7,170,65.7,170,65.6,169.9C65.7,169.9,65.7,169.9,65.6,169.9z M66,170.6
						L66,170.6l0.3-0.4c-0.2,0-0.4,0.1-0.6,0.4c0,0.1,0,0.1,0.1,0.1C65.9,170.6,65.9,170.6,66,170.6z M66.5,170.8L66.5,170.8
						c0,0,0,0,0.2,0c-0.1,0-0.2,0-0.3,0L66.5,170.8z M66.8,170.4L66.8,170.4c-0.1-0.1-0.1,0-0.2,0L66.8,170.4L66.8,170.4z M66.7,170
						L66.7,170l0.1-0.1L66.7,170z"/>
					<path class="st2" d="M61.5,150.1c-0.4,0-0.9-0.1-1.4-0.2c-1.6-0.3-3.3-0.4-4.9-0.4c-2.1,0-4.2,0.3-6.2,0.8
						c-1.3,0.3-2.1,0.6-2.3,0.9c-0.3,0.1-0.3,0.4-0.3,0.8c0.1,0.4,0.1,0.7,0.1,0.8c0,0.1-0.1,0.3-0.3,0.5c-0.1,0.2-0.3,0.4-0.4,0.5
						c-0.1,0.2-0.2,0.3-0.2,0.6c0,0.2,0,0.4,0.2,0.6c0.1,0.2,0.6,0.4,1.5,0.5c0.9,0.1,1.9,0.2,2.9,0.3c1.1,0.1,1.8,0.1,2.1,0.2
						c1.8,0.4,3.6,0.8,5.4,1.4c1,0.5,2,0.8,3.1,1c0.5,0,1.1-0.2,1.8-0.6c0.1,0,0.2-0.1,0.2-0.1c0.1-0.3,0.2-0.7,0.3-1.1
						C63.6,154.3,62.9,152,61.5,150.1z"/>
				</g>
			</g>
		</g>
	</g>
</g>
</svg>
