<?xml version="1.0" encoding="utf-8"?>
<!-- Generator: Adobe Illustrator 24.0.0, SVG Export Plug-In . SVG Version: 6.00 Build 0)  -->
<svg version="1.1" id="Capa_1" xmlns="http://www.w3.org/2000/svg" xmlns:xlink="http://www.w3.org/1999/xlink" x="0px" y="0px"
	 viewBox="0 0 117.8 117.8" style="enable-background:new 0 0 117.8 117.8;" xml:space="preserve">
<style type="text/css">
	.st0{fill:#9B9B9B;}
</style>
<g>
	<path class="st0" d="M113.4,83.3c0,9.5-6.3,18.2-15.4,21.2c-1.1,0.4-2.4,0.7-3.6,0.9c-0.6,0.1-1.2,0.3-1.7,0.4h-0.1H65.8l-0.2-0.1
		c-0.1,0-0.2-0.1-0.2-0.1h-0.1c-8.7-1.3-14.9-6.1-18.5-14.2c-0.8-1.9-1.3-3.8-1.5-5.8h9.3c1.4,6.4,6.9,11,13.7,11h21.9
		c1,0,2-0.1,2.9-0.2c6.6-1.4,11.1-6.9,11.1-13.8V59.9c0-2.8,0-5.6,0-8.4c0-5.4,0-9.3,0-14.8c-0.1-7.2-6.2-13.4-13.3-13.5
		c-7.9-0.1-15.5-0.1-23.4,0C61,23.3,55.2,28.6,54.4,35c0,0.3,0,0.6-0.1,0.9h-9.1c0-0.5,0.1-0.9,0.1-1.4
		c1.1-11.4,10.8-20.3,22.2-20.4c7.8-0.1,15.6-0.1,23.3,0c12.2,0.1,22.5,10.4,22.5,22.5C113.5,53.6,113.5,66.4,113.4,83.3z"/>
	<path class="st0" d="M22.4,66.9c-0.2-0.2-0.5-0.5-0.7-0.7h52.2c1.8,0,3.5-0.9,4.5-2.3c1-1.4,1.2-3.1,0.6-4.7
		c-0.6-2.1-2.6-3.5-4.7-3.7H22.4c0.6-0.6,1.1-1,1.6-1.6c1.6-1.6,3.2-3.1,4.8-4.7c1.7-1.7,2.2-4,1.1-6.1c-1-2.2-3.1-3.5-5.2-3.1
		c-1.1,0.1-2.4,0.6-3.4,1.5c-3.4,3.1-6.7,6.5-10,9.8c-2.1,2.1-3.4,4.6-3.9,7.5c0,0.1-0.1,0.2-0.2,0.2l-0.1,0.2v3.5V63
		c0.5,2.3,1.3,4.9,3.1,7c1,1.1,2,2.2,3.1,3.1c0.3,0.3,0.6,0.6,1,1c1.5,1.6,3.1,3.1,4.6,4.7c0.7,0.7,1.5,1.5,2.2,2.2
		c1,1,2.3,1.6,3.7,1.6c0.7,0,1.5-0.2,2.3-0.5c2-0.9,3.3-2.9,3.1-5.2c-0.2-1.5-0.7-2.7-1.8-3.7C26.5,71.1,24.4,69,22.4,66.9z"/>
</g>
</svg>
