<?xml version="1.0" encoding="utf-8"?>
<!-- Generator: Adobe Illustrator 24.0.0, SVG Export Plug-In . SVG Version: 6.00 Build 0)  -->
<svg version="1.1" id="Capa_1" xmlns="http://www.w3.org/2000/svg" xmlns:xlink="http://www.w3.org/1999/xlink" x="0px" y="0px"
	 viewBox="0 0 161 117.8" style="enable-background:new 0 0 161 117.8;" xml:space="preserve">
<style type="text/css">
	.st0{fill:#FFFFFF;}
</style>
<g>
	<g>
		<g>
			<path class="st0" d="M101,78c-0.4-0.1-0.9-0.1-1.3,0c-4.4-0.5-7.7-3.8-7.7-7.8c0-1.9-1.7-3.5-3.9-3.5s-3.9,1.6-3.9,3.5
				c0,6.7,5,12.5,12.1,14.3v3.5c0,1.9,1.7,3.5,3.9,3.5c2.1,0,3.9-1.6,3.9-3.5v-3.3c8.3-1.6,13.9-8.5,13-16
				c-0.9-7.5-7.9-13.3-16.4-13.3c-4.8,0-8.7-3.5-8.7-7.9s3.9-7.9,8.7-7.9s8.7,3.5,8.7,7.9c0,1.9,1.7,3.5,3.9,3.5
				c2.1,0,3.9-1.6,3.9-3.5c0-7-5.5-13-13.1-14.5v-3.2c0-1.9-1.7-3.5-3.9-3.5c-2.1,0-3.9,1.6-3.9,3.5v3.4c-8,2-13.1,8.9-12,16.2
				c1.1,7.3,8.1,12.8,16.3,12.8c4.8,0,8.7,3.4,8.7,7.7C109.5,74.3,105.7,77.9,101,78z"/>
			<path class="st0" d="M100.7,114.8c30.9,0,55.9-25,55.9-55.9S131.5,3,100.7,3S44.8,28,44.8,58.9C44.8,89.7,69.8,114.7,100.7,114.8
				z M52.5,58.9c0-26.6,21.6-48.2,48.2-48.2s48.2,21.6,48.2,48.2s-21.6,48.2-48.2,48.2C74.1,107,52.5,85.5,52.5,58.9z"/>
			<path class="st0" d="M44.9,55H8.3c-2.1,0-3.9,1.7-3.9,3.9s1.7,3.9,3.9,3.9h36.6c2.1,0,3.9-1.7,3.9-3.9S47,55,44.9,55z"/>
			<path class="st0" d="M53.5,26.1H36.1c-2.1,0-3.9,1.7-3.9,3.9s1.7,3.9,3.9,3.9h17.3c2.1,0,3.9-1.7,3.9-3.9S55.6,26.1,53.5,26.1z"
				/>
			<path class="st0" d="M53.5,83.9H36.1c-2.1,0-3.9,1.7-3.9,3.9s1.7,3.9,3.9,3.9h17.3c2.1,0,3.9-1.7,3.9-3.9S55.6,83.9,53.5,83.9z"
				/>
		</g>
	</g>
</g>
</svg>
