<?xml version="1.0" encoding="utf-8"?>
<!-- Generator: Adobe Illustrator 24.0.0, SVG Export Plug-In . SVG Version: 6.00 Build 0)  -->
<svg version="1.1" id="Capa_1" xmlns="http://www.w3.org/2000/svg" xmlns:xlink="http://www.w3.org/1999/xlink" x="0px" y="0px"
	 viewBox="0 0 117.8 117.8" style="enable-background:new 0 0 117.8 117.8;" xml:space="preserve">
<style type="text/css">
	.st0{fill:#828282;}
</style>
<g>
	<g>
		<path class="st0" d="M10.5,70.3c0.2-1.9,1.3-3.4,2.3-4.9c9.2-13,18.5-25.9,27.6-38.9c1.4-2,3.3-3.2,5.8-3.6
			c7.6-1.2,15.2-2.5,22.8-3.8c0.3-0.1,0.7-0.1,1-0.2c0.2-0.9,0.4-1.8,0.7-2.7c1.3-3.5,3.7-5.9,7.3-7c0.1,0,0.3-0.1,0.4-0.2
			c0.7-0.1,1.5-0.3,2.2-0.4c0.8,0.1,1.6,0.1,2.3,0.2c5.7,0.9,9.4,5.7,9.3,11.8c-0.1,4.5-2,8-5.4,10.8c-0.7,0.5-0.9,1-0.7,1.9
			c1.2,6.8,2.3,13.7,3.5,20.5c0.4,2.4-0.1,4.5-1.5,6.5c-9.5,13.4-19,26.8-28.6,40.2c-2.3,3.2-5.4,3.7-8.6,1.5
			c-12.2-8.7-24.5-17.4-36.7-26.1c-1.4-1-2.8-2.1-3.5-3.7C10.7,71.6,10.6,70.9,10.5,70.3z M76.3,33.8c2.2-0.5,4.2-1.3,6.1-2.4
			c0.6-0.3,0.8-0.6,0.6-1.3c-0.4-2.3-0.8-4.7-1.2-7c-0.4-2.4-1.6-3.3-4-2.9c-10.4,1.8-20.9,3.5-31.3,5.3c-1.6,0.3-2.8,1-3.7,2.3
			c-9.5,13.4-19.1,26.9-28.6,40.3c-1.4,2-1.2,3.5,0.8,4.9c12.4,9,25,17.9,37.5,26.9c2,1.4,3.5,1.2,4.9-0.9
			C67,85.6,76.5,72.2,86.1,58.8c1-1.3,1.3-2.7,1-4.3C86,48,84.9,41.4,83.8,34.8c-0.1-0.3-0.1-0.6-0.1-0.8c-2.3,0.8-4.5,1.6-6.7,2.4
			c-0.2,0.1-0.4,0.4-0.5,0.7c-0.6,2.6-2.1,4.5-4.6,5.3c-2.6,0.8-5,0.3-6.9-1.6c-2.1-2.1-2.6-4.6-1.6-7.4c0.8-2.4,3.3-4.3,5.9-4.4
			C72.4,28.9,74.8,30.4,76.3,33.8z M72.9,18.4c1.6-0.3,3.1-0.5,4.7-0.8c3.5-0.6,6.2,1.3,6.8,4.8c0.3,2,0.7,4,1,6
			c0,0.2,0.1,0.4,0.2,0.7c2.5-2.2,3.9-4.9,4.1-8.2c0.3-5.2-2.9-9.1-7.9-9.6C77.6,10.9,73.3,14.3,72.9,18.4z M73.6,34.4
			c-0.7-2-2.7-3.1-4.7-2.8c-2.1,0.4-3.6,2.3-3.5,4.3c0.1,2.2,1.6,3.9,3.8,4.2c2.1,0.2,3.9-1,4.5-3c-1.2,0-2.5,0.1-3.7,0.1
			c-1,0-1.6-0.5-1.6-1.3s0.6-1.2,1.6-1.3C71.2,34.5,72.4,34.5,73.6,34.4z"/>
		<g>
			<path class="st0" d="M43.2,59c-3-2.2-3.7-6.4-1.5-9.4c2.1-3,6.4-3.7,9.4-1.5c3,2.2,3.7,6.4,1.5,9.4C50.4,60.4,46.2,61.1,43.2,59z
				 M45.3,56.1c1.4,1,3.4,0.7,4.5-0.7c1-1.4,0.7-3.5-0.7-4.5s-3.5-0.7-4.5,0.7C43.5,53.1,43.8,55.1,45.3,56.1z M65.8,60.1L36.7,71.2
				c-0.3,0.1-0.6,0.1-0.8-0.1L34.4,70c-0.5-0.4-0.4-1.2,0.2-1.5l29.1-11.1c0.3-0.1,0.6-0.1,0.8,0.1l1.5,1.1
				C66.5,59.1,66.4,59.9,65.8,60.1z M58.7,79.1c-2.2,3-6.4,3.7-9.4,1.5c-3-2.1-3.7-6.4-1.5-9.4s6.4-3.7,9.4-1.5
				C60.2,71.9,60.8,76.1,58.7,79.1z M55.8,77.1c1-1.4,0.7-3.4-0.7-4.5c-1.4-1-3.4-0.7-4.5,0.7s-0.7,3.5,0.7,4.5
				C52.8,78.8,54.8,78.5,55.8,77.1z"/>
		</g>
	</g>
	<path class="st0" d="M96.7,19.1c0,0.1,0,0.3,0,0.4c0.5,1.3,0.7,2.7,0.6,4.3c-0.2,3.3-1.6,5.9-4.1,8.2c0,0-2.5,1.5-1.9,4.8l0.1,0.8
		c1.1,6.6,1.8,11,3,17.5c0.4,2.2-0.1,5.8-1.9,8c-7.9,10.7-18.1,25.2-29.2,41c-1.3,1.9,1.5,3,2.5,1.2c8.3-14.1,20.5-28.8,30.1-42.2
		c1.4-1.9,1.6-6,1.2-8.3C95.8,48,95,43,93.8,36.1c-0.1-0.9,0-1.3,0.7-1.9c3.4-2.8,5.3-6.4,5.4-10.8c0-1.8-0.3-3.5-0.9-5
		C98.5,17.1,96.5,17.7,96.7,19.1z"/>
	<path class="st0" d="M104,22.1c0,0.1,0,0.3,0,0.4c0.5,1.3,0.7,2.7,0.6,4.3c-0.2,3.3-1.6,5.9-4.1,8.2c0,0-2.5,1.5-1.9,4.8l0.1,0.8
		c1.1,6.6,1.8,11,3,17.5c0.4,2.2-0.1,5.8-1.9,8C92,76.7,81.7,91.2,70.7,107c-1.3,1.9,1.5,3,2.5,1.2c8.3-14.1,20.5-28.8,30.1-42.2
		c1.4-1.9,1.6-6,1.2-8.3c-1.2-6.8-2-11.9-3.2-18.7c-0.1-0.9,0-1.3,0.7-1.9c3.4-2.8,5.3-6.4,5.4-10.8c0-1.8-0.3-3.5-0.9-5
		C105.9,20.1,103.9,20.6,104,22.1z"/>
</g>
</svg>
