<?xml version="1.0" encoding="utf-8"?>
<!-- Generator: Adobe Illustrator 24.0.0, SVG Export Plug-In . SVG Version: 6.00 Build 0)  -->
<svg version="1.1" id="Capa_1" xmlns="http://www.w3.org/2000/svg" xmlns:xlink="http://www.w3.org/1999/xlink" x="0px" y="0px"
	 viewBox="0 0 117.8 117.8" style="enable-background:new 0 0 117.8 117.8;" xml:space="preserve">
<style type="text/css">
	.st0{fill:#828282;}
</style>
<g>
	<g>
		<g>
			<path class="st0" d="M95.3,36c-0.1-0.9,0.1-1.4,0.8-2c3.6-2.9,5.6-6.6,5.8-11.2c0.2-6.3-3.7-11.3-9.6-12.4
				c-0.8-0.1-1.6-0.2-2.4-0.3c-0.8,0.1-1.6,0.2-2.3,0.4c-0.1,0.1-0.3,0.2-0.4,0.2c-3.8,1.1-6.3,3.6-7.7,7.2
				c-0.3,0.9-0.5,1.8-0.8,2.8c-0.4,0.1-0.7,0.1-1.1,0.2c-5.1,0.8-10.2,1.6-15.3,2.4C62,15.4,55.6,9.2,47.7,9.2
				c-8.1,0-14.6,6.5-14.6,14.6c0,5.8,3.4,10.8,8.4,13.2c-7.7,10.6-15.4,21.1-23,31.7c-1.1,1.6-2.2,3.1-2.5,5c0.1,0.7,0.2,1.3,0.3,2
				c0.8,1.7,2.2,2.8,3.7,3.9c12.7,9.2,25.3,18.4,38,27.7c3.3,2.4,6.6,1.9,9-1.4C76.9,91.9,87,78,97.1,64.2c1.5-2.1,2-4.2,1.6-6.7
				C97.6,50.3,96.5,43.1,95.3,36z M91,13c5.2,0.6,8.5,4.7,8.2,10.2c-0.2,3.4-1.8,6.2-4.4,8.5c-0.1-0.3-0.2-0.5-0.2-0.7
				c-0.3-2.1-0.7-4.2-1-6.3c-0.6-3.7-3.4-5.7-7-5.1c-1.6,0.2-3.2,0.5-4.9,0.8C82.2,15.9,86.7,12.5,91,13z M40.1,24.8
				c-0.6,0-1.1-0.5-1.1-1.1s0.5-1.1,1.1-1.1h6.7v-6.7c0-0.6,0.5-1.1,1.1-1.1c0.6,0,1.1,0.5,1.1,1.1v6.7h6.7c0.6,0,1.1,0.5,1.1,1.1
				s-0.5,1.1-1.1,1.1H49v6.7c0,0.6-0.5,1.1-1.1,1.1c-0.6,0-1.1-0.5-1.1-1.1v-6.7H40.1z M95,62.5c-10.1,13.9-20.2,27.8-30.3,41.6
				c-1.5,2.1-3.1,2.4-5.2,0.8c-13-9.5-26-18.9-39-28.4c-2-1.5-2.3-3-0.8-5.1C27.9,60.2,36,49.1,44.2,37.9c1.1,0.3,2.3,0.4,3.5,0.4
				c7.3,0,13.2-5.3,14.4-12.2c8.2-1.3,16.5-2.6,24.7-3.9c2.5-0.4,3.8,0.5,4.2,3c0.4,2.5,0.7,4.9,1.2,7.4c0.1,0.7-0.1,1-0.7,1.3
				c-2,1.1-4.1,1.9-6.4,2.4c-1.5-3.6-3.9-5.2-7.4-5.1c-2.6,0.1-5.3,2-6.2,4.5c-1.1,2.9-0.6,5.5,1.6,7.7c2,2,4.5,2.6,7.2,1.8
				c2.7-0.8,4.3-2.7,4.9-5.5c0.1-0.3,0.3-0.6,0.5-0.7c2.3-0.8,4.6-1.6,7-2.5c0,0.2,0.1,0.5,0.1,0.8c1.1,6.8,2.1,13.7,3.2,20.6
				C96.4,59.7,96,61.1,95,62.5z M78.4,39.8c1.3,0,2.6,0,3.9-0.1c-0.6,2.1-2.5,3.4-4.7,3.1c-2.3-0.3-3.8-2.1-3.9-4.4
				c-0.1-2.1,1.6-4,3.7-4.4c2-0.4,4.2,0.9,4.9,2.9C81,37,79.7,37,78.4,37c-1,0-1.6,0.5-1.6,1.3C76.8,39.2,77.4,39.7,78.4,39.8z"/>
			<path class="st0" d="M64.6,73.6c-3.1-2.3-7.5-1.6-9.8,1.5c-2.3,3.1-1.6,7.5,1.5,9.8c3.1,2.3,7.5,1.6,9.8-1.5
				C68.4,80.3,67.8,75.9,64.6,73.6z M63.2,81.2c-1.1,1.5-3.2,1.8-4.7,0.7c-1.5-1.1-1.8-3.2-0.7-4.7c1.1-1.5,3.2-1.8,4.7-0.7
				C64,77.6,64.3,79.7,63.2,81.2z"/>
			<path class="st0" d="M58.5,50.9c-3.1-2.3-7.5-1.6-9.8,1.5c-2.3,3.1-1.6,7.5,1.5,9.8c3.1,2.3,7.5,1.6,9.8-1.5
				C62.3,57.6,61.7,53.2,58.5,50.9z M57.1,58.5c-1.1,1.5-3.2,1.8-4.7,0.7c-1.5-1.1-1.8-3.2-0.7-4.7c1.1-1.5,3.2-1.8,4.7-0.7
				C57.8,54.9,58.1,57,57.1,58.5z"/>
			<path class="st0" d="M74,62.1L72.4,61c-0.2-0.2-0.5-0.2-0.8-0.1L41.1,72.1c-0.7,0.2-0.8,1.1-0.2,1.5l1.6,1.1
				c0.2,0.2,0.5,0.2,0.8,0.1l30.5-11.2C74.4,63.4,74.5,62.5,74,62.1z"/>
		</g>
	</g>
</g>
</svg>
