<?xml version="1.0" encoding="utf-8"?>
<!-- Generator: Adobe Illustrator 24.0.0, SVG Export Plug-In . SVG Version: 6.00 Build 0)  -->
<svg version="1.1" id="Capa_1" xmlns="http://www.w3.org/2000/svg" xmlns:xlink="http://www.w3.org/1999/xlink" x="0px" y="0px"
	 viewBox="0 0 104.3 80.3" style="enable-background:new 0 0 104.3 80.3;" xml:space="preserve">
<style type="text/css">
	.st0{fill:#828282;}
</style>
<g>
	<g>
		<path class="st0" d="M87.9,70.3c3.1,0,6.1,0,9,0c1.7,0,2.7,0.7,3.1,2.1c0.4,1.5-0.5,3.1-2,3.4c-0.4,0.1-0.9,0.1-1.3,0.1
			c-29.5,0-59,0-88.5,0c-2,0-3.2-0.9-3.4-2.4c-0.3-1.8,1-3.3,3-3.3c2.4,0,4.8,0,7.2,0c0.4,0,0.7,0,1.2,0c0-0.5,0-0.9,0-1.4
			c0-23.2,0-37,0-60.3c0-0.7,0.1-1.4,0.3-2c0.4-0.9,1.2-1.4,2.2-1.5c0.4-0.1,0.7,0,1.1,0c21.5,0,43,0,64.4,0c2,0,3.1,0.7,3.4,2.2
			c0.1,0.5,0.1,1,0.1,1.5c0,23.2,0,37,0,60.2C87.9,69.3,87.9,69.7,87.9,70.3z M82.1,70.2c0-12.8,0-25.5,0-38.2
			c-3.9,1.3-7.3,0.7-10.2-1.9c-3.5,3.1-8.9,3.7-13.3,0c-1.4,1.2-2.9,2.1-4.8,2.4c-1.9,0.3-3.7,0.1-5.6-0.6c0,12.8,0,25.5,0,38.3
			C59.6,70.2,70.9,70.2,82.1,70.2z M42.6,32c-3.8,1.3-7.2,0.7-10.3-1.9c-3.1,2.7-6.5,3.2-10.3,1.9c0,12.8,0,25.5,0,38.2
			c6.9,0,13.7,0,20.5,0C42.6,57.5,42.6,44.8,42.6,32z M48.4,10.7c0,4.4,0,8.7,0,13.1c0,1.7,1.5,3,3.1,3.2c2.6,0.3,4.4-1.3,4.4-3.9
			c0-3.9,0-7.9,0-11.8c0-0.2,0-0.4-0.1-0.6C53.3,10.7,50.9,10.7,48.4,10.7z M22,10.7c0,4.2,0,8.2,0,12.3c0,2.4,1.5,4,3.8,4
			c2.3,0,3.7-1.6,3.7-4.1c0-3.8,0-7.6,0-11.4c0-0.3,0-0.6-0.1-0.9C26.9,10.7,24.5,10.7,22,10.7z M69,10.7c-2.5,0-5,0-7.5,0
			c0,0.2,0,0.4,0,0.6c0,3.9,0,7.9,0,11.8c0,0.4,0.1,0.9,0.2,1.3c0.5,1.7,2.1,2.8,4.1,2.6c1.7-0.2,3.2-1.5,3.2-3.2
			C69.1,19.4,69,15.1,69,10.7z M35.2,10.7c0,4.5-0.1,8.9,0,13.3c0,1.8,1.7,3,3.6,3.1c2.3,0.1,3.8-1.5,3.9-3.9c0-3.9,0-7.8,0-11.7
			c0-0.2-0.1-0.4-0.1-0.7C40.1,10.7,37.7,10.7,35.2,10.7z M74.8,10.7c0,4.5-0.1,8.9,0,13.3c0,1.5,1.5,2.8,3,3c2.6,0.4,4.4-1.2,4.5-4
			c0-3.8,0-7.7,0-11.5c0-0.3-0.1-0.5-0.1-0.8C79.7,10.7,77.3,10.7,74.8,10.7z"/>
		<path class="st0" d="M27.5,48c0.4,0,0.8,0,1.3,0.1c1,0.2,1.6,1.4,1.6,2.8c0,1.4-0.6,2.6-1.6,2.7c-0.8,0.1-1.7,0.1-2.5,0
			c-1-0.1-1.7-1.4-1.7-2.8c0-1.4,0.7-2.5,1.7-2.7C26.6,48,27,48,27.5,48z"/>
	</g>
</g>
</svg>
